<?xml version='1.0' encoding='utf-8'?>
<COLLADA xmlns="http://www.collada.org/2005/11/COLLADASchema" version="1.4.1">
  <asset>
    <contributor>
      <authoring_tool>RM27 reviewed Blender visual export</authoring_tool>
    </contributor>
    <created>2026-10-07T00:00:00Z</created>
    <modified>2026-10-07T00:00:00Z</modified>
    <unit name="meter" meter="1" />
    <up_axis>Z_UP</up_axis>
  </asset>
  <library_effects>
    <effect id="fx">
      <profile_COMMON>
        <technique sid="common">
          <phong>
            <emission>
              <color>0 0 0 1</color>
            </emission>
            <ambient>
              <color>0.156862745 0.137254902 0.129411765 1</color>
            </ambient>
            <diffuse>
              <color>0.156862745 0.137254902 0.129411765 1</color>
            </diffuse>
            <specular>
              <color>0.08 0.08 0.08 1</color>
            </specular>
            <shininess>
              <float>12</float>
            </shininess>
          </phong>
        </technique>
      </profile_COMMON>
    </effect>
  </library_effects>
  <library_materials>
    <material id="mat" name="source_color">
      <instance_effect url="#fx" />
    </material>
  </library_materials>
  <library_geometries>
    <geometry id="geometry" name="geometry">
      <mesh>
        <source id="positions">
          <float_array id="positions-array" count="1677">0.719480872154 2.51514601707 -1.10367703438 0.614829003811 2.61131191254 -1.34034395218 0.715238213539 2.51090288162 -1.10367703438 0.619071722031 2.61555504799 -1.34034395218 0.640284895897 2.59434199333 -1.34034395218 0.719480872154 2.51514601707 -1.15367698669 0.636042177677 2.5900990963 -1.34034395218 0.715238213539 2.51090288162 -1.15367698669 0.683684110641 2.63155293465 -1.30574524403 0.684963881969 2.6302728653 -1.30827200413 0.680819094181 2.62593269348 -1.30721449852 0.679452240467 2.62729907036 -1.30898582935 0.679002165794 2.62774944305 -1.30603480339 0.683109819889 2.63212680817 -1.30835151672 0.746209144592 2.56902742386 -1.1601960659 0.746688187122 2.56854891777 -1.16273081303 0.742665708065 2.56408572197 -1.16144216061 0.74150031805 2.56525111198 -1.16318750381 0.74066478014 2.56608653069 -1.16042268276 0.744609415531 2.57062745094 -1.16172230244 0.710898160934 2.5958533287 -1.23298621178 0.711453855038 2.595297575 -1.23580014706 0.755543291569 2.55120801926 -1.15367698669 0.676347374916 2.63040399551 -1.34034395218 0.755543291569 2.55120801926 -1.10367703438 0.65513420105 2.65161705017 -1.34034395218 0.709511816502 2.59723973274 -1.23455536366 0.715984344482 2.59925246239 -1.23367190361 0.71378672123 2.60144972801 -1.23534727097 0.644251525402 2.61390781403 -1.34034395218 0.650589346886 2.61293554306 -1.34034395218 0.650931715965 2.61290812492 -1.34534394741 0.644232094288 2.61397957802 -1.34534394741 0.656499266624 2.61680793762 -1.34034395218 0.657501518726 2.61846780777 -1.34534394741 0.657549798489 2.62519550323 -1.34034395218 0.656779229641 2.62644100189 -1.34534394741 0.651096522808 2.63223695755 -1.34034395218 0.649416387081 2.63341283798 -1.34534394741 0.637888431549 2.6292757988 -1.34034395218 0.63727581501 2.62127327919 -1.34034395218 0.637190639973 2.62125468254 -1.34534394741 0.637819766998 2.62895798683 -1.34534394741 0.642118930817 2.63305902481 -1.34534394741 0.644544064999 2.63399195671 -1.34034395218 0.601387858391 2.57558751106 -1.34534394741 0.597367465496 2.58035683632 -1.34034395218 0.603309750557 2.57412433624 -1.34034395218 0.610791325569 2.59193229675 -1.34034395218 0.609110832214 2.5931084156 -1.34534394741 0.615496098995 2.58728027344 -1.34534394741 0.616320967674 2.58626866341 -1.34034395218 0.596442520618 2.58353018761 -1.34534394741 0.597133696079 2.58832979202 -1.34034395218 0.599701583385 2.59183287621 -1.34534394741 0.604241549969 2.59368681908 -1.34034395218 0.733265519142 2.52893042564 -1.11653602123 0.73742389679 2.52601790428 -1.11585044861 0.734870672226 2.52346420288 -1.12038373947 0.731233298779 2.52689814568 -1.12101757526 0.737137556076 2.53280186653 -1.11411929131 0.741422772408 2.53001642227 -1.1141191721 0.741135895252 2.5368001461 -1.11585056782 0.747048735619 2.53564214706 -1.11890721321 0.743689060211 2.5393538475 -1.12038362026 0.743827939034 2.53949284554 -1.12909221649 0.746917963028 2.53551197052 -1.13199996948 0.736580610275 2.52517437935 -1.1339840889 0.731272935867 2.5269382 -1.12974631786 0.734732091427 2.5233259201 -1.1290948391 0.734086692333 2.52975153923 -1.13524281979 0.741221427917 2.52981495857 -1.13660657406 0.738487303257 2.53415226936 -1.13632524014 0.741978943348 2.53764390945 -1.13398420811 0.690931558609 2.4865963459 -1.12097191811 0.694570541382 2.48316383362 -1.12034106255 0.694477081299 2.48307061195 -1.12981021404 0.690967679024 2.48663234711 -1.12974524498 0.693781912327 2.48944664001 -1.13524281979 0.698102831841 2.48669672012 -1.13595819473 0.699846923351 2.49551200867 -1.13595807552 0.704167485237 2.49276089668 -1.13524317741 0.703472435474 2.49913740158 -1.12981069088 0.706981599331 2.49557542801 -1.12974691391 0.706974089146 2.4955675602 -1.12049996853 0.703440248966 2.49910521507 -1.12083292007 0.693422675133 2.48908734322 -1.11590015888 0.698552906513 2.48714661598 -1.11450278759 0.697207152843 2.49287176132 -1.11422550678 0.703873991966 2.49246811867 -1.11532795429 0.700991630554 2.49665665627 -1.1159003973 0.674933075905 2.47059798241 -1.1553440094 0.763321518898 2.55191493034 -1.1553440094 0.678468585014 2.46706295013 -1.1553440094 0.759785890579 2.55545091629 -1.1553440094 0.678468585014 2.46706295013 -1.09534394741 0.763321518898 2.55191493034 -1.09534394741 0.674933075905 2.47059798241 -1.09534394741 0.759785890579 2.55545091629 -1.09534394741 0.682004213333 2.63323307037 -1.34034395218 0.597151398659 2.54837989807 -1.34034395218 0.597151398659 2.54837989807 -1.34534394741 0.682004213333 2.63323307037 -1.34534394741 0.66132569313 2.48420596123 -1.16004228592 0.665980875492 2.48803520203 -1.16037917137 0.661845505238 2.48368597031 -1.1624532938 0.665848791599 2.48816776276 -1.16278588772 0.659915626049 2.48561525345 -1.16252946854 0.663993477821 2.49002289772 -1.16202735901 0.635232508183 2.51878428459 -1.2334394455 0.634241878986 2.51977467537 -1.23610901833 0.631132423878 2.51439857483 -1.23432922363 0.629766106606 2.51576519012 -1.23609900475 0.629314720631 2.51621603966 -1.23314857483 0.63321274519 2.52080345154 -1.23406219482 0.599565804005 2.54596447945 -1.30589818954 0.604474544525 2.54954195023 -1.30702018738 0.59999871254 2.54553222656 -1.30822789669 0.603414595127 2.55060148239 -1.30890262127 0.598002493382 2.54752874374 -1.30818283558 0.602245509624 2.55177116394 -1.30661094189 0.679175794125 2.47484111786 -1.10367703438 0.574523985386 2.57100701332 -1.34034395218 0.674933075905 2.47059798241 -1.10367703438 0.578766703606 2.57524991035 -1.34034395218 0.679175794125 2.47484111786 -1.15367698669 0.599979817867 2.55403709412 -1.34034395218 0.595737218857 2.54979395866 -1.34034395218 0.674933075905 2.47059798241 -1.15367698669 0.572402596474 2.573127985 -1.34534394741 0.572402596474 2.573127985 -1.34034395218 0.607873439789 2.57248449326 -1.34534394741 0.614257514477 2.57441568375 -1.34534394741 0.657255470753 2.65798091888 -1.34534394741 0.617813587189 2.58175778389 -1.34534394741 0.657255470753 2.65798091888 -1.34034395218 0.759785890579 2.55545091629 -1.15367698669 0.759785890579 2.55545091629 -1.10367703438 0.680589973927 2.63464689255 -1.34034395218 0.65937680006 2.6558599472 -1.34034395218 0.609080135822 2.57239484787 -1.34034395218 0.614475548267 2.57481050491 -1.34034395218 0.617552399635 2.5799446106 -1.34034395218 0.971210896969 2.26341605186 -1.34034395218 0.86655908823 2.35958194733 -1.10367703438 0.966968297958 2.25917291641 -1.34034395218 0.870801687241 2.36382508278 -1.10367703438 0.945755124092 2.28038597107 -1.34034395218 0.86655908823 2.35958194733 -1.15367698669 0.949997723103 2.28462910652 -1.34034395218 0.870801687241 2.36382508278 -1.15367698669 0.902687489986 2.24284338951 -1.30608832836 0.906981348991 2.24703526497 -1.3088157177 0.902883887291 2.2426469326 -1.30847334862 0.906738102436 2.24727845192 -1.30591058731 0.900849282742 2.24468183517 -1.30760085583 0.905191063881 2.24882531166 -1.30735051632 0.840498387814 2.30503296852 -1.16003513336 0.845258176327 2.30875873566 -1.16037929058 0.840787172318 2.30474352837 -1.16318762302 0.844645321369 2.30937099457 -1.16327178478 0.843412876129 2.3106033802 -1.16117525101 0.839167237282 2.30636334419 -1.16153419018 0.909692585468 2.24432396889 -1.34034395218 0.930905818939 2.22311091423 -1.34034395218 0.876087248325 2.27792906761 -1.2332007885 0.830496609211 2.32351994514 -1.10367703438 0.875935196877 2.27808141708 -1.23591756821 0.830496609211 2.32351994514 -1.15367698669 0.874220430851 2.2797961235 -1.23446142673 0.872262775898 2.27326893806 -1.23418700695 0.871090114117 2.2744410038 -1.23607444763 0.870197296143 2.27533388138 -1.23343932629 0.928259134293 2.2549700737 -1.34034395218 0.930230915546 2.24668002129 -1.34034395218 0.92926043272 2.24828720093 -1.34534394741 0.928386092186 2.25544381142 -1.34534394741 0.932490646839 2.26062965393 -1.34034395218 0.934302568436 2.26171636581 -1.34534394741 0.940563261509 2.26168394089 -1.34034395218 0.941810011864 2.26074695587 -1.34534394741 0.935558617115 2.24204206467 -1.34534394741 0.93714427948 2.24144625664 -1.34034395218 0.942734003067 2.24109721184 -1.34034395218 0.941465318203 2.24091792107 -1.34534394741 0.94754499197 2.2444665432 -1.34534394741 0.948147475719 2.24559736252 -1.34034395218 0.948972761631 2.25327467918 -1.34534394741 0.948877990246 2.25325703621 -1.34034395218 0.989442110062 2.29311060905 -1.34034395218 0.981655418873 2.30145955086 -1.34034395218 0.988747954369 2.29436779022 -1.34534394741 0.982228398323 2.30097103119 -1.34534394741 0.968436777592 2.29024982452 -1.34534394741 0.975247979164 2.2827963829 -1.34034395218 0.97692835331 2.28162026405 -1.34534394741 0.969304919243 2.28903031349 -1.34034395218 0.981800556183 2.28104066849 -1.34034395218 0.984226107597 2.28197383881 -1.34534394741 0.987972617149 2.28514742851 -1.34034395218 0.988923549652 2.28671264648 -1.34534394741 0.838676512241 2.33877015114 -1.12159526348 0.841335356236 2.34142947197 -1.11550736427 0.842499673367 2.33552312851 -1.11945307255 0.846693575382 2.3397166729 -1.11455273628 0.847396731377 2.34749126434 -1.11472344398 0.852184176445 2.34520769119 -1.11550688744 0.851142346859 2.35123682022 -1.12020647526 0.85484367609 2.34786677361 -1.12159478664 0.842212080956 2.33523511887 -1.12909221649 0.839121997356 2.33921599388 -1.13200008869 0.844060897827 2.33708405495 -1.13398420811 0.847552716732 2.34057593346 -1.13632524014 0.844818592072 2.34491300583 -1.13660669327 0.851412832737 2.34443593025 -1.13555085659 0.849011719227 2.34910559654 -1.13443291187 0.854677915573 2.34770059586 -1.13048243523 0.851257383823 2.35135173798 -1.12981247902 0.895111680031 2.38813471794 -1.12101745605 0.891576170921 2.39167094231 -1.12966859341 0.895088076591 2.3881111145 -1.12960803509 0.891474366188 2.39156889915 -1.12038385868 0.882000744343 2.38209486008 -1.13544797897 0.879042208195 2.37913680077 -1.1296081543 0.882619976997 2.37564301491 -1.1303589344 0.886359453201 2.37938284874 -1.13589513302 0.892129063606 2.38515233994 -1.1354483366 0.88829267025 2.38838672638 -1.13567852974 0.8792963624 2.37939071655 -1.11890637875 0.882577896118 2.37560105324 -1.12107789516 0.885122835636 2.37814593315 -1.11573886871 0.884922206402 2.38501620293 -1.1141191721 0.891361892223 2.38438534737 -1.11456537247 0.888921201229 2.38901519775 -1.11585056782 0.822718381882 2.32281303406 -1.1553440094 0.911106824875 2.40412998199 -1.1553440094 0.826254010201 2.31927704811 -1.1553440094 0.907571196556 2.40766596794 -1.1553440094 0.822718381882 2.32281303406 -1.09534394741 0.907571196556 2.40766596794 -1.09534394741 0.911106824875 2.40412998199 -1.09534394741 0.826254010201 2.31927704811 -1.09534394741 0.904035806656 2.24149489403 -1.34034395218 0.988888502121 2.32634806633 -1.34534394741 0.904035806656 2.24149489403 -1.34534394741 0.988888502121 2.32634806633 -1.34034395218 0.924714207649 2.39052200317 -1.16004228592 0.926124274731 2.38911271095 -1.16252946854 0.921940267086 2.38481116295 -1.16246032715 0.919742524624 2.38700914383 -1.160785079 0.924194335938 2.39104223251 -1.16245305538 0.95716714859 2.35806918144 -1.23396706581 0.951898813248 2.35485267639 -1.23613202572 0.952522933483 2.35422873497 -1.23315596581 0.955591261387 2.35964560509 -1.23599660397 0.955118775368 2.36011838913 -1.23357617855 0.950690448284 2.35606074333 -1.23428690434 0.986859738827 2.32837677002 -1.30566036701 0.987003326416 2.32823371887 -1.30914521217 0.983747720718 2.3230035305 -1.30722224712 0.98241174221 2.32433962822 -1.30904960632 0.982149899006 2.32460141182 -1.3058797121 1.011515975 2.30372095108 -1.34034395218 0.906864106655 2.39988708496 -1.10367703438 1.00727295876 2.29947805405 -1.34034395218 0.911106824875 2.40412998199 -1.10367703438 0.986060082912 2.3206911087 -1.34034395218 0.906864106655 2.39988708496 -1.15367698669 0.911106824875 2.40412998199 -1.15367698669 0.990302681923 2.32493400574 -1.34034395218 1.01363694668 2.3015999794 -1.34534394741 1.01363694668 2.3015999794 -1.34034395218 0.928784489632 2.21674704552 -1.34534394741 0.970676660538 2.2992606163 -1.34534394741 0.976656556129 2.30221652985 -1.34534394741 0.928784489632 2.21674704552 -1.34034395218 0.905449986458 2.24008107185 -1.34034395218 0.926663100719 2.2188680172 -1.34034395218 0.826254010201 2.31927704811 -1.10367703438 0.826254010201 2.31927704811 -1.15367698669 0.968747258186 2.29551625252 -1.34034395218 0.973252654076 2.30140542984 -1.34034395218 -0.866559624672 0.929105222225 -1.10367703438 -0.971211373806 1.02527201176 -1.34034395218 -0.870802283287 0.924862504005 -1.10367703438 -0.966968774796 1.02951395512 -1.34034395218 -0.945755600929 1.00830101967 -1.34034395218 -0.866559624672 0.929105222225 -1.15367698669 -0.94999819994 1.00405800343 -1.34034395218 -0.870802283287 0.924862504005 -1.15367698669 -0.901561737061 1.0447177887 -1.30593776703 -0.901695311069 1.04485142231 -1.30903673172 -0.905198514462 1.03986883163 -1.30777347088 -0.906756222248 1.04142689705 -1.30584871769 -0.907023251057 1.04169380665 -1.3086514473 -0.9031432271 1.04629898071 -1.30708730221 -0.839459300041 0.982614994049 -1.16300690174 -0.843753993511 0.978424429893 -1.16277217865 -0.843999564648 0.978669941425 -1.16006457806 -0.841007113457 0.984162926674 -1.16023790836 -0.845569968224 0.980240285397 -1.16223847866 -0.909693181515 1.04436397552 -1.34034395218 -0.830497205257 0.965167701244 -1.15367698669 -0.874641120434 1.00931155682 -1.2331558466 -0.875264883041 1.00993573666 -1.23613202572 -0.830497205257 0.965167701244 -1.10367703438 -0.930906414986 1.06557703018 -1.34034395218 -0.876473248005 1.01114368439 -1.23428666592 -0.87101238966 1.01416814327 -1.23277175426 -0.871298491955 1.01445412636 -1.23623800278 -0.941791892052 1.02786874771 -1.34034395218 -0.933001339436 1.02735590935 -1.34034395218 -0.939848780632 1.02671611309 -1.34534394741 -0.931553900242 1.02871417999 -1.34534394741 -0.928286790848 1.03406274319 -1.34534394741 -0.928207337856 1.03451311588 -1.34034395218 -0.929260313511 1.04039907455 -1.34534394741 -0.929332375526 1.0404188633 -1.34034395218 -0.935578227043 1.04671728611 -1.34034395218 -0.935559332371 1.04664564133 -1.34534394741 -0.949161708355 1.04007232189 -1.34034395218 -0.948037385941 1.03416776657 -1.34034395218 -0.948109209538 1.03418707848 -1.34534394741 -0.949082255363 1.04052305222 -1.34534394741 -0.944367349148 1.04722964764 -1.34034395218 -0.943886220455 1.04745388031 -1.34534394741 -0.988413631916 0.993880569935 -1.34534394741 -0.982654333115 0.988020420074 -1.34034395218 -0.980153441429 0.986410558224 -1.34534394741 -0.988341748714 0.993861138821 -1.34034395218 -0.97588211298 1.00641095638 -1.34034395218 -0.977825641632 1.00756394863 -1.34534394741 -0.969123959541 0.999500751495 -1.34534394741 -0.968412518501 0.998150467873 -1.34034395218 -0.989466786385 0.999767124653 -1.34034395218 -0.989387333393 1.00021767616 -1.34534394741 -0.984672605991 1.00692415237 -1.34034395218 -0.98612010479 1.00556600094 -1.34534394741 -0.854844272137 0.940820515156 -1.12159502506 -0.852605104446 0.943059742451 -1.11608934402 -0.851143062115 0.937450647354 -1.12020671368 -0.846887648106 0.941706180573 -1.11434531212 -0.846633732319 0.949031054974 -1.11434531212 -0.840916097164 0.947677671909 -1.11608934402 -0.842378258705 0.953286588192 -1.12020659447 -0.838677048683 0.949916779995 -1.12159514427 -0.842262983322 0.95340180397 -1.1298109293 -0.838964760303 0.94962900877 -1.1312353611 -0.848117589951 0.940476238728 -1.1354881525 -0.854556620121 0.941108286381 -1.13123524189 -0.851258277893 0.93733549118 -1.12981116772 -0.850361645222 0.945303201675 -1.13613474369 -0.843159615993 0.945434093475 -1.13613474369 -0.845403671265 0.950261116028 -1.1354881525 -0.895149350166 0.900515377522 -1.12159490585 -0.89144808054 0.897145688534 -1.12020647526 -0.891613781452 0.896979928017 -1.12909269333 -0.895072579384 0.900592207909 -1.12974643707 -0.88976508379 0.898828685284 -1.13398396969 -0.892258644104 0.903406202793 -1.13524281979 -0.886273026466 0.902320802212 -1.13632524014 -0.887858510017 0.90780633688 -1.13632524014 -0.88187289238 0.906720876694 -1.13524281979 -0.884366452694 0.911298394203 -1.13398396969 -0.879058897495 0.909534811974 -1.12974643707 -0.882517576218 0.913147211075 -1.12909245491 -0.878982126713 0.909611582756 -1.12159514427 -0.882683336735 0.912981450558 -1.12020647526 -0.892490148544 0.903174698353 -1.11550712585 -0.887192606926 0.901401162148 -1.11434519291 -0.88642925024 0.909235537052 -1.11472332478 -0.881221175194 0.90737259388 -1.11608946323 -0.911107420921 0.884557425976 -1.1553440094 -0.822719097137 0.965874791145 -1.1553440094 -0.907571792603 0.881021916866 -1.1553440094 -0.826254487038 0.969410181046 -1.1553440094 -0.907571792603 0.881021916866 -1.09534394741 -0.822719097137 0.965874791145 -1.09534394741 -0.911107420921 0.884557425976 -1.09534394741 -0.826254487038 0.969410181046 -1.09534394741 -0.904036283493 1.0471919775 -1.34034395218 -0.988889098167 0.962339222431 -1.34034395218 -0.988889098167 0.962339222431 -1.34534394741 -0.904036283493 1.0471919775 -1.34534394741 -0.925332665443 0.898782670498 -1.15993261337 -0.919677257538 0.901612520218 -1.16138136387 -0.924121081829 0.897571265697 -1.16252112389 -0.920966386795 0.902901649475 -1.16312122345 -0.921882152557 0.903817415237 -1.16071689129 -0.925896942616 0.899347007275 -1.16264462471 -0.951331138611 0.9332665205 -1.23296225071 -0.950954318047 0.932889699936 -1.23553133011 -0.955348670483 0.928798735142 -1.23309195042 -0.955869853497 0.929319918156 -1.23619699478 -0.952868402004 0.934803724289 -1.23518311977 -0.957046210766 0.93049621582 -1.23416101933 -0.982071340084 0.964006662369 -1.30597889423 -0.982512295246 0.964447557926 -1.30910611153 -0.986679673195 0.960129857063 -1.30912482738 -0.987184643745 0.960634708405 -1.30566716194 -0.983711123466 0.965646505356 -1.3069653511 -0.906864702702 0.888800084591 -1.10367703438 -1.01151704788 0.984966576099 -1.34034395218 -0.911107420921 0.884557425976 -1.10367703438 -1.00727403164 0.98920917511 -1.34034395218 -0.986060678959 0.967996001244 -1.34034395218 -0.906864702702 0.888800084591 -1.15367698669 -0.990303277969 0.963753402233 -1.34034395218 -0.911107420921 0.884557425976 -1.15367698669 -1.01363801956 0.987088024616 -1.34534394741 -1.01363801956 0.987088024616 -1.34034395218 -0.969922780991 0.9898904562 -1.34534394741 -0.928785026073 1.0719410181 -1.34534394741 -0.928785026073 1.0719410181 -1.34034395218 -0.826254487038 0.969410181046 -1.15367698669 -0.826254487038 0.969410181046 -1.10367703438 -0.9054505229 1.04860603809 -1.34034395218 -0.926663696766 1.06981897354 -1.34034395218 -0.970852017403 0.989196956158 -1.34034395218 -0.977346479893 0.986410856247 -1.34034395218 -0.614829719067 0.677375078201 -1.34034395218 -0.719481408596 0.773541688919 -1.10367703438 -0.619072318077 0.6731325984 -1.34034395218 -0.715238809586 0.777784407139 -1.10367703438 -0.640285491943 0.694345712662 -1.34034395218 -0.719481408596 0.773541688919 -1.15367698669 -0.636042773724 0.698588371277 -1.34034395218 -0.715238809586 0.777784407139 -1.15367698669 -0.678739547729 0.660674929619 -1.30630123615 -0.680697739124 0.662633121014 -1.30849099159 -0.682802855968 0.656252980232 -1.30794048309 -0.684479534626 0.65792953968 -1.30593788624 -0.684773564339 0.658223569393 -1.30841863155 -0.745942354202 0.719392478466 -1.16000211239 -0.740336477757 0.72227191925 -1.16182684898 -0.744771778584 0.718221902847 -1.16241431236 -0.742267906666 0.724203228951 -1.16036975384 -0.742287158966 0.724222540855 -1.16277205944 -0.746770918369 0.720220923424 -1.16246306896 -0.709953248501 0.69188863039 -1.2332007885 -0.755543887615 0.7374792099 -1.10367703438 -0.655134797096 0.637070119381 -1.34034395218 -0.710465848446 0.692401230335 -1.2362190485 -0.676347911358 0.658283293247 -1.34034395218 -0.755543887615 0.7374792099 -1.15367698669 -0.711652517319 0.693587779999 -1.23394393921 -0.713952064514 0.687402069569 -1.23333585262 -0.715816795826 0.68926680088 -1.23568296432 -0.657933175564 0.666997492313 -1.34534394741 -0.657139718533 0.662837386131 -1.34034395218 -0.656323492527 0.661689519882 -1.34534394741 -0.657026767731 0.671238958836 -1.34034395218 -0.656097054482 0.672143876553 -1.34534394741 -0.651689291 0.675456762314 -1.34534394741 -0.649822771549 0.675974726677 -1.34034395218 -0.644839763641 0.675137579441 -1.34534394741 -0.643691718578 0.674321234226 -1.34034395218 -0.65109872818 0.656451523304 -1.34034395218 -0.649416804314 0.65527433157 -1.34534394741 -0.644545972347 0.65469545126 -1.34034395218 -0.642819464207 0.655416250229 -1.34534394741 -0.638126254082 0.659013330936 -1.34534394741 -0.637889325619 0.659410953522 -1.34034395218 -0.637191295624 0.66743272543 -1.34534394741 -0.63727658987 0.667414605618 -1.34034395218 -0.596857428551 0.707521796227 -1.34034395218 -0.603944599628 0.715083420277 -1.34034395218 -0.597627520561 0.708766281605 -1.34534394741 -0.605887770653 0.716236412525 -1.34534394741 -0.6164752841 0.702552258968 -1.34534394741 -0.610715925694 0.696692287922 -1.34034395218 -0.608215391636 0.69508254528 -1.34534394741 -0.617628335953 0.704495489597 -1.34034395218 -0.605408370495 0.695082843304 -1.34034395218 -0.600591123104 0.69668841362 -1.34534394741 -0.598283112049 0.698409020901 -1.34034395218 -0.596753418446 0.701610982418 -1.34534394741 -0.74704939127 0.753044843674 -1.11890721321 -0.741136074066 0.751887083054 -1.11585021019 -0.743689775467 0.749333381653 -1.12038433552 -0.741423249245 0.758670985699 -1.1141191721 -0.737137675285 0.755885481834 -1.1141191721 -0.737424790859 0.76266938448 -1.11585021019 -0.73151153326 0.761511683464 -1.11890721321 -0.734871089458 0.76522308588 -1.12038445473 -0.743777990341 0.749245107174 -1.12981116772 -0.747076332569 0.75301784277 -1.1312353611 -0.740152180195 0.752870798111 -1.13595819473 -0.742881417274 0.757212758064 -1.13613474369 -0.734087586403 0.758935511112 -1.135242939 -0.737390100956 0.762704074383 -1.13517832756 -0.731273591518 0.761749625206 -1.12974643707 -0.734732329845 0.765361905098 -1.1290923357 -0.691206455231 0.801816701889 -1.11890697479 -0.6944642663 0.805629909039 -1.12966871262 -0.690952420235 0.80207079649 -1.12960767746 -0.694566071033 0.805528104305 -1.12038397789 -0.700202822685 0.792820334435 -1.13567852974 -0.704039573669 0.796054661274 -1.13544809818 -0.703486442566 0.789536714554 -1.12966835499 -0.706998407841 0.793095827103 -1.12960755825 -0.693911254406 0.799111843109 -1.13544821739 -0.697747886181 0.802346229553 -1.13567852974 -0.706744253635 0.793349921703 -1.118907094 -0.703384637833 0.789638459682 -1.12038445473 -0.70083117485 0.792191922665 -1.1158503294 -0.701117992401 0.798976123333 -1.1141191721 -0.696832537651 0.796190559864 -1.1141191721 -0.69711959362 0.802974641323 -1.1158503294 -0.763322114944 0.736772119999 -1.1553440094 -0.674933671951 0.818089425564 -1.1553440094 -0.759786605835 0.733236610889 -1.1553440094 -0.678469181061 0.821624875069 -1.1553440094 -0.763322114944 0.736772119999 -1.09534394741 -0.678469181061 0.821624875069 -1.09534394741 -0.674933671951 0.818089425564 -1.09534394741 -0.759786605835 0.733236610889 -1.09534394741 -0.68200480938 0.655454874039 -1.34034395218 -0.597151875496 0.740307688713 -1.34534394741 -0.68200480938 0.655454874039 -1.34534394741 -0.597151875496 0.740307688713 -1.34034395218 -0.659726321697 0.80288207531 -1.16182684898 -0.665474772453 0.800145149231 -1.16327559948 -0.664166629314 0.798837184906 -1.16089081764 -0.661748290062 0.804904043674 -1.16043663025 -0.66600394249 0.800674378872 -1.16054773331 -0.661591231823 0.804746985435 -1.16283428669 -0.629074573517 0.772230267525 -1.23343920708 -0.630165994167 0.773321688175 -1.23613202572 -0.633128523827 0.767798960209 -1.23432052135 -0.634834527969 0.769505023956 -1.23597633839 -0.634868443012 0.769538879395 -1.23314917088 -0.631042182446 0.774197936058 -1.23394370079 -0.597879648209 0.741035342216 -1.30760073662 -0.603528916836 0.738199293613 -1.30910611153 -0.602329909801 0.737000405788 -1.30696547031 -0.603969812393 0.73864030838 -1.30597889423 -0.599717915058 0.742873609066 -1.30608808994 -0.599914491177 0.74307012558 -1.30847346783 -0.574524521828 0.71768027544 -1.34034395218 -0.679176270962 0.813846707344 -1.10367703438 -0.578767180443 0.713437616825 -1.34034395218 -0.674933671951 0.818089425564 -1.10367703438 -0.599980413914 0.734650790691 -1.34034395218 -0.679176270962 0.813846707344 -1.15367698669 -0.674933671951 0.818089425564 -1.15367698669 -0.595737695694 0.738893389702 -1.34034395218 -0.572403311729 0.715559005737 -1.34534394741 -0.572403311729 0.715559005737 -1.34034395218 -0.657256007195 0.630706071854 -1.34534394741 -0.617498099804 0.708065092564 -1.34534394741 -0.614842236042 0.713796854019 -1.34534394741 -0.657256007195 0.630706071854 -1.34034395218 -0.659377276897 0.63282752037 -1.34034395218 -0.680590629578 0.654040575027 -1.34034395218 -0.759786605835 0.733236610889 -1.10367703438 -0.759786605835 0.733236610889 -1.15367698669 -0.615189015865 0.713450014591 -1.34034395218 -0.60945725441 0.716106116772 -1.34034395218</float_array>
          <technique_common>
            <accessor source="#positions-array" count="559" stride="3">
              <param name="X" type="float" />
              <param name="Y" type="float" />
              <param name="Z" type="float" />
            </accessor>
          </technique_common>
        </source>
        <source id="normals">
          <float_array id="normals-array" count="3003">-0.99694276 0.07632297 -0.01673012 -0.99531209 0.09492439 -0.01853049 -0.99316174 0.1102888 0.03829103 -0.99100673 -0.02273192 0.13186708 -0.9879756 -0.15179394 0.02937232 -0.98748326 -0.08945579 0.12990147 -0.98523182 -0.1203574 0.12178735 -0.98375279 0.15946308 0.08247432 -0.98339921 0.08174154 0.1620011 -0.9822461 -0.18711668 -0.01341598 -0.98014385 0.12276176 -0.15571667 -0.9751628 0.17995258 -0.12912993 -0.97450483 -0.18975748 -0.11971847 -0.96818107 0.15147085 -0.19920351 -0.9551326 0.26023811 -0.1414139 -0.91959566 -0.38590422 0.07363229 -0.89449412 0.43323925 0.11038154 -0.85775465 0.51404935 -0.00318761 -0.85677809 0.51259798 -0.05634409 -0.84868103 0.51840717 -0.10485548 -0.83027542 0.55613065 -0.03689967 -0.80933499 0.5842666 0.06007935 -0.80012977 0.58877391 0.11461912 -0.78489327 -0.61947286 0.01399884 -0.77964056 0.60781884 0.15072043 -0.77870721 0.62245858 0.07848807 -0.75363445 0.60511148 -0.25666168 -0.74427074 -0.66654921 0.04210997 -0.74069953 0.66736197 0.07740857 -0.73961246 -0.66879886 -0.07537558 -0.73820531 -0.67439824 -0.01548884 -0.73672521 -0.67581666 -0.02253552 -0.7367121 -0.67583174 -0.02251343 -0.73612678 -0.67463744 -0.0546048 -0.73343217 0.61669934 0.28593564 -0.73261458 -0.68047917 -0.01496357 -0.73092377 0.67227215 -0.11747579 -0.73049819 0.67306036 -0.11559448 -0.72951889 -0.68039024 -0.06979489 -0.72942942 0.64311403 0.23310308 -0.72840929 -0.68270534 -0.05773505 -0.72710335 -0.68602067 0.02638789 -0.72518271 0.65798998 -0.2028773 -0.72474307 -0.68832064 -0.03101945 -0.72103882 -0.69276673 0.01331554 -0.72098792 -0.69112217 -0.05026421 -0.71731222 0.63633657 0.28379375 -0.71532601 -0.6984027 -0.02329225 -0.71235681 -0.70181644 -0.00117571 -0.71190995 -0.70226008 0.00388556 -0.71173805 -0.70226359 -0.01596855 -0.71154237 -0.70252472 -0.01290041 -0.71112889 -0.70226026 -0.03355781 -0.71004426 -0.70411772 -0.00744677 -0.70917153 0.36735144 -0.60177124 -0.70888513 -0.70369726 0.04787447 -0.70794505 -0.70626724 -0.0005529 -0.70771295 -0.70649999 0.00053505 -0.70762926 0.70145226 0.08500369 -0.70729721 -0.70691633 0.00017472 -0.7072404 -0.7069549 -0.00507008 -0.70723289 -0.70698071 -9.229e-05 -0.70719463 -0.70701885 0.00013361 -0.70718783 -0.70702571 -0.00012759 -0.70718622 -0.70702732 0 -0.70717722 -0.70703644 -0.00018971 -0.70716268 -0.70705086 2.833e-05 -0.70716161 -0.70705193 -1.411e-05 -0.70715952 -0.70705414 8.73e-06 -0.70715916 -0.70705438 -3.683e-05 -0.70715815 -0.70705545 4.823e-05 -0.70715582 -0.70705771 -2.802e-05 -0.70715374 -0.70705986 3.482e-05 -0.70715362 -0.70705992 2.56e-06 -0.70714957 -0.70706397 -3.959e-05 -0.70714647 0.70706695 -0.00040453 -0.70714509 0.70706558 0.00202216 -0.70714468 -0.70706898 5.991e-05 -0.70714426 0.70706922 3.346e-05 -0.70714426 0.70706934 4.145e-05 -0.70714271 0.70707083 -4.482e-05 -0.70714259 -0.70707107 0 -0.70714253 -0.70707101 0 -0.70714247 -0.70707101 0 -0.70714194 -0.7070716 -2.595e-05 -0.70714158 0.70707202 0 -0.70714152 0.70707196 0 -0.70714045 -0.70707315 3.319e-05 -0.70713872 0.70707488 4.777e-05 -0.70713657 -0.70707697 0 -0.70713639 -0.70707715 -2.86e-06 -0.70713627 -0.70707726 2.522e-05 -0.7071321 -0.70708156 -1.759e-05 -0.70713162 0.70708197 0 -0.70713151 0.70708191 0 -0.70713061 -0.70708293 3.462e-05 -0.70712942 0.70708412 7.359e-05 -0.70712739 0.70708603 -5.697e-05 -0.70712578 0.70708764 1.774e-05 -0.70712495 -0.70708865 1.187e-05 -0.70712483 -0.70708877 -1.284e-05 -0.70712483 -0.70708877 1.999e-05 -0.70712459 -0.70708895 -1.104e-05 -0.70712459 0.70708895 5.117e-05 -0.70712423 -0.7070893 -1.181e-05 -0.70712256 -0.70709097 1.316e-05 -0.70712245 0.70709109 -5.755e-05 -0.70712095 0.70709252 -3.732e-05 -0.70712066 -0.70709288 1.056e-05 -0.7071206 -0.70709306 7.45e-06 -0.70712048 -0.70709312 -1.524e-05 -0.70712024 0.70709336 -4.364e-05 -0.70711988 -0.70709372 0 -0.70711881 -0.70709473 -1.021e-05 -0.70711863 -0.70709497 7.22e-06 -0.70711815 0.70709532 3.587e-05 -0.70711768 -0.70709592 1.067e-05 -0.70711696 -0.7070967 -8.04e-06 -0.70711637 -0.70709711 -5.63e-06 -0.70711619 0.70709735 -1.453e-05 -0.70711619 0.70709741 8.18e-06 -0.70711434 -0.7070992 7.82e-06 -0.70711428 -0.70709932 6.05e-06 -0.70711398 -0.7070995 3.78e-06 -0.70711339 0.70710015 1.819e-05 -0.70711267 -0.70710093 -3.85e-06 -0.70711231 -0.70710117 2.12e-06 -0.70711225 -0.70710135 7.38e-06 -0.7071119 0.70710158 5.07e-06 -0.7071119 0.70710164 -9.4e-06 -0.70711178 0.70710182 -5.297e-05 -0.70711172 0.70710182 0.00026624 -0.70711166 0.70710182 9.46e-06 -0.7071113 -0.70710224 -3.83e-06 -0.70711106 -0.70710242 3.05e-06 -0.70711094 0.7071026 -1.918e-05 -0.7071107 -0.70710284 2.87e-06 -0.70711058 0.70710295 3.76e-06 -0.70711035 0.70710319 0 -0.70711017 0.70710337 2.3e-06 -0.70710999 -0.70710349 -3.31e-06 -0.70710993 -0.70710367 -3.04e-06 -0.70710981 0.70710373 1.59e-05 -0.70710981 0.70710385 2.405e-05 -0.70710975 -0.70710373 8.6e-07 -0.70710969 -0.70710385 2.03e-06 -0.70710957 0.70710397 -6.059e-05 -0.70710945 -0.70710415 3.53e-06 -0.70710927 -0.70710433 -2.85e-06 -0.70710927 0.70710427 -5.63e-06 -0.70710891 -0.70710462 -2.53e-06 -0.70710874 -0.70710474 2.38e-06 -0.70710874 0.7071048 0 -0.70710862 -0.70710492 9.2e-07 -0.7071085 0.70710516 -5.25e-06 -0.70710844 0.70710516 1.89e-06 -0.70710778 -0.70710582 -2.5e-07 -0.70710766 -0.70710599 0 -0.7071076 0.70710593 -8.63e-06 -0.70710748 -0.70710617 2.3e-07 -0.70710737 0.70710617 1.11e-06 -0.70710737 0.70710617 2.082e-05 -0.70710731 -0.70710629 7.7e-07 -0.70710731 0.70710617 3.012e-05 -0.70710731 0.70710623 -6.15e-06 -0.70710731 0.70710629 -2.659e-05 -0.70710731 0.70710629 -5.61e-06 -0.70710731 0.70710629 1.015e-05 -0.70710725 0.70710623 1.49e-05 -0.70710725 0.70710635 0.00012381 -0.70710719 0.70710641 -6.39e-06 -0.70710707 0.70710659 0 -0.70710701 -0.70710653 -1.02e-06 -0.70710701 -0.70710653 0 -0.70710701 0.70710647 9.36e-06 -0.70710701 0.70710653 -1.91e-06 -0.70710701 0.70710653 2.75e-06 -0.70710695 -0.70710647 -7.8e-07 -0.70710695 0.70710665 -7.85e-06 -0.70710695 0.70710671 4.7e-06 -0.70710683 -0.70710683 0 -0.70710683 -0.70710683 9.1e-07 -0.70710683 0.70710683 0 -0.70710683 0.70710683 2.602e-05 -0.70710677 -0.70710677 -1.686e-05 -0.70710677 -0.70710677 0 -0.70710677 0.70710677 -2.43e-06 -0.70710677 0.70710677 0 -0.70710677 0.70710683 3.94e-06 -0.70710665 -0.70710689 3.3e-07 -0.70710653 -0.70710707 0 -0.70710647 0.70710713 5.215e-05 -0.70710641 0.70710725 -1.43e-06 -0.70710635 0.70710725 -1.14e-06 -0.70710629 -0.70710725 -1.59e-06 -0.70710629 0.70710731 0 -0.70710623 -0.70710731 1.6e-06 -0.70710623 0.70710731 9.2e-07 -0.70710623 0.70710737 9.7e-07 -0.70710617 0.70710737 6.8e-07 -0.70710611 0.70710754 -9.733e-05 -0.70710605 0.70710754 1.76e-06 -0.70710599 0.70710748 1.9e-07 -0.70710599 0.70710748 7.92e-06 -0.70710582 -0.70710778 8.4e-07 -0.70710576 -0.70710772 2.3e-07 -0.70710558 0.70710808 -1.051e-05 -0.70710552 0.70710796 -8.26e-06 -0.70710552 0.70710802 -4.35e-06 -0.7071051 -0.7071085 9.5e-07 -0.7071051 -0.7071085 1e-06 -0.7071051 0.70710844 -8.82e-06 -0.70710498 0.70710862 0 -0.70710492 -0.70710856 0 -0.70710492 0.70710874 -5.84e-06 -0.70710486 -0.7071088 1.15e-06 -0.7071048 -0.70710874 -1.73e-06 -0.70710462 -0.70710891 1.92e-06 -0.7071045 -0.70710909 1.91e-06 -0.7071045 -0.70710903 -2.02e-06 -0.7071045 -0.70710897 4.21e-06 -0.70710438 0.70710921 -4.47e-06 -0.70710433 -0.70710915 8.9e-07 -0.70710427 0.70710927 0 -0.70710415 0.70710945 0 -0.70710409 0.70710939 6.01e-06 -0.70710403 -0.70710951 -3.42e-06 -0.70710397 0.70710951 -1.168e-05 -0.70710379 -0.70710987 0 -0.70710379 -0.70710981 -5.82e-06 -0.70710367 -0.70710987 0 -0.70710367 0.70710981 5.72e-06 -0.70710361 -0.70710993 2.9e-06 -0.70710313 0.70711035 1.031e-05 -0.70710295 0.70711064 -3.44e-06 -0.70710266 0.70711076 3.347e-05 -0.70710266 0.70711088 -4.268e-05 -0.70710266 0.70711088 -2.948e-05 -0.70710266 0.70711088 4.95e-06 -0.7071026 0.70711082 -0.00032042 -0.70710236 -0.70711124 1.72e-05 -0.70710194 -0.70711172 5.14e-06 -0.70710182 0.70711172 0 -0.70710182 0.70711178 0 -0.70710176 0.70711178 4.81e-06 -0.70710158 0.70711207 -3.38e-06 -0.70710152 0.70711207 1.28e-06 -0.70710135 0.70711219 0 -0.70710099 0.70711255 1.362e-05 -0.70710081 -0.70711279 -4.51e-06 -0.70710045 -0.70711315 6.46e-06 -0.70710039 0.70711321 -0.0002095 -0.70710039 0.70711327 -5.48e-06 -0.70710033 -0.70711321 -7.83e-06 -0.70710033 0.70711315 3.961e-05 -0.70710021 -0.70711327 -1.438e-05 -0.70710003 -0.70711362 -4.2e-06 -0.7070998 0.7071138 1.139e-05 -0.70709872 0.70711476 2.5e-06 -0.70709866 -0.70711505 -7.44e-06 -0.70709842 -0.70711505 -6.83e-06 -0.70709825 -0.70711535 7.11e-06 -0.70709801 0.70711559 1.8e-07 -0.70709795 0.70711565 1e-07 -0.70709789 0.70711571 7.86e-06 -0.70709789 0.70711583 0 -0.70709783 0.70711571 0 -0.70709771 -0.70711583 4e-08 -0.70709735 -0.70711619 2.791e-05 -0.70709699 0.70711648 -5.266e-05 -0.70709682 -0.70711666 -4.375e-05 -0.70709664 -0.70711696 -9.05e-06 -0.70709646 -0.7071169 -1.098e-05 -0.7070964 0.7071172 1.43e-06 -0.70709509 -0.70711851 -1.353e-05 -0.70709491 -0.70711875 0 -0.70709485 -0.70711869 0 -0.70709485 -0.70711869 4.384e-05 -0.70709479 -0.70711869 0 -0.70709366 -0.70711982 0 -0.70709348 -0.70712 -1.106e-05 -0.70709175 -0.70712185 2.252e-05 -0.70709145 0.70712209 0.00011564 -0.70709085 -0.7071228 -1.122e-05 -0.70709074 -0.70712286 -1.479e-05 -0.70709062 0.70712298 0 -0.70708966 -0.70712388 1.449e-05 -0.7070896 -0.70712394 -1.312e-05 -0.70708853 -0.70712513 2.069e-05 -0.70708853 -0.70712507 1.711e-05 -0.70708823 -0.70712537 -7.39e-06 -0.70708728 -0.7071262 -1.89e-05 -0.70708692 0.70712662 0 -0.70708692 0.70712668 0 -0.70708638 -0.70712715 -1.841e-05 -0.70708627 -0.70712739 6.71e-06 -0.70708627 -0.70712733 -1.797e-05 -0.70708597 -0.70712769 -1.822e-05 -0.70708585 -0.70712763 1.58e-05 -0.7070843 0.70712924 0 -0.70708275 -0.70713073 1.11e-05 -0.70708233 -0.70713115 -2.033e-05 -0.70708179 0.70713174 -2.813e-05 -0.70707959 -0.70713395 2.321e-05 -0.70707911 -0.70713449 -2.198e-05 -0.70707756 0.70713598 -9.37e-06 -0.70707709 -0.70713651 -1.511e-05 -0.70707697 -0.70713657 0 -0.70707548 -0.70713812 2.158e-05 -0.70707381 -0.70713967 2.869e-05 -0.70707303 -0.70714051 -1.726e-05 -0.70707172 0.70714176 6.207e-05 -0.70707023 -0.70714325 -3.043e-05 -0.70706975 -0.70714378 -3.094e-05 -0.70705998 -0.70715356 6.465e-05 -0.70705909 -0.70715445 0 -0.70705903 -0.70715439 0 -0.70705795 -0.70715559 3.963e-05 -0.70705426 -0.70715922 4.144e-05 -0.70703727 -0.70717633 0 -0.70703387 -0.70717961 -6.419e-05 -0.70703363 -0.70718002 6.094e-05 -0.70701736 -0.70719624 0 -0.70700216 -0.70721126 7.015e-05 -0.70699912 -0.70721442 8.958e-05 -0.70699787 -0.70721567 -9.521e-05 -0.70699602 -0.70721757 -0.00016146 -0.70699561 -0.70721781 -9.026e-05 -0.7069754 -0.70723808 -7.082e-05 -0.70696408 -0.70724946 -2.956e-05 -0.70696265 -0.70725083 -0.00015956 -0.70694482 -0.70726866 7.809e-05 -0.70694238 -0.70727116 -0.00013795 -0.70693868 0.70727485 0.0002066 -0.70692903 -0.70728445 0.00011852 -0.70687449 -0.70733899 0.00018966 -0.70675665 -0.70745677 -0.00017647 -0.70605785 0.68062854 0.19551758 -0.70412445 -0.71003687 0.00751326 -0.69625622 0.70643216 -0.12720402 -0.69257021 0.55365318 0.46240106 -0.68813324 0.53124124 0.4942221 -0.68785673 -0.72568065 -0.01551771 -0.6863178 -0.72480911 0.06016372 -0.6789068 -0.5411911 -0.49618313 -0.67889488 -0.54120451 -0.49618474 -0.6783877 -0.73423135 -0.02635123 -0.67663437 -0.7302137 0.09462558 -0.67660552 -0.7361514 -0.01690937 -0.6766004 -0.73615515 -0.01695194 -0.67321122 -0.73756486 0.05277263 -0.67280114 -0.52363867 -0.52262908 -0.66806519 -0.73872674 0.08928382 -0.65583867 0.48545536 -0.57810795 -0.6410802 0.75755596 0.12298421 -0.63627571 0.76541018 -0.09643906 -0.63451087 -0.50625819 0.58403647 -0.6202721 0.72847313 -0.29084283 -0.6170401 0.77648222 -0.12781544 -0.60938829 0.49325612 0.62076098 -0.60903108 -0.49343383 -0.62097031 -0.60692209 0.75355315 -0.25259283 -0.60637754 0.60630089 -0.51449537 -0.60637307 0.6063056 0.51449502 -0.60636914 0.60630953 0.51449507 -0.60636908 0.60630947 0.51449507 -0.60636085 0.60631812 0.51449472 -0.60636073 0.60631812 -0.51449496 -0.60636067 0.60631812 0.51449496 -0.60636061 0.606318 -0.51449519 -0.60636055 0.60631794 -0.51449519 -0.60635239 0.60632676 0.51449448 -0.60635209 0.60632652 -0.51449519 -0.60634804 0.60633093 -0.51449478 -0.60634768 0.60633063 -0.51449549 -0.60634297 0.6063351 0.51449585 -0.60633934 0.60633934 -0.51449513 -0.6063351 0.60634297 0.51449585 -0.6063351 0.60634363 -0.51449507 -0.60633069 0.60634774 -0.51449537 -0.60632223 0.60635597 0.51449561 -0.60630935 0.60636896 0.51449555 -0.60629272 0.60638642 0.51449454 -0.60628414 0.60639489 0.51449478 -0.60555708 0.79008693 -0.09520116 -0.60449958 -0.53978682 0.58584172 -0.59303015 -0.65306085 0.47098488 -0.59211135 0.77261329 0.22906962 -0.59177995 0.26106229 0.7626552 -0.58648658 -0.50423098 -0.63386482 -0.5854013 -0.4910174 -0.64514142 -0.5836336 -0.56586963 0.58237743 -0.58362865 -0.56589097 0.58236152 -0.58222967 -0.56309712 0.58645576 -0.58177781 -0.45977077 0.67092884 -0.58169091 0.76298088 0.28195012 -0.57764214 0.81542951 -0.0374747 -0.56536019 -0.63635868 0.5248006 -0.56438738 0.53891408 -0.62533063 -0.56018418 0.78463697 -0.26559108 -0.55914348 0.41192129 0.71949947 -0.55159396 -0.60503811 -0.57417154 -0.5504331 0.82724738 -0.11262831 -0.54795933 0.81257069 -0.19866899 -0.54757833 0.83569586 -0.04207746 -0.54738271 -0.61663079 0.56580806 -0.54665679 0.40036207 0.73544306 -0.53949815 -0.3531931 0.76432741 -0.53138119 -0.58681959 0.61096382 -0.53138041 -0.58680063 0.61098278 -0.5151546 0.64588767 -0.56342244 -0.513789 0.13242973 0.84763384 -0.50174642 0.85961658 0.09648747 -0.50170463 -0.72926754 0.46525398 -0.48575214 -0.59693837 0.63852137 -0.48252738 0.68465912 -0.54626846 -0.48231348 -0.23569728 -0.84369457 -0.48231074 -0.23572896 -0.84368718 -0.48228914 -0.23570368 -0.84370667 -0.47809258 0.62453383 0.61756372 -0.46666932 -0.63887918 0.61159879 -0.46617681 0.59211522 0.657327 -0.46104661 0.64672369 0.60760546 -0.45038977 -0.24408887 0.85881877 -0.45012069 0.5043084 0.73692906 -0.4458406 -0.64883572 -0.61663467 -0.44579849 -0.64891875 -0.61657774 -0.44579464 -0.64894003 -0.61655813 -0.44203493 0.53881717 0.71713406 -0.43395102 0.58814961 0.68247086 -0.42015117 0.90003777 -0.11577971 -0.41279656 0.24832472 -0.87631822 -0.40803662 0.91135705 -0.0541715 -0.40121067 -0.60524875 -0.68753463 -0.39772931 -0.60803044 -0.68710291 -0.39432469 0.55503243 0.73242539 -0.39367142 0.91765702 0.05411633 -0.39117441 0.22277711 -0.89294624 -0.36592031 0.34523508 -0.86424237 -0.36536613 0.55651832 -0.74618691 -0.35971817 -0.6112538 -0.70496213 -0.34377033 0.45402941 0.82199711 -0.33528259 -0.26990104 0.90262896 -0.33113053 0.22077893 -0.91739267 -0.32268429 0.57517296 -0.75169867 -0.32070068 0.18149202 0.92962992 -0.31689137 0.93163878 0.177845 -0.30382532 0.10242816 0.94720578 -0.29802749 0.42155349 -0.85642993 -0.29180396 0.62237239 0.72629404 -0.28956673 0.0100378 -0.9571051 -0.28845298 0.95355964 0.08671153 -0.28342846 0.17358519 0.94315243 -0.26167265 0.02905747 -0.96471918 -0.26075163 -0.02117798 -0.96517354 -0.25915048 -0.96091479 -0.09738445 -0.25624454 -0.95658189 -0.13888749 -0.25621215 -0.95659262 -0.13887359 -0.23261029 0.35525912 -0.90536368 -0.23014165 -0.37259954 0.89900202 -0.22979546 0.95398504 0.19263116 -0.22223915 0.38174281 -0.8971523 -0.21761279 -0.97350895 0.07017819 -0.20828389 0.37775347 -0.90217519 -0.20508802 -0.02545177 -0.97841263 -0.20473915 0.97205126 0.11488359 -0.19718191 0.46191427 -0.86472791 -0.18718196 -0.05410118 0.98083431 -0.18023016 -0.97149706 -0.15398225 -0.17902294 0.00871143 -0.98380631 -0.17266551 -0.24906215 -0.95297146 -0.1721797 -0.312206 0.93428135 -0.1646363 -0.00676683 -0.98633111 -0.16277498 -0.2504591 -0.95434505 -0.16277361 -0.25041932 -0.95435578 -0.16276029 -0.25041115 -0.95436019 -0.16257577 0.00957042 -0.98664963 -0.16061838 -0.03724856 0.98631352 -0.14533716 0.02874137 0.98896474 -0.13966179 0.33509943 -0.93177408 -0.13066548 -0.04185617 0.99054259 -0.12657268 -0.98022234 0.15212998 -0.12522645 0.32564846 0.93716133 -0.11586682 0.12327103 0.98558563 -0.0985138 -0.05590779 0.99356395 -0.09660038 -0.9952262 0.01389551 -0.09612977 -0.31296632 -0.94488686 -0.07932514 0.26827908 -0.96006966 -0.07928742 0.10581153 -0.99122024 -0.06781929 -0.00943877 0.99765295 -0.05812247 -0.99704117 -0.05030677 -0.05706539 -0.97746849 -0.20322126 -0.05353106 -0.06399608 0.99651343 -0.04925178 0.01269277 0.99870569 -0.04776315 0.98582757 0.16081874 -0.04621246 -0.99169958 0.11998441 -0.04505797 0.22798409 -0.97262174 -0.02130835 0.99055636 0.13544071 -0.0023931 0.13167477 0.99129015 -0.0018811 -0.18080816 0.98351657 0 0 -1 -0 0 -0.99999994 0 0 0.99999994 0 0 1 0.00239307 -0.13167316 0.99129033 0.00636197 -0.98775202 -0.15590216 0.01830583 0.05772246 0.99816483 0.02487365 0.04922825 0.99847776 0.02689695 0.09610046 0.99500817 0.02820732 -0.01137038 0.99953741 0.04609416 -0.2045968 -0.97776043 0.04779769 -0.98583537 0.16076045 0.04927611 -0.01269904 0.99870449 0.05702594 0.97748053 -0.2031742 0.05721103 -0.24153851 -0.96870333 0.06223982 0.99672997 -0.05153349 0.07700136 -0.04049836 0.99620819 0.09238396 0.06995235 0.99326324 0.12614243 -0.32808453 0.9361884 0.12769878 -0.97778225 -0.16623764 0.13046107 -0.9623698 0.23837821 0.14181949 -0.2691721 -0.95259315 0.14541352 -0.02878321 0.98895216 0.1468229 -0.24500911 0.95833892 0.15163198 0.98842442 0.00496267 0.15790609 0.98736101 0.01355775 0.16276117 0.25041249 -0.95435971 0.16276745 0.25040984 -0.95435935 0.16279444 0.25040734 -0.9543553 0.16397032 -0.03647507 -0.98579067 0.16908561 -0.1184817 0.97845387 0.1730472 0.3477011 0.92149806 0.1846638 -0.36441016 -0.91274554 0.18664968 0.9807322 0.05767301 0.18700214 0.05425898 0.98085988 0.18718141 0.05410102 0.98083436 0.19263473 -0.06602413 -0.97904682 0.194061 -0.46466017 -0.86396259 0.20993049 -0.39421287 -0.89472085 0.22979452 -0.95398998 0.19260731 0.23013793 0.3725979 0.89900351 0.23595308 -0.18156306 -0.95465231 0.23981231 -0.40243644 -0.88347888 0.24178006 -0.60582393 -0.75797087 0.2502993 -0.15920237 0.95498949 0.25630534 0.95656818 -0.13886994 0.25634366 0.95654237 -0.1389768 0.25945601 -0.95234025 0.16040777 0.28640965 0.94450903 -0.16084802 0.28641441 0.94450784 -0.16084731 0.28671101 0.95660251 -0.05204365 0.28723177 -0.42471865 -0.85855222 0.28957471 -0.01003807 -0.95710284 0.29336718 -0.48981208 -0.82098716 0.29514262 -0.42958757 0.85343152 0.30189505 0.11678807 -0.94616067 0.31661516 -0.25821075 -0.91273326 0.31711036 0.56925464 -0.75854474 0.32001805 -0.38756582 0.86451215 0.32343882 0.24676403 -0.91350693 0.33524066 0.26991495 0.90264028 0.34582043 -0.21754043 -0.91273463 0.35432121 -0.71781337 0.59933329 0.35934502 0.61154717 -0.70489806 0.35974464 0.61124456 -0.70495665 0.36280298 -0.19908123 -0.91035193 0.36348137 -0.51509839 -0.7762441 0.37213051 -0.20770314 0.90464258 0.38934737 -0.3209973 -0.86334777 0.39247677 -0.57460678 0.71818459 0.40421849 -0.37310913 -0.83510303 0.41304913 0.59617752 -0.68844956 0.42021096 -0.90679836 -0.03375858 0.42627984 -0.57846546 -0.69545913 0.42953223 0.89776027 0.09761322 0.43344897 0.5833835 0.68686652 0.43781507 -0.88571209 0.15437584 0.44579974 0.64892596 -0.61656928 0.44580603 0.6489566 -0.61653256 0.44659698 0.63020188 0.63513517 0.44933391 0.70413429 -0.54981273 0.45038274 0.24409315 0.85882121 0.45235726 -0.67195171 0.58639044 0.45843706 -0.36750484 0.80918217 0.45956787 -0.67395252 0.57843345 0.46667793 0.63885182 0.61162078 0.47283646 -0.40731564 -0.78135753 0.48035827 -0.17477106 0.85948294 0.48230699 0.23568225 -0.84370244 0.48231176 0.23570137 -0.84369445 0.48566011 0.59700245 0.63853127 0.50136214 0.21238394 -0.83876634 0.50170386 0.72927755 0.4652392 0.50509119 -0.8557297 -0.112292 0.51533175 0.58930784 -0.62221336 0.51596463 -0.5707233 0.63879222 0.5300312 0.36429885 0.765737 0.53138971 0.58683956 0.6109373 0.53949821 0.35319722 0.7643255 0.54480094 -0.60671335 0.5788703 0.54522514 -0.69303316 0.47162971 0.5455001 -0.82980859 -0.11767513 0.56009704 -0.47576499 0.67818797 0.56101525 -0.6661883 0.49138087 0.56272483 -0.54582435 0.62081921 0.57342947 -0.46090418 0.6773079 0.57346815 -0.8093015 -0.12714297 0.5808273 -0.76083273 -0.28943589 0.58233964 0.5630877 0.58635551 0.58360332 0.5659247 0.58235419 0.58385307 -0.77467263 -0.24289514 0.59302735 0.65306729 0.47097954 0.59310234 0.6529218 0.47108659 0.60049337 -0.79895085 -0.03293965 0.60080558 0.79361379 -0.09596676 0.60629636 -0.6063816 -0.51449591 0.60632235 -0.60635644 -0.51449507 0.60633016 -0.60634816 0.51449543 0.60633087 -0.60634786 0.51449507 0.60633123 -0.60634816 0.51449436 0.6063351 -0.60634363 -0.51449507 0.60633886 -0.60633999 0.51449496 0.6063394 -0.6063394 -0.51449496 0.6063441 -0.60633558 -0.514494 0.60634768 -0.60633069 0.51449555 0.6063478 -0.60633081 0.51449531 0.60634804 -0.60633004 0.51449591 0.60635209 -0.60632652 -0.51449525 0.60635209 -0.60632652 0.51449507 0.60635239 -0.60632652 0.51449484 0.60636061 -0.60631806 0.51449519 0.60636067 -0.60631806 -0.51449513 0.60636914 -0.60630947 -0.51449525 0.60636926 -0.60630965 -0.51449478 0.60637301 -0.60630488 -0.51449591 0.60637748 -0.60630101 0.51449537 0.6063776 -0.60630101 0.51449519 0.60637772 -0.60630101 -0.5144949 0.60811359 -0.49160609 -0.62331468 0.61318481 -0.73224491 -0.2963475 0.6139819 0.54618549 -0.56983125 0.6152966 -0.35737088 -0.70263517 0.61597085 -0.30057123 -0.72817361 0.61800772 -0.77767509 0.11527316 0.62587601 0.56340903 -0.53930461 0.62657368 -0.37314224 -0.68422955 0.62767285 -0.45969915 0.62825435 0.62782621 -0.73168063 0.2654765 0.62792611 0.51824927 0.58062601 0.63451159 0.50625825 0.58403552 0.63451773 0.50631917 0.58397615 0.64642048 -0.76078397 0.05786454 0.66036707 0.7497617 -0.0421049 0.66537714 -0.74642134 -0.0113328 0.66762751 0.73824918 0.09623706 0.66762811 0.73825276 0.09620608 0.6680944 0.73869258 0.08934795 0.67279077 0.52365267 -0.52262843 0.67633504 -0.6874401 0.26456937 0.67660457 0.73615164 -0.01694296 0.6783607 0.73425657 -0.02634593 0.67887801 0.5411998 -0.49621308 0.67947489 0.73153287 0.05633416 0.68737906 0.72616518 -0.01393333 0.68837392 0.72500831 -0.02246003 0.68977743 -0.72310138 0.03648944 0.69465435 0.71856105 -0.03354615 0.69931918 -0.7053768 -0.11574168 0.70117557 0.70713156 0.0912018 0.70217681 -0.56902766 -0.4279663 0.70330673 0.48552716 -0.51925224 0.70633167 0.7078808 0.00051164 0.70675653 0.70745677 -0.00017664 0.70691335 0.70730013 6.102e-05 0.70697987 0.70723367 -0.00013662 0.7069869 0.70722657 0.0001007 0.70699304 0.70722044 -5.483e-05 0.70699656 0.70721692 -9.906e-05 0.7070024 0.70721108 -0 0.70700711 0.70720637 9.072e-05 0.7070238 0.70718974 6.45e-06 0.70702881 0.70718467 -7.42e-05 0.70702928 0.70718414 5.218e-05 0.70702952 0.70718396 5.165e-05 0.70703393 0.70717961 5.031e-05 0.70704097 0.70717263 -7.192e-05 0.70704716 0.70716643 0 0.70704722 0.70716637 0.00014665 0.7070545 -0.70715904 6.842e-05 0.70705557 0.70715803 -1.016e-05 0.70706207 0.70715147 -0 0.70706809 0.70714539 0.00013506 0.70706999 -0.7071436 -1.708e-05 0.7070713 0.70714223 3.003e-05 0.70707136 0.70714229 -2.79e-05 0.70707154 -0.70714206 -3.149e-05 0.70707226 0.70714134 2.474e-05 0.70707399 -0.70713955 4.346e-05 0.70707637 -0.70713717 4.418e-05 0.70707697 0.70713657 0 0.70707744 0.70713603 2.319e-05 0.70707798 0.70713556 -2.616e-05 0.70708025 -0.70713335 2.526e-05 0.7070803 0.70713329 -1.244e-05 0.70708382 0.70712972 8.88e-06 0.70708394 -0.70712954 -2.882e-05 0.70708424 0.70712936 -2.384e-05 0.70708442 0.70712912 -0 0.70708489 0.7071287 2.101e-05 0.70708567 0.70712799 -1.831e-05 0.70708674 0.70712686 -1.824e-05 0.70708835 -0.70712519 0 0.7070893 -0.70712435 2.528e-05 0.70709056 0.70712298 -1.477e-05 0.70709139 -0.70712215 -1.329e-05 0.70709151 -0.70712209 -7.547e-05 0.7070924 -0.70712107 -2.713e-05 0.70709252 0.70712107 -1.162e-05 0.70709342 0.70712018 1.133e-05 0.7070936 0.70712 -6.12e-06 0.70709383 -0.70711976 2.076e-05 0.70709401 0.70711952 5.179e-05 0.70709401 0.70711958 -1.025e-05 0.70709473 0.70711869 1.463e-05 0.70709479 0.70711881 -1.065e-05 0.70709503 -0.70711851 -4.5e-06 0.70709532 0.70711833 1.196e-05 0.70709586 0.70711774 1.4e-05 0.7070961 -0.70711744 0 0.70709622 0.70711738 8.81e-06 0.70709634 0.7071172 6.57e-06 0.7070964 -0.7071172 -2.867e-05 0.70709652 0.70711702 9.33e-06 0.70709664 0.7071169 7.36e-06 0.7070967 0.7071169 -1.31e-06 0.70709687 -0.70711678 0 0.70709693 -0.70711672 0 0.70709735 -0.70711613 1.3e-05 0.70709741 -0.70711619 3.117e-05 0.70709777 -0.70711577 0 0.70709807 0.70711547 -8.68e-06 0.70709807 0.70711553 7.89e-06 0.70709872 0.70711493 -7.83e-06 0.70709896 -0.70711464 1.366e-05 0.70709902 -0.70711446 -1.123e-05 0.7070992 -0.7071144 -6.2e-07 0.70709932 0.70711428 5.36e-06 0.70709932 0.70711434 5.25e-06 0.70709938 0.70711428 -8.05e-06 0.70709944 -0.7071141 2.087e-05 0.70709956 -0.70711398 0 0.70710009 -0.70711344 -4.39e-06 0.70710009 0.7071135 5.12e-06 0.70710039 -0.70711309 6.25e-06 0.70710081 0.70711273 -0 0.70710087 0.70711273 8.74e-06 0.70710152 -0.70711207 0 0.70710164 0.7071119 -1.397e-05 0.70710182 0.70711178 5.69e-06 0.707102 0.70711154 3.18e-06 0.70710212 -0.70711148 -2.986e-05 0.70710212 -0.70711148 1.51e-06 0.70710212 -0.70711148 1.57e-06 0.70710212 -0.70711142 -0.00037656 0.70710212 -0.70711136 5.17e-06 0.70710218 0.70711142 3.87e-06 0.70710266 -0.70711088 -9.671e-05 0.70710266 -0.70711088 4.95e-06 0.70710278 0.70711094 3.23e-06 0.70710284 -0.70711082 -4.87e-06 0.70710284 -0.70711076 3.1e-07 0.70710284 0.70711076 -8.95e-06 0.70710284 0.70711076 -3.37e-06 0.70710284 0.70711076 2.1e-06 0.70710284 0.70711076 0.00010453 0.70710284 0.70711082 -4.49e-06 0.70710307 -0.70711052 -1.6e-07 0.70710325 -0.70711035 0 0.70710331 -0.70711023 3.37e-06 0.70710343 0.70711017 2.11e-06 0.70710355 0.70711011 -0 0.70710379 0.70710975 -1.85e-06 0.70710385 0.70710981 -8.7e-07 0.70710397 0.70710963 -3.62e-06 0.70710421 0.70710927 -2.04e-06 0.70710438 -0.70710915 8.07e-06 0.70710444 -0.70710915 -6.247e-05 0.70710444 0.70710915 -1.76e-06 0.7071045 -0.70710915 8.5e-07 0.7071048 0.7071088 -4.887e-05 0.7071048 0.7071088 5.58e-06 0.70710486 -0.7071088 2.24e-06 0.70710486 0.7071088 -1.18e-06 0.70710486 0.7071088 1.34e-06 0.70710492 -0.7071085 0 0.70710492 0.70710868 -1.54e-06 0.70710498 -0.70710856 0 0.70710504 -0.70710856 1e-08 0.7071054 -0.70710814 3.23e-06 0.70710552 -0.70710802 -8.5e-06 0.70710576 -0.70710772 4.54e-06 0.70710576 0.70710772 -1.3e-07 0.70710588 0.70710784 -9.26e-06 0.70710593 -0.70710766 -9.3e-07 0.70710599 0.70710754 -0 0.70710617 -0.70710742 5.435e-05 0.70710623 -0.70710725 -4.801e-05 0.70710623 -0.70710725 9.78e-06 0.70710635 -0.70710725 7.59e-06 0.70710635 -0.70710725 9.08e-06 0.70710641 -0.70710713 1.492e-05 0.70710641 0.70710719 -1.1e-07 0.70710647 -0.70710701 0 0.70710653 -0.70710701 2.68e-06 0.70710653 0.70710695 -1.36e-06 0.70710653 0.70710701 -7.7e-07 0.70710653 0.70710707 0 0.70710671 0.70710671 0 0.70710677 -0.70710677 -4.77e-06 0.70710677 -0.70710677 -4.04e-06 0.70710677 -0.70710677 0 0.70710677 0.70710677 -0 0.70710683 -0.70710683 0 0.70710683 0.70710683 0 0.70710689 -0.70710671 -4.39e-06 0.70710695 0.70710659 7.5e-07 0.70710695 0.70710665 -4.7e-07 0.70710701 -0.70710665 2.19e-06 0.70710707 0.70710647 -1e-07 0.70710713 -0.70710647 -2.735e-05 0.70710713 0.70710641 -9.5e-07 0.70710719 0.70710641 -7e-07 0.70710725 -0.70710635 0.00012396 0.70710725 -0.70710623 -2.515e-05 0.70710731 -0.70710635 -2.24e-06 0.70710731 -0.70710617 9.049e-05 0.70710737 0.70710635 2.5e-06 0.70710742 -0.70710617 -9e-07 0.70710748 0.70710605 5.6e-07 0.70710754 -0.70710605 -8.44e-06 0.70710754 -0.70710605 -6.1e-07 0.70710754 -0.70710605 -2.4e-07 0.70710754 -0.70710599 -1e-08 0.70710754 -0.70710593 -2.422e-05 0.70710766 -0.70710593 -6.89e-06 0.70710778 -0.70710576 -1.09e-06 0.70710778 -0.70710576 0 0.70710778 0.70710582 2.7e-07 0.70710784 0.70710576 3.1e-07 0.70710802 0.70710564 -1.52e-06 0.70710814 -0.70710552 0 0.70710826 -0.70710534 -1.52e-06 0.70710826 -0.70710528 0 0.70710844 -0.70710516 -5.61e-06 0.70710844 0.7071051 1.59e-05 0.70710856 0.70710498 9.5e-07 0.70710868 -0.70710486 -4.4e-06 0.7071088 -0.7071048 0 0.70710886 0.70710462 -2.73e-06 0.70710897 0.70710456 1.93e-06 0.70710933 0.70710415 2.02e-06 0.70710939 0.70710427 2.29e-06 0.70710945 -0.70710409 -1.008e-05 0.70711046 -0.70710307 1.066e-05 0.70711076 -0.70710289 1.82e-06 0.70711082 0.70710272 2.62e-06 0.70711106 -0.70710248 -5.18e-06 0.70711106 -0.70710242 -5.31e-06 0.70711106 0.70710248 2.769e-05 0.70711118 0.70710236 1.747e-05 0.70711136 -0.70710224 -3.93e-06 0.70711154 -0.707102 4.56e-06 0.70711166 -0.70710194 4.38e-06 0.7071119 -0.7071017 -1.34e-05 0.70711195 0.70710152 -3.71e-06 0.70711237 -0.70710123 4.04e-06 0.70711267 -0.70710093 9.3e-06 0.70711291 0.70710063 4.71e-06 0.70711309 -0.70710039 1.006e-05 0.70711344 0.70710015 5.64e-06 0.70711422 -0.70709938 -3.239e-05 0.7071144 -0.7070992 4.014e-05 0.70711493 0.7070986 0 0.70711529 0.70709819 7.69e-06 0.70711553 0.70709801 1.597e-05 0.70711577 -0.70709771 6.419e-05 0.7071166 -0.70709676 0.00053103 0.70711666 -0.70709687 -0.00010478 0.70711666 0.70709687 -0 0.70711666 0.70709693 -7.12e-06 0.70711672 -0.70709693 0 0.70711678 -0.70709687 0 0.70711684 0.7070967 8.48e-06 0.7071178 -0.70709574 -6.178e-05 0.70711809 0.70709544 -9.34e-06 0.70711863 0.70709491 1.626e-05 0.70712095 -0.70709252 3.804e-05 0.70712149 -0.70709199 -2.579e-05 0.70712167 -0.70709193 0 0.70712167 -0.70709181 0 0.70712179 0.70709175 -1.365e-05 0.70712197 -0.70709151 5.354e-05 0.70712382 0.70708966 -1.412e-05 0.70712423 0.7070893 -1.54e-05 0.7071256 0.70708787 -9.34e-06 0.70712614 -0.70708746 -8.632e-05 0.70712805 0.70708555 4.506e-05 0.70712948 -0.707084 2.925e-05 0.70712972 0.70708388 -1.433e-05 0.70713079 0.70708275 1.441e-05 0.70713121 0.70708245 -2.843e-05 0.70713151 -0.70708191 0 0.70713156 0.70708191 -2.048e-05 0.70713162 -0.70708197 0 0.70713347 0.70708007 -1.814e-05 0.70713359 0.70707995 -2.48e-05 0.70713657 0.70707697 0 0.70713699 0.70707655 -5.52e-06 0.70713723 0.70707637 -2.075e-05 0.70713818 0.70707536 2.079e-05 0.70713955 0.70707399 3.597e-05 0.70714211 -0.70707148 9.835e-05 0.70714247 0.70707101 0 0.70714253 0.70707101 0 0.70714259 0.70707107 0 0.70714265 0.70707095 -3.023e-05 0.70714319 -0.70707035 3.183e-05 0.70714968 -0.70706028 0.00226367 0.70715147 -0.70706201 0.00044761 0.70715463 0.70705897 -3.493e-05 0.70715737 0.70705616 -3.722e-05 0.70716929 0.70704412 2.273e-05 0.70717263 0.70704085 7.019e-05 0.70717782 0.70703572 -4.347e-05 0.70718169 0.70703191 0.00011501 0.70718449 0.70702899 6.616e-05 0.70719409 0.70701945 -4.491e-05 0.70719725 0.70701623 -4.646e-05 0.70721757 0.70699608 -0.00016184 0.70722598 0.70698756 0 0.70722646 0.70698708 5.298e-05 0.70722729 0.70698619 0.00011876 0.70726448 0.70694906 0.00014292 0.70727032 0.70694321 -1.698e-05 0.70785016 0.70636213 0.00081319 0.71009755 0.70406359 -0.007481 0.71080905 0.6994434 0.07435939 0.7111178 0.7022711 -0.03356647 0.71236151 0.70178866 0.00581262 0.71642601 0.69762176 -0.00758869 0.71755767 -0.54867458 0.4290306 0.71853268 0.69545603 0.00718937 0.72101545 0.69279099 0.01332024 0.72165245 0.69222558 0.00645349 0.72166127 0.68805724 -0.07604147 0.72273213 -0.68170428 0.11374365 0.72290647 -0.67090595 -0.16520128 0.72313422 0.68939328 0.04258801 0.72589397 0.68669158 -0.03914736 0.7259751 0.68755901 -0.01492426 0.73821062 0.67439258 -0.01548589 0.73868531 0.67392069 -0.01322322 0.74426192 0.66655928 0.04210538 0.7458455 0.66070193 -0.0847796 0.74776167 -0.53834057 0.38864106 0.75342715 0.65752411 -0.0030866 0.75662756 -0.6473459 0.09196714 0.75776196 0.65249974 0.00638584 0.76528871 -0.60844803 0.21005721 0.76592427 -0.60781389 0.20957655 0.76672721 0.63914287 0.06021463 0.7711466 -0.57203364 -0.2794826 0.77409184 -0.63284868 0.01686445 0.77555662 -0.60071075 0.19405808 0.77972823 -0.61192399 -0.1325631 0.78561342 -0.60101765 -0.14693299 0.79911375 -0.59909475 0.05002803 0.8003639 -0.59841007 -0.03637541 0.82892132 -0.52334887 0.1974726 0.83025873 -0.55615401 -0.03692193 0.83025908 -0.55615193 -0.03694163 0.83570451 0.52033353 0.17564426 0.84866148 -0.51843739 -0.10486412 0.90681309 -0.42018005 0.03374592 0.90871799 -0.35669997 0.21678725 0.93575621 -0.33385804 0.11357428 0.95234722 -0.2594308 -0.16040714 0.95273447 -0.23682864 0.19028728 0.95314604 0.28904879 0.08923873 0.96655035 0.22989312 -0.11370831 0.9714939 0.18024473 0.15398529 0.98224771 0.18710943 -0.01339428 0.9822613 0.18703836 -0.01338751 0.98499614 0.08468997 -0.15036732 0.98578924 -0.01325296 -0.16746318 0.9860273 0.02891061 -0.16405563 0.98797399 0.15180302 0.02937854 0.98798537 0.15172966 0.02937754 0.99195188 0.12118916 0.03666963 0.99664545 -0.08139579 -0.00851314 0.99694359 -0.07631898 -0.0166991</float_array>
          <technique_common>
            <accessor source="#normals-array" count="1001" stride="3">
              <param name="X" type="float" />
              <param name="Y" type="float" />
              <param name="Z" type="float" />
            </accessor>
          </technique_common>
        </source>
        <vertices id="vertices">
          <input semantic="POSITION" source="#positions" />
        </vertices>
        <triangles count="1294" material="MATERIAL">
          <input semantic="VERTEX" source="#vertices" offset="0" />
          <input semantic="NORMAL" source="#normals" offset="1" />
          <p>0 363 1 363 2 363 3 365 1 365 0 365 4 821 0 821 5 821 4 793 3 793 0 793 6 634 5 634 7 634 6 627 4 627 5 627 2 157 6 157 7 157 1 249 6 249 2 249 8 353 9 353 10 353 9 435 11 435 10 435 12 458 8 458 10 458 9 484 13 484 11 484 13 969 12 969 11 969 13 639 8 639 12 639 14 26 15 26 16 26 15 429 17 429 16 429 18 479 14 479 16 479 15 518 19 518 17 518 19 553 14 553 18 553 19 964 18 964 17 964 20 116 21 116 22 116 10 105 23 105 22 105 16 127 17 127 22 127 17 136 20 136 22 136 21 274 10 274 22 274 24 185 18 185 22 185 18 270 16 270 22 270 12 304 10 304 24 304 25 280 12 280 24 280 10 114 26 114 24 114 26 123 18 123 24 123 26 91 20 91 17 91 18 291 26 291 17 291 26 99 10 99 21 99 11 329 23 329 10 329 25 216 23 216 11 216 12 77 25 77 11 77 20 399 27 399 21 399 27 411 28 411 21 411 28 537 27 537 20 537 28 567 26 567 21 567 26 566 28 566 20 566 29 524 30 524 31 524 32 525 29 525 31 525 33 404 31 404 30 404 33 354 34 354 31 354 35 10 34 10 33 10 35 5 36 5 34 5 35 33 37 33 36 33 37 343 38 343 36 343 39 1000 40 1000 41 1000 42 999 39 999 41 999 43 665 39 665 42 665 44 606 39 606 43 606 44 457 38 457 37 457 38 511 44 511 43 511 41 951 29 951 32 951 41 959 40 959 29 959 45 954 46 954 47 954 48 350 49 350 50 350 51 47 48 47 50 47 52 981 46 981 45 981 53 995 46 995 52 995 54 984 53 984 52 984 55 610 53 610 54 610 55 456 49 456 48 456 49 520 55 520 54 520 56 594 57 594 58 594 59 644 56 644 58 644 60 528 61 528 57 528 56 559 60 559 57 559 62 417 63 417 61 417 60 473 62 473 61 473 62 425 64 425 63 425 63 23 65 23 66 23 64 31 65 31 63 31 67 612 68 612 69 612 70 650 68 650 67 650 71 531 70 531 67 531 72 534 70 534 71 534 73 442 72 442 71 442 66 423 73 423 71 423 65 413 73 413 66 413 59 664 58 664 69 664 68 953 59 953 69 953 74 663 75 663 76 663 77 948 74 948 76 948 78 608 77 608 76 608 79 590 78 590 76 590 80 522 78 522 79 522 81 478 80 478 79 478 82 414 80 414 81 414 83 393 82 393 81 393 84 48 82 48 83 48 85 60 82 60 84 60 86 571 87 571 75 571 74 640 86 640 75 640 86 555 88 555 87 555 88 476 89 476 87 476 88 470 90 470 89 470 90 390 84 390 89 390 90 401 85 401 84 401 91 500 92 500 93 500 94 500 92 500 91 500 79 880 76 880 93 880 92 769 71 769 93 769 71 738 67 738 93 738 67 764 69 764 93 764 69 893 81 893 93 893 81 698 79 698 93 698 76 711 95 711 93 711 76 692 75 692 95 692 58 885 57 885 95 885 75 881 87 881 95 881 57 715 61 715 95 715 61 770 96 770 95 770 87 921 89 921 95 921 89 744 58 744 95 744 84 835 58 835 89 835 69 805 83 805 81 805 69 829 84 829 83 829 69 843 58 843 84 843 92 896 66 896 71 896 63 737 96 737 61 737 92 695 63 695 66 695 92 820 96 820 63 820 96 503 97 503 95 503 96 503 98 503 97 503 99 852 100 852 101 852 102 852 99 852 101 852 103 357 104 357 105 357 104 28 106 28 105 28 106 506 107 506 105 506 106 523 108 523 107 523 108 551 104 551 103 551 107 638 108 638 103 638 109 340 110 340 111 340 110 424 112 424 111 424 113 463 109 463 111 463 114 514 109 514 113 514 110 599 114 599 112 599 114 968 113 968 112 968 115 361 116 361 117 361 116 359 118 359 117 359 118 517 119 517 117 517 120 464 116 464 115 464 119 645 120 645 115 645 118 584 120 584 119 584 121 364 122 364 123 364 124 371 122 371 121 371 106 687 104 687 125 687 126 718 106 718 125 718 104 707 121 707 125 707 108 903 124 903 121 903 104 933 108 933 121 933 126 700 108 700 106 700 126 908 109 908 108 908 109 675 114 675 108 675 114 915 124 915 108 915 126 671 110 671 109 671 126 684 114 684 110 684 116 914 120 914 114 914 120 727 124 727 114 727 126 726 116 726 114 726 126 673 118 673 116 673 126 943 120 943 118 943 126 758 124 758 120 758 127 637 126 637 128 637 126 632 125 632 128 632 128 315 91 315 93 315 95 316 128 316 93 316 97 315 123 315 95 315 105 109 128 109 95 109 103 66 105 66 95 66 123 328 103 328 95 328 105 101 111 101 128 101 117 259 127 259 128 259 111 181 117 181 128 181 107 336 103 336 123 336 122 260 119 260 123 260 119 72 113 72 123 72 113 147 107 147 123 147 107 327 111 327 105 327 113 312 111 312 107 312 115 332 117 332 111 332 112 59 115 59 111 59 119 57 115 57 112 57 113 325 119 325 112 325 119 68 127 68 117 68 129 267 127 267 119 267 122 62 129 62 119 62 127 272 129 272 101 272 100 307 127 307 101 307 130 319 129 319 122 319 45 500 131 500 101 500 129 501 45 501 101 501 131 500 132 500 101 500 32 500 31 500 101 500 31 500 34 500 101 500 34 501 102 501 101 501 132 500 32 500 101 500 54 501 52 501 129 501 52 500 45 500 129 500 133 500 54 500 129 500 134 500 32 500 132 500 50 500 32 500 134 500 41 500 32 500 50 500 49 500 41 500 50 500 133 500 49 500 54 500 133 500 42 500 49 500 42 500 41 500 49 500 36 500 102 500 34 500 133 500 102 500 36 500 38 500 133 500 36 500 133 500 43 500 42 500 133 500 38 500 43 500 130 171 135 171 129 171 135 171 133 171 129 171 136 923 96 923 92 923 94 924 136 924 92 924 137 922 98 922 96 922 14 937 137 937 96 937 136 747 14 747 96 747 138 894 15 894 136 894 15 691 14 691 136 691 8 729 139 729 137 729 27 682 28 682 137 682 14 936 19 936 137 936 19 759 27 759 137 759 28 930 8 930 137 930 138 696 19 696 15 696 138 746 27 746 19 746 138 683 28 683 27 683 9 929 8 929 28 929 138 836 9 836 28 836 138 704 13 704 9 704 138 790 139 790 13 790 13 938 139 938 8 938 138 678 99 678 102 678 133 721 138 721 102 721 133 789 139 789 138 789 133 686 135 686 139 686 23 631 138 631 22 631 138 631 136 631 22 631 22 169 94 169 91 169 128 86 125 86 91 86 125 251 7 251 91 251 7 76 5 76 91 76 5 239 22 239 91 239 97 85 121 85 123 85 0 75 2 75 97 75 98 168 0 168 97 168 74 333 121 333 97 333 86 264 74 264 97 264 88 246 86 246 97 246 2 207 88 207 97 207 121 285 74 285 125 285 74 305 77 305 125 305 77 248 78 248 125 248 78 103 80 103 125 103 80 252 7 252 125 252 2 96 90 96 88 96 82 273 7 273 80 273 2 262 85 262 90 262 2 266 7 266 82 266 85 263 2 263 82 263 68 302 70 302 5 302 70 238 22 238 5 238 0 265 59 265 5 265 59 78 68 78 5 78 98 237 24 237 0 237 60 311 56 311 0 311 56 206 59 206 0 206 24 236 60 236 0 236 72 107 22 107 70 107 24 165 62 165 60 165 73 214 22 214 72 214 24 88 64 88 62 88 65 258 22 258 73 258 24 247 22 247 65 247 64 132 24 132 65 132 136 93 94 93 22 93 98 94 137 94 24 94 137 366 25 366 24 366 139 368 25 368 137 368 126 503 127 503 100 503 6 503 126 503 100 503 99 502 23 502 100 502 23 502 4 502 100 502 4 503 6 503 100 503 140 502 47 502 126 502 6 502 141 502 126 502 141 503 140 503 126 503 47 503 124 503 126 503 124 503 130 503 122 503 124 502 135 502 130 502 46 503 53 503 124 503 53 503 1 503 124 503 1 503 135 503 124 503 47 502 46 502 124 502 6 503 142 503 141 503 6 503 51 503 142 503 6 503 48 503 51 503 1 503 48 503 6 503 55 503 1 503 53 503 1 503 55 503 48 503 23 503 33 503 4 503 33 502 30 502 4 502 30 503 29 503 4 503 29 503 3 503 4 503 3 503 135 503 1 503 25 503 135 503 3 503 29 503 40 503 3 503 40 503 39 503 3 503 39 503 25 503 3 503 23 503 35 503 33 503 23 503 37 503 35 503 99 503 138 503 23 503 25 503 37 503 23 503 44 503 25 503 39 503 25 503 44 503 37 503 139 503 135 503 25 503 140 451 132 451 131 451 47 550 140 550 131 550 45 574 47 574 131 574 141 432 132 432 140 432 142 17 132 17 141 17 142 16 134 16 132 16 51 12 134 12 142 12 51 15 50 15 134 15 143 635 144 635 145 635 146 636 144 636 143 636 144 215 147 215 145 215 144 190 148 190 147 190 148 362 149 362 147 362 148 362 150 362 149 362 149 792 146 792 143 792 150 816 146 816 149 816 151 37 152 37 153 37 154 36 152 36 151 36 152 544 155 544 153 544 155 568 154 568 151 568 156 570 154 570 155 570 152 558 156 558 155 558 157 358 158 358 159 358 158 34 160 34 159 34 161 521 158 521 157 521 162 586 161 586 157 586 160 583 162 583 159 583 160 595 161 595 162 595 163 781 152 781 164 781 165 722 166 722 164 722 167 932 165 932 164 932 152 884 154 884 164 884 154 742 167 742 164 742 168 879 156 879 163 879 156 689 152 689 163 689 169 710 167 710 154 710 156 701 169 701 154 701 168 748 169 748 156 748 158 919 166 919 165 919 160 677 158 677 165 677 168 883 160 883 165 883 169 920 168 920 165 920 161 676 166 676 158 676 168 882 166 882 161 882 168 906 161 906 160 906 165 25 167 25 170 25 167 421 171 421 170 421 172 487 165 487 170 487 169 538 165 538 172 538 167 554 169 554 171 554 169 950 172 950 171 950 173 989 174 989 175 989 176 998 173 998 175 998 177 977 173 977 176 977 178 955 177 955 176 955 179 519 177 519 178 519 179 481 178 481 180 481 175 668 174 668 181 668 182 515 183 515 184 515 181 533 182 533 184 533 174 614 182 614 181 614 183 412 185 412 184 412 186 355 185 355 183 355 186 7 187 7 185 7 188 1 187 1 186 1 179 45 180 45 187 45 188 50 179 50 187 50 189 38 190 38 191 38 190 51 192 51 191 51 193 946 194 946 195 946 193 957 196 957 194 957 197 494 198 494 195 494 194 545 197 545 195 545 199 402 198 402 197 402 199 58 200 58 198 58 189 11 200 11 199 11 189 3 191 3 200 3 201 670 202 670 203 670 202 557 204 557 203 557 202 529 205 529 204 529 205 472 206 472 204 472 205 433 207 433 206 433 207 351 208 351 206 351 201 652 203 652 209 652 210 970 201 970 209 970 211 592 210 592 209 592 212 560 213 560 211 560 213 581 210 581 211 581 214 477 213 477 212 477 215 471 213 471 214 471 216 394 215 394 214 394 217 405 215 405 216 405 208 41 217 41 216 41 207 348 217 348 208 348 218 49 219 49 220 49 221 342 219 342 218 342 222 648 223 648 224 648 225 575 222 575 224 575 226 489 227 489 225 489 227 516 222 516 225 516 220 391 219 391 226 391 219 409 227 409 226 409 228 967 229 967 224 967 223 666 228 666 224 666 228 580 230 580 229 580 228 591 231 591 230 591 231 496 232 496 230 496 231 486 233 486 232 486 233 360 221 360 232 360 221 389 218 389 232 389 234 500 235 500 236 500 237 500 235 500 234 500 238 299 201 299 234 299 201 143 210 143 234 143 210 115 213 115 234 115 213 167 237 167 234 167 239 166 205 166 238 166 205 97 202 97 238 97 202 111 201 111 238 111 215 282 237 282 213 282 239 178 207 178 205 178 217 106 237 106 215 106 239 269 231 269 207 269 231 191 228 191 207 191 223 146 222 146 217 146 222 254 237 254 217 254 228 142 223 142 217 142 207 211 228 211 217 211 227 235 237 235 222 235 239 135 233 135 231 135 239 79 221 79 233 79 219 80 237 80 227 80 239 182 237 182 219 182 221 98 239 98 219 98 240 503 238 503 241 503 240 503 239 503 238 503 242 152 243 152 244 152 245 152 243 152 242 152 246 398 247 398 248 398 249 466 246 466 248 466 247 509 250 509 248 509 250 587 249 587 248 587 250 607 246 607 249 607 251 395 252 395 253 395 251 406 254 406 252 406 255 469 251 469 253 469 256 561 255 561 253 561 254 605 256 605 252 605 254 647 255 647 256 647 257 18 258 18 259 18 258 428 260 428 259 428 261 448 257 448 259 448 257 643 261 643 260 643 258 651 257 651 260 651 262 619 263 619 264 619 265 628 263 628 262 628 259 144 266 144 264 144 263 117 248 117 264 117 248 74 253 74 264 74 253 151 259 151 264 151 259 90 260 90 266 90 248 69 249 69 266 69 249 286 267 286 266 286 260 241 252 241 266 241 252 334 256 334 266 334 256 104 248 104 266 104 253 102 261 102 259 102 253 309 252 309 260 309 261 92 253 92 260 92 248 321 256 321 253 321 263 71 249 71 248 71 263 279 267 279 249 279 268 367 269 367 266 367 267 372 268 372 266 372 243 757 269 757 270 757 269 772 262 772 270 772 262 821 271 821 270 821 257 717 265 717 262 717 269 771 258 771 262 771 258 934 257 934 262 934 243 699 245 699 269 699 268 724 258 724 269 724 254 935 251 935 257 935 251 694 265 694 257 694 268 941 257 941 258 941 268 706 254 706 257 706 250 681 247 681 251 681 247 909 265 909 251 909 255 942 250 942 251 942 268 674 255 674 254 674 268 895 250 895 255 895 246 672 265 672 247 672 239 931 265 931 246 931 250 940 239 940 246 940 268 874 239 874 250 874 237 924 268 924 235 924 237 923 239 923 268 923 239 922 240 922 265 922 181 500 184 500 272 500 184 501 185 501 272 501 185 500 270 500 272 500 244 500 175 500 272 500 175 501 181 501 272 501 176 501 175 501 244 501 243 500 178 500 244 500 178 500 176 500 244 500 187 500 270 500 185 500 195 500 198 500 187 500 198 500 270 500 187 500 180 500 193 500 187 500 193 500 195 500 187 500 243 500 273 500 180 500 273 500 193 500 180 500 178 500 243 500 180 500 200 500 270 500 198 500 191 500 270 500 200 500 243 500 270 500 191 500 192 500 243 500 191 500 243 500 274 500 273 500 274 500 243 500 192 500 270 857 275 857 272 857 270 857 271 857 275 857 276 277 244 277 272 277 275 319 277 319 272 319 277 63 153 63 272 63 153 256 276 256 272 256 151 288 153 288 277 288 278 261 151 261 277 261 242 322 244 322 276 322 159 113 279 113 276 113 171 56 172 56 276 56 172 308 159 308 276 308 153 67 155 67 276 67 155 218 171 218 276 218 278 84 155 84 151 84 278 61 170 61 155 61 170 324 171 324 155 324 278 323 172 323 170 323 278 100 157 100 172 100 157 335 159 335 172 335 278 331 162 331 157 331 162 65 279 65 159 65 278 112 279 112 162 112 279 81 234 81 236 81 238 82 234 82 279 82 278 81 238 81 279 81 241 83 238 83 278 83 168 369 163 369 276 369 279 370 168 370 276 370 168 913 279 913 236 913 235 832 168 832 236 832 166 911 241 911 278 911 166 760 144 760 241 760 144 928 146 928 241 928 146 833 240 833 241 833 211 873 209 873 168 873 209 739 166 739 168 739 235 763 148 763 168 763 148 761 214 761 168 761 214 720 212 720 168 720 212 862 211 862 168 862 209 907 203 907 166 907 203 716 204 716 166 716 204 762 144 762 166 762 206 905 144 905 204 905 148 705 216 705 214 705 208 702 144 702 206 702 148 926 208 926 216 926 148 750 144 750 208 750 235 927 150 927 148 927 226 743 225 743 150 743 225 897 224 897 150 897 267 767 226 767 150 767 235 766 267 766 150 766 224 728 146 728 150 728 229 745 230 745 146 745 230 901 232 901 146 901 232 799 240 799 146 799 224 809 229 809 146 809 267 714 220 714 226 714 218 712 240 712 232 712 267 797 218 797 220 797 263 688 240 688 218 688 267 796 263 796 218 796 235 899 268 899 267 899 265 898 240 898 263 898 164 629 278 629 277 629 166 630 278 630 164 630 164 503 277 503 275 503 271 503 264 503 275 503 186 503 183 503 275 503 183 502 182 502 275 502 182 503 164 503 275 503 145 503 186 503 275 503 143 503 145 503 275 503 264 503 143 503 275 503 182 503 174 503 164 503 174 503 163 503 164 503 163 502 242 502 276 502 163 502 245 502 242 502 147 503 245 503 163 503 174 503 173 503 163 503 173 502 177 502 163 502 177 503 147 503 163 503 145 503 188 503 186 503 145 502 179 502 188 502 147 503 179 503 145 503 179 503 147 503 177 503 197 503 194 503 143 503 199 503 197 503 143 503 264 503 199 503 143 503 194 503 149 503 143 503 149 503 245 503 147 503 196 503 149 503 194 503 266 503 245 503 149 503 196 503 280 503 149 503 280 503 281 503 149 503 281 503 266 503 149 503 264 503 189 503 199 503 264 503 190 503 189 503 264 503 266 503 190 503 271 503 262 503 264 503 266 503 281 503 190 503 269 503 245 503 266 503 280 993 196 993 193 993 273 987 280 987 193 987 281 975 280 975 273 975 274 576 281 576 273 576 190 462 274 462 192 462 281 505 274 505 190 505 282 375 283 375 284 375 285 382 283 382 282 382 286 804 282 804 287 804 286 773 285 773 282 773 288 623 287 623 289 623 288 633 286 633 287 633 284 213 288 213 289 213 283 108 288 108 284 108 290 21 291 21 292 21 293 439 290 439 292 439 291 482 294 482 292 482 295 542 290 542 293 542 291 569 295 569 294 569 294 974 295 974 293 974 296 339 297 339 298 339 299 54 296 54 298 54 296 530 300 530 297 530 300 641 299 641 298 641 296 562 299 562 300 562 292 284 301 284 302 284 298 255 297 255 302 255 303 330 304 330 302 330 304 87 292 87 302 87 297 219 303 219 302 219 305 230 298 230 302 230 300 290 298 290 305 290 306 122 300 122 305 122 300 296 303 296 297 296 307 194 303 194 300 194 306 172 307 172 300 172 293 70 292 70 304 70 307 320 293 320 304 320 306 253 293 253 307 253 294 73 301 73 292 73 306 229 301 229 294 229 306 95 294 95 293 95 308 22 309 22 303 22 309 46 304 46 303 46 307 565 308 565 303 565 309 602 307 602 304 602 309 593 308 593 307 593 310 513 311 513 312 513 311 460 313 460 312 460 311 19 314 19 313 19 315 20 314 20 311 20 315 4 316 4 314 4 317 9 316 9 315 9 317 53 318 53 316 53 318 338 319 338 316 338 320 992 321 992 322 992 323 997 320 997 322 997 324 980 320 980 323 980 325 976 324 976 323 976 318 485 325 485 319 485 324 490 325 490 318 490 322 656 310 656 312 656 322 945 321 945 310 945 326 654 327 654 328 654 326 949 329 949 327 949 330 347 331 347 332 347 333 29 330 29 332 29 334 991 329 991 326 991 335 996 334 996 326 996 336 979 334 979 335 979 337 982 336 982 335 982 331 539 336 539 337 539 336 491 331 491 330 491 338 661 339 661 340 661 339 564 341 564 340 564 339 552 342 552 341 552 342 450 343 450 341 450 342 440 344 440 343 440 344 345 345 345 343 345 345 27 346 27 347 27 344 349 346 349 345 349 348 585 349 585 350 585 351 598 349 598 348 598 352 498 351 498 348 498 353 504 351 504 352 504 347 407 353 407 352 407 346 420 353 420 347 420 338 659 340 659 350 659 349 962 338 962 350 962 354 660 355 660 356 660 357 952 354 952 356 952 358 611 357 611 356 611 359 649 357 649 358 649 360 540 359 540 358 540 361 535 359 535 360 535 362 467 361 467 360 467 363 459 361 459 362 459 364 356 363 356 362 356 365 386 363 386 364 386 366 44 365 44 364 44 367 346 365 346 366 346 354 657 368 657 355 657 368 563 369 563 355 563 368 536 370 536 369 536 370 454 371 454 369 454 370 434 367 434 371 434 367 344 366 344 371 344 372 500 373 500 374 500 375 500 373 500 372 500 373 841 348 841 374 841 360 866 358 866 374 866 356 822 376 822 374 822 348 853 350 853 374 853 358 867 356 867 374 867 350 813 362 813 374 813 362 749 360 749 374 749 355 837 369 837 376 837 369 840 377 840 376 840 356 871 355 871 376 871 371 827 377 827 369 827 350 839 364 839 362 839 366 808 377 808 371 808 340 810 341 810 366 810 341 851 377 851 366 851 350 842 366 842 364 842 350 824 340 824 366 824 373 731 352 731 348 731 343 785 377 785 341 785 373 864 347 864 352 864 345 870 377 870 343 870 373 875 345 875 347 875 373 850 377 850 345 850 377 503 378 503 376 503 377 503 379 503 378 503 380 812 381 812 382 812 383 812 380 812 382 812 384 415 385 415 386 415 385 400 387 400 386 400 388 453 385 453 384 453 387 508 389 508 386 508 387 600 388 600 389 600 389 971 388 971 384 971 390 42 391 42 392 42 391 387 393 387 392 387 391 499 394 499 393 499 395 556 390 556 392 556 394 573 390 573 395 573 394 646 395 646 393 646 396 337 397 337 398 337 399 403 396 403 398 403 400 532 396 532 399 532 397 604 400 604 398 604 400 978 399 978 398 978 401 377 402 377 403 377 404 381 402 381 401 381 405 768 387 768 406 768 387 755 385 755 406 755 385 780 401 780 406 780 388 858 404 858 401 858 385 814 388 814 401 814 405 889 391 889 387 889 391 848 390 848 387 848 390 838 388 838 387 838 390 693 394 693 388 693 394 741 404 741 388 741 405 730 394 730 391 730 405 779 397 779 394 779 396 902 400 902 394 902 400 732 404 732 394 732 397 912 396 912 394 912 405 917 400 917 397 917 405 782 404 782 400 782 407 622 405 622 408 622 405 620 406 620 408 620 376 278 408 278 374 278 408 275 372 275 374 275 378 276 403 276 376 276 386 126 408 126 376 126 384 310 386 310 376 310 403 306 384 306 376 306 398 145 407 145 408 145 393 226 398 226 408 226 386 121 392 121 408 121 392 159 393 159 408 159 402 287 399 287 403 287 395 283 392 283 403 283 399 134 395 134 403 134 392 153 384 153 403 153 389 301 392 301 386 301 392 313 389 313 384 313 399 294 398 294 393 294 395 271 399 271 393 271 409 209 407 209 398 209 402 326 409 326 398 326 399 297 402 297 398 297 407 210 409 210 382 210 381 185 407 185 382 185 410 64 409 64 402 64 328 500 411 500 382 500 411 500 383 500 382 500 326 500 328 500 382 500 409 500 326 500 382 500 412 500 337 500 409 500 337 500 335 500 409 500 335 500 326 500 409 500 312 500 313 500 411 500 313 500 383 500 411 500 323 500 322 500 411 500 322 500 312 500 411 500 332 500 323 500 411 500 331 500 323 500 332 500 412 500 331 500 337 500 412 501 325 501 331 501 325 500 323 500 331 500 314 500 383 500 313 500 316 500 383 500 314 500 412 500 383 500 316 500 319 501 412 501 316 501 325 501 412 501 319 501 410 187 413 187 409 187 413 187 412 187 409 187 414 817 377 817 373 817 375 821 414 821 373 821 415 821 379 821 377 821 414 823 296 823 377 823 296 904 299 904 377 904 299 765 415 765 377 765 416 830 296 830 414 830 308 733 417 733 415 733 299 752 308 752 415 752 416 849 309 849 296 849 309 900 299 900 296 900 309 925 308 925 299 925 416 918 291 918 309 918 309 910 417 910 308 910 290 679 295 679 309 679 295 708 417 708 309 708 291 723 290 723 309 723 416 680 295 680 291 680 416 775 417 775 295 775 412 868 416 868 383 868 416 690 380 690 383 690 412 774 417 774 416 774 412 939 413 939 417 939 301 615 416 615 302 615 416 616 414 616 302 616 408 242 406 242 372 242 302 200 375 200 372 200 406 183 289 183 372 183 289 131 287 131 372 131 287 163 302 163 372 163 378 243 401 243 403 243 370 231 368 231 378 231 368 129 354 129 378 129 354 119 401 119 378 119 284 193 370 193 378 193 282 130 284 130 378 130 379 203 282 203 378 203 357 137 359 137 406 137 401 212 354 212 406 212 354 128 357 128 406 128 359 175 361 175 406 175 361 186 289 186 406 186 363 192 289 192 361 192 284 187 367 187 370 187 365 244 289 244 363 244 284 187 289 187 365 187 367 187 284 187 365 187 349 221 351 221 287 221 351 160 302 160 287 160 282 212 338 212 287 212 338 120 349 120 287 120 379 161 305 161 282 161 339 149 338 149 282 149 305 164 342 164 282 164 342 225 339 225 282 225 353 233 302 233 351 233 305 139 344 139 342 139 346 155 302 155 353 155 305 138 302 138 346 138 344 208 305 208 346 208 414 293 375 293 302 293 379 292 415 292 305 292 415 380 306 380 305 380 417 383 306 383 415 383 405 503 407 503 381 503 380 503 301 503 381 503 301 503 286 503 381 503 286 503 288 503 381 503 288 503 405 503 381 503 418 502 419 502 405 502 419 502 327 502 405 502 288 503 418 503 405 503 327 503 404 503 405 503 404 503 410 503 402 503 404 503 413 503 410 503 329 502 334 502 404 502 334 503 336 503 404 503 336 503 283 503 404 503 283 502 413 502 404 502 327 503 329 503 404 503 288 503 333 503 418 503 288 503 330 503 333 503 283 503 330 503 288 503 283 502 336 502 330 502 311 503 310 503 286 503 301 502 311 502 286 502 310 503 285 503 286 503 285 503 413 503 283 503 321 503 320 503 285 503 310 503 321 503 285 503 320 502 324 502 285 502 306 503 413 503 285 503 324 503 306 503 285 503 301 503 315 503 311 503 301 503 317 503 315 503 301 503 318 503 317 503 380 503 416 503 301 503 306 503 318 503 301 503 306 503 324 503 318 503 417 503 413 503 306 503 327 549 419 549 328 549 419 446 411 446 328 446 418 436 411 436 419 436 333 14 411 14 418 14 333 8 332 8 411 8 420 617 421 617 422 617 423 624 421 624 420 624 421 204 424 204 422 204 421 173 425 173 424 173 425 378 426 378 424 378 425 374 427 374 426 374 426 865 423 865 420 865 427 823 423 823 426 823 428 388 429 388 430 388 431 444 428 444 430 444 429 483 432 483 430 483 429 543 428 543 431 543 432 956 429 956 431 956 433 410 434 410 435 410 436 431 434 431 433 431 437 507 438 507 435 507 434 452 437 452 435 452 438 669 436 669 433 669 437 653 436 653 438 653 439 859 440 859 441 859 429 831 428 831 441 831 428 861 442 861 441 861 442 828 439 828 441 828 443 847 429 847 441 847 444 811 429 811 443 811 429 823 442 823 428 823 444 795 442 795 429 795 434 877 440 877 439 877 445 709 434 709 439 709 437 740 434 740 445 740 444 944 445 944 442 944 444 783 437 783 445 783 436 703 440 703 434 703 444 823 440 823 436 823 444 869 436 869 437 869 439 39 442 39 446 39 442 449 447 449 446 449 445 541 439 541 446 541 447 642 445 642 446 642 442 582 445 582 447 582 448 988 449 988 450 988 451 994 449 994 448 994 452 985 451 985 448 985 453 613 451 613 452 613 454 601 451 601 453 601 454 455 455 455 456 455 455 495 454 495 453 495 450 662 457 662 458 662 450 958 449 958 457 958 459 497 460 497 458 497 457 546 459 546 458 546 459 384 461 384 460 384 462 396 461 396 459 396 462 2 463 2 461 2 464 0 463 0 462 0 456 55 455 55 463 55 464 35 456 35 463 35 465 40 466 40 467 40 466 352 468 352 467 352 469 655 470 655 471 655 469 963 472 963 470 963 470 548 473 548 471 548 473 465 474 465 471 465 475 430 474 430 473 430 475 24 476 24 474 24 465 13 476 13 475 13 465 6 467 6 476 6 477 577 478 577 479 577 477 589 480 589 478 589 480 526 481 526 478 526 480 475 482 475 481 475 482 416 483 416 481 416 482 427 484 427 483 427 477 961 479 961 485 961 486 965 477 965 485 965 487 579 486 579 485 579 488 596 486 596 487 596 489 492 490 492 487 492 490 480 488 480 487 480 491 385 490 385 489 385 492 397 490 397 491 397 483 43 492 43 491 43 484 32 492 32 483 32 493 52 494 52 495 52 496 30 494 30 493 30 497 597 498 597 499 597 498 609 500 609 499 609 501 493 502 493 497 493 502 512 498 512 497 512 495 392 494 392 501 392 494 408 502 408 501 408 503 960 504 960 499 960 500 947 503 947 499 947 503 578 505 578 504 578 503 588 506 588 505 588 506 527 507 527 505 527 506 474 508 474 507 474 508 418 493 418 507 418 508 426 496 426 493 426 509 500 510 500 511 500 512 500 510 500 509 500 486 198 488 198 509 198 488 176 490 176 509 176 490 202 512 202 509 202 513 187 477 187 509 187 477 234 486 234 509 234 514 201 480 201 513 201 480 187 477 187 513 187 514 227 482 227 480 227 514 199 484 199 482 199 492 170 512 170 490 170 514 197 506 197 484 197 506 174 503 174 484 174 498 158 512 158 492 158 500 187 498 187 492 187 503 188 500 188 492 188 484 179 503 179 492 179 502 257 512 257 498 257 514 124 508 124 506 124 514 245 496 245 508 245 494 154 512 154 502 154 514 224 512 224 494 224 496 223 514 223 494 223 515 503 513 503 516 503 515 503 514 503 513 503 517 195 518 195 519 195 520 195 518 195 517 195 521 422 522 422 523 422 524 437 521 437 523 437 525 488 524 488 523 488 521 445 526 445 522 445 524 658 525 658 522 658 526 966 524 966 522 966 527 341 528 341 529 341 528 441 530 441 529 441 531 461 527 461 529 461 532 510 527 510 531 510 528 603 532 603 530 603 530 972 532 972 531 972 533 419 534 419 535 419 536 443 533 443 535 443 537 438 533 438 536 438 533 447 538 447 534 447 538 973 536 973 534 973 538 667 537 667 536 667 539 621 540 621 541 621 542 625 540 625 539 625 534 205 543 205 541 205 535 281 534 281 541 281 540 133 523 133 541 133 523 250 529 250 541 250 529 140 535 140 541 140 529 118 530 118 543 118 530 232 544 232 543 232 534 156 529 156 543 156 529 177 536 177 535 177 536 318 529 318 534 318 523 196 531 196 529 196 523 303 522 303 531 303 522 148 544 148 531 148 544 110 530 110 531 110 540 300 525 300 523 300 540 185 544 185 525 185 525 240 544 240 522 240 545 379 546 379 543 379 544 373 545 373 543 373 518 854 546 854 547 854 546 802 539 802 547 802 539 888 548 888 547 888 546 801 533 801 539 801 533 787 542 787 539 787 518 916 520 916 546 916 545 860 538 860 546 860 538 734 533 734 546 734 528 817 527 817 533 817 527 784 542 784 533 784 537 821 528 821 533 821 538 713 528 713 537 713 545 815 528 815 538 815 526 826 521 826 527 826 521 855 542 855 527 855 532 892 526 892 527 892 545 685 532 685 528 685 545 821 526 821 532 821 524 821 542 821 521 821 514 719 542 719 524 719 545 821 524 821 526 821 545 825 514 825 524 825 512 754 545 754 510 754 512 754 514 754 545 754 514 754 515 754 542 754 458 501 460 501 549 501 460 500 461 500 549 500 461 500 471 500 549 500 519 500 450 500 549 500 450 500 458 500 549 500 471 500 474 500 549 500 474 501 547 501 549 501 452 500 448 500 519 500 448 500 450 500 519 500 518 501 452 501 519 501 469 500 471 500 461 500 463 500 469 500 461 500 455 501 469 501 463 501 518 500 453 500 452 500 518 500 455 500 453 500 550 500 469 500 455 500 518 501 551 501 455 501 551 500 550 500 455 500 476 500 547 500 474 500 467 500 547 500 476 500 518 500 547 500 467 500 468 500 518 500 467 500 518 500 468 500 551 500 547 846 552 846 549 846 547 846 548 846 552 846 552 89 553 89 549 89 554 184 519 184 549 184 553 314 430 314 549 314 430 220 554 220 549 220 555 150 435 150 553 150 435 289 446 289 553 289 446 222 430 222 553 222 517 89 519 89 554 89 430 295 432 295 554 295 435 298 438 298 554 298 432 217 447 217 554 217 447 125 435 125 554 125 438 189 556 189 554 189 446 317 431 317 430 317 446 180 447 180 432 180 446 185 432 185 431 185 435 162 447 162 446 162 555 141 433 141 435 141 555 228 556 228 433 228 556 268 438 268 433 268 556 185 509 185 511 185 513 185 509 185 556 185 555 185 513 185 556 185 516 185 513 185 555 185 444 376 443 376 554 376 556 379 444 379 554 379 444 736 556 736 511 736 510 806 444 806 511 806 440 735 516 735 555 735 440 807 515 807 516 807 510 820 425 820 444 820 425 818 487 818 444 818 487 753 485 753 444 753 485 820 440 820 444 820 421 820 515 820 440 820 485 872 479 872 440 872 479 845 478 845 440 845 478 834 481 834 440 834 481 819 421 819 440 819 425 878 489 878 487 878 483 844 421 844 481 844 425 876 491 876 489 876 425 776 483 776 491 776 425 777 421 777 483 777 510 886 427 886 425 886 423 887 515 887 421 887 501 778 497 778 427 778 499 794 423 794 427 794 497 803 499 803 427 803 544 788 501 788 427 788 510 786 544 786 427 786 499 751 504 751 423 751 504 791 505 791 423 791 505 800 507 800 423 800 507 798 515 798 423 798 493 856 515 856 507 856 544 863 495 863 501 863 544 725 493 725 495 725 540 697 515 697 493 697 544 756 540 756 493 756 510 890 545 890 544 890 542 891 515 891 540 891 441 626 555 626 553 626 440 618 555 618 441 618 441 503 553 503 552 503 548 503 541 503 552 503 459 502 441 502 552 502 462 503 459 503 552 503 422 503 462 503 552 503 420 503 422 503 552 503 541 503 420 503 552 503 459 503 457 503 441 503 457 503 443 503 441 503 443 503 517 503 554 503 443 503 520 503 517 503 449 503 443 503 457 503 449 502 451 502 443 502 451 503 424 503 443 503 424 503 520 503 443 503 422 503 464 503 462 503 422 503 456 503 464 503 424 503 454 503 422 503 454 503 456 503 422 503 454 503 424 503 451 503 473 503 470 503 420 503 475 503 473 503 420 503 541 503 475 503 420 503 470 503 426 503 420 503 426 503 520 503 424 503 472 503 426 503 470 503 472 503 557 503 426 503 543 503 520 503 426 503 557 503 543 503 426 503 541 503 465 503 475 503 541 503 466 503 465 503 541 503 543 503 466 503 548 503 539 503 541 503 558 502 543 502 557 502 543 503 558 503 466 503 546 503 520 503 543 503 550 990 472 990 469 990 557 986 472 986 550 986 551 983 557 983 550 983 558 572 557 572 551 572 468 547 558 547 551 547 558 468 468 468 466 468</p>
        </triangles>
      </mesh>
    </geometry>
  </library_geometries>
  <library_visual_scenes>
    <visual_scene id="Scene" name="Scene">
      <node id="Object" name="Object" type="NODE">
        <instance_geometry url="#geometry">
          <bind_material>
            <technique_common>
              <instance_material symbol="MATERIAL" target="#mat" />
            </technique_common>
          </bind_material>
        </instance_geometry>
      </node>
    </visual_scene>
  </library_visual_scenes>
  <scene>
    <instance_visual_scene url="#Scene" />
  </scene>
</COLLADA>