<?xml version='1.0' encoding='utf-8'?>
<COLLADA xmlns="http://www.collada.org/2005/11/COLLADASchema" version="1.4.1">
  <asset>
    <contributor>
      <authoring_tool>RM27 reviewed Blender visual export</authoring_tool>
    </contributor>
    <created>2026-10-07T00:00:00Z</created>
    <modified>2026-10-07T00:00:00Z</modified>
    <unit name="meter" meter="1" />
    <up_axis>Z_UP</up_axis>
  </asset>
  <library_effects>
    <effect id="fx">
      <profile_COMMON>
        <technique sid="common">
          <phong>
            <emission>
              <color>0 0 0 1</color>
            </emission>
            <ambient>
              <color>0.82745098 0.737254902 0.670588235 1</color>
            </ambient>
            <diffuse>
              <color>0.82745098 0.737254902 0.670588235 1</color>
            </diffuse>
            <specular>
              <color>0.08 0.08 0.08 1</color>
            </specular>
            <shininess>
              <float>12</float>
            </shininess>
          </phong>
        </technique>
      </profile_COMMON>
    </effect>
  </library_effects>
  <library_materials>
    <material id="mat" name="source_color">
      <instance_effect url="#fx" />
    </material>
  </library_materials>
  <library_geometries>
    <geometry id="geometry" name="geometry">
      <mesh>
        <source id="positions">
          <float_array id="positions-array" count="762">-0.555000007153 -0.620001018047 4.87747193745e-08 -0.555000007153 -0.620001018047 1.70126783848 -0.555000007153 -0.444999873638 4.87747193745e-08 -0.555000007153 -0.444999873638 0.130000039935 -0.555000007153 -0.444999873638 1.70126783848 -0.555000007153 0.444999992847 4.87747193745e-08 -0.555000007153 0.444999992847 0.130000039935 -0.555000007153 0.444999992847 1.70126783848 -0.555000007153 0.620000183582 4.87747193745e-08 -0.555000007153 0.620000183582 1.70126783848 -0.122819595039 -0.620001018047 1.15600025654 -0.122819595039 -0.620001018047 1.77747285366 -0.122819595039 -0.444999873638 1.15600025654 -0.122819595039 -0.444999873638 1.77747285366 -0.122819595039 0.444999992847 1.15600025654 -0.122819595039 0.444999992847 1.77747285366 -0.122819595039 0.620000183582 1.15600025654 -0.122819595039 0.620000183582 1.77747285366 -0.122079543769 -0.620001018047 1.15600025654 -0.122079543769 -0.620001018047 1.77760338783 -0.122079543769 -0.444999873638 1.40500032902 -0.122079543769 -0.444999873638 1.77760338783 -0.122079543769 0.444999992847 1.40500032902 -0.122079543769 0.444999992847 1.77760338783 -0.122079543769 0.620000183582 1.15600025654 -0.122079543769 0.620000183582 1.77760338783 -0.0653559491038 0.0017011888558 1.63602733612 -0.0651099011302 -0.00384919554926 1.63510167599 -0.0649668499827 -0.000869440205861 1.63617670536 -0.0647999569774 3.41661980201e-05 1.6339417696 -0.0647799298167 -0.00099103373941 1.6338609457 -0.0647703930736 0.00105793552939 1.63384950161 -0.0647103115916 -0.00198619277216 1.6336094141 -0.0646998211741 0.00205023377202 1.63358688354 -0.0646921917796 0.00391800468788 1.63517427444 -0.0646035000682 -0.000868963368703 1.63322782516 -0.0645996853709 -0.00292079360224 1.63319480419 -0.0645901486278 0.0029791125562 1.63316178322 -0.0645691677928 0.0063317543827 1.63308763504 -0.0644499585032 -0.00376717955805 1.63262975216 -0.0644299313426 0.00381786911748 1.63258731365 -0.0644127652049 0.00550110405311 1.63443565369 -0.0643574520946 0.00298101990484 1.63229119778 -0.0643288418651 -0.00587289268151 1.6338070631 -0.0643240734935 0.00429661339149 1.63411688805 -0.0642697140574 -0.00347106368281 1.63195323944 -0.0642601773143 -0.00449817115441 1.63193130493 -0.0642496868968 0.00454123085365 1.6318808794 -0.0642220303416 -0.00727193290368 1.63178873062 -0.064199142158 -0.00102202815469 1.63332748413 -0.0640398785472 -0.00509278709069 1.63112092018 -0.064030341804 0.0051258332096 1.63106381893 -0.0639511868358 0.00708563392982 1.6326969862 -0.0638586804271 0.00367910950445 1.63206386566 -0.0638558194041 0.0046113259159 1.63043487072 -0.0637995526195 -0.00553290778771 1.63022303581 -0.0637938305736 0.00731451576576 1.63181686401 -0.0637900158763 0.00555498665199 1.63016116619 -0.0637203976512 -0.00752131873742 1.63187205791 -0.0637032315135 -0.00624959403649 1.63180017471 -0.0636641308665 0.00367529480718 1.63165211678 -0.0635401532054 -0.00580518180504 1.62926495075 -0.0635296627879 0.00581581657752 1.6292001009 -0.0635191723704 -0.00459926063195 1.63079786301 -0.0634800717235 0.00423510139808 1.63093972206 -0.0634753033519 0.00361664383672 1.63095033169 -0.063451461494 0.00549919670448 1.6347104311 -0.0633904263377 0.00813324563205 1.62868714333 -0.0633827969432 -0.00777404243127 1.63028681278 -0.0633608624339 0.00429947441444 1.63436162472 -0.0633513256907 0.00515968864784 1.62856078148 -0.0632845684886 0.00816424004734 1.6302280426 -0.063279800117 -0.00590007239953 1.62827587128 -0.063279800117 0.00463182991371 1.63019037247 -0.0632597729564 0.00590021675453 1.62820994854 -0.0632530972362 -0.00466983253136 1.63009560108 -0.0632006451488 -0.0053083174862 1.62797474861 -0.0631901547313 -0.00475900107995 1.62985575199 -0.0630766674876 -0.00437991553918 1.62946784496 -0.0630757138133 0.00437529152259 1.62942647934 -0.0630604550242 0.00488789146766 1.62938582897 -0.0630375668406 -0.00832669623196 1.6293078661 -0.0630099102855 -0.005817102734 1.62728583813 -0.0630003735423 0.00580389564857 1.62722086906 -0.062960319221 -0.00495307380334 1.62903511524 -0.0629593655467 -0.00798957236111 1.62709677219 -0.0628296658397 0.00499613350257 1.62855041027 -0.0628163143992 0.0045760399662 1.62848508358 -0.0627829357982 0.00757534569129 1.63221514225 -0.0627772137523 0.00518209999427 1.62801241875 -0.0627600476146 -0.0055557959713 1.62632477283 -0.0627581402659 -0.00630633765832 1.63211786747 -0.0627495571971 -0.00452010566369 1.62819778919 -0.0627438351512 0.00351746170782 1.63206088543 -0.0627400204539 -0.00754611426964 1.63205075264 -0.0627400204539 -0.00499694282189 1.62819421291 -0.0627400204539 0.00553209846839 1.62626290321 -0.0627228543162 0.00474674766883 1.62814509869 -0.0626904293895 0.00370915024541 1.63186991215 -0.0626904293895 0.00498039787635 1.62798821926 -0.0625969693065 0.00624926155433 1.62765192986 -0.0625511929393 0.00833828561008 1.62748515606 -0.0625359341502 0.00797731988132 1.62713253498 -0.0625197216868 -0.00488917762414 1.62735891342 -0.0625101849437 -0.00512711936608 1.62542200089 -0.0625101849437 0.00423510139808 1.63119852543 -0.0625054165721 0.00360472290777 1.63118910789 -0.0624996945262 0.00509197777137 1.62536501884 -0.062490157783 -0.00499074393883 1.6269608736 -0.0624729916453 0.00413782661781 1.62526965141 -0.0623299404979 -0.00419108802453 1.62667107582 -0.0623204037547 -0.00819127447903 1.62662661076 -0.0623099133372 0.00463182991371 1.63044917583 -0.0623003765941 -0.00463311607018 1.62655425072 -0.0623003765941 -0.00454204017296 1.62460505962 -0.0622927471995 0.00414640968665 1.63038814068 -0.0622803494334 -0.00782601721585 1.62616217136 -0.0622803494334 0.00449688499793 1.62455451488 -0.0622393414378 0.00660450523719 1.62633156776 -0.062227897346 -0.0047446959652 1.63016545773 -0.0622135922313 -0.00439612800255 1.63008153439 -0.0621716305614 -0.00438659125939 1.62606227398 -0.0621258541942 -0.0082999933511 1.629763484 -0.0621096417308 -0.0038191548083 1.62389850616 -0.0621001049876 0.00376589386724 1.62385618687 -0.0620991513133 0.00253088562749 1.62387919426 -0.0620896145701 0.00488789146766 1.62964463234 -0.0620552822948 -0.0025779476855 1.62372505665 -0.0620085522532 0.00652773445472 1.62353467941 -0.0619999691844 -0.00495307380334 1.62929391861 -0.0619503781199 -0.00297992140986 1.6233240366 -0.0619484707713 -0.00538270408288 1.62523376942 -0.0619398877025 0.00291998474859 1.62329113483 -0.0619017407298 0.00838263146579 1.62893044949 -0.0618702694774 0.00499613350257 1.62880921364 -0.0618502423167 0.00271542160772 1.62485873699 -0.0618445202708 0.0075524575077 1.62484574318 -0.0618397518992 -0.00205008895136 1.62289905548 -0.0618340298533 0.00456554954872 1.62867760658 -0.061833076179 0.00337250321172 1.62480556965 -0.0618302151561 0.00198586075567 1.62287652493 -0.0618264004588 -0.00593249732628 1.62285041809 -0.0617701336741 -0.00499694282189 1.62845313549 -0.0617701336741 -0.00105779094156 1.62263643742 -0.0617701336741 0.000990224652924 1.62262499332 -0.0617558285594 0.00314600556158 1.6242082119 -0.061739616096 -3.40215156029e-05 1.62254405022 -0.061700515449 0.00497801369056 1.62817072868 -0.0616900250316 0.00265820114873 1.62428164482 -0.0616871640086 -0.00449721748009 1.62812566757 -0.0616404339671 0.00607903068885 1.62796390057 -0.0616242215037 0.00085527979536 1.62404644489 -0.0616232678294 -0.00127618236002 1.62401580811 -0.0616127774119 -0.00523917609826 1.62399697304 -0.061607055366 -0.00214164168574 1.62364423275 -0.0615908429027 0.00486071174964 1.6239105463 -0.0615898892283 0.00188191013876 1.62389802933 -0.0615584179759 -0.00159137172159 1.62379026413 -0.0615498349071 -0.00488917762414 1.62761771679 -0.0615202710032 0.00104887562338 1.62365031242 -0.0615097805858 -0.000685857899953 1.6235884428 -0.0614897534251 0.000183893062058 1.6235460043 -0.0614744946361 -0.00674264365807 1.6234716177 -0.0614125058055 -0.0082360971719 1.6270917654 -0.0613743588328 0.00672562187538 1.62695193291 -0.0613648220897 -0.00422732764855 1.62692034245 -0.06132953614 -0.00463311607018 1.62681317329 -0.0613066479564 0.00272972672246 1.62091875076 -0.0612656399608 0.00542671745643 1.62236845493 -0.0612456128001 -0.00509707862511 1.62229788303 -0.0612065121531 -0.00143973750528 1.62054562569 -0.0612026974559 -0.00438516074792 1.62631821632 -0.0611702725291 -0.00254743010737 1.6223359108 -0.0611702725291 0.0080025922507 1.62620127201 -0.0611120983958 0.00541718071327 1.62212204933 -0.0609833523631 -0.00539367133752 1.6254979372 -0.0608822628856 -0.00403182441369 1.62126660347 -0.0608803555369 0.00271780579351 1.62511706352 -0.060859374702 0.00333530991338 1.62503528595 -0.0607573315501 -0.000552343495656 1.62049984932 -0.0607334896922 0.00164206104819 1.62457168102 -0.0607296749949 0.00265820114873 1.62454044819 -0.0607201382518 -0.00723187858239 1.62452483177 -0.0606810376048 0.00523741310462 1.62437748909 -0.0606657788157 0.00187141972128 1.6204521656 -0.0606505200267 -0.00120608729776 1.62425673008 -0.0606457516551 -0.000741647847462 1.62424373627 -0.0606438443065 -0.00134150905069 1.62037432194 -0.0606228634715 -0.00515239173546 1.62414717674 -0.0606200024486 0.00188191013876 1.6241568327 -0.0605894848704 -0.00154082698282 1.62403643131 -0.0605599209666 0.00104887562338 1.62390911579 -0.060539893806 -0.000685857899953 1.62384724617 -0.0605303570628 0.000183893062058 1.62380480766 -0.0605122372508 0.00670034950599 1.62375605106 -0.0602261349559 -0.00290458113886 1.62267506123 -0.0601574704051 -0.00538890296593 1.62242102623 -0.0598570629954 0.00372774689458 1.6212836504 -0.059786491096 -0.00291888625361 1.62103450298 -0.0596491619945 -0.000140833042678 1.62053024769 -0.0400797650218 -0.444999873638 0.296000063419 -0.0400797650218 -0.444999873638 1.15600025654 -0.0400797650218 0.444999992847 0.296000063419 -0.0400797650218 0.444999992847 1.15600025654 -0.0231596753001 -0.444999873638 1.40500032902 -0.0231596753001 0.444999992847 1.40500032902 0.0399201586843 -0.620001018047 0.356000006199 0.0399201586843 -0.620001018047 1.39999783039 0.0399201586843 -0.619000136852 0.356000006199 0.0399201586843 -0.619000136852 1.39999783039 0.0399201586843 0.618999779224 0.356000006199 0.0399201586843 0.618999779224 1.39999783039 0.0399201586843 0.620000183582 0.356000006199 0.0399201586843 0.620000183582 1.39999783039 0.214920341969 -0.444999873638 0.296000063419 0.214920341969 -0.444999873638 1.46848750114 0.214920341969 0.444999992847 0.296000063419 0.214920341969 0.444999992847 1.46848750114 0.256240189075 -0.444999873638 1.8443107605 0.256240189075 0.444999992847 1.8443107605 0.344800293446 -0.444999873638 0.10999994725 0.344800293446 -0.444999873638 0.130000039935 0.344800293446 0.444999992847 0.10999994725 0.344800293446 0.444999992847 0.130000039935 0.352150261402 -0.620001018047 1.45505225658 0.352150261402 -0.619000136852 1.45505225658 0.352150261402 0.618999779224 1.45505225658 0.352150261402 0.620000183582 1.45505225658 0.434540092945 -0.620001018047 1.8757506609 0.434540092945 0.620000183582 1.8757506609 0.464949905872 -0.592223823071 1.80571424961 0.464949905872 0.592222988605 1.80571424961 0.478599846363 -0.510767161846 1.88352024555 0.478599846363 0.510765850544 1.88352024555 0.488239586353 -0.534492194653 1.80982065201 0.488239586353 0.534491837025 1.80982065201 0.567799866199 -0.444999873638 4.87747193745e-08 0.567799866199 -0.444999873638 0.10999994725 0.567799866199 0.444999992847 4.87747193745e-08 0.567799866199 0.444999992847 0.10999994725 0.645229637623 -0.620001018047 0.356000006199 0.645229637623 -0.619000136852 0.356000006199 0.645229637623 0.618999779224 0.356000006199 0.645229637623 0.620000183582 0.356000006199 0.748050034046 -0.444999873638 4.87747193745e-08 0.748050034046 0.444999992847 4.87747193745e-08 0.923389732838 -0.592223823071 0.0865569636226 0.923389732838 0.592222988605 0.0865569636226 0.934740364552 -0.620001018047 4.87747193745e-08 0.934740364552 0.620000183582 4.87747193745e-08 0.947770416737 -0.534492194653 0.0865569636226 0.947770416737 0.534491837025 0.0865569636226 0.980880081654 -0.510767161846 4.87747193745e-08 0.980880081654 0.510765850544 4.87747193745e-08</float_array>
          <technique_common>
            <accessor source="#positions-array" count="254" stride="3">
              <param name="X" type="float" />
              <param name="Y" type="float" />
              <param name="Z" type="float" />
            </accessor>
          </technique_common>
        </source>
        <source id="normals">
          <float_array id="normals-array" count="849">-1 0 0 -0.97059357 0.00772368 -0.24060068 -0.96803588 -0.00370461 -0.25078464 -0.96778578 -0.00060508 -0.25177443 -0.96771973 -0.00892881 -0.25187033 -0.96758217 0.00267595 -0.25254238 -0.9674595 0.00029974 -0.25302556 -0.96734238 -0.00243438 -0.25346148 -0.96733218 0.00165396 -0.25350702 -0.96726167 0.01111438 -0.25353783 -0.96716249 -0.00492447 -0.2541115 -0.96713579 0.00122812 -0.25425762 -0.96704406 -0.00852876 -0.25446618 -0.96687913 -0.00176012 -0.25522819 -0.9668299 -0.00358341 -0.25539616 -0.96681708 -0.00709749 -0.25537071 -0.96663254 0.00636525 -0.25608787 -0.96663243 -0.00143154 -0.25616369 -0.96661788 0.00192583 -0.25621504 -0.9664712 -0.00190378 -0.25676826 -0.96641678 1.644e-05 -0.25697997 -0.96633673 1.35e-06 -0.25728077 -0.96629387 -0.00099836 -0.25743985 -0.966268 -0.00035696 -0.25753853 -0.96621895 -0.00151964 -0.25771835 -0.96619284 -0.0009848 -0.2578184 -0.96618062 0.00232352 -0.25785559 -0.96617031 0.00125982 -0.25790182 -0.96616077 0.00126733 -0.2579374 -0.96615261 -0.00092883 -0.25796971 -0.96615177 0.0010678 -0.25797209 -0.96615064 -0.00287248 -0.25796276 -0.966129 -0.00207871 -0.25805113 -0.96609569 0.00084874 -0.258183 -0.96609354 0.00163094 -0.25818706 -0.96607333 0.00055101 -0.25826758 -0.96605009 0.00026323 -0.25835487 -0.96604234 -0.000375 -0.25838357 -0.96603954 -9.61e-05 -0.25839424 -0.96599704 0.00112613 -0.25855064 -0.9659853 -7.102e-05 -0.25859684 -0.96594745 0.00152818 -0.25873387 -0.9659332 0.00051229 -0.25879088 -0.9659223 -0.00286823 -0.25881624 -0.96591693 -0.000945 -0.25885043 -0.96590608 -0.00108292 -0.25889048 -0.96587551 -0.0001217 -0.25900677 -0.96586978 0.0004117 -0.25902784 -0.96586639 -0.00369691 -0.25901443 -0.96585351 -0.00585271 -0.25902271 -0.96583438 0.00131283 -0.25915679 -0.96581829 -0.00312206 -0.25920135 -0.9658075 -0.00067337 -0.25925916 -0.96579593 -0.00069633 -0.25930238 -0.96575212 -0.00046962 -0.25946593 -0.96570557 -3.468e-05 -0.25963974 -0.96558946 0.00140524 -0.26006714 -0.96558911 0.00146996 -0.26006827 -0.96558285 -0.00109148 -0.26009345 -0.96554482 -0.00145854 -0.26023257 -0.96550965 -0.0051361 -0.2603167 -0.96544385 -0.00166993 -0.26060596 -0.96541685 -9.357e-05 -0.26071104 -0.96538353 -0.00155845 -0.26082999 -0.96536958 0.00436817 -0.26084983 -0.96535921 -0.00438606 -0.26088765 -0.96529227 -0.00063235 -0.26117104 -0.96528971 0.01331819 -0.26084182 -0.96528077 0.00520622 -0.26116243 -0.96524024 0.00028554 -0.26136419 -0.96521842 0.00012229 -0.26144499 -0.96515745 0.00265903 -0.26165608 -0.96509612 0.00025885 -0.26189592 -0.96504235 0.00944109 -0.26192394 -0.96495253 0.00021808 -0.2624239 -0.96495134 -0.00076303 -0.26242766 -0.96493864 0.00022092 -0.26247552 -0.96490663 0.00149776 -0.26258871 -0.9648034 8.252e-05 -0.262972 -0.9648025 0.0004391 -0.26297501 -0.96479601 -0.00024716 -0.26299939 -0.96468097 0.00425879 -0.26338646 -0.96437615 0.00193866 -0.26452756 -0.96397334 0.00243533 -0.2659876 -0.96293175 0.00024041 -0.2697449 -0.96202791 0.00011602 -0.27295122 -0.89736122 -0.11101015 0.42710614 -0.81190038 0.40492719 0.42053729 -0.80350018 -0.50832319 0.30983081 -0.72586167 0.68256855 0.08499917 -0.68723863 -0.70096582 0.19065662 -0.6703397 0.69830734 -0.251021 -0.58825105 0.68418413 0.4311063 -0.58674198 -0.10218838 0.80330032 -0.55546451 0.73988038 -0.37952101 -0.55247182 0.40114671 -0.73065466 -0.54993594 -0.72448456 -0.41556284 -0.53419733 0.32059383 0.78221017 -0.53063148 -0.84750026 -0.01317361 -0.49970385 0.43478692 -0.74917042 -0.4890863 -0.72663045 -0.4824965 -0.46158358 -0.68529743 0.56330079 -0.40892568 -0.13913251 0.9018991 -0.31497756 0.05779915 0.94733751 -0.28961405 -0.89480209 -0.33978349 -0.26550052 -0.26488096 0.92701 -0.25664565 0.08460877 0.96279502 -0.25630915 0.08004775 -0.96327466 -0.24500342 0.91096997 0.33182374 -0.2423128 0.02961879 0.96974599 -0.24175605 -0.95427477 0.17582303 -0.23504619 -0.2876825 0.92843533 -0.23379138 0.90604675 0.35273346 -0.23375644 -0.4180721 -0.87782329 -0.22680797 -0.46486017 0.85584068 -0.22259888 0.13542126 0.96545881 -0.21972772 -0.01411917 0.97545904 -0.20034763 -0.87061542 0.44932124 -0.18309969 -0.98254544 0.03284907 -0.18040334 -0.05579733 0.98200876 -0.18029597 0.75035644 0.63597065 -0.17580549 0.52821398 0.83071202 -0.17365538 -2.97e-06 0.98480648 -0.17365536 2.97e-06 0.98480654 -0.17364857 0 0.98480773 -0.17364854 4.22e-06 0.98480767 -0.17364806 0 0.98480779 -0.17364666 -6.18e-06 0.98480797 -0.17364664 0 0.98480797 -0.17237033 0.53765893 0.82535529 -0.172031 0.74475002 0.64478904 -0.16830978 -0.59630257 0.78491729 -0.16508833 -0.41147742 0.89634377 -0.16026777 -0.56286627 0.81086117 -0.13017166 0.99109364 0.02808383 -0.12232035 -0.22722362 -0.96612996 -0.10845441 0.98321998 0.14668353 -0.10775757 -0.95633668 0.27167696 -0.0906808 -0.8431102 0.53003985 -0.08635594 0.55644828 0.82638246 -0.07755059 -0.95288652 0.29324594 -0.07417519 -0.95008731 0.30303833 -0.06628839 0.77568388 0.62763071 -0.04892473 0.2356942 0.97059494 -0.04283757 0.95434904 -0.29560605 -0.03715675 0.42194048 -0.90586179 -0.02546707 0.99796635 -0.0584347 -0.02062479 -0.9982214 -0.05593359 -0.01887069 0.99373043 0.1101987 -0.01853009 0.97671378 0.21374489 -0.00688998 0.97792226 0.20885552 -0.0049467 -0.90826702 -0.41836163 -0.00164354 0.78677154 -0.61724216 0 -1 0 0 -0.99999994 0 0 0.99999994 -0 0 1 0 0.00630892 -0.97163719 -0.23639275 0.01151759 -0.99526912 -0.09647229 0.01416557 0.77896613 0.62690592 0.02368448 -0.84525245 -0.53384209 0.02890702 -0.97919655 -0.20084403 0.03148523 -0.80700886 0.58969945 0.0363577 -0.99923813 -0.01419004 0.03817346 -0.63556474 -0.7711032 0.06133009 0.96942532 -0.23759854 0.07485966 -0.8992669 -0.4309468 0.08161622 0.9927218 -0.08855697 0.0933368 0.96076971 0.26117012 0.10775576 0.95438415 -0.27845904 0.12113306 -0.83688164 -0.53381264 0.12409351 -0.9349736 -0.3323029 0.12543298 0.02488567 -0.99178994 0.12886353 -0.32244658 -0.93777519 0.13444088 -0.26628873 -0.95447165 0.14823641 -0.56537277 -0.81140602 0.14892884 0.98406732 -0.09711625 0.1742532 -0.26424015 -0.94858479 0.19240765 -0.78535289 -0.58838773 0.19447812 0.64405578 -0.73984486 0.20351538 -0.02777992 0.97867751 0.20692554 0.65260637 -0.72889417 0.21616335 -0.89546466 -0.38912272 0.23100987 0.8831858 -0.4081879 0.26402849 -0.94694453 -0.18326193 0.27111575 -0.95982784 0.0722966 0.27112117 0.95982599 0.07230016 0.27113113 -0.95982301 0.07230281 0.27113694 0.9598214 0.07230224 0.27325663 -0.19197857 -0.94258946 0.31453496 -0.57822174 0.75281298 0.31542253 -0.75401354 -0.57617038 0.33753249 -0.49880716 -0.79828769 0.3648454 -0.18371482 -0.91276324 0.36983657 0.44653311 -0.81475705 0.37578094 -0.9199118 0.1120318 0.38226151 -0.84868556 0.36552575 0.40718037 0.58535087 0.70111942 0.41800681 0.63359952 -0.65101606 0.45075145 0.19391504 -0.87133229 0.49702415 -0.7006231 0.51195121 0.50316697 0.65902412 0.559026 0.51356691 -0.31290293 0.79896224 0.58149534 0.13463746 0.80233145 0.61273086 -0.34678456 -0.71014184 0.62754786 0.72961223 0.27175295 0.68671989 -0.66761595 -0.28758433 0.70355684 -0.61731714 -0.3520332 0.73146272 0.66287881 -0.15985613 0.80243498 0.59385383 -0.05861566 0.894517 -0.37807044 0.23854175 0.89452213 0.37805739 0.23854311 0.8945781 -0.37785906 0.23864742 0.89458185 -0.37786594 0.23862247 0.8945899 -0.37788883 0.23855621 0.89459062 0.37788624 0.23855753 0.89459318 0.37786907 0.23857531 0.89459687 0.37786424 0.23856904 0.89460015 0.37781155 0.23863989 0.89460272 0.37780339 0.23864342 0.894611 -0.37781438 0.23859487 0.89461464 -0.37782508 0.23856395 0.89461637 0.37782165 0.23856327 0.89462268 -0.37780872 0.23855981 0.89469993 -0.3776108 0.23858346 0.89470518 0.37759781 0.23858483 0.89490277 0.20065425 -0.39860603 0.96381235 -0.00251871 0.26656982 0.96461821 0.00070809 0.26364997 0.9646433 -0.00183525 0.2635529 0.96472675 -0.00289826 0.26323745 0.96505952 -8.02e-05 0.26203042 0.965132 -0.00823448 0.26163426 0.96529526 0.00736945 0.26105708 0.96545178 -0.00062957 0.26058108 0.96545237 -0.00063431 0.26057884 0.96546382 0.00032317 0.26053667 0.96548432 -0.00119502 0.26045862 0.96548551 -0.00076372 0.26045555 0.96552533 6.833e-05 0.26030907 0.96555126 -0.00090916 0.26021144 0.96556258 -9.497e-05 0.26017088 0.96559185 0.00205966 0.26005414 0.96565008 -9.772e-05 0.25984594 0.96565288 0.00129296 0.25983223 0.96567053 -0.00013753 0.25976965 0.96568722 0.00168839 0.25970224 0.96569008 -0.00032183 0.2596969 0.96569633 0.00208132 0.25966573 0.96572465 0.0014205 0.25956476 0.96578032 0.00108306 0.25935921 0.96579361 5.527e-05 0.25931197 0.96580899 -4.112e-05 0.25925457 0.96583676 -0.00202452 0.25914338 0.96584725 -0.00180889 0.2591058 0.96586406 -0.00021016 0.25904959 0.96591246 -0.00037116 0.25886875 0.96591258 0.00121483 0.25886568 0.96591544 -0.00076254 0.25885683 0.96591783 0.00022849 0.25884882 0.96592629 0.00035429 0.25881678 0.96592867 0.00023043 0.25880849 0.96594399 0.00111366 0.25874865 0.96595615 -0.00088918 0.2587046 0.96597618 -0.00197183 0.25862354 0.9660573 0.00026135 0.25832739 0.9660818 -0.00125543 0.25823328 0.96609586 -0.00180196 0.25817728 0.96610749 0.00168693 0.25813463 0.96614337 0.0002953 0.25800556 0.96614933 -0.00136796 0.25797975 0.96616364 -0.00172983 0.25792417 0.96619582 -0.00331987 0.25778797 0.96631593 -0.00184934 0.25735196 0.96642476 -0.0002176 0.2569496 0.96649879 -0.00078426 0.25667024 0.96670562 -0.00247612 0.25587884 0.96675229 0.00237405 0.25570363 0.96695799 -0.00038612 0.25493568 0.96711415 -0.00567204 0.25427943 0.9672206 -0.00010237 0.25393736 0.96737045 -0.00555437 0.25330541 0.96792448 0.00623172 0.25116417</float_array>
          <technique_common>
            <accessor source="#normals-array" count="283" stride="3">
              <param name="X" type="float" />
              <param name="Y" type="float" />
              <param name="Z" type="float" />
            </accessor>
          </technique_common>
        </source>
        <vertices id="vertices">
          <input semantic="POSITION" source="#positions" />
        </vertices>
        <triangles count="345" material="MATERIAL">
          <input semantic="VERTEX" source="#vertices" offset="0" />
          <input semantic="NORMAL" source="#normals" offset="1" />
          <p>61 10 72 10 85 10 48 56 61 56 85 56 72 79 82 79 85 79 55 66 61 66 48 66 90 51 141 51 85 51 82 3 90 3 85 3 50 50 55 50 48 50 90 67 104 67 141 67 46 76 50 76 48 76 104 12 114 12 141 12 39 74 46 74 48 74 27 29 39 29 48 29 114 62 123 62 141 62 36 27 39 27 27 27 130 33 170 33 141 33 123 82 130 82 141 82 32 36 36 36 27 36 137 65 170 65 130 65 30 61 32 61 27 61 26 20 30 20 27 20 143 58 170 58 137 58 29 41 30 41 26 41 146 68 170 68 143 68 144 4 170 4 146 4 144 72 167 72 170 72 26 64 31 64 29 64 140 16 167 16 144 16 26 55 33 55 31 55 132 30 167 30 140 30 26 60 37 60 33 60 124 85 128 85 132 85 128 25 167 25 132 25 26 9 40 9 37 9 117 5 128 5 124 5 26 63 38 63 40 63 38 2 47 2 40 2 107 59 128 59 117 59 38 34 51 34 47 34 96 42 128 42 107 42 38 21 57 21 51 21 83 81 67 81 96 81 67 46 128 46 96 46 38 26 67 26 57 26 67 70 62 70 57 70 74 7 67 7 83 7 67 80 74 80 62 80 116 195 68 195 85 195 68 98 48 98 85 98 141 100 116 100 85 100 68 200 43 200 48 200 141 206 169 206 116 206 43 88 27 88 48 88 170 113 169 113 141 113 170 204 179 204 169 204 43 202 28 202 27 202 28 86 26 86 27 86 167 107 179 107 170 107 167 226 168 226 179 226 28 203 34 203 26 203 128 95 168 95 167 95 34 87 38 87 26 87 34 197 56 197 38 197 128 208 102 208 168 208 56 89 67 89 38 89 67 94 102 94 128 94 56 205 102 205 67 205 108 266 68 266 116 266 108 255 63 255 68 255 63 247 43 247 68 247 154 275 108 275 116 275 169 261 154 261 116 261 179 235 154 235 169 235 49 241 28 241 43 241 63 245 49 245 43 245 145 234 154 234 179 234 53 256 34 256 49 256 34 240 28 240 49 240 168 257 145 257 179 257 56 260 34 260 53 260 168 262 89 262 145 262 168 264 102 264 89 264 89 269 56 269 53 269 102 254 56 254 89 254 63 91 108 91 76 91 45 209 63 209 76 209 108 201 127 201 76 201 154 92 127 92 108 92 49 99 63 99 45 99 35 194 49 194 45 194 154 180 125 180 127 180 145 93 125 93 154 93 42 135 53 135 35 135 53 174 49 174 35 174 145 190 109 190 125 190 54 207 53 207 42 207 89 90 109 90 145 90 89 196 70 196 109 196 70 104 89 104 54 104 89 96 53 96 54 96 110 169 165 169 121 169 165 165 171 165 121 165 121 181 175 181 131 181 121 179 171 179 175 179 175 148 153 148 131 148 188 136 153 136 175 136 188 129 172 129 153 129 195 139 172 139 188 139 190 101 172 101 195 101 190 138 157 138 172 138 190 131 152 131 157 131 185 133 152 133 190 133 186 109 152 109 185 109 186 116 151 116 152 116 180 102 151 102 186 102 180 132 135 132 151 132 177 114 135 114 180 114 177 106 139 106 135 106 178 115 139 115 177 115 178 121 155 121 139 121 183 97 155 97 178 97 183 162 118 162 155 162 164 117 118 117 183 117 164 160 150 160 100 160 118 184 164 184 100 184 100 177 147 177 99 177 100 189 150 189 147 189 97 166 138 166 87 166 99 175 147 175 97 175 147 178 138 178 97 178 115 170 106 170 65 170 79 182 115 182 65 182 138 157 115 157 79 157 87 161 138 161 79 161 93 118 60 118 65 118 65 158 106 158 93 158 95 38 111 38 81 38 84 8 95 8 81 8 95 13 103 13 111 13 58 19 77 19 81 19 77 84 84 84 81 84 103 78 113 78 111 78 113 6 121 6 111 6 121 53 131 53 111 53 131 52 162 52 111 52 59 17 77 17 58 17 131 71 153 71 162 71 75 11 77 11 59 11 153 28 176 28 162 28 153 44 172 44 176 44 172 54 187 54 176 54 157 39 187 39 172 39 160 49 187 49 157 49 161 73 187 73 160 73 161 23 184 23 187 23 159 43 184 43 161 43 156 48 184 48 159 48 174 47 184 47 156 47 148 18 174 18 156 18 139 75 155 75 148 75 155 40 174 40 148 40 44 31 41 31 60 31 41 15 64 15 60 15 52 37 73 37 64 37 41 22 52 22 64 22 71 77 80 77 73 77 52 57 71 57 73 57 71 83 86 83 80 83 71 14 100 14 86 14 100 1 99 1 86 1 136 45 174 45 155 45 118 24 136 24 155 24 71 35 101 35 100 35 101 69 118 69 100 69 101 32 136 32 118 32 69 111 66 111 44 111 66 105 41 105 44 105 111 147 163 147 81 147 163 163 122 163 81 163 122 137 58 137 81 137 94 140 58 140 122 140 111 171 182 171 163 171 162 151 182 151 111 151 162 191 196 191 182 191 176 164 196 164 162 164 176 192 198 192 196 192 187 173 198 173 176 173 187 193 199 193 198 193 184 172 199 172 187 172 184 199 197 199 199 199 174 145 197 145 184 145 194 198 197 198 174 198 66 120 52 120 41 120 88 142 52 142 66 142 136 152 194 152 174 152 173 183 194 183 136 183 88 108 71 108 52 108 101 144 173 144 136 144 133 168 71 168 88 168 133 176 173 176 101 176 133 134 101 134 71 134 94 119 91 119 58 119 91 103 59 103 58 103 91 130 75 130 59 130 119 159 75 159 91 159 119 143 120 143 75 143 120 112 78 112 75 112 120 146 149 146 92 146 78 167 120 167 92 167 149 150 110 150 92 150 165 149 110 149 149 149 93 110 44 110 60 110 69 141 44 141 93 141 163 271 142 271 122 271 142 228 129 228 122 228 158 278 142 278 163 278 129 251 94 251 122 251 166 229 158 229 163 229 175 276 166 276 163 276 182 236 175 236 163 236 129 279 119 279 94 279 119 231 91 231 94 231 188 268 175 268 182 268 196 242 188 242 182 242 171 282 166 282 175 282 198 259 195 259 196 259 195 239 188 239 196 239 199 263 190 263 195 263 198 258 199 258 195 258 199 249 192 249 190 249 199 248 193 248 192 248 199 246 191 246 193 246 197 244 191 244 199 244 197 281 189 281 191 281 197 233 181 233 189 233 197 272 178 272 181 272 98 232 69 232 93 232 88 243 69 243 98 243 105 252 88 252 98 252 88 273 66 273 69 273 112 265 88 265 105 265 183 270 178 270 197 270 126 230 88 230 112 230 134 280 133 280 126 280 133 250 88 250 126 250 147 274 133 274 134 274 197 267 194 267 183 267 150 227 133 227 147 227 194 238 164 238 183 238 194 237 173 237 164 237 164 277 133 277 150 277 173 253 133 253 164 253 211 156 242 156 210 156 211 155 226 155 242 155 15 126 17 126 7 126 17 126 9 126 7 126 229 124 25 124 23 124 219 127 229 127 23 127 233 123 229 123 219 123 253 185 219 185 245 185 253 187 233 187 219 187 251 211 233 211 253 211 247 219 251 219 253 219 249 216 247 216 253 216 251 225 235 225 233 225 235 218 229 218 233 218 231 217 229 217 235 217 249 222 231 222 247 222 249 215 229 215 231 215 9 155 17 155 8 155 17 156 16 156 8 156 16 156 24 156 8 156 24 156 212 156 8 156 212 156 249 156 8 156 212 156 243 156 249 156 243 156 229 156 249 156 24 156 213 156 212 156 227 156 229 156 243 156 25 155 213 155 24 155 25 156 227 156 213 156 25 156 229 156 227 156 6 0 8 0 5 0 7 0 9 0 6 0 9 0 8 0 6 0 245 153 239 153 238 153 219 153 239 153 245 153 239 153 223 153 222 153 219 154 217 154 239 154 217 153 216 153 239 153 216 153 223 153 239 153 14 153 7 153 6 153 223 153 202 153 6 153 202 153 203 153 6 153 203 153 14 153 6 153 216 153 202 153 223 153 15 153 7 153 14 153 205 153 23 153 22 153 219 153 23 153 205 153 217 153 219 153 205 153 225 153 209 153 208 153 241 153 225 153 208 153 10 154 1 154 0 154 206 153 10 153 0 153 240 153 206 153 0 153 248 153 240 153 0 153 224 153 240 153 248 153 228 153 224 153 248 153 207 153 18 153 206 153 18 153 10 153 206 153 11 153 1 153 10 153 207 154 19 154 18 154 224 153 228 153 207 153 228 154 19 154 207 154 252 213 250 213 248 213 250 223 246 223 248 223 246 221 228 221 248 221 246 214 230 214 228 214 230 220 232 220 228 220 234 212 232 212 230 212 252 210 232 210 250 210 232 224 234 224 250 224 244 186 232 186 252 186 244 188 218 188 232 188 218 128 21 128 19 128 228 125 218 125 19 125 232 122 218 122 228 122 11 126 13 126 1 126 13 126 4 126 1 126 1 0 4 0 0 0 4 0 3 0 0 0 3 0 2 0 0 0 237 156 244 156 236 156 237 156 218 156 244 156 221 156 237 156 220 156 221 156 218 156 237 156 4 156 13 156 3 156 13 156 12 156 3 156 12 156 201 156 3 156 201 156 200 156 3 156 200 156 221 156 3 156 200 156 214 156 221 156 214 156 215 156 221 156 215 155 218 155 221 155 21 156 204 156 20 156 218 156 215 156 204 156 21 156 218 156 204 156</p>
        </triangles>
      </mesh>
    </geometry>
  </library_geometries>
  <library_visual_scenes>
    <visual_scene id="Scene" name="Scene">
      <node id="Object" name="Object" type="NODE">
        <instance_geometry url="#geometry">
          <bind_material>
            <technique_common>
              <instance_material symbol="MATERIAL" target="#mat" />
            </technique_common>
          </bind_material>
        </instance_geometry>
      </node>
    </visual_scene>
  </library_visual_scenes>
  <scene>
    <instance_visual_scene url="#Scene" />
  </scene>
</COLLADA>