<?xml version='1.0' encoding='utf-8'?>
<COLLADA xmlns="http://www.collada.org/2005/11/COLLADASchema" version="1.4.1">
  <asset>
    <contributor>
      <authoring_tool>RM27 reviewed Blender visual export</authoring_tool>
    </contributor>
    <created>2026-10-07T00:00:00Z</created>
    <modified>2026-10-07T00:00:00Z</modified>
    <unit name="meter" meter="1" />
    <up_axis>Z_UP</up_axis>
  </asset>
  <library_effects>
    <effect id="fx">
      <profile_COMMON>
        <technique sid="common">
          <phong>
            <emission>
              <color>0 0 0 1</color>
            </emission>
            <ambient>
              <color>0.42745098 0.17254902 0.0392156863 1</color>
            </ambient>
            <diffuse>
              <color>0.42745098 0.17254902 0.0392156863 1</color>
            </diffuse>
            <specular>
              <color>0.08 0.08 0.08 1</color>
            </specular>
            <shininess>
              <float>12</float>
            </shininess>
          </phong>
        </technique>
      </profile_COMMON>
    </effect>
  </library_effects>
  <library_materials>
    <material id="mat" name="source_color">
      <instance_effect url="#fx" />
    </material>
  </library_materials>
  <library_geometries>
    <geometry id="geometry" name="geometry">
      <mesh>
        <source id="positions">
          <float_array id="positions-array" count="813">0.53727632761 2.10451221466 -0.407800912857 0.539011120796 2.1027777195 -0.411115497351 0.539289832115 2.10249876976 -0.415384799242 0.53833258152 2.10345602036 -0.418519765139 0.53695833683 2.10483002663 -0.420471072197 0.535195231438 2.10659313202 -0.421639323235 0.533256411552 2.10853242874 -0.421884328127 0.533235788345 2.10855293274 -0.406090468168 0.535174608231 2.10661435127 -0.406325101852 0.531356394291 2.11043190956 -0.406807750463 0.529763817787 2.11202454567 -0.408390849829 0.528149843216 2.11363887787 -0.413307189941 0.528650045395 2.11313867569 -0.410649061203 0.528425514698 2.11336302757 -0.416678011417 0.531005859375 2.11078262329 -0.420947223902 0.529518604279 2.11227011681 -0.419169008732 0.534147799015 2.09774136543 -0.411680668592 0.534383177757 2.0975060463 -0.41441577673 0.533940374851 2.09794902802 -0.417096942663 0.533522546291 2.09836626053 -0.409715235233 0.532877981663 2.0990114212 -0.419401615858 0.531845808029 2.10004329681 -0.407345473766 0.531321108341 2.10056805611 -0.42105525732 0.529543817043 2.1023452282 -0.406082600355 0.529457509518 2.10243201256 -0.421855926514 0.527513623238 2.10437512398 -0.421706736088 0.526647031307 2.10524201393 -0.406605154276 0.525261342525 2.10662817955 -0.420208543539 0.524692118168 2.10719704628 -0.408569514751 0.523959159851 2.10793018341 -0.418081581593 0.523412466049 2.10847640038 -0.411557942629 0.523219883442 2.10866951942 -0.41493666172 0.532244920731 2.09964394569 -0.413034886122 0.518026888371 2.08557748795 -0.412532091141 0.518168866634 2.08543610573 -0.41466537118 0.532286405563 2.09960269928 -0.414884537458 0.531874716282 2.10001444817 -0.411489188671 0.517605423927 2.08599948883 -0.416718393564 0.517471075058 2.08613395691 -0.410982728004 0.531686246395 2.10020256042 -0.416846752167 0.516541957855 2.08706307411 -0.418242365122 0.53080868721 2.10108089447 -0.409883916378 0.516574442387 2.08703041077 -0.409796148539 0.530549645424 2.10133934021 -0.418356597424 0.529709815979 2.10217928886 -0.409159034491 0.515190601349 2.08841443062 -0.409017711878 0.515066683292 2.08853840828 -0.418952137232 0.529099404812 2.10278987885 -0.4189684093 0.520750880241 2.09487462044 -0.40899848938 0.513558804989 2.09004616737 -0.41878002882 0.519730567932 2.09589505196 -0.409157067537 0.513293623924 2.09031105042 -0.409328579903 0.527552723885 2.10433650017 -0.418707877398 0.518378376961 2.09724712372 -0.410115242004 0.512225627899 2.09137988091 -0.417638152838 0.5118278265 2.09177732468 -0.41090631485 0.526048004627 2.10584163666 -0.417203515768 0.511495649815 2.09210944176 -0.416266053915 0.517192959785 2.09843230247 -0.41263449192 0.511072397232 2.09253263474 -0.413633555174 0.517315387726 2.098310709 -0.415749549866 0.525483071804 2.10640621185 -0.415730714798 0.528891861439 2.10301589966 -0.408998519182 0.533141791821 2.098747015 -0.40942299366 0.532621085644 2.09926795959 -0.409138888121 0.532075285912 2.09981393814 -0.408974289894 0.53155118227 2.10033798218 -0.408932089806 0.479981660843 2.04725551605 -0.413538515568 0.465700984001 2.03325152397 -0.412532329559 0.465848505497 2.03310465813 -0.414256721735 0.479877322912 2.04736018181 -0.41527056694 0.465466856956 2.03348588943 -0.416327983141 0.479661256075 2.04757618904 -0.411862194538 0.465144991875 2.03380823135 -0.410982489586 0.479359269142 2.04787826538 -0.416848838329 0.478954493999 2.04828262329 -0.410441547632 0.464216291904 2.03473687172 -0.418242186308 0.464248031378 2.03470468521 -0.409795641899 0.478223800659 2.04901337624 -0.418356567621 0.477947741747 2.04928994179 -0.409448772669 0.463189661503 2.03576374054 -0.409145534039 0.462740749121 2.03621244431 -0.418952137232 0.47654914856 2.05068802834 -0.408946990967 0.476773619652 2.05046391487 -0.418968379498 0.470546424389 2.04467058182 -0.408997654915 0.462421089411 2.03654527664 -0.408998519182 0.461232960224 2.03771996498 -0.418780088425 0.475226730108 2.05201029778 -0.418707847595 0.45968323946 2.039270401 -0.417371541262 0.473963320255 2.05327439308 -0.417530953884 0.473327040672 2.05391025543 -0.416283428669 0.459015399218 2.0399389267 -0.4157307446 0.467146396637 2.04806995392 -0.415730714798 0.469420641661 2.04579567909 -0.409199804068 0.474520117044 2.05271720886 -0.409731328487 0.467801183462 2.04741597176 -0.410555720329 0.473273128271 2.05396437645 -0.411798685789 0.466880142689 2.04833626747 -0.413616210222 0.472892403603 2.05434513092 -0.414066940546 0.462135195732 2.02691864967 -0.40972200036 0.462739080191 2.02631473541 -0.416414648294 0.4629316926 2.02612161636 -0.41303473711 0.461459994316 2.02759337425 -0.419402062893 0.459902495146 2.02915143967 -0.421055942774 0.458126038313 2.03092765808 -0.406082630157 0.460428774357 2.02862453461 -0.407346069813 0.458039730787 2.03101372719 -0.421855926514 0.456096440554 2.03295731544 -0.421706885099 0.453915774822 2.03513765335 -0.420294672251 0.452147781849 2.03690600395 -0.417009174824 0.451995462179 2.03705859184 -0.411554813385 0.451781600714 2.03727197647 -0.414124011993 0.453574001789 2.03547978401 -0.408083111048 0.455738037825 2.03331613541 -0.406401127577 0.467901647091 2.03105139732 -0.41466113925 0.467728018761 2.03122496605 -0.41191843152 0.467187404633 2.03176593781 -0.418007403612 0.467016518116 2.03193640709 -0.409687459469 0.465793401003 2.0331594944 -0.407736837864 0.465539097786 2.03341412544 -0.420472353697 0.46375733614 2.03519630432 -0.406325280666 0.46377658844 2.03517651558 -0.421639621258 0.461817890406 2.03713512421 -0.406090497971 0.46183848381 2.03711462021 -0.421884328127 0.459519684315 2.03943300247 -0.407059967518 0.459957063198 2.03899621964 -0.421176642179 0.458797484636 2.04015493393 -0.420121788979 0.457719296217 2.041233778 -0.409451037645 0.457418352365 2.04153513908 -0.417939215899 0.456899315119 2.04205369949 -0.411950409412 0.456733584404 2.04221963882 -0.414690703154 0.466694712639 2.03225803375 -0.409437298775 0.46617859602 2.03277397156 -0.409149795771 0.465636909008 2.03331589699 -0.40898001194 0.46508321166 2.03386998177 -0.408932089806 -0.536067187786 1.18296515942 -0.406776189804 -0.528429627419 1.17532789707 -0.416691690683 -0.528148889542 1.17504715919 -0.413326144218 -0.528857171535 1.17575502396 -0.409963101149 -0.529831886292 1.17673003674 -0.419690072536 -0.530495047569 1.17739295959 -0.407516270876 -0.531516075134 1.17841458321 -0.42126584053 -0.532251775265 1.17914950848 -0.406340509653 -0.53339612484 1.18029427528 -0.421899586916 -0.534186959267 1.18108534813 -0.406083613634 -0.535316348076 1.18221437931 -0.421592622995 -0.538387537003 1.18528532982 -0.418410718441 -0.537048518658 1.1839466095 -0.420382022858 -0.539172828197 1.18607127666 -0.415916860104 -0.53876131773 1.18565952778 -0.410454362631 -0.53931337595 1.18621206284 -0.413192868233 -0.537625491619 1.18452394009 -0.408286094666 -0.523223161697 1.18002080917 -0.414984375238 -0.523413062096 1.18021047115 -0.411516785622 -0.523962259293 1.18075978756 -0.418088883162 -0.525024175644 1.18182182312 -0.408050268888 -0.525266170502 1.1820640564 -0.420121401548 -0.52638310194 1.18318092823 -0.421151548624 -0.527094721794 1.18389236927 -0.406421363354 -0.528218328953 1.18501591682 -0.421879380941 -0.529018223286 1.18581569195 -0.406058460474 -0.5301207304 1.18691849709 -0.421694368124 -0.530912578106 1.18771064281 -0.406643301249 -0.532657563686 1.18945515156 -0.419890165329 -0.532642602921 1.18944072723 -0.40820479393 -0.533385813236 1.1901832819 -0.409598261118 -0.534112393856 1.19090998173 -0.411490380764 -0.534390330315 1.19118750095 -0.415262073278 -0.526048898697 1.18284714222 -0.417204290628 -0.511644005775 1.19672608376 -0.416691273451 -0.525483489037 1.18228077888 -0.415730714798 -0.517331838608 1.19039285183 -0.415741205215 -0.527552962303 1.18435013294 -0.418707728386 -0.512711703777 1.19779360294 -0.418176561594 -0.513841331005 1.19892394543 -0.418858021498 -0.529100239277 1.18589842319 -0.418968379498 -0.515067219734 1.20014894009 -0.418952196836 -0.520751297474 1.19381225109 -0.409000635147 -0.529710590839 1.18650770187 -0.409159123898 -0.528796076775 1.18576848507 -0.408998161554 -0.514926016331 1.2000079155 -0.408929437399 -0.530285835266 1.18708300591 -0.41851568222 -0.516574859619 1.20165657997 -0.409795880318 -0.530807852745 1.18760550022 -0.409882605076 -0.516544103622 1.20162642002 -0.418240994215 -0.531289696693 1.18808746338 -0.417518407106 -0.517653107643 1.20273458958 -0.411300569773 -0.531678199768 1.18847548962 -0.411108106375 -0.532123565674 1.18892133236 -0.415730386972 -0.517606496811 1.20268809795 -0.416717082262 -0.532292664051 1.18909037113 -0.413133442402 -0.518154859543 1.20323693752 -0.4133887887 -0.518088102341 1.20317018032 -0.415120184422 -0.511121571064 1.19620370865 -0.414449214935 -0.517117738724 1.19017875195 -0.413788259029 -0.511380076408 1.19646203518 -0.411875456572 -0.517576873302 1.19063806534 -0.411364495754 -0.512807011604 1.19788908958 -0.409674614668 -0.519361793995 1.19242286682 -0.409261226654 -0.531551778316 1.18834900856 -0.408932089806 -0.532166600227 1.18896400928 -0.408992886543 -0.532764494419 1.18956196308 -0.409203708172 -0.466880559921 1.24035108089 -0.413616836071 -0.473040908575 1.23449027538 -0.412701487541 -0.472936451435 1.23438584805 -0.414501070976 -0.473327875137 1.23477697372 -0.416284114122 -0.467146903276 1.24061703682 -0.415730714798 -0.467629730701 1.24110007286 -0.410911053419 -0.4737213552 1.2351706028 -0.410759180784 -0.459015786648 1.24874842167 -0.415730714798 -0.473963141441 1.2354131937 -0.417529910803 -0.45948895812 1.24922299385 -0.416989654303 -0.469100564718 1.24257099628 -0.409328311682 -0.475472599268 1.23692214489 -0.409120976925 -0.47497060895 1.23641991615 -0.418523490429 -0.460661113262 1.25039470196 -0.418440967798 -0.476442962885 1.23789191246 -0.41901910305 -0.470546960831 1.24401736259 -0.408997625113 -0.462125480175 1.25185978413 -0.418980926275 -0.47735580802 1.23880541325 -0.409145504236 -0.463486224413 1.25322020054 -0.409244000912 -0.477960169315 1.23940956593 -0.418515563011 -0.46366506815 1.25339865685 -0.41864413023 -0.478482365608 1.23993170261 -0.409883022308 -0.464951962233 1.25468564034 -0.410602748394 -0.478964984417 1.24041414261 -0.417516857386 -0.479352772236 1.24080193043 -0.411108911037 -0.464629799128 1.25436401367 -0.417748391628 -0.479668229818 1.24111795425 -0.416090428829 -0.465468019247 1.25520181656 -0.416326195002 -0.465701580048 1.25543534756 -0.412532180548 -0.479873895645 1.24132359028 -0.412680715322 -0.479983597994 1.24143266678 -0.414411574602 -0.465849071741 1.2555822134 -0.414257109165 -0.462409228086 1.25215530396 -0.408998548985 -0.462136089802 1.26176953316 -0.409723073244 -0.451995193958 1.25162827969 -0.411558449268 -0.451856523752 1.2514898777 -0.415681838989 -0.453194111586 1.25282752514 -0.419351279736 -0.453573822975 1.25320696831 -0.408084094524 -0.455167233944 1.25480020046 -0.421276986599 -0.45573836565 1.25537180901 -0.406401187181 -0.457063168287 1.25669634342 -0.421901524067 -0.458126366138 1.25775969028 -0.406082600355 -0.462826937437 1.26245987415 -0.415782660246 -0.462932437658 1.26256549358 -0.413035660982 -0.461827248335 1.26146054268 -0.418868452311 -0.459504008293 1.25913774967 -0.421367764473 -0.460429131985 1.26006233692 -0.407345950603 -0.456732243299 1.24646639824 -0.413310647011 -0.456905782223 1.24663984776 -0.416053265333 -0.457035392523 1.24676895142 -0.411414206028 -0.457719057798 1.24745285511 -0.409452497959 -0.457731515169 1.24746537209 -0.418544501066 -0.458652406931 1.24838602543 -0.408023893833 -0.458798110485 1.24853205681 -0.420121610165 -0.459939181805 1.24967300892 -0.406807720661 -0.460364490747 1.25009775162 -0.421468794346 -0.46181884408 1.25155222416 -0.406090438366 -0.462816625834 1.25255072117 -0.42188167572 -0.463757753372 1.25349199772 -0.406325280666 -0.464695870876 1.25442957878 -0.421164125204 -0.465794086456 1.25552809238 -0.407736986876 -0.466287493706 1.25602126122 -0.419581800699 -0.466950833797 1.25668418407 -0.409620910883 -0.467401981354 1.25713610649 -0.417322069407 -0.467729061842 1.25746297836 -0.411921232939 -0.467902094126 1.257635355 -0.41466319561 -0.465083688498 1.25481796265 -0.408932089806 -0.465698510408 1.2554320097 -0.408992886543 -0.466296494007 1.25602996349 -0.409203708172</float_array>
          <technique_common>
            <accessor source="#positions-array" count="271" stride="3">
              <param name="X" type="float" />
              <param name="Y" type="float" />
              <param name="Z" type="float" />
            </accessor>
          </technique_common>
        </source>
        <source id="normals">
          <float_array id="normals-array" count="1200">-0.72392684 0.68602401 -0.07280822 -0.72067744 0.6885885 0.08043566 -0.715994 0.69244671 0.08871444 -0.70929241 -0.70311975 0.05026736 -0.70778221 -0.70643061 -0.00027798 -0.70761162 0.70143759 0.08527154 -0.70747709 -0.70673615 -6.371e-05 -0.70745504 0.70078671 -0.09168091 -0.70740271 -0.70681065 0.00038791 -0.70728701 -0.70692652 4.122e-05 -0.70727706 -0.70693636 -0.00040437 -0.70727688 -0.7069366 7.872e-05 -0.7072655 -0.70694804 5.697e-05 -0.7072531 -0.70696044 5.704e-05 -0.70723653 -0.70697695 0.00011269 -0.70723295 -0.70698059 4.886e-05 -0.70721906 -0.70699453 3.466e-05 -0.7072174 -0.70699614 3.44e-05 -0.70719028 -0.70702326 0.0001146 -0.70718795 -0.70702565 0.00031919 -0.70717752 -0.70703602 4.21e-05 -0.70717376 -0.7070393 0.00079108 -0.70717335 -0.70704019 6.291e-05 -0.70716667 -0.70704693 -0.0001609 -0.70716411 -0.70704943 -7.26e-05 -0.7071588 -0.70705479 5.769e-05 -0.70715827 -0.70705533 -7.627e-05 -0.70715535 -0.70705825 -5.668e-05 -0.70715415 -0.70705938 -0.00014199 -0.70714873 -0.70706475 0.00024564 -0.7071445 -0.70706904 0.00017383 -0.70713878 -0.70707482 -8.323e-05 -0.70713454 -0.70707899 -9.943e-05 -0.70712805 -0.70708555 -1.609e-05 -0.7071262 -0.7070874 0.00013447 -0.70712543 -0.70708811 5.69e-05 -0.70712048 -0.70709318 -0.00014818 -0.70712048 -0.70709312 -4.23e-06 -0.70711237 -0.70710129 -0.00013223 -0.70710963 -0.70710397 1.325e-05 -0.70710927 -0.70710421 -5.231e-05 -0.70710748 -0.70710605 -0.00023011 -0.70710516 -0.70710832 -0.00022349 -0.70710093 -0.70711267 0.00013914 -0.70709443 -0.70711911 0.00025445 -0.70709425 -0.70711923 -2.08e-06 -0.70709229 -0.70712125 0.00012564 -0.70708776 -0.70712578 -4.631e-05 -0.70708686 -0.70712668 9.47e-06 -0.70708483 -0.70712864 -6.3e-07 -0.70708376 -0.7071299 0.00011184 -0.70708054 -0.70713282 -0.00035072 -0.70708036 -0.70713305 -5.586e-05 -0.70707971 -0.70713383 -5.344e-05 -0.70707667 -0.70713687 -8.98e-05 -0.70707351 -0.70714009 -0.00013391 -0.70707291 -0.70714051 -0.0003627 -0.7070654 -0.70714808 -3.642e-05 -0.70706481 -0.70714867 -6.535e-05 -0.70704943 -0.70716411 -5.53e-06 -0.70704925 -0.70716423 -8.051e-05 -0.70704615 -0.70716739 -1.22e-05 -0.70704603 -0.70716763 1.144e-05 -0.70704192 -0.70717156 1.453e-05 -0.70703977 -0.70717382 -1.587e-05 -0.70703399 -0.70717949 -0.0001525 -0.70701778 -0.70719564 -8.201e-05 -0.70701069 -0.70720285 6.258e-05 -0.70701057 -0.70720297 4.857e-05 -0.70700771 -0.70720583 2.102e-05 -0.70700663 -0.70720696 -4.505e-05 -0.70699441 -0.70721912 9.858e-05 -0.70697957 -0.70723391 -5.756e-05 -0.70696676 -0.70724684 -2.366e-05 -0.70695192 -0.7072615 -5.299e-05 -0.7069453 -0.70726824 -2.606e-05 -0.7067678 0.70534724 -0.05444674 -0.70667666 -0.70753664 0.00032024 -0.70572919 0.68611813 -0.17660187 -0.70517355 -0.70877665 0.01913026 -0.70515883 0.70343846 0.08902294 -0.70250165 0.68974727 -0.17532839 -0.70176089 0.67704833 -0.22166935 -0.70113987 0.70288783 0.11979774 -0.69524282 0.70922536 0.11677705 -0.69503087 0.67154574 -0.25682384 -0.6942296 0.71770573 -0.0542574 -0.69249469 0.66726893 0.27423236 -0.69148052 0.64993542 -0.31533903 -0.68824118 0.72337246 -0.05528543 -0.68612081 0.71835679 -0.11489866 -0.68515497 0.72100079 0.10354003 -0.68330389 0.68532771 -0.25183642 -0.68277609 0.68412268 -0.25650111 -0.67908025 0.69678777 0.23094745 -0.67638987 0.63997346 0.36459678 -0.67434323 0.6883449 -0.26728719 -0.66824782 0.63268173 0.39135492 -0.66705149 0.69924134 0.25710666 -0.66676456 0.672162 0.3219057 -0.66038281 0.69451904 -0.28554824 -0.65379208 0.68486708 0.32173431 -0.65247273 0.64708847 0.39440569 -0.65068603 0.62473273 0.43164408 -0.64831507 0.64831412 -0.39921966 -0.64679927 0.65392077 -0.39247707 -0.64102536 0.63930589 0.42470524 -0.64074689 0.65103269 -0.40693966 -0.63045335 0.65226257 0.42081133 -0.62656617 0.65883797 -0.41634983 -0.61936426 0.62381274 -0.47670281 -0.61717302 0.59237355 0.51787174 -0.61699802 0.62242162 0.48156488 -0.61635482 0.5725612 0.54062951 -0.61513001 0.61037123 -0.49906114 -0.609097 0.63347369 0.47719148 -0.59987313 0.60643589 -0.52190787 -0.59591192 0.56366628 -0.57198709 -0.59588218 0.65296125 -0.46751052 -0.59382379 0.58672744 -0.55056721 -0.58458072 0.616768 -0.52712679 -0.58287162 0.54200995 -0.60538065 -0.58234376 0.57757771 -0.57208359 -0.57594407 0.58390349 0.57214087 -0.57206917 0.60500675 0.55380839 -0.57124811 0.57585251 -0.58486712 -0.56929344 0.56710476 0.59522885 -0.56862628 0.56155199 -0.60110188 -0.56809014 0.56112522 0.60200673 -0.54177183 0.52611148 0.65550745 -0.54105932 0.5453788 -0.64016938 -0.54061586 0.5285303 -0.65451521 -0.53283644 0.48655328 -0.69235194 -0.52273601 0.53157598 -0.66646385 -0.51882976 0.55668789 0.64877898 -0.50254655 0.49543345 0.70851439 -0.50005913 0.50716251 -0.70194519 -0.49826655 0.49965352 0.70857376 -0.49567318 0.49769735 0.71176225 -0.48254511 0.50951135 0.71242428 -0.46172619 0.50586003 0.72863883 -0.44199613 0.4142594 0.79563099 -0.44004551 0.47271881 -0.76347685 -0.41415316 0.40493378 0.8151722 -0.41303298 0.44304204 -0.79568678 -0.40994194 0.4028011 -0.81835139 -0.40960988 0.40362045 0.81811386 -0.40594006 0.40730101 -0.81811887 -0.40481895 0.4114632 -0.81659025 -0.40372184 0.39550829 0.82497382 -0.40360472 0.40968481 -0.81808412 -0.3898007 0.38797843 -0.83518147 -0.38954729 0.38643125 -0.8360166 -0.38409945 0.38038132 -0.84129518 -0.38315466 0.39217609 0.83629572 -0.37660649 0.34353346 0.86032099 -0.37599915 0.38481048 0.8429386 -0.37316057 0.39205146 -0.84086072 -0.36791113 0.36459869 -0.85540009 -0.36244419 0.31841949 0.87592429 -0.32057965 0.3018831 0.8978281 -0.31999648 0.28163117 -0.90459168 -0.31109494 0.32427695 -0.89334446 -0.31042573 0.2782633 -0.90895838 -0.30702648 0.32646623 0.89395434 -0.30407214 0.32242325 -0.89642811 -0.29964176 0.29450923 0.90745753 -0.29959404 0.29787856 0.9063729 -0.24333468 0.26808286 0.93215871 -0.24272653 0.24987079 0.93736249 -0.22514889 0.23061748 -0.94663811 -0.19516081 0.17345864 -0.96531045 -0.18598925 0.21817207 0.95802343 -0.18525408 0.18352294 -0.96540159 -0.18491374 0.21446531 -0.95906806 -0.1838627 0.17261618 0.96767664 -0.17342234 0.19504879 0.96533966 -0.17200325 0.20078473 0.96441704 -0.16994902 0.19348994 -0.96627069 -0.1642084 0.15885299 -0.97355086 -0.14659114 0.15498169 0.97698092 -0.11306562 0.1131748 0.98712087 -0.11136505 0.06748991 0.99148524 -0.10544728 0.11078761 -0.98823428 -0.10119573 0.10412887 0.98940212 -0.09628174 0.09659851 0.9906556 -0.09338067 0.08479993 0.99201262 -0.09245193 0.123578 -0.98801881 -0.08979079 0.0729975 0.9932819 -0.08569151 0.07315359 -0.9936325 -0.08460914 0.06986543 0.99396181 -0.08244527 0.05029537 0.99532574 -0.08197656 0.0852897 -0.9929781 -0.08197491 0.08529343 -0.99297792 -0.07642493 0.04420322 0.996095 -0.05790029 0.05587349 -0.99675757 -0.05788536 0.05586147 -0.99675912 -0.05009089 0.02654482 -0.99839193 -0.05005132 0.02651687 -0.99839449 -0.04423672 0.05277968 -0.99762589 -0.03561356 0.02200309 0.99912333 -0.01794591 -0.00492379 0.99982691 0.03923447 -0.03750175 -0.9985261 0.04756406 -0.05584451 0.99730587 0.06061482 -0.07152639 0.99559528 0.06793663 -0.06143601 0.99579632 0.06799813 -0.09912354 -0.99274909 0.07463512 -0.05110818 -0.99590033 0.07468908 -0.05114757 -0.99589431 0.0763853 -0.04416693 0.99609965 0.07641408 -0.04418427 0.99609673 0.0808816 -0.08633681 -0.99297744 0.082474 -0.05031599 0.99532223 0.08995374 -0.0959679 0.99131143 0.09394661 -0.09405238 0.99112475 0.09611683 -0.09610968 0.9907192 0.097691 -0.08932488 0.99120003 0.12307464 -0.10260139 0.98707938 0.15839243 -0.16953193 -0.97271311 0.16465114 -0.16285013 -0.97281539 0.17123514 -0.14953218 -0.97381663 0.17244087 -0.19597639 0.96532756 0.17672496 -0.17109011 0.96927631 0.17746189 -0.1792589 -0.96766394 0.18850107 -0.15267254 0.97013324 0.1936972 -0.21722744 -0.9567098 0.19369924 -0.21728985 -0.95669526 0.19498242 -0.18689273 -0.96283585 0.20312536 -0.20110168 -0.95827883 0.20312913 -0.20110552 -0.95827711 0.22607221 -0.22939432 -0.94671512 0.2260872 -0.22941218 -0.94670725 0.2433541 -0.26804975 0.93216318 0.24336118 -0.26803261 0.93216622 0.25900096 -0.26365504 0.92919558 0.27919149 -0.28405479 0.91725945 0.28093293 -0.27379897 -0.9198429 0.29721209 -0.30775914 0.90385252 0.29983395 -0.29809457 0.90622252 0.31161487 -0.28808552 -0.90548497 0.31172425 -0.28820819 -0.9054082 0.3205412 -0.30181691 0.89786404 0.32506818 -0.30374363 0.89558393 0.35465914 -0.33274829 0.87378234 0.35611242 -0.32500315 0.87610328 0.3797411 -0.39277297 -0.83757156 0.38096884 -0.39913055 0.83400089 0.38526058 -0.34945542 -0.85408151 0.38529816 -0.39493668 -0.83400857 0.38769937 -0.39803666 0.83141804 0.39752328 -0.40578318 -0.82299155 0.40217474 -0.40696418 -0.8201437 0.40338305 -0.41306433 -0.8164925 0.40696427 -0.40176493 0.82034445 0.41269466 -0.43623939 -0.79961127 0.41279823 -0.43641913 -0.79945982 0.43244439 -0.42388731 0.79580873 0.43798885 -0.46712378 0.76808935 0.46925902 -0.46240333 -0.75231582 0.48057121 -0.485782 0.7301144 0.48229465 -0.48404157 0.73013401 0.48258895 -0.50949144 0.71240878 0.48368695 -0.51569378 0.70718241 0.4857063 -0.48239508 -0.72896117 0.48574746 -0.48244148 -0.728903 0.49639484 -0.5303179 0.68728089 0.4971455 -0.52465719 -0.69107258 0.49958894 -0.49217102 -0.71286643 0.5022651 -0.50429022 -0.70243943 0.50994682 -0.52872646 0.67852962 0.51269776 -0.48921522 -0.70555627 0.51600307 -0.52263886 -0.67866755 0.51811182 -0.5126583 0.68464696 0.52973294 -0.49753481 -0.68690765 0.53365082 -0.50852817 0.67573345 0.53402126 -0.52406806 0.66345596 0.53495753 -0.51223463 -0.67188996 0.56916016 -0.60992813 -0.55140221 0.57108808 -0.57566893 -0.58520406 0.5804826 -0.60405338 -0.5460397 0.580948 -0.57576299 0.57532287 0.5825662 -0.62663418 -0.51763523 0.5903824 -0.54579538 0.59460568 0.61285478 0.66537195 -0.4262501 0.61653465 -0.57264692 0.54033369 0.61762351 -0.563272 0.54887688 0.6184783 -0.62427509 -0.47724745 0.62585592 -0.62250316 -0.46988744 0.62695426 -0.63406825 0.45264328 0.62790436 -0.63310838 0.45266995 0.62904066 -0.63269377 -0.4516708 0.62907255 -0.63936323 0.44213405 0.63067383 -0.63655114 0.44390675 0.6326434 -0.65693158 0.410126 0.64330262 -0.63722765 -0.42438504 0.64337897 -0.61334801 -0.45811322 0.64494401 -0.63777775 -0.42105421 0.64822394 -0.6482026 -0.39954853 0.65002406 -0.64801627 -0.3969177 0.65199733 -0.63709915 0.41110107 0.65373182 -0.684825 0.32194641 0.65446603 -0.7002303 0.28522232 0.65753943 -0.66085994 -0.36180946 0.66511774 -0.63287789 -0.39633834 0.66970724 -0.64700365 0.36452508 0.66980612 -0.68082052 -0.29638326 0.67181689 -0.66758496 0.32092407 0.67210817 -0.70466191 -0.22742493 0.67276084 -0.69312346 0.25879124 0.68028402 -0.69906652 0.22027175 0.68072289 -0.68782145 -0.25202793 0.68282032 -0.66017884 -0.3129223 0.68519378 -0.67997569 0.26104137 0.68583196 -0.71827334 -0.11712378 0.68856221 -0.72070462 -0.08041857 0.69012779 -0.64961994 -0.31893197 0.69197661 -0.70547688 -0.15320165 0.6933161 -0.71597701 0.08179081 0.69338179 -0.71504122 -0.08909454 0.69866055 -0.6545347 -0.28889069 0.69940174 -0.70460939 0.11984505 0.70189482 -0.70611566 0.09351141 0.70376039 -0.68847233 -0.17529161 0.70679224 0.70742118 -0.00011176 0.70682412 0.7073893 0.00010329 0.70687193 0.70734155 -3.501e-05 0.70694572 0.70726782 -2.24e-05 0.70698607 0.70722759 0.00024824 0.70699424 0.70721924 -5.418e-05 0.70701319 0.70720047 -6.38e-06 0.70701355 0.70720005 -3.786e-05 0.7070142 0.70719934 4.18e-06 0.70701832 0.70719528 -8.071e-05 0.70702833 0.70718527 -3.115e-05 0.70702958 0.7071839 0.00018525 0.70702976 0.70718384 -1.673e-05 0.70703083 0.70718265 9.541e-05 0.70703655 0.70717698 0.00012249 0.70703959 0.70717382 -0.00039108 0.70704401 0.70716947 0.00034405 0.70704454 0.70716906 0.00016053 0.70704484 0.7071687 1.655e-05 0.7070505 0.70716304 -7.16e-06 0.70705199 0.70716166 -7.015e-05 0.70705932 0.70715421 4.204e-05 0.70706528 0.70714825 -7.927e-05 0.70706713 0.70714635 0.00029766 0.70707291 0.70714062 -0.00023389 0.70707792 0.70713562 0.00019185 0.7070812 0.70713234 -2.383e-05 0.70708513 0.70712852 -6.8e-06 0.70708579 0.70712787 -6.07e-06 0.70708907 0.70712441 3.524e-05 0.7070927 0.70712084 5.412e-05 0.70709348 0.70712012 0.00012513 0.70709389 0.70711958 -0.00030588 0.70709652 0.70711696 4.726e-05 0.70710194 0.7071116 2.97e-06 0.70710814 0.70710534 -2.243e-05 0.70711017 0.70710343 -1.015e-05 0.70711207 0.70710146 7.66e-06 0.70711303 0.70710051 -0.00014475 0.70711458 0.70709896 -2.95e-06 0.70711762 0.70709598 -1.519e-05 0.70711917 0.70709431 -8.8e-07 0.70712227 0.70709133 -4.873e-05 0.70712358 0.70709008 4.712e-05 0.7071237 0.70708984 -7.761e-05 0.70712417 0.70708942 -3.467e-05 0.70712632 0.70708728 -7.506e-05 0.70712906 0.70708442 1.819e-05 0.7071299 0.7070837 0.00013498 0.70713383 0.70707983 -0.00012844 0.70714015 0.70707333 0.00012532 0.70714164 0.7070719 -3.647e-05 0.7071417 -0.70194221 -0.08501539 0.70714319 0.70707029 1.479e-05 0.70714581 0.70706767 -2.181e-05 0.70714915 0.70706445 1.204e-05 0.70715135 0.7070623 5.811e-05 0.70715326 0.70706022 0.00038316 0.70717514 0.70703828 -0.00052281 0.70718789 0.70702553 0.00043743 0.7071951 0.70701844 5.804e-05 0.70719606 0.7070176 -3.596e-05 0.7072233 0.70699018 -0.00018779 0.70724225 0.70697117 -0.00022903 0.70724893 0.70696443 -4.597e-05 0.70727265 0.70694083 6.58e-05 0.70728064 -0.69653624 0.1207949 0.7073192 0.70689392 -0.0008016 0.70733857 0.70687491 -4.28e-06 0.70752376 0.70668948 0.00013723 0.70822257 -0.70528108 0.0316118 0.7087971 0.70434308 -0.03882507 0.70942795 -0.69061708 0.14057095 0.71598053 -0.69240552 0.08914346 0.71907002 -0.68882775 0.09194976 0.72114515 -0.68847483 0.07714963 0.72787201 -0.68407005 0.04743932</float_array>
          <technique_common>
            <accessor source="#normals-array" count="400" stride="3">
              <param name="X" type="float" />
              <param name="Y" type="float" />
              <param name="Z" type="float" />
            </accessor>
          </technique_common>
        </source>
        <vertices id="vertices">
          <input semantic="POSITION" source="#positions" />
        </vertices>
        <triangles count="400" material="MATERIAL">
          <input semantic="VERTEX" source="#vertices" offset="0" />
          <input semantic="NORMAL" source="#normals" offset="1" />
          <p>0 328 1 328 2 328 3 357 0 357 2 357 4 342 0 342 3 342 5 359 0 359 4 359 6 384 0 384 5 384 0 338 7 338 8 338 9 347 7 347 0 347 10 356 9 356 0 356 11 362 12 362 0 362 12 354 10 354 0 354 13 368 11 368 0 368 14 374 15 374 0 374 15 352 13 352 0 352 6 344 14 344 0 344 1 389 16 389 17 389 2 397 1 397 17 397 18 307 2 307 17 307 1 293 19 293 16 293 20 279 3 279 18 279 3 303 2 303 18 303 0 262 21 262 19 262 1 282 0 282 19 282 22 255 4 255 20 255 4 270 3 270 20 270 0 242 8 242 21 242 8 233 23 233 21 233 24 226 5 226 22 226 5 240 4 240 22 240 8 209 7 209 23 209 25 197 6 197 24 197 6 208 5 208 24 208 7 182 26 182 23 182 7 176 9 176 26 176 27 161 14 161 25 161 14 174 6 174 25 174 9 146 10 146 26 146 10 143 28 143 26 143 15 142 14 142 27 142 29 131 15 131 27 131 10 123 12 123 28 123 12 111 30 111 28 111 13 120 15 120 29 120 31 88 13 88 29 88 12 98 11 98 30 98 11 1 31 1 30 1 11 90 13 90 31 90 32 321 33 321 34 321 35 393 32 393 34 393 32 306 36 306 33 306 37 302 35 302 34 302 36 288 38 288 33 288 39 298 35 298 37 298 40 268 39 268 37 268 41 260 42 260 38 260 36 272 41 272 38 272 43 264 39 264 40 264 44 234 45 234 42 234 41 238 44 238 42 238 46 230 43 230 40 230 47 228 43 228 46 228 44 205 48 205 45 205 49 195 47 195 46 195 50 188 51 188 45 188 48 190 50 190 45 190 52 192 47 192 49 192 50 164 53 164 51 164 54 158 52 158 49 158 53 141 55 141 51 141 56 148 52 148 54 148 57 127 56 127 54 127 53 124 58 124 55 124 58 95 59 95 55 95 59 82 60 82 57 82 61 110 56 110 57 110 60 116 61 116 57 116 58 89 60 89 59 89 44 215 62 215 48 215 32 54 35 54 17 54 16 59 32 59 17 59 35 52 18 52 17 52 36 43 32 43 16 43 19 38 36 38 16 38 39 66 20 66 18 66 35 68 39 68 18 68 63 31 36 31 19 31 64 13 36 13 63 13 65 17 36 17 64 17 43 61 22 61 20 61 39 55 43 55 20 55 66 51 41 51 65 51 41 16 36 16 65 16 62 3 44 3 66 3 44 56 41 56 66 56 43 26 24 26 22 26 47 24 24 24 43 24 47 73 25 73 24 73 52 50 25 50 47 50 27 18 25 18 52 18 56 22 27 22 52 22 61 74 27 74 56 74 67 320 68 320 69 320 70 375 67 375 69 375 71 310 70 310 69 310 67 312 72 312 68 312 72 289 73 289 68 289 74 296 70 296 71 296 72 280 75 280 73 280 76 271 74 271 71 271 75 259 77 259 73 259 78 263 74 263 76 263 75 253 79 253 77 253 79 235 80 235 77 235 81 231 78 231 76 231 79 222 82 222 80 222 83 229 78 229 81 229 84 214 85 214 80 214 82 203 84 203 80 203 86 196 83 196 81 196 87 193 83 193 86 193 88 153 87 153 86 153 89 151 87 151 88 151 90 125 89 125 88 125 91 114 90 114 88 114 92 104 90 104 91 104 82 186 93 186 84 186 82 177 94 177 93 177 94 155 95 155 93 155 94 134 96 134 95 134 96 97 97 97 95 97 98 96 90 96 92 96 97 81 98 81 92 81 96 94 98 94 97 94 99 6 100 6 101 6 99 69 102 69 100 69 99 12 103 12 102 12 104 10 99 10 105 10 99 70 106 70 103 70 99 25 107 25 106 25 108 57 107 57 99 57 109 35 108 35 99 35 110 34 111 34 99 34 111 47 109 47 99 47 112 40 110 40 99 40 113 46 112 46 99 46 104 23 113 23 99 23 100 314 114 314 101 314 114 396 115 396 101 396 115 300 99 300 101 300 116 319 114 319 100 319 115 299 117 299 99 299 102 281 116 281 100 281 118 261 105 261 99 261 117 275 118 275 99 275 103 254 119 254 102 254 119 273 116 273 102 273 118 241 120 241 105 241 120 232 104 232 105 232 106 225 121 225 103 225 121 239 119 239 103 239 120 210 122 210 104 210 107 198 123 198 106 198 123 207 121 207 106 207 122 191 113 191 104 191 122 172 124 172 113 172 108 163 125 163 107 163 125 178 123 178 107 178 124 159 112 159 113 159 126 157 125 157 108 157 124 140 127 140 112 140 109 121 128 121 108 121 128 133 126 133 108 133 127 113 110 113 112 113 127 108 129 108 110 108 111 78 130 78 109 78 130 100 128 100 109 100 129 5 130 5 110 5 130 84 111 84 110 84 69 370 115 370 114 370 71 361 69 361 114 361 116 336 71 336 114 336 69 327 68 327 115 327 68 333 117 333 115 333 73 339 131 339 117 339 68 386 73 386 117 386 73 346 132 346 131 346 76 348 71 348 116 348 119 351 76 351 116 351 73 388 133 388 132 388 77 390 134 390 133 390 73 334 77 334 133 334 121 350 76 350 119 350 77 381 80 381 134 381 80 394 85 394 134 394 81 363 76 363 121 363 123 358 81 358 121 358 86 341 81 341 123 341 125 379 86 379 123 379 125 387 88 387 86 387 125 323 126 323 88 323 126 355 91 355 88 355 135 45 136 45 137 45 138 32 135 32 137 32 135 48 139 48 136 48 140 39 135 39 138 39 135 27 141 27 139 27 142 36 135 36 140 36 135 63 143 63 141 63 144 21 135 21 142 21 145 49 143 49 135 49 146 64 147 64 135 64 147 37 145 37 135 37 148 11 146 11 135 11 149 65 150 65 135 65 150 15 148 15 135 15 151 8 149 8 135 8 136 313 152 313 137 313 152 398 153 398 137 398 153 301 138 301 137 301 154 315 152 315 136 315 139 277 154 277 136 277 153 285 155 285 138 285 155 265 140 265 138 265 156 276 154 276 139 276 141 248 157 248 139 248 157 245 156 245 139 245 155 243 158 243 140 243 158 237 142 237 140 237 143 218 159 218 141 218 159 227 157 227 141 227 158 216 160 216 142 216 160 204 144 204 142 204 145 189 161 189 143 189 161 199 159 199 143 199 160 180 162 180 144 180 162 175 135 175 144 175 147 165 163 165 145 165 163 162 161 162 145 162 162 156 164 156 135 156 164 149 151 149 135 149 146 132 163 132 147 132 164 126 149 126 151 126 164 128 165 128 149 128 165 115 166 115 149 115 148 107 167 107 146 107 167 118 163 118 146 118 166 87 150 87 149 87 166 91 167 91 150 91 150 0 167 0 148 0 168 286 169 286 170 286 169 290 171 290 170 290 172 252 173 252 168 252 173 267 169 267 168 267 174 236 173 236 172 236 175 211 174 211 172 211 176 202 174 202 175 202 177 185 178 185 179 185 177 200 180 200 178 200 181 173 176 173 175 173 180 169 182 169 178 169 182 167 183 167 178 167 184 170 176 170 181 170 185 145 184 145 181 145 182 138 186 138 183 138 186 137 187 137 183 137 188 119 189 119 185 119 189 136 184 136 185 136 186 102 190 102 187 102 186 99 191 99 190 99 192 105 189 105 188 105 190 7 192 7 188 7 191 76 192 76 190 76 171 316 193 316 194 316 193 395 195 395 194 395 195 308 196 308 194 308 169 311 193 311 171 311 195 274 197 274 196 274 197 257 198 257 196 257 197 224 180 224 198 224 180 213 177 213 198 213 168 392 170 392 156 392 157 367 168 367 156 367 172 325 168 325 157 325 159 337 172 337 157 337 159 391 175 391 172 391 159 372 161 372 175 372 178 283 199 283 179 283 161 324 181 324 175 324 183 380 199 380 178 380 161 371 163 371 181 371 163 385 185 385 181 385 200 382 199 382 183 382 187 332 200 332 183 332 201 377 200 377 187 377 165 365 201 365 187 365 163 349 188 349 185 349 190 373 166 373 187 373 166 378 165 378 187 378 163 329 167 329 188 329 167 343 166 343 190 343 167 331 190 331 188 331 202 317 203 317 204 317 205 305 206 305 204 305 206 322 202 322 204 322 202 304 207 304 203 304 207 292 208 292 203 292 209 297 206 297 205 297 210 278 211 278 205 278 211 287 209 287 205 287 207 256 212 256 208 256 212 246 213 246 208 246 214 251 215 251 210 251 215 258 211 258 210 258 216 219 215 219 214 219 212 217 217 217 213 217 218 223 215 223 216 223 217 201 219 201 213 201 217 184 220 184 219 184 221 179 222 179 216 179 222 183 218 183 216 183 220 166 223 166 219 166 220 154 224 154 223 154 225 147 222 147 221 147 224 135 226 135 223 135 227 152 222 152 225 152 228 122 229 122 225 122 229 130 227 130 225 130 224 112 230 112 226 112 230 106 231 106 226 106 232 93 229 93 228 93 230 83 233 83 231 83 233 80 232 80 231 80 233 92 229 92 232 92 234 181 220 181 217 181 235 366 236 366 237 366 238 360 235 360 237 360 235 364 239 364 236 364 240 345 235 345 238 345 235 369 241 369 239 369 242 376 235 376 240 376 235 353 243 353 241 353 244 330 245 330 235 330 246 326 244 326 235 326 247 335 246 335 235 335 242 383 247 383 235 383 248 340 243 340 235 340 237 399 236 399 249 399 250 318 237 318 249 318 236 309 251 309 249 309 236 291 252 291 251 291 253 294 237 294 250 294 236 284 239 284 252 284 238 295 237 295 253 295 239 269 254 269 252 269 255 266 238 266 253 266 239 249 256 249 254 249 257 247 238 247 255 247 239 244 241 244 256 244 240 250 238 250 257 250 241 221 258 221 256 221 241 212 243 212 258 212 242 220 240 220 257 220 259 206 242 206 257 206 243 194 260 194 258 194 247 187 242 187 259 187 261 171 247 171 259 171 248 160 262 160 260 160 243 168 248 168 260 168 263 150 247 150 261 150 248 139 235 139 262 139 246 144 247 144 263 144 235 129 264 129 262 129 265 117 246 117 263 117 235 103 266 103 264 103 235 101 245 101 266 101 244 109 246 109 265 109 267 85 244 85 265 85 245 2 267 2 266 2 245 86 244 86 267 86 209 4 211 4 255 4 215 71 257 71 255 71 211 67 215 67 255 67 218 9 257 9 215 9 218 14 259 14 257 14 222 75 259 75 218 75 268 79 220 79 234 79 261 60 259 60 222 60 268 29 224 29 220 29 227 19 263 19 222 19 263 33 261 33 222 33 268 77 269 77 224 77 229 72 263 72 227 72 269 53 270 53 224 53 265 20 263 20 229 20 270 62 264 62 224 62 264 58 230 58 224 58 264 28 266 28 230 28 233 42 267 42 229 42 267 41 265 41 229 41 266 44 233 44 230 44 266 30 267 30 233 30</p>
        </triangles>
      </mesh>
    </geometry>
  </library_geometries>
  <library_visual_scenes>
    <visual_scene id="Scene" name="Scene">
      <node id="Object" name="Object" type="NODE">
        <instance_geometry url="#geometry">
          <bind_material>
            <technique_common>
              <instance_material symbol="MATERIAL" target="#mat" />
            </technique_common>
          </bind_material>
        </instance_geometry>
      </node>
    </visual_scene>
  </library_visual_scenes>
  <scene>
    <instance_visual_scene url="#Scene" />
  </scene>
</COLLADA>