<?xml version='1.0' encoding='utf-8'?>
<COLLADA xmlns="http://www.collada.org/2005/11/COLLADASchema" version="1.4.1">
  <asset>
    <contributor>
      <authoring_tool>RM27 reviewed Blender visual export</authoring_tool>
    </contributor>
    <created>2026-10-07T00:00:00Z</created>
    <modified>2026-10-07T00:00:00Z</modified>
    <unit name="meter" meter="1" />
    <up_axis>Z_UP</up_axis>
  </asset>
  <library_effects>
    <effect id="fx">
      <profile_COMMON>
        <technique sid="common">
          <phong>
            <emission>
              <color>0 0 0 1</color>
            </emission>
            <ambient>
              <color>1 1 1 1</color>
            </ambient>
            <diffuse>
              <color>1 1 1 1</color>
            </diffuse>
            <specular>
              <color>0.08 0.08 0.08 1</color>
            </specular>
            <shininess>
              <float>12</float>
            </shininess>
          </phong>
        </technique>
      </profile_COMMON>
    </effect>
  </library_effects>
  <library_materials>
    <material id="mat" name="source_color">
      <instance_effect url="#fx" />
    </material>
  </library_materials>
  <library_geometries>
    <geometry id="geometry" name="geometry">
      <mesh>
        <source id="positions">
          <float_array id="positions-array" count="1326">-0.47167044878 -0.140571966767 1.43567991257 -0.471659958363 -0.140849962831 1.43570291996 -0.471659958363 -0.140293970704 1.43570291996 -0.471650421619 -0.140568032861 1.43573176861 -0.471650421619 0.144150003791 1.43573904037 -0.471650421619 0.144427999854 1.43571603298 -0.471650421619 0.14443205297 1.43573176861 -0.471650421619 0.144705995917 1.43573915958 -0.471639931202 -0.140846028924 1.435754776 -0.471639931202 -0.140290036798 1.435754776 -0.471639931202 0.144153937697 1.435754776 -0.471639931202 0.144710049033 1.435754776 -0.471630394459 -0.141119018197 1.43577110767 -0.471630394459 -0.140025034547 1.43577122688 -0.471619904041 -0.141114965081 1.43582308292 -0.471619904041 -0.140020981431 1.43582308292 -0.471619904041 0.143880948424 1.43580722809 -0.471619904041 0.14388500154 1.43582308292 -0.471619904041 0.144975051284 1.4358073473 -0.471619904041 0.14497898519 1.43582308292 -0.471599876881 -0.141371980309 1.43588244915 -0.471599876881 -0.139771953225 1.43588268757 -0.47157984972 -0.141368046403 1.43593454361 -0.47157984972 -0.139768019319 1.43593454361 -0.47157984972 0.143627986312 1.43591868877 -0.47157984972 0.143632039428 1.43593454361 -0.47157984972 0.145228013396 1.43591892719 -0.47157984972 0.145231947303 1.43593454361 -0.471550285816 -0.14160002768 1.43603384495 -0.471539795399 -0.139544025064 1.43603408337 -0.471530258656 -0.141597047448 1.4360858202 -0.471530258656 -0.139539971948 1.4360858202 -0.471530258656 0.143399938941 1.43606984615 -0.471530258656 0.143403038383 1.4360858202 -0.471530258656 0.145455941558 1.43607020378 -0.471530258656 0.145459994674 1.4360858202 -0.471479713917 -0.14179803431 1.43622028828 -0.471479713917 -0.139346018434 1.4362206459 -0.471470177174 0.14320205152 1.43625640869 -0.471470177174 0.145653948188 1.43625664711 -0.471459686756 -0.141793981194 1.43627238274 -0.471459686756 -0.139341965318 1.43627238274 -0.471459686756 0.143205985427 1.43627238274 -0.471459686756 0.145658001304 1.43627238274 -0.471410095692 -0.141958013177 1.43643629551 -0.471410095692 -0.139186039567 1.43643665314 -0.471390068531 -0.141953960061 1.43648838997 -0.471390068531 -0.139183059335 1.43648838997 -0.471390068531 0.143041953444 1.43647253513 -0.471390068531 0.14304600656 1.43648838997 -0.471390068531 0.145814046264 1.43647277355 -0.471390068531 0.145817026496 1.43648838997 -0.471329987049 -0.142076030374 1.43667542934 -0.471320450306 -0.139068976045 1.43667578697 -0.471309959888 -0.142071977258 1.4367275238 -0.471309959888 -0.139065042138 1.4367275238 -0.471309959888 0.142923936248 1.43671154976 -0.471309959888 0.142927989364 1.4367275238 -0.471309959888 0.145931944251 1.43671190739 -0.471309959888 0.145935043693 1.4367275238 -0.471249878407 0.145985946059 1.43688416481 -0.471240341663 -0.142148032784 1.4369301796 -0.471240341663 -0.138996019959 1.43693065643 -0.471220314503 -0.142143979669 1.43698227406 -0.471220314503 -0.138991966844 1.43698227406 -0.471220314503 0.142852053046 1.43696630001 -0.471220314503 0.142855986953 1.43698227406 -0.471180260181 -0.138975039124 1.43710911274 -0.471149742603 -0.142169967294 1.43719315529 -0.471129715443 0.142829999328 1.43722915649 -0.467529594898 -0.0861909464002 1.44773030281 -0.458310425282 0.0460070297122 1.47457528114 -0.458310425282 0.0997140333056 1.47458207607 -0.457089722157 0.0917199775577 1.47811734676 -0.457069694996 0.0915969535708 1.4781819582 -0.457040131092 0.0914820358157 1.4782654047 -0.457009613514 0.0913799926639 1.47836387157 -0.456969559193 0.0912940427661 1.47847533226 -0.456930458546 0.0912259742618 1.47859740257 -0.456890404224 0.091179959476 1.47872257233 -0.456039726734 -0.0535080507398 1.48118543625 -0.455999672413 -0.0534050539136 1.48130941391 -0.455950081348 -0.0533260181546 1.48144769669 -0.45589953661 -0.0532720163465 1.48159646988 -0.455840408802 -0.0532449558377 1.48175168037 -0.455789864063 -0.0532460287213 1.48190903664 -0.455740272999 -0.0532740429044 1.48206400871 -0.45568972826 -0.0533289983869 1.48221254349 -0.455640137196 -0.0534089878201 1.48235034943 -0.455600082874 -0.0535119846463 1.48247361183 -0.455560028553 -0.0536350086331 1.48257911205 -0.455530464649 -0.0537749603391 1.48266375065 -0.455510437489 -0.0539280250669 1.48272538185 -0.455499947071 -0.0909329727292 1.48276758194 -0.455499947071 -0.0540900304914 1.48276209831 -0.455490410328 -0.0542420223355 1.48277294636 -0.451360046864 -0.0258799884468 1.49481463432 -0.451360046864 -0.025728950277 1.49480354786 -0.451360046864 0.0146520053968 1.49480962753 -0.451349556446 -0.0260419938713 1.49485111237 -0.451329529285 -0.0261939857155 1.49491226673 -0.451299965382 -0.0263340566307 1.4949965477 -0.45125991106 -0.0264580342919 1.49510157108 -0.451219856739 -0.026561031118 1.49522435665 -0.451170265675 -0.0266410205513 1.49536168575 -0.451119720936 -0.0266959760338 1.49550962448 -0.451070129871 -0.0267249438912 1.49566411972 -0.451010048389 -0.0267260167748 1.49582099915 -0.450960457325 -0.0267000291497 1.49597585201 -0.450909912586 -0.0266469810158 1.496124506 -0.450860321522 -0.0265690181404 1.49626290798 -0.4508202672 -0.0264680478722 1.49638712406 -0.441009819508 -0.0580849722028 1.52494764328 -0.441009819508 0.0119149601087 1.52495801449 -0.441000282764 -0.0583620145917 1.52497065067 -0.441000282764 -0.0580680444837 1.52498912811 -0.441000282764 -0.0578069761395 1.52497065067 -0.441000282764 0.0116380369291 1.52498090267 -0.441000282764 0.0119320070371 1.52499055862 -0.441000282764 0.0121929561719 1.52498102188 -0.440989792347 -0.0583460405469 1.52501213551 -0.440989792347 -0.0577900484204 1.52501213551 -0.440989792347 0.0116540109739 1.52501344681 -0.440989792347 0.0122100031003 1.52501344681 -0.440980255604 -0.0586320236325 1.52503883839 -0.440980255604 -0.0575369670987 1.5250389576 -0.440980255604 0.0113680278882 1.52504920959 -0.440980255604 0.0124629652128 1.5250493288 -0.440969765186 -0.0586149767041 1.52508032322 -0.440969765186 -0.0575209930539 1.52508032322 -0.440960228443 0.0113849556074 1.52508175373 -0.440960228443 0.0124790584669 1.52508175373 -0.440940201283 -0.058884985745 1.52515029907 -0.440940201283 -0.0572849586606 1.52515041828 -0.440940201283 0.0111149465665 1.52516055107 -0.440940201283 0.0127149736509 1.52516078949 -0.440929710865 -0.0588680580258 1.52519178391 -0.440929710865 -0.0572680309415 1.52519178391 -0.440929710865 0.0111319934949 1.52519333363 -0.440929710865 0.0127320205793 1.52519333363 -0.440889656544 -0.0591130331159 1.52530145645 -0.440889656544 -0.0570559576154 1.52530181408 -0.440889656544 0.0108870184049 1.52531194687 -0.440889656544 0.0129439746961 1.52531206608 -0.440869629383 -0.0590969398618 1.52534306049 -0.440869629383 -0.0570399835706 1.52534306049 -0.440869629383 0.0109029924497 1.52534461021 -0.440869629383 0.0129599487409 1.52534461021 -0.440829575062 -0.0593099668622 1.52548801899 -0.440829575062 -0.056859023869 1.52548825741 -0.440820038319 0.0106899654493 1.5254983902 -0.440820038319 0.0131410276517 1.52549874783 -0.440809547901 -0.0592939928174 1.52552962303 -0.440809547901 -0.0568419769406 1.52552962303 -0.440809547901 0.0107060587034 1.52553105354 -0.440809547901 0.0131570016965 1.52553105354 -0.440750420094 -0.0594699457288 1.52570414543 -0.440750420094 -0.0566990450025 1.52570438385 -0.440750420094 0.0105299865827 1.52571439743 -0.440750420094 0.0133010065183 1.52571475506 -0.440739929676 -0.059453971684 1.52574574947 -0.440739929676 -0.0566829517484 1.52574574947 -0.440739929676 0.0105459606275 1.52574717999 -0.440739929676 0.0133169805631 1.52574717999 -0.440710365772 0.0133639490232 1.52582895756 -0.440670311451 -0.0595879629254 1.52594304085 -0.440670311451 -0.0565810278058 1.52594351768 -0.440670311451 0.010411969386 1.52595353127 -0.440659821033 -0.0595719888806 1.5259847641 -0.44065028429 0.0104279434308 1.52598619461 -0.440579712391 -0.0596599653363 1.52619791031 -0.440579712391 0.0103390133008 1.52620828152 -0.440570175648 -0.0596439912915 1.52623963356 -0.440570175648 0.01035594102 1.52624094486 -0.440490067005 -0.0596849992871 1.52646064758 -0.440490067005 -0.0375169590116 1.52646386623 -0.440490067005 0.00257097813301 1.5264698267 -0.440490067005 0.0103150522336 1.52647101879 -0.440479576588 -0.0596679523587 1.52650225163 -0.440479576588 0.0103319799528 1.52650380135 -0.440409958363 -0.0427769497037 1.52670228481 -0.440400421619 -0.0596610382199 1.52672338486 -0.440400421619 0.0103390133008 1.52673375607 -0.440389931202 -0.0596439912915 1.52676510811 -0.440389931202 0.01035594102 1.52676665783 -0.440309822559 -0.0595879629254 1.52697825432 -0.440309822559 0.010411969386 1.52698862553 -0.440300285816 -0.0595719888806 1.52701890469 -0.440300285816 0.0104279434308 1.52702140808 -0.440260231495 0.0104830181226 1.52714598179 -0.440160095692 -0.0479899719357 1.52741348743 -0.439090073109 -0.0375219658017 1.53055012226 -0.439079582691 0.0296850111336 1.53055870533 -0.438869774342 -0.0458660200238 1.53119528294 -0.438209831715 -0.0539360120893 1.53311538696 -0.437119781971 -0.0615840032697 1.53627765179 -0.435630142689 -0.068616040051 1.54061317444 -0.433780014515 -0.0748189762235 1.54600322247 -0.431630432606 -0.0799789503217 1.55225384235 -0.429250061512 -0.0839630439878 1.55918431282 -0.427339851856 0.0660940334201 1.56476318836 -0.427330315113 -0.0377529934049 1.56479775906 -0.427330315113 -0.037524946034 1.56479716301 -0.427319824696 0.0660940334201 1.56481122971 -0.427239716053 -0.0402449443936 1.56503903866 -0.42702037096 -0.0426570251584 1.56568181515 -0.42669993639 -0.0866819694638 1.56662690639 -0.426670372486 -0.0449149683118 1.56670713425 -0.426439583302 -0.0160909984261 1.56737983227 -0.426439583302 0.0519089624286 1.56738853455 -0.426430046558 -0.016368040815 1.56740283966 -0.426430046558 -0.0160679910332 1.56741595268 -0.426430046558 -0.0158130023628 1.56740295887 -0.426430046558 0.0516320392489 1.56741142273 -0.426430046558 0.0519319698215 1.56741595268 -0.426430046558 0.0521869584918 1.56741154194 -0.426419556141 -0.0163459870964 1.56743896008 -0.426419556141 -0.01578999497 1.56743896008 -0.426419556141 0.0516539737582 1.56743896008 -0.426419556141 0.0522099658847 1.56743896008 -0.426410019398 -0.0166380498558 1.56747102737 -0.426410019398 -0.0155429923907 1.56747126579 -0.426410019398 0.0513620302081 1.56747972965 -0.426410019398 0.0524569675326 1.56747984886 -0.42639952898 -0.0166150424629 1.567507267 -0.42639952898 -0.0155210578814 1.567507267 -0.42639952898 0.051385037601 1.567507267 -0.42639952898 0.0524790212512 1.567507267 -0.426369965076 -0.0168910119683 1.56758248806 -0.426369965076 -0.0152909839526 1.56758272648 -0.426369965076 0.0511089488864 1.56759107113 -0.426369965076 0.0527089759707 1.56759130955 -0.426360428333 -0.0168680045754 1.56761872768 -0.426360428333 -0.0152679765597 1.56761872768 -0.426360428333 0.0511319562793 1.56761872768 -0.426360428333 0.0527319833636 1.56761872768 -0.426320374012 -0.0171190593392 1.56773376465 -0.426320374012 -0.0150619829074 1.56773400307 -0.426309883595 0.0508810207248 1.56774246693 -0.426309883595 0.052937977016 1.56774270535 -0.426300346851 -0.0170970056206 1.56777000427 -0.426300346851 -0.0150400483981 1.56777000427 -0.426300346851 0.0509029552341 1.56777000427 -0.426300346851 0.0529600307345 1.56777000427 -0.426249802113 -0.0173159930855 1.56792032719 -0.426249802113 -0.014865049161 1.56792056561 -0.426249802113 0.0506839677691 1.56792891026 -0.426249802113 0.0531350299716 1.56792926788 -0.426240265369 -0.0172940585762 1.56795656681 -0.426240265369 -0.0148429954425 1.56795656681 -0.426240265369 0.0507060214877 1.56795656681 -0.426240265369 0.0531580373645 1.56795656681 -0.426200211048 -0.0469529703259 1.56808435917 -0.426180183887 -0.0174759719521 1.56813633442 -0.426180183887 -0.0147049510852 1.56813669205 -0.426180183887 -0.0147030437365 1.56813919544 -0.426180183887 0.0505239889026 1.56814491749 -0.42616969347 -0.0174540374428 1.56817269325 -0.42616969347 0.0505460426211 1.56817269325 -0.426100075245 -0.0175939891487 1.56837534904 -0.426089584827 0.0504059717059 1.56838405132 -0.426080048084 -0.0175720546395 1.56841170788 -0.426080048084 0.0504280254245 1.56841170788 -0.426010429859 -0.0176669452339 1.56863021851 -0.426010429859 0.0503330156207 1.56863880157 -0.425999939442 -0.0176440570503 1.56866645813 -0.425999939442 0.0503560230136 1.56866645813 -0.425919830799 -0.0176910255104 1.56889295578 -0.425919830799 -0.00809098128229 1.56889414787 -0.425919830799 0.0435349866748 1.56890070438 -0.425919830799 0.0503090545535 1.56890153885 -0.425910294056 -0.0176680181175 1.56892931461 -0.425910294056 0.0503319427371 1.56892931461 -0.425830185413 -0.0176669452339 1.56915569305 -0.425830185413 0.0503330156207 1.56916439533 -0.425819694996 -0.0176440570503 1.56919205189 -0.425819694996 0.0503560230136 1.56919205189 -0.425739586353 -0.0175939891487 1.56941056252 -0.425739586353 0.0504059717059 1.56941914558 -0.42573004961 -0.0175720546395 1.56944680214 -0.42573004961 0.0504280254245 1.56944680214 -0.425660431385 -0.0174770448357 1.56964957714 -0.425660431385 0.0505230352283 1.56965816021 -0.425649940968 -0.0174549911171 1.56968319416 -0.425649940968 0.0505460426211 1.56968593597 -0.425620377064 -0.048710949719 1.56977260113 -0.425589859486 0.050657980144 1.56984555721 -0.424949944019 -0.0501359775662 1.5717215538 -0.42420989275 -0.0511850193143 1.57387304306 -0.423960030079 -0.0880880430341 1.57461082935 -0.423420250416 -0.0518269613385 1.57616317272 -0.422609627247 -0.0520429685712 1.57852351665 -0.421799957752 -0.0518280342221 1.58088409901 -0.42118960619 -0.0880689695477 1.58265483379 -0.421010315418 -0.0511859729886 1.58317422867 -0.420589745045 -0.0433709695935 1.58442354202 -0.420589745045 -0.0430929735303 1.58440053463 -0.420589745045 -0.0428149774671 1.58442366123 -0.420580208302 -0.0430679395795 1.58444011211 -0.420569717884 -0.043346054852 1.58446311951 -0.420569717884 -0.0427899435163 1.58446311951 -0.420560181141 -0.04364002496 1.58449172974 -0.420560181141 -0.0425460413098 1.58449196815 -0.420549690723 -0.0436149910092 1.58453142643 -0.420549690723 -0.042521007359 1.58453142643 -0.420529663563 -0.0438929870725 1.58460319042 -0.420529663563 -0.0422929599881 1.58460342884 -0.420509636402 -0.0438679531217 1.58464288712 -0.420509636402 -0.0422680452466 1.58464288712 -0.420469582081 -0.0441210344434 1.58475446701 -0.420469582081 -0.0420650318265 1.58475470543 -0.420460045338 -0.0440969541669 1.5847941637 -0.420460045338 -0.0420399978757 1.5847941637 -0.420410454273 -0.0443190410733 1.58494102955 -0.420410454273 -0.0418670251966 1.58494126797 -0.420399963856 -0.0442940071225 1.58498072624 -0.420399963856 -0.0418419912457 1.58498072624 -0.420330345631 -0.0444790199399 1.58515703678 -0.420330345631 -0.0417089536786 1.58515548706 -0.420319855213 -0.0444539859891 1.58519673347 -0.420279800892 -0.0501370504498 1.58532607555 -0.420250236988 -0.0445970371366 1.58539605141 -0.420239746571 -0.0445720031857 1.58543586731 -0.420170128345 -0.0446690395474 1.58565092087 -0.420150101185 -0.0446440055966 1.58569061756 -0.420079529285 -0.0446930006146 1.58591365814 -0.420060455799 -0.0446679666638 1.58595335484 -0.419980347157 -0.0446690395474 1.58617639542 -0.419969856739 -0.0446440055966 1.58621621132 -0.419900238514 -0.0445970371366 1.58643126488 -0.419880211353 -0.0445720031857 1.58647096157 -0.419809639454 -0.0444790199399 1.5866702795 -0.419800102711 -0.0444539859891 1.5867099762 -0.419610321522 -0.0487140491605 1.58727526665 -0.419029533863 -0.0469559505582 1.58896398544 -0.418549835682 -0.044917948544 1.59034180641 -0.418520271778 -0.0866789892316 1.59043705463 -0.418440163136 0.0128610050306 1.59067678452 -0.418400108814 0.0129619752988 1.5908010006 -0.418349564075 0.0130400573835 1.59093940258 -0.418299973011 0.013092986308 1.59108805656 -0.418250381947 0.0131189739332 1.59124279022 -0.418199837208 -0.0426600053906 1.59136772156 -0.418190300465 0.0131169473752 1.59139955044 -0.418139755726 0.0130879795179 1.59155392647 -0.418090164661 0.0130330240354 1.59170162678 -0.418039619923 0.0129530346021 1.59183871746 -0.417999565601 0.0128500377759 1.59196138382 -0.417979538441 -0.0402489975095 1.59201109409 -0.417960464954 0.0127259409055 1.59206628799 -0.417929947376 0.0125859891996 1.59215044975 -0.417909920216 0.0124339973554 1.59221160412 -0.417900383472 -0.0377570465207 1.59225296974 -0.417900383472 -0.0375289991498 1.592253685 -0.417900383472 0.012120953761 1.59225893021 -0.417900383472 0.0122729456052 1.59224808216 -0.417889893055 0.0660910531878 1.59226632118 -0.415959656239 -0.0839500501752 1.597894907 -0.413569748402 -0.0799479559064 1.60484242439 -0.411420166492 -0.0747619941831 1.61110711098 -0.409579575062 -0.0685509517789 1.61648607254 -0.40808993578 -0.0615379884839 1.62079775333 -0.407010376453 -0.0538990572095 1.62394845486 -0.406350433826 -0.0457359626889 1.62587690353 -0.406139671803 -0.0375349596143 1.62650179863 -0.406130135059 0.0900969430804 1.62651801109 -0.395340263844 -0.140602961183 1.65793943405 -0.395329773426 -0.140880957246 1.65796232224 -0.395329773426 -0.140326038003 1.65796244144 -0.395329773426 0.144396051764 1.65797555447 -0.395320236683 -0.140568032861 1.65799129009 -0.395320236683 0.144119009376 1.65799844265 -0.395320236683 0.14443205297 1.65799129009 -0.395320236683 0.144674047828 1.65799856186 -0.395309746265 -0.141150966287 1.65803062916 -0.395309746265 -0.140846028924 1.65801429749 -0.395309746265 -0.140290036798 1.65801429749 -0.395309746265 -0.140056028962 1.65803074837 -0.395309746265 0.144153937697 1.65801429749 -0.395309746265 0.144710049033 1.65801429749 -0.395300209522 0.143849000335 1.65806674957 -0.395300209522 0.144943937659 1.65806686878 -0.395289719105 -0.141114965081 1.65808260441 -0.395289719105 -0.140020981431 1.65808260441 -0.395289719105 0.14388500154 1.65808260441 -0.395289719105 0.14497898519 1.65808260441 -0.395280182362 0.145094975829 1.65812730789 -0.395269691944 -0.141402974725 1.65814208984 -0.395269691944 -0.139804020524 1.65814220905 -0.395260155201 0.143596991897 1.65817821026 -0.395249664783 -0.141368046403 1.65819406509 -0.395249664783 -0.139768019319 1.65819406509 -0.395249664783 0.143632039428 1.65819406509 -0.39522010088 -0.14163197577 1.65829324722 -0.39522010088 -0.139575019479 1.65829360485 -0.395209610462 0.143367990851 1.65832948685 -0.395200073719 -0.141597047448 1.65834534168 -0.395200073719 -0.139539971948 1.65834534168 -0.395200073719 0.143403038383 1.65834534168 -0.39514952898 -0.141829028726 1.65847980976 -0.39514952898 -0.139377966523 1.65848016739 -0.395139992237 -0.141793981194 1.65853190422 -0.395139992237 -0.139341965318 1.65853190422 -0.395139992237 0.143170937896 1.65851593018 -0.395139992237 0.143205985427 1.65853190422 -0.395090401173 -0.139243021607 1.65865695477 -0.395079910755 -0.141989007592 1.65869581699 -0.395070374012 0.143010959029 1.65873193741 -0.395059883595 -0.141953960061 1.65874791145 -0.395059883595 0.14304600656 1.65874791145 -0.394999802113 -0.142107024789 1.65893495083 -0.394990265369 0.142892941833 1.65897107124 -0.394979774952 -0.142071977258 1.65898704529 -0.394979774952 0.142927989364 1.65898704529 -0.394910156727 -0.1421790272 1.65918970108 -0.394899666309 0.142820939422 1.6592258215 -0.394890129566 -0.142143979669 1.65924179554 -0.394890129566 0.142855986953 1.65924179554 -0.394819557667 -0.142204061151 1.65945243835 -0.394810020924 0.14279602468 1.65948855877 -0.394799530506 -0.142168059945 1.65950453281 -0.394799530506 0.142832025886 1.65950453281 -0.394729912281 -0.1421790272 1.65971517563 -0.394720375538 0.142820939422 1.65975141525 -0.39470988512 -0.142143979669 1.6597673893 -0.39470988512 0.142855986953 1.6597673893 -0.394640266895 -0.142107024789 1.65997004509 -0.394629776478 0.142892941833 1.6600061655 -0.394620239735 -0.142071977258 1.66002213955 -0.394620239735 0.142927989364 1.66002213955 -0.394560158253 -0.141989007592 1.66020905972 -0.394549667835 0.143010959029 1.66024529934 -0.394540131092 -0.141953960061 1.66026115417 -0.394540131092 0.14304600656 1.66026115417 -0.394529640675 -0.14192904532 1.66030025482 -0.394469559193 0.143170937896 1.66046130657 -0.394469559193 0.143205985427 1.66047728062 -0.394410431385 0.143367990851 1.66064786911 -0.394399940968 0.143403038383 1.66066384315 -0.394359886646 0.143596038222 1.66079926491 -0.394350349903 0.143632039428 1.66081511974 -0.394330322742 0.143733009696 1.66086602211</float_array>
          <technique_common>
            <accessor source="#positions-array" count="442" stride="3">
              <param name="X" type="float" />
              <param name="Y" type="float" />
              <param name="Z" type="float" />
            </accessor>
          </technique_common>
        </source>
        <source id="normals">
          <float_array id="normals-array" count="1227">-1 -0 0 -0.99927354 -0.03690587 0.00950606 -0.99665773 0.07925145 -0.01981286 -0.99400985 -0.10588541 0.02706845 -0.98938346 -0.14080037 0.03599408 -0.98358732 0.17504521 -0.0437613 -0.98354685 0.17518036 -0.04412941 -0.98220313 -0.18196999 0.04651864 -0.98127776 -0.18907174 0.03668556 -0.98023301 0.0230779 0.19649622 -0.98012674 0.03196323 0.19578025 -0.98000574 0.09839203 0.17293809 -0.9797284 0.09664957 0.1754739 -0.97781712 -0.05631291 0.20174895 -0.97712237 -0.06553761 0.20232809 -0.97686321 0.1721717 0.12686707 -0.97604924 0.13673905 0.16920464 -0.97582012 0.01543133 0.21802977 -0.97563201 0.12840131 0.17791946 -0.97534961 0.12563008 0.18141192 -0.97446012 0.07009078 0.21334201 -0.97340322 0.07080214 0.21788353 -0.97300857 0.05123021 0.22501078 -0.97299117 0.05531356 0.22411728 -0.97283596 -0.01760734 0.23082505 -0.97269905 0.05486932 0.22548999 -0.97096151 0.01688995 0.23863862 -0.97048575 0.01103864 0.24090591 -0.97025514 0.0109312 0.24183767 -0.96963358 -0.01638805 0.24401259 -0.9689393 -0.02050207 0.24644752 -0.96874595 0.0126241 0.24773343 -0.96860123 -0.00913597 0.24845152 -0.96855378 -0.00904857 0.24863988 -0.96824324 -0.01259414 0.24969259 -0.96764737 0.00800804 0.25217909 -0.96715289 0.00469096 0.25415212 -0.96661156 0.19099776 0.17082743 -0.9665755 0.18076535 0.18181226 -0.96557128 0.25225806 -0.06354593 -0.96555549 0.03973288 0.25714579 -0.96509087 0.25351563 -0.06579795 -0.9649359 -0.03837477 0.25966546 -0.96491611 -0.03831756 0.25974721 -0.96443844 -0.01455257 0.26390669 -0.96432197 -0.04744054 0.2604467 -0.96372414 -0.11069309 0.24286394 -0.96232164 -0.10864858 0.24926411 -0.96231997 0.01383863 0.27156723 -0.96155387 -0.02993177 0.27298021 -0.96142334 -0.03184469 0.27322334 -0.96124196 -0.0315185 0.27389842 -0.96101111 0.01009868 0.2763252 -0.96043843 -0.03553078 0.27621636 -0.96041369 -0.00088474 0.2785762 -0.9602232 -0.00058352 0.27923298 -0.96016067 0.00052241 0.27944806 -0.96015614 0.00052019 0.27946365 -0.95957708 -0.07207365 0.27206102 -0.95919704 -0.07119837 0.27362713 -0.95902026 -0.04517053 0.27971381 -0.95891762 0.06980328 0.27496251 -0.95872426 -0.00940224 0.28418201 -0.95861214 0.02084251 0.28395119 -0.95818526 0.28614482 0.00144566 -0.95778471 -0.01249563 0.28721485 -0.95770371 0.12210587 0.26056433 -0.95744902 0.14861241 0.24739754 -0.95744836 0.14745387 0.24809274 -0.95730668 0.06543014 0.28157187 -0.95699859 -0.12715493 0.26074013 -0.95688987 -0.09155733 0.27564284 -0.95688057 -0.09049998 0.27602431 -0.95686901 -0.02020505 0.28981596 -0.95657778 -0.12088582 0.26522708 -0.95657402 -0.02403806 0.29049677 -0.95589995 0.01861889 0.29310188 -0.95564264 -0.28913629 0.05610107 -0.95561498 -0.09698827 0.27819639 -0.95539755 -0.0595852 0.28924915 -0.95508385 -0.06099648 0.28998995 -0.95505267 -0.06009126 0.29028168 -0.95445293 0.04236647 0.29533809 -0.95445287 0.00245149 0.29835162 -0.95437574 -0.06614954 0.2911894 -0.95395458 0.00223305 0.29994258 -0.95343274 0.01134225 0.30139247 -0.95307422 0.01105655 0.30253473 -0.95289278 0.01260202 0.30304554 -0.95268583 0.00466042 0.30392101 -0.95231611 0.00058535 0.30511239 -0.95222008 0.0018941 0.30540672 -0.95220143 0.00408957 0.30544373 -0.95217049 -0.00178029 0.30556205 -0.95207304 0.00400501 0.30584466 -0.95203793 0.00183803 0.30597457 -0.95199537 -0.00073334 0.30611163 -0.95165086 -0.07397842 0.29814038 -0.95156503 0.0098602 0.30728942 -0.95141643 0.02675116 0.30674288 -0.9509626 0.00804334 0.30920136 -0.95072401 -0.00712279 0.30995667 -0.95064551 -0.00541971 0.3102318 -0.95049429 -0.00417858 0.31071377 -0.95027465 -0.01352186 0.31111926 -0.95010751 -0.00840997 0.31180915 -0.94998324 0.00638765 0.31223559 -0.94970012 -0.00936548 0.31302062 -0.94954824 -0.00898655 0.31349221 -0.94928795 0.00523172 0.31436437 -0.94926602 0.00567405 0.31442305 -0.94895226 0.00831328 0.31531009 -0.94863999 0.0003069 0.31635755 -0.94850379 0.05818049 0.31137717 -0.94811106 0.01154356 0.31772986 -0.94806165 -0.02364192 0.31720674 -0.94805098 0.01128135 0.31791824 -0.94797522 0.00317066 0.31832832 -0.94791567 0.00324956 0.3185049 -0.94788331 0.01242379 0.31837526 -0.94766867 0.00284524 0.31924278 -0.94729632 -0.02653956 0.31925726 -0.94716275 0.077559 0.31123516 -0.94715667 -0.091893 0.3073273 -0.94713306 0.07900878 0.31096059 -0.94701314 -0.06423657 0.31470585 -0.94700056 0.00215958 0.32122469 -0.94693029 -0.03191884 0.31985003 -0.94693005 0.00075598 0.32143882 -0.94682705 -0.0330348 0.32004264 -0.94682479 0.26064849 0.18864053 -0.94673383 -0.00126214 0.32201484 -0.94669247 0.04890694 0.31840473 -0.94653904 0.0013234 0.32258639 -0.94646907 0.00611216 0.32273656 -0.94635206 0.04723541 0.31966615 -0.94624054 -0.03590088 0.32146543 -0.94620091 0.00080699 0.32357869 -0.946181 0.01202919 0.32341427 -0.94617605 -0.06751258 0.31653258 -0.94614905 0.06849325 0.31640291 -0.94613993 0.06959283 0.31619 -0.94612187 -0.07486368 0.31503794 -0.94600403 -0.00038782 0.3241545 -0.94597548 0.00030069 0.32423821 -0.94594657 0.00093978 0.32432091 -0.94593811 -0.00057348 0.32434654 -0.94593328 0.0056099 0.32431284 -0.94590724 -0.00078736 0.32443613 -0.9459036 -7.788e-05 0.32444793 -0.94589901 -7.716e-05 0.3244611 -0.94586343 -0.00145821 0.32456166 -0.94584304 0.00016429 0.3246246 -0.94584215 0.0001971 0.32462689 -0.94583195 -0.00101826 0.32465526 -0.94582707 1.458e-05 0.32467088 -0.94582683 5.168e-05 0.32467136 -0.94582129 0.00082878 0.32468662 -0.94582039 0.00031249 0.32468992 -0.94581759 2.943e-05 0.3246986 -0.94581437 8.952e-05 0.32470778 -0.94580609 -0.00027227 0.32473183 -0.94580436 -0.00025251 0.32473674 -0.94580364 -9.718e-05 0.32473916 -0.94580233 -0.00023701 0.32474267 -0.9458003 -0.00026468 0.32474852 -0.94579774 -0.00294313 0.32474279 -0.94579643 -0.00012674 0.32475999 -0.94579405 0.00010615 0.32476705 -0.94579375 0.00084941 0.32476699 -0.94579196 0.00019835 0.32477313 -0.9457894 -0.00011219 0.32478067 -0.94578469 -1.872e-05 0.32479423 -0.94578332 -4.829e-05 0.32479838 -0.94578272 -4.125e-05 0.32480016 -0.94578212 -8.894e-05 0.32480186 -0.94577938 9.87e-06 0.32480991 -0.94577491 0.00012189 0.32482275 -0.94577444 -0.00020061 0.32482409 -0.94575864 -3.432e-05 0.32487023 -0.94574803 0.00057763 0.32490063 -0.94573635 -0.00014736 0.32493514 -0.94573128 6.678e-05 0.32495001 -0.94573092 -2.343e-05 0.3249507 -0.94572675 0.00015712 0.32496318 -0.94571877 -0.00041697 0.32498592 -0.94571865 -0.00029739 0.32498622 -0.94571841 -0.00099158 0.32498556 -0.94569767 -0.00036854 0.32504731 -0.94567925 -0.0003811 0.32510102 -0.94567311 0.00011421 0.32511896 -0.9456315 -0.14255163 0.29233569 -0.94563091 -4.897e-05 0.32524148 -0.94562972 7.98e-05 0.32524544 -0.9456259 0.00089053 0.32525513 -0.94562358 0.1194162 0.30254868 -0.94549501 7.451e-05 0.32563639 -0.94547337 -0.00275913 0.32568759 -0.94543445 -0.00062887 0.32581186 -0.94541484 -0.00152875 0.32586572 -0.94541121 0.00035763 0.32587984 -0.94531727 -0.00191023 0.32614654 -0.94531435 0.00200356 0.32615432 -0.94526619 -4.128e-05 0.32630014 -0.94525123 -0.07456392 0.31771106 -0.9450919 0.15071963 0.289974 -0.94500577 0.00196617 0.3270478 -0.94464511 0.03914318 0.32575059 -0.94458497 -0.00185199 0.32826164 -0.94452971 -0.08168151 0.31810641 -0.94419438 -0.00453574 0.32935753 -0.94412881 -0.046724 0.32624778 -0.94385165 -0.04985158 0.32658648 -0.9436323 -0.03572229 0.32906225 -0.94359708 0.03405598 0.32933983 -0.94331163 -0.05294487 0.32765833 -0.94290262 0.04749758 0.32966447 -0.94289571 -0.1074205 0.3152912 -0.94289094 -0.00069125 0.33310086 -0.94285542 0.04885816 0.32960048 -0.94253886 -0.00463414 0.33406439 -0.94239569 -0.00788603 0.33440721 -0.94205433 -0.0062133 0.33540267 -0.94183296 -0.17963023 0.28404883 -0.9416973 -0.00627413 0.33640286 -0.94161367 0.04140071 0.33414024 -0.94136888 -0.0011822 0.33737707 -0.94135642 0.03990844 0.33504531 -0.94125456 0.13739592 0.30848384 -0.94116038 0.01048838 0.33779728 -0.94096899 0.14149791 0.30749914 -0.94072241 -0.00314584 0.33916301 -0.940283 0.03398968 0.33869237 -0.94019163 -0.0198903 0.34006482 -0.94008785 -0.01395098 0.34064645 -0.94007403 -0.00804393 0.34087563 -0.93994802 0.03201756 0.33981261 -0.93981814 -0.00846042 0.34157041 -0.93980145 -0.09203638 0.32909349 -0.93978727 0.29766059 0.16792277 -0.93966162 -0.02096516 0.34146208 -0.93954289 -0.020623 0.34180981 -0.93950176 -0.01022017 0.34239164 -0.93904853 0.01721035 0.34335357 -0.93888009 0.01740598 0.34380409 -0.93883574 -0.02475267 0.34347457 -0.93849003 -0.01083436 0.34513614 -0.9384554 0.02420299 0.34455156 -0.93829423 0.0246845 0.34495613 -0.93809932 -0.16541141 0.30431682 -0.93802607 0.00946545 0.34643546 -0.93735635 0.10344239 0.33266005 -0.93721551 0.01858626 0.34825495 -0.93711984 0.01873092 0.34850451 -0.93695349 0.00909485 0.34933594 -0.93599874 0.00190437 0.35199821 -0.93565345 0.00610383 0.35286725 -0.93522483 0.12564336 0.33101112 -0.93498415 0.00819196 0.35459486 -0.93494624 0.00827616 0.35469279 -0.93416053 0.00572142 0.35680714 -0.93412399 0.00573426 0.35690275 -0.93405551 -0.00703307 0.35705835 -0.93379754 -0.00258617 0.35779238 -0.93373758 -0.01860998 0.35747436 -0.93372285 0.03326575 0.35644776 -0.93370581 -0.01687753 0.35764322 -0.93360686 0.04388693 0.3556011 -0.93355095 -0.34727672 0.0887775 -0.93351603 0.00485072 0.35850289 -0.9333033 0.35165989 -0.07266595 -0.93325573 -0.13703433 0.33204705 -0.93323177 0.03447432 0.35761717 -0.93322212 0.00590855 0.35925138 -0.9331795 0.02162901 0.35875952 -0.93307501 0.01126146 0.35950568 -0.93300176 0.00694604 0.35980478 -0.93297178 0.00541985 0.35990897 -0.93288946 0.07083523 0.35312822 -0.93269747 -0.00535064 0.36062011 -0.93249518 -0.011413 0.36100188 -0.93244338 0.08069705 0.35218945 -0.93231457 -0.00836713 0.36155146 -0.93226409 0.08417369 0.35185003 -0.93190968 -0.00530828 0.36265174 -0.93173289 -0.14198634 0.33423606 -0.93173176 -0.02636336 0.36218899 -0.93167722 -0.00509436 0.36325154 -0.93081021 0.02602068 0.36457548 -0.92994934 0.09063287 0.35634243 -0.9298268 -0.01484185 0.36769783 -0.92936558 0.02833503 0.3680715 -0.92911118 -0.01573739 0.36946547 -0.92898697 -0.01583352 0.36977363 -0.9273386 -0.02159652 0.37359968 -0.92717081 -0.08860967 0.36400908 -0.92674005 -0.22755775 0.29894841 -0.92661315 0.11404485 0.35830423 -0.9263944 -0.02640681 0.37562728 -0.926368 -0.02642505 0.37569138 -0.92631876 -0.09063631 0.36567557 -0.92621589 -0.0264376 0.37606534 -0.92599189 -0.02659095 0.37660584 -0.92595083 0.17401353 0.33516306 -0.92573518 0.2330481 0.29783043 -0.924649 0.11068797 0.36437947 -0.92366374 0.37091491 -0.09626799 -0.92159319 0.07883892 0.38006628 -0.92120492 0.10497679 0.37464821 -0.9211325 -0.06373493 0.38399568 -0.92098099 0.33302245 -0.20221281 -0.91975427 0.20808548 0.33279508 -0.91955191 0.19152805 0.34313461 -0.91789824 -0.14731734 0.36845693 -0.91619861 -0.15874293 0.36794141 -0.91490072 0.22657645 0.33409548 -0.91487879 -0.06533648 0.39840683 -0.91470271 -0.0655534 0.39877513 -0.91312367 0.407608 -0.00780659 -0.91240424 0.06550486 0.40401435 -0.91196591 0.12919581 0.38939264 -0.91193074 -0.19343609 0.36189067 -0.91133386 -0.10017177 0.3992947 -0.91111928 0.10059891 0.39967674 -0.91102606 0.10083348 0.39983007 -0.91079944 -0.15191637 0.38388255 -0.91014177 -0.17751008 0.37434232 -0.90918249 0.07050465 0.41038546 -0.90849602 0.07485458 0.41113475 -0.90811163 -0.25386193 0.33299738 -0.90805924 0.07223637 0.4125655 -0.90795827 -0.40600416 0.10379054 -0.90759677 -0.40694755 0.10325535 -0.90750438 -0.25621212 0.33285347 -0.9045099 -0.11298867 0.41121227 -0.90429235 0.08105814 0.41914761 -0.90418106 0.24123269 0.35251015 -0.9034636 0.42008331 0.08534424 -0.90333688 0.17757846 0.39044642 -0.90188932 0.0420325 0.42991751 -0.90060395 0.03584898 0.43315974 -0.89855981 0.12445834 0.42083308 -0.89648092 0.39314574 0.20434891 -0.8946386 0.09504913 0.43656316 -0.89078671 -0.24500969 0.3827129 -0.89067966 -0.00401399 0.45461366 -0.88910484 0.05919849 0.45385927 -0.88843071 0.06006252 0.45506406 -0.88645262 -0.06994269 0.45750391 -0.88634408 -0.02005858 0.46259245 -0.88421923 -0.26352024 0.38563365 -0.88337749 0.05229962 0.46573484 -0.88253158 0.05295902 0.46726155 -0.8752178 0.24775453 0.41546527 -0.8747201 0.16465592 0.45579955 -0.87438476 0.46398598 0.14201456 -0.87162334 0.12204545 0.47473952 -0.87062246 0.10678975 0.48022136 -0.86807549 -0.07853255 0.49018124 -0.8672874 0.33567956 0.36760297 -0.86418009 0.00902306 0.50310183 -0.86413348 0.06224331 0.4993988 -0.85757941 0.40259439 -0.32011765 -0.85727388 -0.10811905 0.50338036 -0.85687244 0.50638968 -0.09663925 -0.85170966 -0.21732716 0.47682226 -0.84831613 0.01452606 0.52929085 -0.84633905 -0.20659111 0.49094844 -0.84305954 -0.21049947 0.49491477 -0.83977395 0.21503802 0.49853623 -0.83977318 -0.04508849 0.54106194 -0.83824748 0.0747671 0.54013985 -0.83802348 -0.0163885 0.54538792 -0.83637941 0.04521128 0.54628348 -0.83233362 0.28204808 0.47714755 -0.82818019 -0.01511575 0.56025797 -0.82813501 -0.54331231 0.13785537 -0.82469231 -0.54917359 0.13524425 -0.82401049 -0.14611039 0.54741085 -0.82299304 -0.05005551 0.56584179 -0.81706083 -0.11959253 0.56401181 -0.81299436 -0.01748893 0.58200884 -0.80875248 -0.29062819 0.51132637 -0.7991733 -0.17167477 0.57606423 -0.78824651 0.6141212 -0.0390221 -0.78438014 -0.25725228 0.56441915 -0.7658512 -0.27478802 0.58134621 -0.76119077 -0.44636083 0.47047913 -0.74577689 -0.29745659 0.59610111 -0.73608929 -0.49904358 0.4573054 -0.731893 -0.31423879 0.60463744 -0.69757229 -0.42734852 0.57512277 -0.69181877 -0.59069842 0.4152855 -0.6810652 -0.7109803 0.17509216 -0.66676259 0.69666809 -0.26472867 -0.66317868 0.73519307 -0.14030401 -0.65373284 0.7422474 -0.14731628 -0.64855188 -0.1416554 0.74787313 -0.63969284 -0.14363876 0.75509 -0.61934662 0.76631439 -0.17079815 -0.61830914 0.44813475 -0.64565384 -0.61830747 -0.67123491 0.40882719 -0.59731811 -0.60581571 0.52554584 -0.58040011 -0.76279849 0.2850863 -0.35777256 0.79612678 -0.48803797 -0.3077645 0.93325877 -0.18522693 -0.26551902 -0.32762823 0.90673012 -0.25868478 0.84459388 -0.46876788 -0.01067128 0.79538643 -0.60600871</float_array>
          <technique_common>
            <accessor source="#normals-array" count="409" stride="3">
              <param name="X" type="float" />
              <param name="Y" type="float" />
              <param name="Z" type="float" />
            </accessor>
          </technique_common>
        </source>
        <vertices id="vertices">
          <input semantic="POSITION" source="#positions" />
        </vertices>
        <triangles count="420" material="MATERIAL">
          <input semantic="VERTEX" source="#vertices" offset="0" />
          <input semantic="NORMAL" source="#normals" offset="1" />
          <p>272 199 264 199 270 199 276 201 272 201 270 201 274 132 276 132 270 132 266 207 264 207 272 207 266 113 260 113 264 113 280 135 276 135 274 135 278 233 280 233 274 233 262 99 260 99 266 99 282 82 280 82 278 82 262 245 256 245 260 245 258 255 256 255 262 255 282 66 284 66 280 66 286 250 284 250 282 250 258 214 246 214 256 214 250 116 246 116 258 116 250 114 238 114 246 114 242 119 238 119 250 119 242 241 230 241 238 241 234 240 230 240 242 240 234 210 222 210 230 210 226 254 222 254 234 254 226 243 213 243 222 243 218 244 213 244 226 244 218 263 209 263 213 263 214 221 209 221 218 221 214 147 215 147 209 147 219 256 215 256 214 256 219 302 223 302 215 302 227 299 223 299 219 299 227 290 231 290 223 290 235 206 231 206 227 206 235 61 239 61 231 61 243 69 239 69 235 69 243 322 247 322 239 322 251 334 247 334 243 334 179 129 171 129 177 129 184 211 179 211 177 211 182 212 184 212 177 212 173 209 171 209 179 209 173 142 167 142 171 142 186 313 184 313 182 313 169 359 167 359 173 359 186 350 188 350 184 350 189 389 188 389 186 389 169 353 158 353 167 353 162 215 158 215 169 215 162 93 150 93 158 93 154 96 150 96 162 96 154 127 142 127 150 127 146 354 142 354 154 354 146 356 134 356 142 356 138 136 134 136 146 136 138 104 126 104 134 104 130 357 126 357 138 357 130 361 117 361 126 361 122 115 117 115 130 115 122 101 113 101 117 101 118 65 113 65 122 65 118 52 119 52 113 52 123 87 119 87 118 87 123 105 127 105 119 105 131 370 127 370 123 370 131 380 135 380 127 380 139 121 135 121 131 121 139 86 143 86 135 86 147 383 143 383 139 383 147 390 151 390 143 390 155 103 151 103 147 103 155 107 159 107 151 107 163 102 159 102 155 102 163 337 164 337 159 337 327 321 328 321 325 321 328 304 326 304 325 304 326 303 323 303 325 303 326 311 324 311 323 311 324 312 321 312 323 312 329 271 328 271 327 271 322 123 321 123 324 123 329 342 330 342 328 342 332 399 330 399 329 399 331 402 332 402 329 402 322 80 317 80 321 80 319 81 317 81 322 81 319 97 313 97 317 97 315 97 313 97 319 97 315 49 309 49 313 49 311 45 309 45 315 45 311 59 305 59 309 59 307 328 305 328 311 328 307 330 301 330 305 330 303 51 301 51 307 51 303 53 295 53 301 53 299 339 295 339 303 339 299 340 296 340 295 340 298 29 296 29 299 29 298 30 297 30 296 30 300 345 297 345 298 345 300 349 302 349 297 349 304 35 302 35 300 35 304 36 306 36 302 36 308 358 306 358 304 358 308 363 310 363 306 363 312 12 310 12 308 12 312 15 314 15 310 15 316 18 314 18 312 18 316 394 318 394 314 394 271 217 263 217 267 217 275 285 271 285 267 285 273 238 275 238 267 238 265 139 263 139 271 139 277 326 275 326 273 326 265 125 259 125 263 125 261 336 259 336 265 336 277 344 279 344 275 344 281 387 279 387 277 387 261 338 253 338 259 338 257 204 253 204 261 204 281 325 283 325 279 325 257 75 244 75 253 75 248 60 244 60 257 60 248 84 236 84 244 84 240 341 236 341 248 341 240 343 228 343 236 343 232 79 228 79 240 79 232 50 220 50 228 50 224 73 220 73 232 73 224 54 210 54 220 54 216 55 210 55 224 55 216 62 208 62 210 62 211 44 208 44 216 44 211 31 212 31 208 31 217 48 212 48 211 48 217 56 221 56 212 56 225 57 221 57 217 57 225 40 229 40 221 40 233 22 229 22 225 22 233 20 237 20 229 20 241 378 237 378 233 378 241 388 245 388 237 388 249 19 245 19 241 19 249 318 254 318 245 318 255 408 254 408 249 408 63 315 61 315 68 315 63 283 52 283 61 283 54 283 52 283 63 283 54 281 44 281 52 281 46 281 44 281 54 281 46 278 36 278 44 278 40 278 36 278 46 278 40 269 28 269 36 269 30 273 28 273 40 273 30 272 20 272 28 272 22 265 20 265 30 265 22 267 12 267 20 267 14 14 12 14 22 14 14 13 1 13 12 13 8 274 1 274 14 274 8 279 0 279 1 279 3 279 0 279 8 279 3 277 2 277 0 277 9 277 2 277 3 277 9 275 13 275 2 275 15 9 13 9 9 9 15 10 21 10 13 10 23 280 21 280 15 280 23 276 29 276 21 276 31 11 29 11 23 11 31 16 37 16 29 16 41 282 37 282 31 282 41 300 45 300 37 300 47 295 45 295 41 295 47 286 53 286 45 286 55 239 53 239 47 239 55 355 62 355 53 355 64 314 62 314 55 314 64 403 67 403 62 403 66 393 65 393 69 393 66 377 56 377 65 377 57 376 56 376 66 376 57 332 48 332 56 332 49 331 48 331 57 331 49 268 38 268 48 268 42 374 38 374 49 374 42 369 32 369 38 369 33 77 32 77 42 77 33 8 24 8 32 8 25 7 24 7 33 7 25 4 16 4 24 4 17 4 16 4 25 4 17 3 4 3 16 3 10 371 4 371 17 371 10 373 5 373 4 373 6 1 5 1 10 1 6 0 7 0 5 0 11 375 7 375 6 375 11 379 18 379 7 379 19 2 18 2 11 2 19 5 26 5 18 5 27 6 26 6 19 6 27 39 34 39 26 39 35 41 34 41 27 41 35 306 39 306 34 306 43 386 39 386 35 386 43 391 50 391 39 391 51 364 50 364 43 364 51 395 58 395 50 395 59 396 58 396 51 396 59 405 60 405 58 405 421 257 415 257 419 257 425 228 421 228 419 228 423 230 425 230 419 230 429 205 425 205 423 205 427 195 429 195 423 195 417 289 411 289 415 289 421 251 417 251 415 251 413 297 411 297 417 297 433 68 429 68 427 68 431 67 433 67 427 67 413 305 407 305 411 305 409 305 407 305 413 305 436 38 433 38 431 38 435 365 436 365 431 365 409 308 403 308 407 308 404 74 403 74 409 74 438 385 436 385 435 385 437 64 438 64 435 64 404 46 395 46 403 46 398 307 395 307 404 307 439 362 438 362 437 362 398 319 389 319 395 319 392 335 389 335 398 335 439 310 440 310 438 310 441 400 440 400 439 400 392 347 380 347 389 347 384 346 380 346 392 346 384 351 371 351 380 351 378 352 371 352 384 352 378 366 369 366 371 366 372 360 369 360 378 360 372 372 373 372 369 372 379 381 373 381 372 381 379 398 381 398 373 398 385 397 381 397 379 397 385 406 386 406 381 406 420 216 414 216 418 216 424 140 420 140 418 140 422 141 424 141 418 141 416 236 410 236 414 236 420 219 416 219 414 219 426 122 424 122 422 122 412 236 410 236 416 236 426 124 428 124 424 124 430 130 428 130 426 130 412 227 406 227 410 227 408 227 406 227 412 227 430 130 432 130 428 130 434 407 432 407 430 407 408 225 399 225 406 225 401 70 399 70 408 70 401 47 393 47 399 47 396 232 393 232 401 232 396 247 387 247 393 247 390 248 387 248 396 248 390 259 374 259 387 259 382 258 374 258 390 258 382 252 367 252 374 252 375 253 367 253 382 253 375 284 366 284 367 284 370 287 366 287 375 287 370 261 368 261 366 261 376 260 368 260 370 260 376 301 377 301 368 301 383 298 377 298 376 298 383 292 388 292 377 292 391 293 388 293 383 293 391 317 394 317 388 317 397 316 394 316 391 316 397 294 400 294 394 294 402 270 400 270 397 270 402 404 405 404 400 404 178 249 170 249 174 249 181 329 178 329 174 329 181 333 183 333 178 333 172 296 170 296 178 296 185 392 183 392 181 392 172 223 165 223 170 223 168 191 165 191 172 191 185 401 187 401 183 401 168 71 156 71 165 71 160 72 156 72 168 72 160 78 148 78 156 78 152 320 148 320 160 320 152 324 140 324 148 324 144 323 140 323 152 323 144 327 132 327 140 327 136 58 132 58 144 58 136 42 124 42 132 42 128 43 124 43 136 43 128 33 114 33 124 33 120 32 114 32 128 32 120 34 112 34 114 34 115 24 112 24 120 24 115 17 116 17 112 17 121 26 116 26 115 26 121 27 125 27 116 27 129 28 125 28 121 28 129 25 133 25 125 25 137 23 133 23 129 23 137 21 141 21 133 21 145 348 141 348 137 348 145 367 149 367 141 367 153 368 149 368 145 368 153 382 157 382 149 382 161 37 157 37 153 37 161 384 166 384 157 384 190 170 95 170 93 170 80 176 98 176 70 176 190 213 94 213 95 213 190 138 92 138 94 138 175 134 91 134 92 134 190 187 180 187 92 187 180 158 175 158 92 158 175 197 90 197 91 197 176 234 89 234 90 234 175 173 176 173 90 173 176 111 88 111 89 111 81 89 98 89 80 89 176 172 111 172 88 172 111 222 87 222 88 222 82 231 98 231 81 231 108 88 107 88 87 88 100 118 99 118 87 118 101 208 100 208 87 208 97 133 86 133 87 133 96 63 97 63 87 63 99 100 96 100 87 100 109 126 108 126 87 126 107 264 106 264 87 264 106 98 105 98 87 98 105 137 104 137 87 137 111 76 110 76 87 76 110 242 109 242 87 242 104 224 103 224 87 224 103 110 102 110 87 110 102 246 101 246 87 246 83 128 98 128 82 128 98 92 85 92 86 92 97 192 98 192 86 192 84 262 98 262 83 262 98 94 84 94 85 94 291 153 206 153 289 153 293 196 291 196 289 196 336 150 292 150 293 150 292 149 291 149 293 149 290 144 199 144 206 144 291 177 290 177 206 177 357 160 294 160 336 160 294 200 292 200 336 200 288 171 198 171 199 171 290 198 288 198 199 198 358 193 320 193 357 193 320 131 294 131 357 131 287 186 197 186 198 186 288 189 287 189 198 189 359 165 333 165 358 165 333 181 320 181 358 181 285 155 196 155 197 155 287 188 285 188 197 188 360 146 334 146 359 146 334 190 333 190 359 190 252 167 195 167 196 167 285 163 252 163 196 163 361 194 335 194 360 194 335 202 334 202 360 202 207 185 194 185 195 185 252 145 207 145 195 145 362 161 342 161 361 161 342 148 335 148 361 148 205 183 193 183 194 183 207 157 205 157 194 157 363 162 348 162 362 162 348 164 342 164 362 164 204 184 191 184 193 184 205 180 204 180 193 180 354 179 353 179 363 179 364 143 351 143 363 143 351 291 355 291 363 291 355 288 354 288 363 288 353 154 352 154 363 154 352 151 348 151 363 151 201 166 191 166 204 166 202 169 191 169 201 169 365 159 351 159 364 159 203 156 192 156 202 156 192 168 191 168 202 168 337 174 269 174 268 174 365 117 350 117 351 117 365 220 349 220 350 220 365 235 347 235 349 235 365 109 346 109 347 109 338 108 269 108 337 108 365 237 345 237 346 237 339 229 269 229 338 229 365 120 344 120 345 120 356 182 269 182 339 182 340 112 356 112 339 112 365 106 343 106 344 106 341 90 356 90 340 90 365 266 341 266 343 266 365 152 356 152 341 152 203 309 200 309 192 309 200 178 71 178 192 178 78 95 77 95 71 95 77 226 76 226 71 226 76 83 75 83 71 83 75 218 74 218 71 218 74 85 73 85 71 85 73 203 72 203 71 203 200 175 79 175 71 175 79 91 78 91 71 91</p>
        </triangles>
      </mesh>
    </geometry>
  </library_geometries>
  <library_visual_scenes>
    <visual_scene id="Scene" name="Scene">
      <node id="Object" name="Object" type="NODE">
        <instance_geometry url="#geometry">
          <bind_material>
            <technique_common>
              <instance_material symbol="MATERIAL" target="#mat" />
            </technique_common>
          </bind_material>
        </instance_geometry>
      </node>
    </visual_scene>
  </library_visual_scenes>
  <scene>
    <instance_visual_scene url="#Scene" />
  </scene>
</COLLADA>