<?xml version='1.0' encoding='utf-8'?>
<COLLADA xmlns="http://www.collada.org/2005/11/COLLADASchema" version="1.4.1">
  <asset>
    <contributor>
      <authoring_tool>RM27 reviewed Blender visual export</authoring_tool>
    </contributor>
    <created>2026-10-07T00:00:00Z</created>
    <modified>2026-10-07T00:00:00Z</modified>
    <unit name="meter" meter="1" />
    <up_axis>Z_UP</up_axis>
  </asset>
  <library_effects>
    <effect id="fx">
      <profile_COMMON>
        <technique sid="common">
          <phong>
            <emission>
              <color>0 0 0 1</color>
            </emission>
            <ambient>
              <color>0 0 0.749019608 1</color>
            </ambient>
            <diffuse>
              <color>0 0 0.749019608 1</color>
            </diffuse>
            <specular>
              <color>0.08 0.08 0.08 1</color>
            </specular>
            <shininess>
              <float>12</float>
            </shininess>
          </phong>
        </technique>
      </profile_COMMON>
    </effect>
  </library_effects>
  <library_materials>
    <material id="mat" name="source_color">
      <instance_effect url="#fx" />
    </material>
  </library_materials>
  <library_geometries>
    <geometry id="geometry" name="geometry">
      <mesh>
        <source id="positions">
          <float_array id="positions-array" count="879">-14 1.14134395123 -1.63834404945 -14 1.14134395123 -1.63634395599 -14 1.18134403229 -1.63834404945 -14 1.18134403229 -1.63634395599 -14 1.30234396458 -1.63834404945 -14 1.30234396458 -1.63634395599 -14 1.34234404564 -1.63834404945 -14 1.34234404564 -1.63634395599 -14 1.46334397793 -1.63834404945 -14 1.46334397793 -1.63634395599 -14 1.50334405899 -1.63834404945 -14 1.50334405899 -1.63634395599 -14 1.62434399128 -1.63834404945 -14 1.62434399128 -1.63634395599 -14 1.66434395313 -1.63834404945 -14 1.66434395313 -1.63634395599 -14 1.79714596272 -1.63834404945 -14 1.79714596272 -1.63634395599 -14 1.82534396648 -1.63834404945 -14 1.82534396648 -1.63634395599 -14 1.94634401798 -1.63834404945 -14 1.94634401798 -1.63634395599 -14 1.98634397984 -1.63834404945 -14 1.98634397984 -1.63634395599 -14 2.10734391212 -1.63834404945 -14 2.10734391212 -1.63634395599 -14 2.1473441124 -1.63834404945 -14 2.1473441124 -1.63634395599 -12.5 1.46334397793 -1.64134395123 -12.5 1.46334397793 -1.63834404945 -12.5 1.50334405899 -1.64134395123 -12.5 1.50334405899 -1.63834404945 -12.5 1.62434399128 -1.64134395123 -12.5 1.62434399128 -1.63834404945 -12.5 1.66434395313 -1.64134395123 -12.5 1.66434395313 -1.63834404945 -12.4970302582 1.30234396458 -1.64134395123 -12.4970302582 1.30234396458 -1.63834404945 -12.4970302582 1.34234404564 -1.64134395123 -12.4970302582 1.34234404564 -1.63834404945 -12.3453197479 1.14134395123 -1.63834404945 -12.3453197479 1.14134395123 -1.63634395599 -12.3453197479 1.18134403229 -1.63834404945 -12.3453197479 1.18134403229 -1.63634395599 -12.3453197479 1.30234396458 -1.64134395123 -12.3453197479 1.30234396458 -1.63634395599 -12.3453197479 1.34234404564 -1.64134395123 -12.3453197479 1.34234404564 -1.63634395599 -12.3453197479 1.46334397793 -1.64134395123 -12.3453197479 1.46334397793 -1.63634395599 -12.3453197479 1.50334405899 -1.64134395123 -12.3453197479 1.50334405899 -1.63634395599 -12.3453197479 1.62434399128 -1.64134395123 -12.3453197479 1.62434399128 -1.63634395599 -12.3453197479 1.66434395313 -1.64134395123 -12.3453197479 1.66434395313 -1.63634395599 -12.3453197479 1.79714596272 -1.63834404945 -12.3453197479 1.79714596272 -1.63634395599 -12.3453197479 1.82534396648 -1.63834404945 -12.3453197479 1.82534396648 -1.63634395599 -12.3453197479 1.94634401798 -1.63834404945 -12.3453197479 1.94634401798 -1.63634395599 -12.3453197479 1.98634397984 -1.63834404945 -12.3453197479 1.98634397984 -1.63634395599 -12.3453197479 2.10734391212 -1.63834404945 -12.3453197479 2.10734391212 -1.63634395599 -12.3453197479 2.1473441124 -1.63834404945 -12.3453197479 2.1473441124 -1.63634395599 -10.865240097 4.29239082336 -1.64061200619 -10.865240097 4.29304409027 -1.64131164551 -10.865240097 6.37434387207 -1.44134402275 -10.865240097 6.37434387207 -1.44037687778 -10.865240097 6.37434387207 -1.44034397602 -10.865240097 9.08434391022 -1.44134402275 -10.865240097 9.08434391022 -1.44034397602 -10.8639030457 6.37434387207 -1.44134402275 -10.8634757996 4.29304409027 -1.64131164551 -10.8259973526 6.37434387207 -1.44034397602 -10.8252401352 4.29239082336 -1.64061200619 -10.8252401352 4.29304409027 -1.64131164551 -10.8252401352 6.37434387207 -1.44134402275 -10.8252401352 6.37434387207 -1.44036316872 -10.8252401352 6.37434387207 -1.44034397602 -10.8252401352 9.04434394836 -1.44134402275 -10.8252401352 9.04434394836 -1.44034397602 -10.7347097397 1.42334401608 -1.63854396343 -10.7347097397 1.42334401608 -1.63654398918 -10.7347097397 1.46334397793 -1.63854396343 -10.7347097397 1.46334397793 -1.63654398918 -10.7347097397 1.62434399128 -1.64134395123 -10.7347097397 1.62434399128 -1.6403440237 -10.7347097397 1.66434395313 -1.64134395123 -10.7347097397 1.66434395313 -1.6403440237 -10.7347097397 1.82534396648 -1.63854396343 -10.7347097397 1.82534396648 -1.63654398918 -10.7347097397 1.86534404755 -1.63854396343 -10.7347097397 1.86534404755 -1.63654398918 -10.1400098801 -5.79565620422 -1.44134402275 -10.1400098801 -5.79565620422 -1.44034397602 -10.1400098801 -2.1151330471 -1.44134402275 -10.1400098801 -2.1151330471 -1.44034397602 -10.1000099182 -5.75565576553 -1.44134402275 -10.1000099182 -5.75565576553 -1.44034397602 -10.1000099182 -2.15513300896 -1.44134402275 -10.1000099182 -2.15513300896 -1.44034397602 -9.97471141815 1.42334401608 -1.63854396343 -9.97471141815 1.42334401608 -1.63654398918 -9.97471141815 1.46334397793 -1.63854396343 -9.97471141815 1.46334397793 -1.63654398918 -9.97471141815 1.82534396648 -1.63854396343 -9.97471141815 1.82534396648 -1.63654398918 -9.97471141815 1.86534404755 -1.63854396343 -9.97471141815 1.86534404755 -1.63654398918 -9.21056556702 1.62434399128 -1.64134395123 -9.21056556702 1.62434399128 -1.6403440237 -9.1857919693 1.66434395313 -1.64134395123 -9.1857919693 1.66434395313 -1.6403440237 -8.90001106262 -3.86565589905 -1.44134402275 -8.90001106262 -3.86565589905 -1.44034397602 -8.90001106262 -3.51565599442 -1.44134402275 -8.90001106262 -3.51565599442 -1.44034397602 -8.86001014709 -3.82565593719 -1.44134402275 -8.86001014709 -3.82565593719 -1.44034397602 -8.86001014709 -3.55565595627 -1.44134402275 -8.86001014709 -3.55565595627 -1.44034397602 -8.69073390961 1.6443400383 -1.64214396477 -8.69073390961 1.6443400383 -1.64114403725 -8.64454555511 1.6443400383 -1.64214396477 -8.64454555511 1.6443400383 -1.64114403725 -8.59650707245 1.48113501072 -1.64214396477 -8.59650707245 1.48113501072 -1.64114403725 -8.56186580658 1.50113499165 -1.64214396477 -8.56186580658 1.50113499165 -1.64114403725 -8.41223239899 -2.1151330471 -1.44134402275 -8.41223239899 -2.1151330471 -1.44034397602 -8.41207695007 -2.1150560379 -1.44035899639 -8.39232635498 -2.15513300896 -1.44134402275 -8.39232635498 -2.15513300896 -1.44034397602 -8.39217090607 -2.15505599976 -1.44035899639 -8.13959312439 0.689736783504 -1.64214396477 -8.13959312439 0.689736783504 -1.64114403725 -8.10495185852 0.709736824036 -1.64214396477 -8.10495185852 0.709736824036 -1.64114403725 -8.07999992371 4.82424402237 -1.44134402275 -8.07999992371 4.82424402237 -1.44066774845 -8.07999992371 4.82424402237 -1.44034397602 -8.07999992371 4.83731269836 -1.44034397602 -8.07999992371 4.85201931 -1.44134402275 -8.07999992371 4.86424398422 -1.44134402275 -8.07999992371 4.86424398422 -1.44103550911 -8.07999992371 4.86424398422 -1.44034397602 -8.04536724091 0.52653169632 -1.64214396477 -8.04536724091 0.52653169632 -1.64114403725 -8.04536724091 2.76214790344 -1.64214396477 -8.04536724091 2.76214790344 -1.64114403725 -8.02227306366 0.566531777382 -1.64214396477 -8.02227306366 0.566531777382 -1.64114403725 -8.02227306366 2.72214794159 -1.64214396477 -8.02227306366 2.72214794159 -1.64114403725 -7.85691404343 2.72214794159 -1.64214396477 -7.85691404343 2.72214794159 -1.64114403725 -7.85691404343 2.76214790344 -1.64214396477 -7.85691404343 2.76214790344 -1.64114403725 -7.73863697052 -1.33350896835 -1.64134395123 -7.73863697052 -1.33350896835 -1.6403440237 -7.71528291702 -3.51565599442 -1.44134402275 -7.71528291702 -3.51565599442 -1.44034397602 -7.71512794495 -3.51557898521 -1.44035899639 -7.71386289597 -1.29350996017 -1.64134395123 -7.71386289597 -1.29350996017 -1.6403440237 -7.69537782669 -3.55565595627 -1.44134402275 -7.69537782669 -3.55565595627 -1.44034397602 -7.69522285461 -3.55557894707 -1.44035899639 -7.13747406006 -2.13084411621 -1.64134395123 -7.13731908798 -2.13076710701 -1.64035904408 -7.11756801605 -2.17084503174 -1.64134395123 -7.11741304398 -2.17076706886 -1.64035904408 -6.94308614731 2.72214794159 -1.64214396477 -6.94308614731 2.72214794159 -1.64114403725 -6.94308614731 2.76214790344 -1.64214396477 -6.94308614731 2.76214790344 -1.64114403725 -6.77772712708 0.566531777382 -1.64214396477 -6.77772712708 0.566531777382 -1.64114403725 -6.77772712708 2.72214794159 -1.64214396477 -6.77772712708 2.72214794159 -1.64114403725 -6.75463294983 0.52653169632 -1.64214396477 -6.75463294983 0.52653169632 -1.64114403725 -6.75463294983 2.76214790344 -1.64214396477 -6.75463294983 2.76214790344 -1.64114403725 -6.69504785538 0.709736824036 -1.64214396477 -6.69504785538 0.709736824036 -1.64114403725 -6.66040706635 0.689736783504 -1.64214396477 -6.66040706635 0.689736783504 -1.64114403725 -6.5374212265 4.86424398422 -1.44134402275 -6.5374212265 4.86424398422 -1.44034397602 -6.51659917831 4.82424402237 -1.44134402275 -6.51659917831 4.82424402237 -1.44034397602 -6.44832706451 -3.51569008827 -1.64134395123 -6.44817113876 -3.51561307907 -1.64035904408 -6.42842102051 -3.55569005013 -1.64134395123 -6.42826604843 -3.55561304092 -1.64035904408 -6.34938716888 -3.86565589905 -1.44134402275 -6.34938716888 -3.86565589905 -1.44034397602 -6.34938716888 -3.82565593719 -1.44134402275 -6.34938716888 -3.82565593719 -1.44034397602 -6.23813390732 1.50113499165 -1.64214396477 -6.23813390732 1.50113499165 -1.64114403725 -6.20349311829 1.48113501072 -1.64214396477 -6.20349311829 1.48113501072 -1.64114403725 -6.15545415878 1.6443400383 -1.64214396477 -6.15545415878 1.6443400383 -1.64114403725 -6.10926580429 1.6443400383 -1.64214396477 -6.10926580429 1.6443400383 -1.64114403725 -5.77072620392 -1.33350896835 -1.64134395123 -5.77072620392 -1.33350896835 -1.6403440237 -5.75063180923 -1.29350996017 -1.64134395123 -5.75063180923 -1.29350996017 -1.6403440237 -5.32323789597 -2.23273992538 -1.64134395123 -5.32323789597 -2.23273992538 -1.6403440237 -5.30314397812 -2.19273996353 -1.64134395123 -5.30314397812 -2.19273996353 -1.6403440237 -4.27044200897 8.10182571411 -1.44134402275 -4.27044200897 8.10182571411 -1.44034397602 -4.24961996078 8.06182479858 -1.44134402275 -4.24961996078 8.06182479858 -1.44034397602 -4.1764550209 -3.86565709114 -1.44134402275 -4.1764550209 -3.86565709114 -1.44034397602 -4.1764550209 -3.82565808296 -1.44134402275 -4.1764550209 -3.82565808296 -1.44034397602 -4.05536079407 -4.81565618515 -1.44134402275 -4.05536079407 -4.81565618515 -1.44034397602 -4.05536079407 -4.7756562233 -1.44134402275 -4.05536079407 -4.7756562233 -1.44034397602 -4.03506088257 -3.82566189766 -1.44134402275 -4.03506088257 -3.82566189766 -1.44034397602 -3.99462389946 -3.76587700844 -1.44024598598 -3.99462389946 -3.76565599442 -1.44122099876 -3.99304509163 -3.76565599442 -1.44134402275 -3.99304509163 -3.76565599442 -1.44034397602 -3.98982000351 -3.86565709114 -1.44134402275 -3.98982000351 -3.86565709114 -1.44034397602 -3.92196989059 -3.76587700844 -1.44024598598 -3.92196989059 -3.76565599442 -1.44122099876 -3.91980004311 -3.76565790176 -1.44134402275 -3.91980004311 -3.76565790176 -1.44034397602 -3.69000005722 -0.633071780205 -1.34134399891 -3.69000005722 -0.633071780205 -1.34034395218 -3.69000005722 0.248344093561 -1.34134399891 -3.69000005722 0.248344093561 -1.34034395218 -3.69000005722 3.04034304619 -1.34134399891 -3.69000005722 3.04034304619 -1.34034395218 -3.69000005722 3.54660105705 -1.34134399891 -3.69000005722 3.54660105705 -1.34034395218 -3.68633103371 -3.32558894157 -1.34036898613 -3.68633103371 -3.32536792755 -1.34134399891 -3.65000009537 -0.615715503693 -1.34134399891 -3.65000009537 -0.615715503693 -1.34034395218 -3.65000009537 0.248344093561 -1.34134399891 -3.65000009537 0.248344093561 -1.34034395218 -3.65000009537 3.04034304619 -1.34134399891 -3.65000009537 3.04034304619 -1.34034395218 -3.65000009537 3.53398895264 -1.34134399891 -3.65000009537 3.53398895264 -1.34034395218 -3.61367702484 -3.32558894157 -1.34036898613 -3.61367702484 -3.32536792755 -1.34134399891 -3.53108906746 -2.23273992538 -1.64134395123 -3.53108906746 -2.23273992538 -1.6403440237 -3.53108906746 -2.19273996353 -1.64134395123 -3.53108906746 -2.19273996353 -1.6403440237 -1.76028597355 8.06182479858 -1.44134402275 -1.76028597355 8.06182479858 -1.44034397602 -1.76028597355 8.10182571411 -1.44134402275 -1.76028597355 8.10182571411 -1.44034397602 -1.76028597355 9.04434394836 -1.44134402275 -1.76028597355 9.04434394836 -1.44034397602 -1.76028597355 9.08434391022 -1.44134402275 -1.76028597355 9.08434391022 -1.44034397602 -1.54214501381 6.61405611038 -1.34134399891 -1.54214501381 6.61405611038 -1.34034395218 -1.54214501381 6.61414813995 -1.34034800529 -1.54214501381 6.6142411232 -1.34036099911 -1.49331402779 6.61405611038 -1.34134399891 -1.49331402779 6.61405611038 -1.34034395218 -1.49331402779 6.61414813995 -1.34034800529 -1.49331402779 6.6142411232 -1.34036099911 -1.4613660574 -5.79565620422 -1.44134402275 -1.4613660574 -5.79565620422 -1.44034397602 -1.4613660574 -5.75565576553 -1.44134402275 -1.4613660574 -5.75565576553 -1.44034397602 -1.4613660574 -4.81565618515 -1.44134402275 -1.4613660574 -4.81565618515 -1.44034397602 -1.4613660574 -4.7756562233 -1.44134402275 -1.4613660574 -4.7756562233 -1.44034397602</float_array>
          <technique_common>
            <accessor source="#positions-array" count="293" stride="3">
              <param name="X" type="float" />
              <param name="Y" type="float" />
              <param name="Z" type="float" />
            </accessor>
          </technique_common>
        </source>
        <source id="normals">
          <float_array id="normals-array" count="240">-1 0 0 -0.99999994 0 0 -0.89527273 -0.44551858 0 -0.89527273 -0.44551831 0 -0.88177115 -0.43879378 0.17303135 -0.88177103 -0.43879375 0.17303197 -0.88169748 -0.43877813 0.17344542 -0.88169748 -0.43877813 0.173446 -0.86602682 -0.49999756 0 -0.86602592 0.49999908 0 -0.86602545 0.49999997 0 -0.86602533 -0.50000018 0 -0.86602473 0.50000125 0 -0.86602455 -0.50000149 0 -0.82582742 0.54997039 0.12466623 -0.81915718 0.57356918 0 -0.81915206 0.57357639 0 -0.819152 0.57357645 0 -0.50000209 -0.86602408 0 -0.49999812 0.86602652 0 -0.15546246 -0.07736614 -0.98480755 -0.1554624 -0.07736611 -0.98480755 -0.15546238 -0.0773624 -0.98480785 -0.15546237 -0.07736425 -0.98480773 -0.01198048 0.99703103 -0.07606369 -0.01197999 0.99703127 -0.07606056 -5.805e-05 -0.99695724 0.07795112 0 -1 0 0 -0.99999994 0 0 -0.97525811 -0.22106963 0 -0.73091447 -0.68246907 0 -0.73091441 -0.68246907 0 -0.22122414 0.975223 0 -0.22122413 0.975223 0 0 -1 0 0 -0.99999994 0 0 0.99999994 0 0 1 -0 0.0439988 0.99903148 -0 0.13839878 0.99037665 0 0.22122414 -0.975223 -0 0.97525811 0.22106963 0 0.98274511 -0.18496488 0 0.99999994 -0 0 1 -0 2.604e-05 1 0 2.698e-05 1 0 5.588e-05 0.99695647 -0.07796012 5.731e-05 0.99695724 -0.07795101 9.183e-05 -0.9968828 0.07889612 0.01198034 -0.99703103 0.07606288 0.01198159 -0.9970305 0.07607074 0.15546249 0.07736244 0.98480785 0.15546249 0.07736254 0.98480785 0.15546252 0.07736602 0.98480755 0.15546252 0.07736617 0.98480755 0.3980507 -0.91736341 0 0.49999696 -0.86602718 0 0.50000322 0.86602348 -0 0.819152 -0.57357663 0 0.81915212 -0.57357645 0 0.81915289 -0.5735752 0 0.82582742 -0.54997039 -0.12466623 0.82582819 -0.54997277 -0.12465023 0.86602348 -0.5000034 0 0.86602473 0.50000125 0 0.86602521 0.50000024 -0 0.86602551 -0.49999991 0 0.86602682 -0.49999756 0 0.86602718 0.4999969 -0 0.88163722 0.43872714 -0.17388032 0.88169861 0.43876821 -0.17346437 0.88175941 0.43880892 -0.17305225 0.88175941 0.43880895 -0.17305227 0.89526665 0.44553083 -0 0.89527273 0.44551855 -0 0.89527285 0.44551831 -0 0.89527518 0.4455137 0 0.99999994 -0 0 1 -0 0</float_array>
          <technique_common>
            <accessor source="#normals-array" count="80" stride="3">
              <param name="X" type="float" />
              <param name="Y" type="float" />
              <param name="Z" type="float" />
            </accessor>
          </technique_common>
        </source>
        <vertices id="vertices">
          <input semantic="POSITION" source="#positions" />
        </vertices>
        <triangles count="479" material="MATERIAL">
          <input semantic="VERTEX" source="#vertices" offset="0" />
          <input semantic="NORMAL" source="#normals" offset="1" />
          <p>94 0 95 0 93 0 96 0 95 0 94 0 96 44 112 44 95 44 112 44 111 44 95 44 111 79 110 79 109 79 111 79 112 79 110 79 112 36 96 36 94 36 110 36 112 36 94 36 109 27 94 27 93 27 110 27 94 27 109 27 95 35 111 35 93 35 111 35 109 35 93 35 86 0 87 0 85 0 88 0 87 0 86 0 88 44 108 44 87 44 108 44 107 44 87 44 107 79 106 79 105 79 107 79 108 79 106 79 108 37 88 37 86 37 106 37 108 37 86 37 105 27 86 27 85 27 106 27 86 27 105 27 87 34 107 34 85 34 107 34 105 34 85 34 26 34 64 34 24 34 26 34 66 34 64 34 65 37 27 37 25 37 67 37 27 37 65 37 27 43 66 43 26 43 27 43 67 43 66 43 67 79 65 79 64 79 66 79 67 79 64 79 65 28 25 28 24 28 64 28 65 28 24 28 25 0 26 0 24 0 27 0 26 0 25 0 62 79 61 79 60 79 62 79 63 79 61 79 22 34 62 34 20 34 62 34 60 34 20 34 23 43 63 43 22 43 63 43 62 43 22 43 61 37 23 37 21 37 63 37 23 37 61 37 60 28 21 28 20 28 61 28 21 28 60 28 21 0 22 0 20 0 23 0 22 0 21 0 58 79 57 79 56 79 58 79 59 79 57 79 18 34 58 34 16 34 58 34 56 34 16 34 19 43 59 43 18 43 59 43 58 43 18 43 57 37 19 37 17 37 59 37 19 37 57 37 56 28 17 28 16 28 57 28 17 28 56 28 17 0 18 0 16 0 19 0 18 0 17 0 54 79 53 79 52 79 54 79 55 79 53 79 34 34 52 34 32 34 34 34 54 34 52 34 35 0 34 0 32 0 33 0 35 0 32 0 14 34 33 34 12 34 14 34 35 34 33 34 35 44 55 44 34 44 55 44 54 44 34 44 15 44 35 44 14 44 15 43 55 43 35 43 53 37 15 37 13 37 55 37 15 37 53 37 52 27 33 27 32 27 53 27 33 27 52 27 33 27 13 27 12 27 53 28 13 28 33 28 13 0 14 0 12 0 15 0 14 0 13 0 50 79 49 79 48 79 50 79 51 79 49 79 30 34 48 34 28 34 30 34 50 34 48 34 31 1 30 1 28 1 29 1 31 1 28 1 10 34 29 34 8 34 10 34 31 34 29 34 31 44 51 44 30 44 51 44 50 44 30 44 11 44 31 44 10 44 11 43 51 43 31 43 49 37 11 37 9 37 51 37 11 37 49 37 48 27 29 27 28 27 49 27 29 27 48 27 29 27 9 27 8 27 49 28 9 28 29 28 9 0 10 0 8 0 11 0 10 0 9 0 46 79 45 79 44 79 46 79 47 79 45 79 46 34 44 34 36 34 38 34 46 34 36 34 39 1 38 1 36 1 37 1 39 1 36 1 6 34 37 34 4 34 6 34 39 34 37 34 39 44 47 44 38 44 47 44 46 44 38 44 7 44 39 44 6 44 7 43 47 43 39 43 45 37 7 37 5 37 47 37 7 37 45 37 44 27 37 27 36 27 45 27 37 27 44 27 37 27 5 27 4 27 45 28 5 28 37 28 5 0 6 0 4 0 7 0 6 0 5 0 2 34 40 34 0 34 2 34 42 34 40 34 41 37 3 37 1 37 43 37 3 37 41 37 3 43 42 43 2 43 3 43 43 43 42 43 43 79 41 79 40 79 42 79 43 79 40 79 41 28 1 28 0 28 40 28 41 28 0 28 1 0 2 0 0 0 3 0 2 0 1 0 116 76 169 76 168 76 115 76 116 76 168 76 92 44 115 44 91 44 92 44 116 44 115 44 90 0 91 0 89 0 92 0 91 0 90 0 114 27 90 27 89 27 113 27 114 27 89 27 213 27 164 27 163 27 214 27 164 27 213 27 169 44 215 44 168 44 169 44 216 44 215 44 220 37 214 37 218 37 268 37 220 37 218 37 266 37 268 37 218 37 216 37 214 37 220 37 169 37 114 37 164 37 216 37 169 37 164 37 214 37 216 37 164 37 116 37 114 37 169 37 116 37 92 37 90 37 114 37 116 37 90 37 220 44 267 44 219 44 220 44 268 44 267 44 268 79 266 79 265 79 267 79 268 79 265 79 266 27 218 27 217 27 265 27 266 27 217 27 218 2 213 2 217 2 214 2 213 2 218 2 215 75 220 75 219 75 215 75 216 75 220 75 164 3 114 3 163 3 114 3 113 3 163 3 219 34 265 34 217 34 215 34 219 34 217 34 213 34 215 34 217 34 219 34 267 34 265 34 168 34 213 34 163 34 115 34 168 34 163 34 113 34 115 34 163 34 168 34 215 34 213 34 91 34 113 34 89 34 91 34 115 34 113 34 241 33 263 33 235 33 263 32 253 32 235 32 253 14 236 14 235 14 253 14 254 14 236 14 242 29 241 29 235 29 236 29 242 29 235 29 264 62 263 62 241 62 242 63 264 63 241 63 263 41 254 41 253 41 264 41 254 41 263 41 264 40 242 40 236 40 254 40 264 40 236 40 261 79 262 79 259 79 262 79 260 79 259 79 252 16 278 16 251 16 278 16 277 16 251 16 250 0 251 0 249 0 252 0 251 0 250 0 260 37 252 37 250 37 262 36 252 36 260 36 282 37 278 37 262 37 278 37 252 37 262 37 259 27 250 27 249 27 260 27 250 27 259 27 261 35 259 35 249 35 251 34 261 34 249 34 251 34 281 34 261 34 277 34 281 34 251 34 281 60 262 60 261 60 281 60 282 60 262 60 283 79 282 79 281 79 284 79 283 79 281 79 282 38 279 38 278 38 283 38 279 38 282 38 283 39 280 39 279 39 284 39 280 39 283 39 279 0 280 0 277 0 278 0 279 0 277 0 280 42 281 42 277 42 280 42 284 42 281 42 256 56 246 56 245 56 255 56 256 56 245 56 258 79 256 79 255 79 257 79 258 79 255 79 256 37 248 37 246 37 258 37 248 37 256 37 246 0 247 0 245 0 248 0 247 0 246 0 248 44 257 44 247 44 248 44 258 44 257 44 257 34 255 34 245 34 247 34 257 34 245 34 128 65 132 65 131 65 127 65 128 65 131 65 131 57 132 57 129 57 132 57 130 57 129 57 130 13 125 13 129 13 126 13 125 13 130 13 127 34 131 34 129 34 125 34 127 34 129 34 157 34 127 34 125 34 153 34 157 34 125 34 153 34 159 34 157 34 153 34 161 34 159 34 154 44 161 44 153 44 154 44 162 44 161 44 161 79 162 79 159 79 162 79 160 79 159 79 159 27 160 27 157 27 160 27 158 27 157 27 157 67 128 67 127 67 157 67 158 67 128 67 132 37 126 37 130 37 128 37 126 37 132 37 128 37 154 37 126 37 158 37 154 37 128 37 160 37 162 37 158 37 162 37 154 37 158 37 154 10 153 10 125 10 126 10 154 10 125 10 184 27 178 27 177 27 183 27 184 27 177 27 178 0 179 0 177 0 180 0 179 0 178 0 180 44 187 44 179 44 180 44 188 44 187 44 205 34 211 34 207 34 209 34 211 34 205 34 183 34 187 34 209 34 187 34 211 34 209 34 179 34 183 34 177 34 179 34 187 34 183 34 211 64 212 64 207 64 212 64 208 64 207 64 208 18 205 18 207 18 206 18 205 18 208 18 206 12 209 12 205 12 210 12 209 12 206 12 184 11 183 11 209 11 210 11 184 11 209 11 210 37 206 37 208 37 212 37 210 37 208 37 212 37 184 37 210 37 188 37 184 37 212 37 184 37 188 37 178 37 188 37 180 37 178 37 187 66 212 66 211 66 187 66 188 66 212 66 182 9 189 9 181 9 190 9 189 9 182 9 189 58 190 58 191 58 190 58 192 58 191 58 191 68 192 68 185 68 192 68 186 68 185 68 155 34 185 34 151 34 141 34 155 34 151 34 139 34 141 34 151 34 181 34 191 34 185 34 155 35 181 35 185 35 189 34 191 34 181 34 152 8 139 8 151 8 140 8 139 8 152 8 140 19 141 19 139 19 142 19 141 19 140 19 141 69 142 69 155 69 142 69 156 69 155 69 182 44 181 44 155 44 156 44 182 44 155 44 156 37 140 37 152 37 182 36 156 36 152 36 186 37 182 37 152 37 190 37 182 37 186 37 192 37 190 37 186 37 142 36 140 36 156 36 185 27 152 27 151 27 186 27 152 27 185 27 198 53 167 53 200 53 167 52 172 52 200 52 200 51 172 51 199 51 172 50 170 50 199 50 197 72 200 72 199 72 197 70 198 70 200 70 165 25 198 25 197 25 167 24 198 24 165 24 172 4 167 4 170 4 167 5 165 5 170 5 165 20 197 20 199 20 170 22 165 22 199 22 290 36 292 36 230 36 292 36 232 36 230 36 291 35 289 35 229 35 231 35 291 35 229 35 230 0 231 0 229 0 232 0 231 0 230 0 232 44 291 44 231 44 232 44 292 44 291 44 292 79 290 79 289 79 291 79 292 79 289 79 290 27 230 27 229 27 289 27 290 27 229 27 285 27 98 27 97 27 286 27 98 27 285 27 287 79 286 79 285 79 287 79 288 79 286 79 102 44 288 44 101 44 288 44 287 44 101 44 133 74 137 74 136 74 133 74 134 74 137 74 136 27 104 27 103 27 137 27 104 27 136 27 103 78 102 78 101 78 103 78 104 78 102 78 101 34 285 34 97 34 103 34 101 34 97 34 99 34 103 34 97 34 101 34 287 34 285 34 99 34 136 34 103 34 99 34 133 34 136 34 98 1 100 1 97 1 100 1 99 1 97 1 102 37 100 37 98 37 288 37 102 37 98 37 286 37 288 37 98 37 104 37 100 37 102 37 137 37 134 37 104 37 134 37 100 37 104 37 134 44 133 44 99 44 100 44 134 44 99 44 174 54 135 54 176 54 135 55 138 55 176 55 176 49 138 49 175 49 138 26 136 26 175 26 173 71 176 71 175 71 173 73 174 73 176 73 133 47 174 47 173 47 133 48 135 48 174 48 138 6 135 6 136 6 135 7 133 7 136 7 133 23 173 23 175 23 136 21 133 21 175 21 120 0 119 0 117 0 118 0 120 0 117 0 166 44 165 44 119 44 120 44 166 44 119 44 165 77 171 77 170 77 165 77 166 77 171 77 170 27 124 27 123 27 171 27 124 27 170 27 123 79 122 79 121 79 123 79 124 79 122 79 121 34 201 34 117 34 123 34 121 34 117 34 119 34 123 34 117 34 121 34 203 34 201 34 119 35 170 35 123 35 119 35 165 35 170 35 202 27 118 27 117 27 201 27 202 27 117 27 122 37 120 37 118 37 204 37 122 37 118 37 202 37 204 37 118 37 124 37 120 37 122 37 171 36 166 36 124 36 166 36 120 36 124 36 203 79 202 79 201 79 203 79 204 79 202 79 122 44 203 44 121 44 122 44 204 44 203 44 238 15 237 15 233 15 234 15 238 15 233 15 237 45 244 45 243 45 237 45 238 45 244 45 243 61 240 61 239 61 243 61 244 61 240 61 239 28 240 28 225 28 240 28 226 28 225 28 227 34 239 34 225 34 233 34 243 34 239 34 227 34 233 34 239 34 237 34 243 34 233 34 228 46 234 46 233 46 227 46 228 46 233 46 226 0 227 0 225 0 228 0 227 0 226 0 234 37 228 37 226 37 240 37 234 37 226 37 238 37 234 37 240 37 244 37 238 37 240 37 76 31 78 31 68 31 76 31 68 31 69 31 79 30 78 30 76 30 195 27 144 27 143 27 196 27 145 27 144 27 196 27 144 27 195 27 223 59 196 59 195 59 223 59 224 59 196 59 269 27 224 27 223 27 270 27 224 27 269 27 271 79 270 79 269 79 271 79 272 79 270 79 222 43 272 43 221 43 272 43 271 43 221 43 194 17 222 17 193 17 222 17 221 17 193 17 150 44 194 44 149 44 194 44 193 44 148 44 194 43 148 43 149 43 83 79 81 79 80 79 83 79 84 79 82 79 83 79 82 79 81 79 273 27 274 27 83 27 274 27 84 27 83 27 275 79 274 79 273 79 275 79 276 79 274 79 194 37 150 37 146 37 196 37 194 37 146 37 196 37 146 37 145 37 222 36 194 36 196 36 224 37 222 37 196 37 77 36 74 36 72 36 84 37 74 37 77 37 84 37 77 37 82 37 272 37 222 37 224 37 270 36 272 36 224 36 274 37 276 37 84 37 276 37 74 37 84 37 71 0 73 0 70 0 74 0 73 0 71 0 74 0 71 0 72 0 74 44 276 44 73 44 276 44 275 44 73 44 147 34 195 34 143 34 193 34 223 34 195 34 148 34 193 34 195 34 148 34 195 34 147 34 221 34 223 34 193 34 83 34 80 34 75 34 73 34 83 34 75 34 73 35 75 35 70 35 221 35 269 35 223 35 221 34 271 34 269 34 73 34 273 34 83 34 73 34 275 34 273 34</p>
        </triangles>
      </mesh>
    </geometry>
  </library_geometries>
  <library_visual_scenes>
    <visual_scene id="Scene" name="Scene">
      <node id="Object" name="Object" type="NODE">
        <instance_geometry url="#geometry">
          <bind_material>
            <technique_common>
              <instance_material symbol="MATERIAL" target="#mat" />
            </technique_common>
          </bind_material>
        </instance_geometry>
      </node>
    </visual_scene>
  </library_visual_scenes>
  <scene>
    <instance_visual_scene url="#Scene" />
  </scene>
</COLLADA>