<?xml version='1.0' encoding='utf-8'?>
<COLLADA xmlns="http://www.collada.org/2005/11/COLLADASchema" version="1.4.1">
  <asset>
    <contributor>
      <authoring_tool>RM27 reviewed Blender visual export</authoring_tool>
    </contributor>
    <created>2026-10-07T00:00:00Z</created>
    <modified>2026-10-07T00:00:00Z</modified>
    <unit name="meter" meter="1" />
    <up_axis>Z_UP</up_axis>
  </asset>
  <library_effects>
    <effect id="fx">
      <profile_COMMON>
        <technique sid="common">
          <phong>
            <emission>
              <color>0 0 0 1</color>
            </emission>
            <ambient>
              <color>0.82745098 0.737254902 0.670588235 1</color>
            </ambient>
            <diffuse>
              <color>0.82745098 0.737254902 0.670588235 1</color>
            </diffuse>
            <specular>
              <color>0.08 0.08 0.08 1</color>
            </specular>
            <shininess>
              <float>12</float>
            </shininess>
          </phong>
        </technique>
      </profile_COMMON>
    </effect>
  </library_effects>
  <library_materials>
    <material id="mat" name="source_color">
      <instance_effect url="#fx" />
    </material>
  </library_materials>
  <library_geometries>
    <geometry id="geometry" name="geometry">
      <mesh>
        <source id="positions">
          <float_array id="positions-array" count="762">-0.980880081654 -0.510767102242 4.87747193745e-08 -0.980880081654 0.510766029358 4.87747193745e-08 -0.947770416737 -0.534493088722 0.0865569636226 -0.947770416737 0.534492015839 0.0865569636226 -0.934740364552 -0.620000004768 4.87747193745e-08 -0.934740364552 0.620000004768 4.87747193745e-08 -0.923389732838 -0.592224001884 0.0865569636226 -0.923389732838 0.592224001884 0.0865569636226 -0.748050034046 -0.445000052452 4.87747193745e-08 -0.748050034046 0.445000052452 4.87747193745e-08 -0.645229637623 -0.620000004768 0.356000006199 -0.645229637623 -0.619000077248 0.356000006199 -0.645229637623 0.618999958038 0.356000006199 -0.645229637623 0.620000004768 0.356000006199 -0.567799866199 -0.445000052452 4.87747193745e-08 -0.567799866199 -0.445000052452 0.10999994725 -0.567799866199 0.445000052452 4.87747193745e-08 -0.567799866199 0.445000052452 0.10999994725 -0.488239586353 -0.534493088722 1.80982065201 -0.488239586353 0.534492015839 1.80982065201 -0.478599846363 -0.510767102242 1.88352024555 -0.478599846363 0.510766029358 1.88352024555 -0.464949905872 -0.592224001884 1.80571424961 -0.464949905872 0.592224001884 1.80571424961 -0.434540092945 -0.620000004768 1.8757506609 -0.434540092945 0.620000004768 1.8757506609 -0.352150261402 -0.620000004768 1.45505225658 -0.352150261402 -0.619000077248 1.45505225658 -0.352150261402 0.618999958038 1.45505225658 -0.352150261402 0.620000004768 1.45505225658 -0.344800293446 -0.445000052452 0.10999994725 -0.344800293446 -0.445000052452 0.130000039935 -0.344800293446 0.445000052452 0.10999994725 -0.344800293446 0.445000052452 0.130000039935 -0.256240189075 -0.445000052452 1.8443107605 -0.256240189075 0.445000052452 1.8443107605 -0.214920341969 -0.445000052452 0.296000063419 -0.214920341969 -0.445000052452 1.46848750114 -0.214920341969 0.445000052452 0.296000063419 -0.214920341969 0.445000052452 1.46848750114 -0.0399201586843 -0.620000004768 0.356000006199 -0.0399201586843 -0.620000004768 1.39999783039 -0.0399201586843 -0.619000077248 0.356000006199 -0.0399201586843 -0.619000077248 1.39999783039 -0.0399201586843 0.618999958038 0.356000006199 -0.0399201586843 0.618999958038 1.39999783039 -0.0399201586843 0.620000004768 0.356000006199 -0.0399201586843 0.620000004768 1.39999783039 0.0231596753001 -0.445000052452 1.40500032902 0.0231596753001 0.445000052452 1.40500032902 0.0400797650218 -0.445000052452 0.296000063419 0.0400797650218 -0.445000052452 1.15600025654 0.0400797650218 0.445000052452 0.296000063419 0.0400797650218 0.445000052452 1.15600025654 0.0596491619945 0.000139466152177 1.62053024769 0.059786491096 0.00291895004921 1.62103450298 0.0598570629954 -0.00372887519188 1.62128388882 0.0601574704051 0.00538789341226 1.62242043018 0.0602261349559 0.00290428730659 1.62267518044 0.0605112835765 -0.00669670989737 1.62375116348 0.0605303570628 -0.00018502153398 1.62380480766 0.060539893806 0.000686040730216 1.62384724617 0.0605599209666 -0.00105000415351 1.62390911579 0.0605894848704 0.00153981766198 1.62403655052 0.0606200024486 -0.00188303866889 1.6241568327 0.0606238171458 0.00515257427469 1.62414860725 0.0606438443065 0.00134204945061 1.62037456036 0.0606457516551 0.00074063858483 1.62424373627 0.0606505200267 0.00120519718621 1.6242569685 0.0606648251414 -0.00187064090278 1.62045192719 0.0606800839305 -0.00523627689108 1.62437677383 0.0607182309031 0.00722800800577 1.6245200634 0.0607296749949 -0.00265801814385 1.62454044819 0.0607334896922 -0.00164307036903 1.62457180023 0.0607573315501 0.000550499767996 1.62049973011 0.060859374702 -0.00333715346642 1.62503612041 0.0608803555369 -0.00272072223015 1.62511897087 0.0608822628856 0.00403296062723 1.62126731873 0.0609833523631 0.00539290020242 1.62549805641 0.0610033795238 -0.00479329517111 1.62172281742 0.0610777661204 -0.00415886333212 1.62166368961 0.0611550137401 0.00453399727121 1.62195277214 0.0611683651805 -0.00800062064081 1.62619352341 0.0611702725291 0.0025471362751 1.62233603001 0.0612026974559 0.00438403198496 1.62631821632 0.0612065121531 0.00143753609154 1.62054550648 0.0613066479564 -0.00272799399681 1.62091827393 0.06132953614 0.00463198730722 1.62681317329 0.0613667294383 0.00421439716592 1.62692582607 0.0613753125072 -0.00672675063834 1.62695407867 0.0614115521312 0.0082346117124 1.62709116936 0.0614735409617 0.00674091884866 1.6234703064 0.0614830777049 0.000812879414298 1.62319409847 0.0614897534251 -0.00018502153398 1.6235460043 0.0615097805858 0.000686040730216 1.6235884428 0.0615202710032 -0.00105000415351 1.62365031242 0.0615250393748 -0.00681782653555 1.62365090847 0.0615498349071 0.00488804886118 1.62761771679 0.0615584179759 0.00159334263299 1.62379097939 0.0615898892283 -0.00188303866889 1.62389802933 0.0616242215037 -0.000856169848703 1.6240465641 0.0616242215037 0.00127541145775 1.62401592731 0.0616404339671 -0.00607777526602 1.62796461582 0.0616404339671 -0.00517941405997 1.62409186363 0.0616604611278 0.00541924545541 1.62417423725 0.0616871640086 0.00449620792642 1.62812554836 0.0616900250316 -0.00265801814385 1.62428164482 0.061700515449 -0.00497902324423 1.62817084789 0.0617071911693 0.00536476681009 1.62241029739 0.061739616096 3.39659272868e-05 1.62254405022 0.0617701336741 -0.000990995555185 1.62262499332 0.0617701336741 0.00105797371361 1.62263643742 0.0617701336741 0.00499605247751 1.62845313549 0.0618283078074 -0.00335181620903 1.62478923798 0.0618302151561 -0.00198603537865 1.62287652493 0.0618349835277 -0.00457490375265 1.62868142128 0.0618397518992 0.00205003353767 1.62289905548 0.0618502423167 -0.00271845725365 1.62486076355 0.0618702694774 -0.00499702384695 1.62880921364 0.0618998333812 -0.00838280562311 1.62892329693 0.0619351193309 0.00731252739206 1.62488472462 0.0619398877025 -0.0029209938366 1.62329113483 0.0619503781199 0.00297903153114 1.6233240366 0.0619818493724 0.00525950500742 1.62535452843 0.0619999691844 0.00495194504037 1.62929391861 0.0620075985789 -0.00652588298544 1.62353169918 0.0620152279735 -0.00745249679312 1.62517035007 0.0620552822948 0.00257813069038 1.62372624874 0.0620896145701 -0.00488902023062 1.62964463234 0.062098197639 -0.00253094104119 1.62387919426 0.0621001049876 -0.00376594928093 1.62385618687 0.0621029660106 -0.00442422321066 1.6254979372 0.0621096417308 0.003818026511 1.62389850616 0.0621239468455 0.0083007728681 1.62975645065 0.0621716305614 0.0043858201243 1.62606227398 0.0622135922313 0.00439559528604 1.63008153439 0.062227897346 0.00474380562082 1.63016521931 0.0622393414378 -0.00660444190726 1.62632966042 0.0622803494334 -0.00449801376089 1.62455451488 0.0622927471995 -0.00414706161246 1.63038885593 0.0623003765941 0.00454103061929 1.62460505962 0.0623003765941 0.00463198730722 1.62655425072 0.0623099133372 -0.00463200500235 1.63044917583 0.0623184964061 0.00818931218237 1.62662088871 0.0623308941722 0.00418447563425 1.62667441368 0.0623757168651 -0.00828743819147 1.62682890892 0.0624729916453 -0.00413812091574 1.6252695322 0.0624796673656 0.00510834762827 1.62691855431 0.0624968335032 -0.0036465015728 1.63116908073 0.0624996945262 -0.00509298732504 1.62536501884 0.0625101849437 -0.00423503806815 1.63119852543 0.0625101849437 0.00512599060312 1.62542200089 0.0625197216868 0.00488804886118 1.62735891342 0.0625969693065 -0.00624991348013 1.62765169144 0.0626179501414 -0.00780464103445 1.63159918785 0.0626904293895 -0.00498128822073 1.62798845768 0.0626904293895 -0.00370896724053 1.63186991215 0.0627228543162 -0.00474728038535 1.6281452179 0.0627400204539 -0.00553298881277 1.62626290321 0.0627400204539 0.00499605247751 1.62819421291 0.0627400204539 0.00754546234384 1.63205087185 0.0627457424998 -0.00351584819146 1.63206243515 0.0627495571971 0.00451957294717 1.62819838524 0.0627590939403 0.00630711624399 1.63211798668 0.0627600476146 0.00555502483621 1.62632477283 0.0627848431468 0.00792967434973 1.62643611431 0.0628163143992 -0.00458253314719 1.6284866333 0.0628296658397 -0.00499702384695 1.62855041027 0.062960319221 0.00495194504037 1.62903511524 0.0630003735423 -0.00580502441153 1.62722086906 0.0630099102855 0.00581597397104 1.62728583813 0.0630366131663 0.00832687970251 1.62930309772 0.0630604550242 -0.00488902023062 1.62938582897 0.0630642697215 -0.00798977259547 1.62910592556 0.0630766674876 -0.00437522819266 1.6294273138 0.0630766674876 0.00437902519479 1.62946808338 0.0631901547313 0.00475799152628 1.62985575199 0.0632006451488 0.00530778476968 1.6279759407 0.0632530972362 0.0046687037684 1.63009548187 0.0632597729564 -0.0059000342153 1.62820994854 0.063279800117 -0.00463200500235 1.63019037247 0.063279800117 0.00590001652017 1.62827587128 0.0632845684886 -0.00816524866968 1.63022994995 0.0633513256907 -0.00515974452719 1.62856137753 0.0633589550853 -0.00489486148581 1.63018763065 0.0633599087596 -0.00595701625571 1.63438534737 0.063391380012 -0.00813377741724 1.62868964672 0.0634161755443 -0.00442112376913 1.63457024097 0.0634753033519 -0.00361777213402 1.63095033169 0.0634800717235 -0.00423503806815 1.63093972206 0.0635296627879 -0.00581599166617 1.6292001009 0.0635401532054 0.00580405304208 1.62926495075 0.0635515972972 0.007794609759 1.63091850281 0.0636154934764 0.0043094069697 1.63115179539 0.0636641308665 -0.00367415812798 1.63165318966 0.0636650845408 0.00763975689188 1.63166332245 0.0637432858348 0.00642024585977 1.63194525242 0.0637900158763 -0.00555599620566 1.63016116619 0.0637995526195 0.00553201744333 1.63022303581 0.0638558194041 -0.00461221626028 1.63043498993 0.0639511868358 -0.0070853321813 1.63269841671 0.064030341804 -0.00512696197256 1.63106381893 0.0640398785472 0.0050920159556 1.63112092018 0.0640436932445 0.00750624248758 1.63112068176 0.064108543098 -0.00658501079306 1.63298666477 0.0641133114696 0.00183426460717 1.63299894333 0.0641457363963 -0.00169480720069 1.63315188885 0.0642496868968 -0.00454200198874 1.6318808794 0.0642601773143 0.00449704239145 1.63193130493 0.0642697140574 0.00347148510627 1.63195228577 0.0643240734935 -0.00429774215445 1.63411712646 0.0644127652049 -0.00550127914175 1.63443624973 0.064428023994 -0.00263477233239 1.63255524635 0.0644299313426 -0.00381899741478 1.63258731365 0.0644499585032 0.00376605126075 1.63262975216 0.0645653530955 0.00134026131127 1.63308775425 0.0645901486278 -0.00298000243492 1.63316178322 0.0645996853709 0.00292002293281 1.63319480419 0.0646998211741 -0.00205005076714 1.63358688354 0.0647103115916 0.00198601814918 1.6336094141 0.0647579953074 0.00358246895485 1.63541865349 0.0647703930736 -0.00105799117591 1.63384950161 0.0647799298167 0.000990978092887 1.6338609457 0.0647999569774 -3.39833677572e-05 1.6339417696 0.0648571774364 -0.00550235202536 1.63416278362 0.0649115368724 0.00501631805673 1.63435578346 0.0649124905467 -0.00196195510216 1.63598942757 0.0653759762645 0.000455251545645 1.63609981537 0.122079543769 -0.620000004768 1.15600025654 0.122079543769 -0.620000004768 1.77760338783 0.122079543769 -0.445000052452 1.40500032902 0.122079543769 -0.445000052452 1.77760338783 0.122079543769 0.445000052452 1.40500032902 0.122079543769 0.445000052452 1.77760338783 0.122079543769 0.620000004768 1.15600025654 0.122079543769 0.620000004768 1.77760338783 0.122819595039 -0.620000004768 1.15600025654 0.122819595039 -0.620000004768 1.77747285366 0.122819595039 -0.445000052452 1.15600025654 0.122819595039 -0.445000052452 1.77747285366 0.122819595039 0.445000052452 1.15600025654 0.122819595039 0.445000052452 1.77747285366 0.122819595039 0.620000004768 1.15600025654 0.122819595039 0.620000004768 1.77747285366 0.555000007153 -0.620000004768 4.87747193745e-08 0.555000007153 -0.620000004768 1.70126783848 0.555000007153 -0.445000052452 4.87747193745e-08 0.555000007153 -0.445000052452 0.130000039935 0.555000007153 -0.445000052452 1.70126783848 0.555000007153 0.445000052452 4.87747193745e-08 0.555000007153 0.445000052452 0.130000039935 0.555000007153 0.445000052452 1.70126783848 0.555000007153 0.620000004768 4.87747193745e-08 0.555000007153 0.620000004768 1.70126783848</float_array>
          <technique_common>
            <accessor source="#positions-array" count="254" stride="3">
              <param name="X" type="float" />
              <param name="Y" type="float" />
              <param name="Z" type="float" />
            </accessor>
          </technique_common>
        </source>
        <source id="normals">
          <float_array id="normals-array" count="852">-0.96792191 -0.00625123 0.25117329 -0.96736604 0.00555959 0.25332192 -0.9672209 0.00011078 0.25393638 -0.96710175 0.00560415 0.25432798 -0.96695083 0.00016058 0.25496283 -0.96684909 -0.00260945 0.25533539 -0.96672976 0.00227021 0.25578988 -0.96648115 0.00043734 0.2567375 -0.96641284 0.00022088 0.25699443 -0.96627825 -0.00026912 0.25749987 -0.96622109 -0.00039315 0.25771451 -0.96621573 0.00127232 0.25773141 -0.96621162 0.0035777 0.25772497 -0.966196 0.00189303 0.25780144 -0.96619219 -0.00218972 0.2578136 -0.96616685 0.00166989 0.25791219 -0.96616614 -0.00136583 0.25791687 -0.96609437 0.00161021 0.25818437 -0.96607566 -0.00073985 0.25825781 -0.96606886 -0.00017471 0.25828466 -0.96606249 4.683e-05 0.25830874 -0.96606153 0.00133476 0.25830874 -0.96603131 -0.00144081 0.25842088 -0.96599448 -7.134e-05 0.25856301 -0.96598798 -0.00040073 0.25858647 -0.96595758 0.0008825 0.25869876 -0.96595728 1.25e-06 0.25870186 -0.96593916 0.00013252 0.25876909 -0.96592242 -0.00015588 0.25883186 -0.96592003 0.00076553 0.25883943 -0.96585554 -0.00036522 0.25908095 -0.9658438 0.00220371 0.25911537 -0.96579534 -5.973e-05 0.25930545 -0.96576571 0.0012889 0.25941262 -0.96576512 -0.00109955 0.2594156 -0.96572274 -0.00146032 0.25957143 -0.96569622 -0.00207821 0.25966614 -0.96568727 -0.00168842 0.25970235 -0.96565127 -0.00127583 0.2598379 -0.96562272 0.00158229 0.25994286 -0.96555299 -0.00264471 0.26019332 -0.96555042 -0.0013843 0.26021227 -0.96548653 2.216e-05 0.26045302 -0.96548259 0.00133964 0.26046431 -0.96546471 3.136e-05 0.26053387 -0.96545619 0.00400547 0.26053444 -0.96545184 -0.00060812 0.2605806 -0.96540987 -0.00146673 0.26073307 -0.96531522 0.00244543 0.26107582 -0.96528953 -0.00737074 0.26107806 -0.96481234 -0.00060988 0.26293889 -0.96469319 0.01412161 0.2629973 -0.9646464 0.00186868 0.26354092 -0.96462595 0.00161832 0.26361722 -0.96461809 -0.00070337 0.26365 -0.96369976 0.0025862 0.26697555 -0.89470518 -0.37759778 0.23858483 -0.89470506 0.37759787 0.2385848 -0.89462477 0.37780726 0.23855439 -0.8946107 -0.37783593 0.23856175 -0.89460957 0.37781385 0.23860092 -0.89460927 0.37783888 0.23856251 -0.89460224 -0.37780476 0.23864289 -0.89459801 -0.37781581 0.23864101 -0.89459497 -0.37786531 0.23857412 -0.89459217 -0.37787363 0.23857144 -0.89458513 -0.37790006 0.23855607 -0.8945843 0.37790266 0.2385547 -0.89458281 0.37786594 0.23861866 -0.89457786 0.37785694 0.23865162 -0.89452231 -0.37805694 0.23854315 -0.89452231 0.37805694 0.23854315 -0.82688755 0.10263834 -0.55292171 -0.7789374 -0.54741848 -0.30592409 -0.75197083 -0.20593697 -0.62620264 -0.74252534 0.65355384 0.14670891 -0.72435087 -0.67910671 -0.1188686 -0.70579416 0.01527374 0.70825231 -0.62573409 -0.5686745 0.5339157 -0.60263592 0.65309703 -0.45857847 -0.60204756 -0.35865542 0.71337581 -0.57599336 0.33026296 -0.7477687 -0.55909455 0.06947327 0.82618803 -0.53879631 0.53814852 0.64814717 -0.45105416 -0.19396432 -0.87116468 -0.43472621 0.88917083 -0.1427881 -0.41670826 -0.90894723 -0.01301236 -0.41526255 0.83155787 0.3688747 -0.36486936 0.18362308 -0.91277212 -0.36384034 -0.47679034 -0.80018198 -0.33751988 0.49882582 -0.79828131 -0.33585733 -0.6448226 -0.68658841 -0.31511948 0.75386739 -0.5765273 -0.27379039 0.19186737 -0.94245732 -0.27113566 0.95982164 0.07230401 -0.27113196 -0.95982289 0.07230093 -0.27112031 0.95982641 0.07229781 -0.27111617 -0.95982748 0.07229882 -0.26557887 0.94674563 -0.18204553 -0.2162395 0.89558244 -0.38880929 -0.19431339 0.79342353 -0.57682008 -0.19429597 -0.64387047 -0.74005395 -0.19245468 -0.64258999 -0.74164629 -0.18669248 -0.97856051 -0.08697847 -0.17415395 0.26461604 -0.94849813 -0.15266182 -0.70190924 -0.69571394 -0.14907889 -0.88840169 -0.43418643 -0.14831764 0.56450242 -0.81199688 -0.14507093 -0.98496473 -0.09380279 -0.1386973 0.84963268 -0.50880975 -0.12864402 0.32252318 -0.93777901 -0.12553455 0.93483794 -0.33214325 -0.12537038 -0.02470297 -0.99180245 -0.10418447 -0.95249289 -0.28618696 -0.08941097 0.74029905 -0.66630548 -0.08212151 -0.99266505 -0.08872507 -0.07562469 0.90599465 -0.41647866 -0.06480164 -0.96553731 -0.25206837 -0.0608848 -0.9721337 0.22638279 -0.05783454 0.989999 -0.12867366 -0.03840788 0.63563824 -0.77103108 -0.03610989 0.99923295 -0.01515259 -0.03334319 0.97792393 -0.20628414 -0.03321636 0.64944196 0.7596854 -0.02342233 0.84397864 -0.53586507 -0.02142052 -0.40076545 -0.91593027 -0.01437215 -0.77866322 0.62727743 -0.01190199 0.97068995 -0.24004067 -0.00771063 -0.83243108 0.554075 0 -1 0 0 -0.99999994 0 0 0.99999994 -0 0 1 0 0.00379443 -0.11965512 0.99280822 0.00393489 0.90817821 -0.41856509 0.00612579 -0.90700752 -0.42106977 0.00688864 -0.97704023 0.2129433 0.01432317 -0.94142264 0.33692485 0.0204684 0.99818277 -0.05667576 0.02594611 -0.99796093 -0.0583165 0.02753636 -0.97474653 0.22161001 0.03078466 0.95183176 0.30507165 0.03682765 0.94305819 0.33058262 0.04879366 -0.23529138 0.97069925 0.08619691 -0.5567143 0.82621986 0.08764017 0.84365755 0.52968037 0.09858295 0.96220094 0.25387144 0.10229401 0.85124791 0.51469702 0.12096363 -0.54967093 0.82657707 0.12745357 0.41213191 -0.90216577 0.14880894 -0.04145129 -0.98799682 0.16007058 0.56319499 0.81067181 0.16255711 -0.9866668 -0.00799166 0.16466852 0.41183284 0.89625782 0.16635701 0.05591824 0.98447889 0.16705422 0.59227562 0.78822744 0.17364666 0 0.98480809 0.17364666 6.21e-06 0.98480809 0.17364806 -0 0.98480773 0.17364855 -4.2e-06 0.98480779 0.17364855 0 0.98480779 0.17365536 -2.97e-06 0.98480642 0.17365538 2.97e-06 0.98480654 0.18266344 0.98272479 0.02976424 0.19809692 -0.73740399 0.64574993 0.20133577 0.87049884 0.44910529 0.21054254 -0.91523242 0.3435424 0.21945935 0.01402097 0.97552097 0.22440909 -0.3674663 0.9025569 0.22669877 0.46532819 0.85561514 0.23333924 -0.90615088 0.35276544 0.24223424 -0.03010821 0.96975052 0.24230951 0.79917747 0.55009234 0.24261783 -0.13733235 0.9603523 0.24299788 0.95386678 0.17632408 0.24525772 -0.96361589 0.10626788 0.25574529 -0.11722632 0.95961046 0.25623989 -0.08004398 -0.96329331 0.28600717 -0.3382647 0.89653605 0.28655806 -0.53532344 -0.79455221 0.29305103 -0.74407417 0.60039538 0.35563007 0.2321056 0.90534759 0.38436082 -0.4741407 -0.79212201 0.38554603 0.57422364 -0.72223365 0.40216237 0.26223287 0.87721115 0.40887609 0.13917792 0.90191454 0.46159104 0.68513328 0.5634945 0.52400362 0.84930474 -0.0640442 0.54265684 0.63499308 -0.54982477 0.64149165 -0.66647798 -0.37986243 0.64192319 -0.70349538 -0.30500606 0.70233995 0.70205289 -0.11764486 0.76219666 -0.63907743 0.10313255 0.83215904 0.26995495 0.48439196 0.9190681 -0.19194469 0.34419617 0.92614079 -0.34568927 0.15087169 0.93821728 0.22624011 0.26184675 0.96201539 -0.00014816 -0.2729955 0.9629252 -0.00034732 -0.2697683 0.96345842 0.00249845 -0.26784641 0.96397781 -0.00258546 -0.26597011 0.96433824 -0.00293982 -0.26465657 0.96463054 -0.00262779 -0.26359245 0.96468985 -0.00155031 -0.26338398 0.96469098 -0.00412464 -0.2633521 0.9647342 -0.00374219 -0.26319945 0.9647935 0.00036216 -0.26300842 0.96479577 1.234e-05 -0.2630001 0.96485168 -0.00290158 -0.26277888 0.96491832 -0.00163866 -0.26254508 0.96503806 -0.00942599 -0.26194018 0.96510768 -0.0002325 -0.2618531 0.96521002 -2.1e-07 -0.26147583 0.96521282 -0.00047846 -0.26146507 0.96525639 0.0007022 -0.26130363 0.96528608 -0.0052069 -0.26114315 0.9653616 0.00438576 -0.26087904 0.96538365 0.00022235 -0.26083392 0.96545386 0.00179141 -0.26056844 0.96551049 0.00057519 -0.26036355 0.96553552 0.00140789 -0.26026747 0.96558613 0.0010883 -0.26008132 0.96559185 -0.00160988 -0.26005724 0.96562463 0.00012007 -0.25994051 0.96562552 0.00234294 -0.25992641 0.96567881 -0.00251128 -0.25972691 0.9656871 -0.00017143 -0.25970849 0.96572584 0.00122522 -0.25956151 0.96573836 0.00053372 -0.25951719 0.96576583 0.00179659 -0.25940889 0.96577513 -0.00039376 -0.25938046 0.96580464 0.00362305 -0.25924546 0.96580476 -0.00155166 -0.25926575 0.9658066 -0.00086073 -0.25926211 0.96585739 0.00604096 -0.25900388 0.96585757 0.00283681 -0.25905788 0.96585822 0.00016203 -0.25907132 0.96587396 0.00092435 -0.25901061 0.96592528 -0.00057728 -0.2588205 0.96595842 -0.00042622 -0.25869721 0.96597683 8.637e-05 -0.25862864 0.96600789 -0.00122368 -0.25850981 0.96601087 -0.00047805 -0.25850096 0.96604776 -0.00048045 -0.25836304 0.96605527 0.00027724 -0.25833538 0.96607143 0.00062915 -0.25827435 0.96609014 -0.00088953 -0.25820351 0.9661057 -0.0006651 -0.25814608 0.96612322 0.0027686 -0.25806645 0.96614122 -0.00189992 -0.25800657 0.96616489 -0.00104354 -0.25792301 0.96619999 0.00182185 -0.25778699 0.96620536 0.00094646 -0.25777194 0.96621078 0.00131872 -0.2577498 0.96621585 -0.00143078 -0.25773016 0.96622759 0.00091728 -0.25768837 0.96622759 0.00238847 -0.25767919 0.96623307 0.00010498 -0.25766972 0.96623629 -0.00234464 -0.25764695 0.9662444 -0.00106248 -0.25762522 0.96625447 -0.00143196 -0.25758523 0.96629304 0.00086701 -0.25744322 0.96634269 -0.00247524 -0.25724655 0.96641123 0.01191139 -0.25672448 0.96643198 -0.00475561 -0.25687906 0.96645814 0.00181011 -0.25681773 0.96650016 0.00274369 -0.25665143 0.9666456 -0.00635586 -0.25603876 0.96685171 0.00738455 -0.25523201 0.96687031 0.00351601 -0.25524396 0.96687531 0.00187341 -0.25524229 0.9670521 -0.0017912 -0.25457242 0.96708685 0.00741501 -0.25433806 0.96717602 0.00558104 -0.25404602 0.96733087 -0.00173776 -0.25351155 0.96733201 0.00180211 -0.25350636 0.9673444 0.00256454 -0.25345278 0.96744573 -0.00018702 -0.25307855 0.96756661 -0.002732 -0.25260121 0.96771121 0.00171366 -0.25205579 0.96772009 0.00892267 -0.25186929 0.97057122 -0.00760828 -0.24069399 0.99999994 -0 0 1 -0 0</float_array>
          <technique_common>
            <accessor source="#normals-array" count="284" stride="3">
              <param name="X" type="float" />
              <param name="Y" type="float" />
              <param name="Z" type="float" />
            </accessor>
          </technique_common>
        </source>
        <vertices id="vertices">
          <input semantic="POSITION" source="#positions" />
        </vertices>
        <triangles count="345" material="MATERIAL">
          <input semantic="VERTEX" source="#vertices" offset="0" />
          <input semantic="NORMAL" source="#normals" offset="1" />
          <p>169 276 179 276 186 276 179 206 190 206 186 206 158 204 169 204 186 204 125 236 158 236 186 236 197 258 224 258 186 258 190 212 197 212 186 212 149 238 158 238 125 238 197 255 201 255 224 255 138 220 149 220 125 220 201 249 207 249 224 249 130 278 138 278 125 278 207 272 213 272 224 272 121 197 130 197 125 197 86 252 121 252 125 252 213 201 216 201 224 201 114 250 121 250 86 250 218 275 224 275 216 275 218 219 227 219 224 219 110 267 114 267 86 267 221 223 227 223 218 223 85 211 110 211 86 211 223 264 227 264 221 264 85 280 109 280 110 280 222 260 227 260 223 260 85 215 111 215 109 215 219 266 227 266 222 266 85 221 116 221 111 221 217 239 225 239 219 239 225 242 227 242 219 242 85 216 122 216 116 216 108 243 122 243 85 243 214 259 225 259 217 259 108 202 132 202 122 202 208 224 225 224 214 224 108 217 140 217 132 217 202 203 203 203 208 203 203 230 225 230 208 230 108 263 151 263 140 263 198 232 203 232 202 232 108 254 165 254 151 254 165 199 164 199 151 199 191 213 203 213 198 213 165 279 170 279 164 279 181 273 165 273 191 273 165 225 203 225 191 225 165 208 181 208 170 208 173 86 126 86 186 86 186 137 204 137 173 137 126 189 125 189 186 189 224 192 204 192 186 192 126 73 80 73 125 73 224 80 226 80 204 80 80 182 86 182 125 182 227 194 226 194 224 194 80 74 74 74 86 74 74 177 85 177 86 177 227 82 220 82 226 82 225 193 220 193 227 193 74 81 81 81 85 81 81 149 108 149 85 149 225 83 192 83 220 83 81 79 120 79 108 79 203 172 192 172 225 172 120 188 165 188 108 188 165 187 192 187 203 187 120 75 192 75 165 75 184 13 126 13 173 13 204 33 184 33 173 33 184 26 131 26 126 26 206 16 184 16 204 16 131 20 80 20 126 20 226 47 206 47 204 47 92 41 74 41 80 41 131 18 92 18 80 18 205 48 206 48 226 48 220 10 205 10 226 10 81 39 74 39 92 39 220 22 193 22 205 22 147 23 120 23 92 23 120 7 81 7 92 7 220 24 192 24 193 24 192 30 147 30 193 30 192 27 120 27 147 27 131 191 184 191 183 191 184 85 199 85 183 85 146 87 131 87 183 87 184 114 212 114 199 114 206 183 212 183 184 183 129 123 131 123 146 123 92 196 131 196 129 196 206 72 215 72 212 72 127 77 92 77 129 77 205 150 215 150 206 150 205 89 209 89 215 89 193 179 209 179 205 179 147 195 92 195 127 195 177 78 147 78 127 78 193 76 177 76 209 76 147 190 177 190 193 190 88 113 134 113 144 113 84 117 134 117 88 117 84 101 78 101 134 101 78 102 123 102 134 102 78 108 104 108 123 108 78 175 65 175 104 175 65 144 58 144 83 144 104 148 65 148 83 148 58 186 63 186 83 186 83 145 63 145 98 145 68 171 67 171 101 171 63 151 68 151 101 151 98 155 63 155 101 155 73 169 76 169 117 169 100 153 73 153 117 153 67 185 73 185 100 185 101 167 67 167 100 167 117 176 76 176 113 176 76 173 75 173 113 173 75 178 70 178 103 178 113 168 75 168 103 168 70 165 89 165 137 165 103 147 70 147 137 147 89 98 153 98 137 98 102 124 153 124 89 124 107 104 155 104 153 104 102 93 107 93 153 93 107 107 157 107 155 107 115 100 157 100 107 100 115 116 166 116 157 116 115 122 174 122 166 122 139 127 174 127 115 127 139 99 188 99 174 99 148 109 188 109 139 109 148 119 161 119 188 119 188 163 161 163 194 163 153 247 182 247 145 247 137 214 153 214 145 214 167 200 172 200 182 200 153 269 167 269 182 269 172 209 180 209 182 209 180 222 200 222 182 222 96 251 137 251 145 251 180 244 189 244 200 244 103 253 137 253 96 253 189 261 211 261 200 261 79 229 103 229 96 229 189 268 194 268 211 268 194 248 210 248 211 248 155 281 167 281 153 281 79 226 113 226 103 226 106 218 113 218 79 218 69 233 99 233 79 233 99 262 106 262 79 262 95 231 99 231 69 231 69 235 93 235 95 235 66 257 93 257 69 257 66 210 94 210 93 210 66 234 98 234 94 234 83 241 98 241 66 241 77 228 83 228 66 228 77 237 104 237 83 237 143 207 152 207 141 207 134 277 143 277 141 277 176 271 196 271 178 271 123 245 143 245 134 245 77 246 91 246 104 246 168 198 171 198 176 198 171 265 195 265 176 265 195 256 196 256 176 256 143 270 159 270 152 270 159 274 171 274 168 274 143 240 171 240 159 240 91 227 143 227 123 227 104 205 91 205 123 205 211 133 187 133 185 133 210 184 187 184 211 184 182 152 119 152 145 152 82 103 145 103 119 103 154 118 119 118 182 118 200 166 154 166 182 166 82 135 96 135 145 135 59 106 96 106 82 106 185 128 154 128 200 128 211 180 185 180 200 180 59 105 79 105 96 105 56 91 79 91 59 91 56 125 69 125 79 125 54 84 69 84 56 84 54 112 66 112 69 112 55 88 66 88 54 88 55 110 77 110 66 110 57 90 77 90 55 90 57 120 91 120 77 120 71 92 91 92 57 92 71 134 143 134 91 134 90 111 143 111 71 111 195 141 133 141 160 141 171 146 133 146 195 146 90 138 171 138 143 138 133 121 171 121 90 121 196 154 160 154 163 154 195 181 160 181 196 181 163 126 136 126 178 126 196 164 163 164 178 164 178 170 135 170 175 170 178 143 136 143 135 143 105 140 88 140 144 140 162 136 105 136 144 136 135 115 162 115 175 115 105 139 162 139 135 139 161 142 187 142 210 142 194 174 161 174 210 174 102 5 89 5 119 5 89 31 82 31 119 31 128 2 118 2 119 2 154 34 128 34 119 34 118 8 107 8 119 8 107 55 102 55 119 55 142 52 128 52 154 52 89 43 59 43 82 43 185 9 150 9 154 9 150 19 142 19 154 19 89 42 70 42 59 42 156 21 150 21 185 21 187 45 156 45 185 45 70 11 56 11 59 11 75 15 56 15 70 15 75 12 72 12 56 12 161 51 156 51 187 51 72 49 64 49 56 49 64 1 62 1 56 1 62 38 54 38 56 38 60 37 54 37 62 37 61 36 54 36 60 36 63 35 54 35 61 35 63 25 58 25 54 25 58 29 55 29 54 29 57 28 55 28 58 28 65 44 57 44 58 44 97 53 90 53 87 53 90 6 78 6 87 6 78 0 84 0 87 0 163 50 160 50 136 50 160 3 124 3 136 3 112 4 90 4 97 4 160 32 133 32 124 32 133 54 112 54 124 54 133 17 90 17 112 17 71 40 57 40 65 40 78 14 71 14 65 14 90 46 71 46 78 46 42 129 43 129 11 129 43 130 27 130 11 130 248 158 237 158 245 158 248 158 239 158 237 158 231 160 24 160 229 160 231 157 34 157 24 157 34 161 20 161 24 161 34 96 8 96 0 96 20 94 34 94 0 94 6 65 0 65 4 65 22 59 6 59 4 59 24 66 22 66 4 66 18 64 22 64 24 64 20 63 18 63 24 63 2 62 0 62 6 62 18 56 20 56 2 56 20 70 0 70 2 70 244 129 40 129 4 129 40 129 10 129 4 129 10 129 24 129 4 129 245 130 237 130 244 130 237 129 236 129 244 129 236 129 40 129 244 129 26 129 24 129 10 129 228 129 41 129 40 129 236 129 228 129 40 129 229 130 41 130 228 130 229 129 26 129 41 129 229 129 24 129 26 129 247 282 245 282 244 282 246 283 247 283 244 283 247 283 248 283 245 283 15 132 14 132 8 132 34 132 15 132 8 132 31 132 30 132 15 132 34 131 37 131 15 131 37 132 36 132 15 132 36 132 31 132 15 132 36 132 50 132 31 132 50 132 247 132 31 132 238 132 248 132 247 132 50 132 51 132 247 132 51 132 238 132 247 132 239 132 248 132 238 132 231 132 230 132 48 132 34 132 231 132 48 132 37 132 34 132 48 132 28 132 44 132 12 132 28 132 45 132 44 132 13 132 252 132 5 132 29 132 13 132 5 132 25 132 29 132 5 132 242 131 253 131 252 131 46 132 242 132 252 132 13 132 46 132 252 132 47 132 234 132 46 132 234 132 242 132 46 132 47 131 235 131 234 131 243 132 253 132 242 132 29 132 25 132 47 132 25 131 235 131 47 131 21 71 3 71 1 71 3 68 5 68 1 68 25 60 23 60 21 60 23 69 19 69 21 69 19 57 3 57 21 57 7 58 5 58 3 58 25 61 5 61 7 61 23 67 25 67 7 67 35 95 21 95 9 95 21 97 1 97 9 97 235 156 35 156 233 156 235 159 25 159 35 159 25 162 21 162 35 162 253 158 241 158 251 158 253 158 243 158 241 158 252 283 250 283 249 283 252 283 251 283 250 283 252 282 253 282 251 282 16 129 17 129 9 129 17 129 35 129 9 129 32 129 33 129 17 129 33 129 35 129 17 129 250 129 52 129 33 129 52 129 38 129 33 129 38 129 39 129 33 129 39 130 35 130 33 130 251 129 241 129 250 129 241 129 240 129 250 129 240 129 53 129 250 129 53 129 52 129 250 129 35 129 39 129 49 129 233 129 35 129 49 129 232 129 233 129 49 129</p>
        </triangles>
      </mesh>
    </geometry>
  </library_geometries>
  <library_visual_scenes>
    <visual_scene id="Scene" name="Scene">
      <node id="Object" name="Object" type="NODE">
        <instance_geometry url="#geometry">
          <bind_material>
            <technique_common>
              <instance_material symbol="MATERIAL" target="#mat" />
            </technique_common>
          </bind_material>
        </instance_geometry>
      </node>
    </visual_scene>
  </library_visual_scenes>
  <scene>
    <instance_visual_scene url="#Scene" />
  </scene>
</COLLADA>