<?xml version='1.0' encoding='utf-8'?>
<COLLADA xmlns="http://www.collada.org/2005/11/COLLADASchema" version="1.4.1">
  <asset>
    <contributor>
      <authoring_tool>RM27 reviewed Blender visual export</authoring_tool>
    </contributor>
    <created>2026-10-07T00:00:00Z</created>
    <modified>2026-10-07T00:00:00Z</modified>
    <unit name="meter" meter="1" />
    <up_axis>Z_UP</up_axis>
  </asset>
  <library_effects>
    <effect id="fx">
      <profile_COMMON>
        <technique sid="common">
          <phong>
            <emission>
              <color>0 0 0 1</color>
            </emission>
            <ambient>
              <color>0.882352941 0.956862745 1 1</color>
            </ambient>
            <diffuse>
              <color>0.882352941 0.956862745 1 1</color>
            </diffuse>
            <specular>
              <color>0.08 0.08 0.08 1</color>
            </specular>
            <shininess>
              <float>12</float>
            </shininess>
          </phong>
        </technique>
      </profile_COMMON>
    </effect>
  </library_effects>
  <library_materials>
    <material id="mat" name="source_color">
      <instance_effect url="#fx" />
    </material>
  </library_materials>
  <library_geometries>
    <geometry id="geometry" name="geometry">
      <mesh>
        <source id="positions">
          <float_array id="positions-array" count="1542">-3.22361397743 -2.08526706696 -1.0044349432 -3.20803999901 -2.0933740139 -1.01600897312 -3.20726704597 -2.09377598763 -1.00604701042 -3.22438693047 -2.08486509323 -1.01439702511 -3.18810391426 -2.05696511269 -1.0060479641 -3.20491361618 -2.04934287071 -1.00443482399 -3.1873319149 -2.05736804008 -0.996085703373 -3.20460224152 -2.05063199997 -0.994473397732 -3.18871688843 -2.06002902985 -0.996085584164 -3.18949007988 -2.05962610245 -1.0060479641 -3.19697117805 -2.06344294548 -1.00562596321 -3.19948935509 -2.06466197968 -1.0054949522 -3.19526124001 -2.07071399689 -1.00604689121 -3.19553542137 -2.06103301048 -1.00563681126 -3.2022383213 -2.06413865089 -1.00531709194 -3.21068501472 -2.0604300499 -1.0044349432 -3.20464944839 -2.0614733696 -1.00498044491 -3.20401763916 -2.05752182007 -1.00483489037 -3.19610452652 -2.05748319626 -1.00542235374 -3.19907355309 -2.0554625988 -1.00512886047 -3.20185136795 -2.05574989319 -1.00493168831 -3.19402647018 -2.07022881508 -0.996085345745 -3.21083545685 -2.06260704994 -0.99447286129 -3.21207094193 -2.06309199333 -1.0044349432 -3.202221632 -2.07413554192 -1.00564479828 -3.20149540901 -2.08268904686 -1.00604701042 -3.20452189445 -2.07636594772 -1.0055680275 -3.20890283585 -2.07604193687 -1.00531125069 -3.21738052368 -2.07329201698 -1.0044349432 -3.21103310585 -2.07221484184 -1.00488233566 -3.20176362991 -2.07055401802 -1.00555980206 -3.20453596115 -2.06767725945 -1.00526344776 -3.20975613594 -2.06885147095 -1.0048481226 -3.20731902122 -2.06748008728 -1.00498235226 -3.19979810715 -2.08131694794 -0.996085226536 -3.21706938744 -2.07458090782 -0.99447286129 -3.20118403435 -2.0839779377 -0.996085107327 -3.18356800079 -2.04636192322 -1.01601004601 -3.18279504776 -2.04676508904 -1.0060479641 -3.19991493225 -2.03785300255 -1.01439797878 -3.19914197922 -2.03825497627 -1.00443601608 -3.20630502701 -2.01987290382 -1.1821180582 -3.20553207397 -2.02027606964 -1.1721559763 -3.1891849041 -2.02878594398 -1.17376899719 -3.18995809555 -2.02838301659 -1.18373095989 -3.21296548843 -2.03078103065 -1.19208014011 -3.21265435219 -2.03207015991 -1.1821180582 -3.19584560394 -2.03969287872 -1.18373000622 -3.19615697861 -2.03840303421 -1.1936930418 -3.19754195213 -2.04106402397 -1.19369196892 -3.21779108047 -2.04193806648 -1.1821180582 -3.20781707764 -2.04578638077 -1.18300640583 -3.2014439106 -2.05044794083 -1.18373000622 -3.20481014252 -2.04492759705 -1.18324315548 -3.21025204659 -2.04443597794 -1.18277823925 -3.20343923569 -2.04290676117 -1.18326354027 -3.21143722534 -2.04152536392 -1.18259060383 -3.20340251923 -2.04047131538 -1.1831612587 -3.20948147774 -2.03823399544 -1.18261122704 -3.20568561554 -2.0378446579 -1.182929039 -3.21856403351 -2.04153609276 -1.1920800209 -3.20221710205 -2.05004501343 -1.19369196892 -3.20360207558 -2.05270695686 -1.19369196892 -3.21994996071 -2.04419708252 -1.1920800209 -3.21917700768 -2.04459905624 -1.1821180582 -3.20282888412 -2.05310893059 -1.18373000622 -3.22477531433 -2.05535411835 -1.18211817741 -3.2163772583 -2.05612778664 -1.18284976482 -3.20750403404 -2.06208992004 -1.18373000622 -3.21387577057 -2.05734634399 -1.18307554722 -3.21113801003 -2.05681204796 -1.18323612213 -3.20950007439 -2.05454945564 -1.18327236176 -3.21739840508 -2.05317497253 -1.18259704113 -3.2094643116 -2.05211424828 -1.18317687511 -3.21611189842 -2.05031514168 -1.18258297443 -3.21088480949 -2.05013680458 -1.1829777956 -3.21315479279 -2.04927778244 -1.18274605274 -3.225086689 -2.05406498909 -1.1920800209 -3.20920085907 -2.06346130371 -1.19369208813 -3.20888996124 -2.06475090981 -1.18373000622 -3.23083543777 -2.06699609756 -1.18211686611 -3.22243690491 -2.06776928902 -1.1828275919 -3.21402668953 -2.07461905479 -1.18372988701 -3.21923208237 -2.06909680367 -1.18315052986 -3.21668314934 -2.06795740128 -1.18325519562 -3.21543645859 -2.06586313248 -1.18326926231 -3.22345972061 -2.06481695175 -1.18260502815 -3.22217321396 -2.0619571209 -1.18258750439 -3.21609902382 -2.06243991852 -1.18313002586 -3.21922039986 -2.06091690063 -1.18281638622 -3.23068499565 -2.06482005119 -1.19207894802 -3.21433806419 -2.07332897186 -1.19369196892 -3.21572303772 -2.0759909153 -1.19369196892 -3.23207092285 -2.06748104095 -1.19207894802 -3.23597192764 -2.07686400414 -1.18211698532 -3.22600340843 -2.08071112633 -1.18302404881 -3.21962499619 -2.0853741169 -1.18372905254 -3.22269201279 -2.07966041565 -1.18326151371 -3.22868514061 -2.07911372185 -1.18273317814 -3.22146892548 -2.07715129852 -1.18325281143 -3.2295229435 -2.0757329464 -1.18257129192 -3.22185182571 -2.07474660873 -1.18312358856 -3.22455096245 -2.07255649567 -1.18280553818 -3.22761821747 -2.07322573662 -1.18261921406 -3.23674607277 -2.07646203041 -1.19207894802 -3.22039794922 -2.08497190475 -1.19369196892 -3.2381310463 -2.07912302017 -1.19207894802 -3.22178292274 -2.08763289452 -1.19369196892 -3.23735809326 -2.0795249939 -1.18211698532 -3.22100996971 -2.08803510666 -1.18372905254 -3.24201011658 -2.09034991264 -1.17215502262 -3.24278306961 -2.08994793892 -1.18211698532 -3.22643589973 -2.09845709801 -1.18372905254 -3.2256629467 -2.09886002541 -1.17376697063 -3.25386810303 -2.08999967575 -1.19096529484 -3.24976325035 -2.08349585533 -1.18367362022 -3.25294280052 -2.09196424484 -1.17120885849 -3.21047949791 -2.01040911674 -1.17112135887 -3.21258568764 -2.01072478294 -1.1908134222 -3.21559429169 -2.0178565979 -1.18367505074 -3.17337298393 -2.02971482277 -1.17491805553 -3.21581625938 -2.11126422882 -1.17484259605 -3.20360922813 -2.11763763428 -1.01743721962 -3.16116261482 -2.03609323502 -1.01745736599 -3.24071979523 -2.09830236435 -1.0138323307 -3.19826698303 -2.01675033569 -1.01382470131 -3.23561501503 -2.09085702896 -1.00136995316 -3.23862147331 -2.09798526764 -0.99423211813 -3.20144581795 -2.02521800995 -1.00137138367 -3.19734120369 -2.01871490479 -0.994079589844 -3.24410462379 -2.09645175934 -0.993667840958 -3.20174598694 -2.01503896713 -0.993879914284 -3.25932455063 -2.08845329285 -1.19019818306 -3.21703863144 -2.00718140602 -1.1904065609 3.21524810791 5.39185714722 -1.01600897312 3.23130202293 5.38474607468 -1.0044349432 3.23209905624 5.38439321518 -1.01439702511 3.21445202827 5.39221000671 -1.00604701042 3.1968460083 5.35461997986 -0.996085703373 3.19845294952 5.35609579086 -1.00604808331 3.21489810944 5.34771633148 -1.0044349432 3.21450710297 5.34898376465 -0.994473338127 3.19806098938 5.35736322403 -0.996085584164 3.21218061447 5.35426092148 -1.00488245487 3.2086789608 5.3534579277 -1.00512838364 3.22036600113 5.360060215 -1.0044349432 3.21411371231 5.35776424408 -1.00485336781 3.20559406281 5.35528802872 -1.00542259216 3.20479750633 5.3583855629 -1.00562644005 3.20578503609 5.36100959778 -1.00563788414 3.20392107964 5.3684387207 -1.00604689121 3.2109310627 5.36250114441 -1.00535738468 3.21315193176 5.36081314087 -1.00505924225 3.20813679695 5.36252975464 -1.00551009178 3.20231389999 5.3669629097 -0.99608540535 3.2199742794 5.36132669449 -0.994473099709 3.20352888107 5.36970615387 -0.99608540535 3.21297001839 5.36609172821 -1.00532960892 3.21733903885 5.36632347107 -1.00489068031 3.22583436966 5.37240314484 -1.00443506241 3.21936488152 5.36931324005 -1.00484371185 3.2107231617 5.36837434769 -1.00550484657 3.2103600502 5.37196683884 -1.0056540966 3.20857906342 5.37895298004 -1.00604701042 3.2192299366 5.37211227417 -1.00494539738 3.21680188179 5.3747420311 -1.00534057617 3.21320319176 5.37477970123 -1.00553703308 3.20778203011 5.37930583954 -0.996085226536 3.22463202477 5.37184095383 -0.994472920895 3.20899701118 5.38204908371 -0.996085107327 3.22584700584 5.374584198 -0.994472801685 3.20979404449 5.38169622421 -1.00604701042 3.19378209114 5.34339904785 -1.01601004601 3.19298601151 5.34375190735 -1.0060479641 3.21063303947 5.33593511581 -1.01439797878 3.20983600616 5.33628797531 -1.00443601608 3.21734499931 5.31874608994 -1.1721559763 3.20049500465 5.32621002197 -1.17376899719 3.21814203262 5.31839323044 -1.1821180582 3.20129203796 5.32585716248 -1.18373095989 3.22290110588 5.32913589478 -1.1821180582 3.20604991913 5.33660078049 -1.18373000622 3.22369790077 5.32878398895 -1.1920800209 3.20684695244 5.33624792099 -1.1936930418 3.22491288185 5.33152723312 -1.1920800209 3.20806288719 5.33899116516 -1.19369196892 3.22411608696 5.33187913895 -1.1821180582 3.2072660923 5.33934402466 -1.18373000622 3.21544861794 5.33681821823 -1.18300747871 3.21887636185 5.33628606796 -1.18270087242 3.22108268738 5.3379945755 -1.18257951736 3.22821688652 5.34113693237 -1.1821180582 3.21375417709 5.33945131302 -1.18321812153 3.22182488441 5.34068346024 -1.18261599541 3.21418762207 5.34220266342 -1.18327999115 3.21177077293 5.34951591492 -1.18373012543 3.22029900551 5.34341096878 -1.18281924725 3.21694397926 5.34433364868 -1.18311059475 3.22941875458 5.34169816971 -1.19208014011 3.21297264099 5.35007715225 -1.19369208813 3.22943210602 5.34388017654 -1.1821180582 3.22142553329 5.34854412079 -1.18295741081 3.22419285774 5.34828615189 -1.18270003796 3.22639656067 5.34999322891 -1.18257415295 3.23353290558 5.3531370163 -1.1821180582 3.21936869621 5.35042238235 -1.18317365646 3.22714018822 5.35305070877 -1.18261706829 3.21941709518 5.35425138474 -1.18328344822 3.21708703041 5.36151599884 -1.18373012543 3.22501802444 5.35581254959 -1.1828545332 3.22227740288 5.35623550415 -1.18312287331 3.23432898521 5.3527841568 -1.1920800209 3.21828866005 5.36207723618 -1.19369208813 3.23554491997 5.35552692413 -1.1920800209 3.23474788666 5.35587978363 -1.1821180582 3.22740507126 5.36031866074 -1.1828700304 3.23017525673 5.3605465889 -1.1826467514 3.23205041885 5.36260604858 -1.18257129192 3.23884797096 5.36513710022 -1.18211698532 3.22531247139 5.36155605316 -1.18310749531 3.22431159019 5.36415481567 -1.18324363232 3.23225808144 5.36574745178 -1.18268179893 3.2219979763 5.37260198593 -1.18373000622 3.22503137589 5.36648607254 -1.18326890469 3.23000764847 5.36793613434 -1.1828969717 3.22723817825 5.36819505692 -1.18315076828 3.24005055428 5.36569929123 -1.19207918644 3.22360515594 5.3740773201 -1.19369208813 3.24006390572 5.36787986755 -1.18211698532 3.22321295738 5.3753452301 -1.18373000622 3.23055315018 5.37349224091 -1.18312513828 3.23341012001 5.3722114563 -1.18282139301 3.23610305786 5.37291717529 -1.18262004852 3.23778581619 5.37596607208 -1.1825876236 3.24497437477 5.37896585464 -1.18211686611 3.22967672348 5.37686300278 -1.18326568604 3.22731399536 5.38460206985 -1.18372905254 3.23694896698 5.37862110138 -1.18275117874 3.23501372337 5.3800945282 -1.18299806118 3.23154330254 5.37980985641 -1.18321311474 3.24536681175 5.37769889832 -1.1920787096 3.22811102867 5.38424921036 -1.19369196892 3.22932600975 5.38699197769 -1.19369196892 3.22852897644 5.38734483719 -1.18372905254 3.24934196472 5.39097690582 -1.17215502262 3.25013804436 5.39062404633 -1.18211698532 3.23249101639 5.39844083786 -1.17376697063 3.2332880497 5.39808797836 -1.18372905254 3.22290277481 5.30920982361 -1.17112135887 3.2275390625 5.31696462631 -1.18367505074 3.2249853611 5.30965805054 -1.1908134222 3.25751042366 5.38462352753 -1.18367362022 3.26015114784 5.39327573776 -1.17120885849 3.26119828224 5.3913731575 -1.19096517563 3.18465542793 5.32614374161 -1.17491805553 3.22188425064 5.41020059586 -1.17484259605 3.17206811905 5.3317399025 -1.01745736599 3.20930075645 5.41579437256 -1.01743721962 3.21031546593 5.31477117538 -1.0138245821 3.2475540638 5.39883232117 -1.0138323307 3.20926833153 5.31667280197 -0.994079649448 3.21295571327 5.32342147827 -1.00137138367 3.24292683601 5.39108037949 -1.00136995316 3.2454791069 5.3983836174 -0.99423211813 3.25104856491 5.3971991539 -0.993667900562 3.21389532089 5.3132815361 -0.993879914284 3.26674127579 5.39017248154 -1.19019818306 3.22965216637 5.30640220642 -1.19040668011 0.682465791702 1.8829549551 -0.631581783295 0.679671823978 1.8801779747 -0.630887329578 0.679637372494 1.88012695312 -0.631581783295 0.679688811302 1.88016104698 -0.632276296616 0.679824829102 1.88028097153 -0.632949590683 0.679790973663 1.8803139925 -0.630213916302 0.680041015148 1.88048100471 -0.633581519127 0.679991602898 1.88053095341 -0.629582107067 0.680330812931 1.88075697422 -0.634152472019 0.68026727438 1.88082003593 -0.629010975361 0.680685520172 1.88109898567 -0.634645521641 0.680609881878 1.8811750412 -0.628518104553 0.681094408035 1.88149797916 -0.635045289993 0.681008815765 1.88158404827 -0.628118216991 0.681544780731 1.88194203377 -0.635339975357 0.681451976299 1.88203394413 -0.627823591232 0.682023286819 1.8824160099 -0.635520398617 0.681926012039 1.88251304626 -0.627643227577 0.682515084743 1.88290596008 -0.635581195354 0.682416379452 1.883005023 -0.627582490444 0.683005571365 1.88339805603 -0.635520398617 0.683386802673 1.88396894932 -0.627823591232 0.682908296585 1.88349497318 -0.627643227577 0.684600770473 1.88515400887 -0.629010975361 0.684246122837 1.88481104374 -0.628518104553 0.683837175369 1.88441205025 -0.628118216991 0.685242712498 1.88574898243 -0.630887329578 0.685106813908 1.88563001156 -0.630213916302 0.684890627861 1.8854290247 -0.629582107067 0.685140490532 1.88559603691 -0.632949590683 0.685259819031 1.88573205471 -0.632276296616 0.685294210911 1.88578402996 -0.631581783295 0.684321701527 1.88473594189 -0.634645521641 0.684664189816 1.88508999348 -0.634152472019 0.684939980507 1.88538002968 -0.633581519127 0.683479607105 1.88387596607 -0.635339975357 0.683922827244 1.88432705402 -0.635045289993 0.676455378532 1.87694501877 -0.631581783295 0.675815582275 1.87640547752 -0.627509772778 0.67556566 1.87598907948 -0.634303092957 0.676564872265 1.87701797485 -0.633057594299 0.676853716373 1.87727105618 -0.634488523006 0.676528394222 1.87705397606 -0.63010597229 0.677313089371 1.87769794464 -0.635831177235 0.676782011986 1.87734305859 -0.628674983978 0.677928984165 1.87828397751 -0.637044727802 0.678413748741 1.87869751453 -0.639896631241 0.677208185196 1.87780296803 -0.627332508564 0.678682684898 1.87901103497 -0.63809221983 0.677794098854 1.87841904163 -0.626119017601 0.679148316383 1.87986314297 -0.622463822365 0.679551482201 1.87985897064 -0.638941884041 0.678521990776 1.87917196751 -0.625071406364 0.679369807243 1.88004100323 -0.624221682549 0.680508673191 1.88080096245 -0.63956797123 0.680311620235 1.8809980154 -0.62359559536 0.681525409222 1.88180804253 -0.639951407909 0.6834192276 1.883659482 -0.641715347767 0.681318819523 1.88201498985 -0.623212218285 0.682570695877 1.88285005093 -0.64008051157 0.68342679739 1.88416302204 -0.621604144573 0.682360887527 1.88305997849 -0.623083114624 0.683612823486 1.88389599323 -0.639951407909 0.683406174183 1.88410198689 -0.623212218285 0.684620022774 1.88491201401 -0.63956797123 0.684422910213 1.88510894775 -0.62359559536 0.685561776161 1.88586997986 -0.638941884041 0.685380220413 1.88605105877 -0.624221682549 0.686342000961 1.88703680038 -0.623274862766 0.687221586704 1.88752186298 -0.639246225357 0.686409473419 1.8867379427 -0.63809221983 0.686248779297 1.88689899445 -0.625071406364 0.68713748455 1.88749194145 -0.637044727802 0.687002599239 1.88762700558 -0.626119017601 0.688500463963 1.88912069798 -0.62632894516 0.687723398209 1.88810801506 -0.635831177235 0.687618494034 1.88821303844 -0.627332508564 0.689267098904 1.88967680931 -0.634822487831 0.688149571419 1.88856697083 -0.634488523006 0.688077926636 1.88863897324 -0.628674983978 0.688403129578 1.88885605335 -0.633057594299 0.68836659193 1.88889300823 -0.63010597229 0.689510881901 1.89002537727 -0.630551338196 0.688476204872 1.88896596432 -0.631581783295 0.665451288223 1.89818429947 -0.641578614712 0.66670614481 1.89990341663 -0.641983866692 0.66366738081 1.89686763287 -0.641396760941 0.668387889862 1.90115499496 -0.641230821609 0.669281125069 1.90165936947 -0.64122146368 0.669781982899 1.90243732929 -0.640310525894 0.671237528324 1.9045330286 -0.638861238956 0.658963859081 1.89233410358 -0.632580578327 0.659256160259 1.89264428616 -0.635021209717 0.65903878212 1.89248430729 -0.630252420902 0.659336388111 1.89282381535 -0.628573775291 0.660144090652 1.89336502552 -0.637359321117 0.659837126732 1.89336371422 -0.626996397972 0.661805868149 1.89498960972 -0.639921844006 0.660525619984 1.8940871954 -0.625571846962 0.66138035059 1.89497172832 -0.624343156815 0.66237539053 1.89599239826 -0.623345673084 0.671725809574 1.89021456242 -0.641436100006 0.672942221165 1.88986992836 -0.641614735126 0.663481473923 1.89711630344 -0.622610986233 0.674089312553 1.8900706768 -0.641702234745 0.664663255215 1.8983091116 -0.622161448002 0.675064563751 1.89088618755 -0.641752243042 0.665886878967 1.89953684807 -0.622010052204 0.675561785698 1.89206171036 -0.641623497009 0.66711628437 1.90076208115 -0.622162461281 0.675207197666 1.89369463921 -0.641436040401 0.66830509901 1.9019408226 -0.622611105442 0.669435620308 1.90305221081 -0.623350977898 0.670450150967 1.90404224396 -0.624344050884 0.672180175781 1.90546000004 -0.636980772018 0.671456336975 1.90501272678 -0.625755310059 0.672681748867 1.90600132942 -0.63540148735 0.672460377216 1.90595126152 -0.628055870533 0.672979533672 1.90633940697 -0.633723020554 0.673065721989 1.90646827221 -0.631991267204 0.67293715477 1.90638244152 -0.630255103111 0.669498383999 1.89237225056 -0.641576230526 0.673076570034 1.89594817162 -0.641697525978 -0.681495428085 1.40476095676 -0.552917718887 -0.684289395809 1.40198397636 -0.553612172604 -0.684323906898 1.40193295479 -0.552917718887 -0.684272289276 1.40196704865 -0.552223324776 -0.684136390686 1.40208601952 -0.551549911499 -0.684170126915 1.40211999416 -0.55428558588 -0.683920204639 1.40228700638 -0.550917983055 -0.683969497681 1.4023360014 -0.554917514324 -0.683630406857 1.40256297588 -0.550346970558 -0.683693826199 1.4026260376 -0.555488526821 -0.683275699615 1.40290498734 -0.549854099751 -0.683351278305 1.40298104286 -0.555981397629 -0.682866871357 1.40330398083 -0.549454212189 -0.682952284813 1.40339004993 -0.556381285191 -0.682416379452 1.40374696255 -0.549159526825 -0.682509183884 1.40383994579 -0.556675970554 -0.681937873363 1.40422105789 -0.548979103565 -0.682035207748 1.40431904793 -0.556856393814 -0.681446015835 1.40471196175 -0.548918426037 -0.681544780731 1.40480995178 -0.556917071342 -0.680955588818 1.40520405769 -0.548979103565 -0.680574417114 1.40577495098 -0.556675970554 -0.681052923203 1.40530097485 -0.556856393814 -0.679360508919 1.40695905685 -0.555488526821 -0.679715096951 1.4066170454 -0.555981397629 -0.680123925209 1.40621805191 -0.556381285191 -0.67871850729 1.40755498409 -0.553612172604 -0.678854525089 1.40743601322 -0.55428558588 -0.679070591927 1.40723502636 -0.554917514324 -0.678820729256 1.40740203857 -0.551549911499 -0.678701400757 1.40753805637 -0.552223324776 -0.678667008877 1.40759003162 -0.552917718887 -0.679639518261 1.40654098988 -0.549854099751 -0.679296970367 1.40689599514 -0.550346970558 -0.679021179676 1.40718603134 -0.550917983055 -0.680481672287 1.40568196774 -0.549159526825 -0.680038511753 1.40613305569 -0.549454212189 -0.687396287918 1.39882397652 -0.551442027092 -0.68750590086 1.39875102043 -0.552917718887 -0.688690245152 1.39758217335 -0.553551435471 -0.687107384205 1.39907705784 -0.550010979176 -0.6872164011 1.39888930321 -0.54687088728 -0.687432706356 1.39885997772 -0.554393589497 -0.686648070812 1.39950299263 -0.548668384552 -0.687179207802 1.39914894104 -0.555824518204 -0.687440156937 1.39895534515 -0.558542668819 -0.686032176018 1.4000890255 -0.547454893589 -0.686753094196 1.39960801601 -0.557167112827 -0.685278475285 1.40081703663 -0.546407282352 -0.686167120934 1.40022397041 -0.55838060379 -0.684818148613 1.40166413784 -0.56204020977 -0.684409797192 1.40166497231 -0.545557677746 -0.683670401573 1.40235054493 -0.543357789516 -0.685439109802 1.40097796917 -0.559428215027 -0.684591472149 1.40184700489 -0.560277819633 -0.683452606201 1.40260696411 -0.544931590557 -0.683649718761 1.40280401707 -0.560903906822 -0.682435810566 1.40361404419 -0.544548213482 -0.682642400265 1.40382099152 -0.561287403107 -0.681390523911 1.40465605259 -0.544419109821 -0.680644333363 1.40536570549 -0.542937934399 -0.679545879364 1.40695035458 -0.562655687332 -0.681600272655 1.40486598015 -0.561416387558 -0.680348396301 1.4057019949 -0.544548213482 -0.680555105209 1.40590798855 -0.561287403107 -0.679341077805 1.40671801567 -0.544931590557 -0.67768484354 1.40835905075 -0.544288098812 -0.679538309574 1.40691494942 -0.560903906822 -0.678399384022 1.40767598152 -0.545557677746 -0.678581118584 1.40785694122 -0.560277819633 -0.677551627159 1.40854394436 -0.546407282352 -0.677712321281 1.40870499611 -0.559428215027 -0.675665676594 1.41073536873 -0.558759689331 -0.676823675632 1.40929794312 -0.547454893589 -0.676958620548 1.40943300724 -0.55838060379 -0.675175070763 1.41096174717 -0.54806548357 -0.676237821579 1.40991401672 -0.548668384552 -0.676342725754 1.41001904011 -0.557167112827 -0.675811588764 1.41037297249 -0.550010979176 -0.675883412361 1.4104449749 -0.555824518204 -0.67555809021 1.41066205502 -0.551442027092 -0.675594508648 1.41069805622 -0.554393589497 -0.674363970757 1.41189467907 -0.553018808365 -0.675485014915 1.41077101231 -0.552917718887 -0.658368289471 1.39579820633 -0.553553879261 -0.658024430275 1.39530336857 -0.552091419697 -0.658107936382 1.39529013634 -0.555072307587 -0.672009289265 1.38137626648 -0.555056929588 -0.672095358372 1.38124787807 -0.553328096867 -0.67196726799 1.38133275509 -0.551597952843 -0.67162758112 1.38162982464 -0.549913406372 -0.671711087227 1.38171601295 -0.556738674641 -0.671089470387 1.382127285 -0.548339366913 -0.67120963335 1.38225650787 -0.558317244053 -0.670489132404 1.38270223141 -0.547096371651 -0.670521855354 1.38298022747 -0.559740722179 -0.669480085373 1.38367462158 -0.545680344105 -0.669523537159 1.38398778439 -0.561168074608 -0.668462157249 1.38466775417 -0.544684350491 -0.667338907719 1.38577282429 -0.543949186802 -0.667881667614 1.38575255871 -0.562544107437 -0.666143894196 1.38695633411 -0.543497860432 -0.674235701561 1.39402019978 -0.562771201134 -0.672121524811 1.39175593853 -0.563098907471 -0.665521383286 1.38817501068 -0.563260316849 -0.664916872978 1.38817942142 -0.543345987797 -0.663693845272 1.38940632343 -0.543497025967 -0.663086116314 1.39057862759 -0.562825858593 -0.662512719631 1.39059925079 -0.54394620657 -0.668532669544 1.39533865452 -0.562889575958 -0.661404907703 1.39172458649 -0.544681727886 -0.670754671097 1.3975020647 -0.562772810459 -0.661317706108 1.39217436314 -0.561796069145 -0.660409092903 1.39274477959 -0.54567939043 -0.65955477953 1.39362883568 -0.546907603741 -0.65991550684 1.39361870289 -0.560082137585 -0.658866882324 1.39435243607 -0.548332452774 -0.65869551897 1.39476644993 -0.557550489902 -0.674593150616 1.39543771744 -0.562965095043 -0.658366143703 1.39489305019 -0.549908995628 -0.674326241016 1.39644169807 -0.563068926334 -0.673716843128 1.39725697041 -0.56309992075 -0.672387123108 1.39785766602 -0.562962472439</float_array>
          <technique_common>
            <accessor source="#positions-array" count="514" stride="3">
              <param name="X" type="float" />
              <param name="Y" type="float" />
              <param name="Z" type="float" />
            </accessor>
          </technique_common>
        </source>
        <source id="normals">
          <float_array id="normals-array" count="2139">-0.9108668 0.40340969 -0.08707713 -0.91086668 0.40339094 -0.08716469 -0.91085982 0.40337852 -0.08729407 -0.91085505 0.40341711 -0.08716521 -0.91085404 0.40342042 -0.08715954 -0.91085351 0.40342021 -0.08716624 -0.91085309 0.40341625 -0.08718964 -0.91085202 0.40341574 -0.08720362 -0.91085154 0.40341541 -0.08720852 -0.91083652 0.40347478 -0.08709191 -0.91083509 0.40348887 -0.08704156 -0.91083485 0.4034082 -0.0874167 -0.91083264 0.40351561 -0.08694267 -0.9108305 0.40348494 -0.08710834 -0.91083002 0.40347618 -0.08715316 -0.9108299 0.40347564 -0.08715611 -0.91082984 0.40347883 -0.0871433 -0.91082978 0.40347859 -0.0871435 -0.91082978 0.40347883 -0.0871432 -0.91082972 0.40347886 -0.08714332 -0.91082966 0.40347603 -0.0871564 -0.91082847 0.40347499 -0.08717405 -0.91082847 0.40348005 -0.08715076 -0.91082662 0.40348378 -0.08715318 -0.91082591 0.40348035 -0.08717678 -0.91082549 0.40348396 -0.08716364 -0.91082525 0.40348482 -0.08716332 -0.91082501 0.40348011 -0.08718646 -0.91082376 0.40350842 -0.08706965 -0.91082257 0.40348107 -0.08720824 -0.9108218 0.40351814 -0.08704464 -0.91081589 0.40352419 -0.08707815 -0.91081309 0.40351829 -0.08713516 -0.91081107 0.40351224 -0.08718459 -0.91080332 0.40352026 -0.08722825 -0.91074491 0.4037641 -0.08670755 -0.91072685 0.40371102 -0.08714304 -0.9107092 0.40374827 -0.08715536 -0.88366812 0.45993513 0.08712297 -0.88366383 0.45992327 0.08722791 -0.88365811 0.4599649 0.08706615 -0.88364899 0.45997182 0.08712192 -0.8836475 0.45997906 0.08710025 -0.88364583 0.45997792 0.08712297 -0.88364571 0.45997819 0.08712336 -0.88364565 0.45998076 0.08710908 -0.88364005 0.4599779 0.08718152 -0.88363922 0.45995766 0.08729651 -0.88363874 0.45998129 0.08717655 -0.88363624 0.45997837 0.0872176 -0.88363558 0.45999163 0.08715399 -0.88360476 0.46004429 0.08718911 -0.88359481 0.46003935 0.0873156 -0.88358021 0.46019641 0.08663278 -0.88354236 0.46017671 0.08712296 -0.88353831 0.46017456 0.08717453 -0.88350999 0.46023893 0.08712297 -0.8834787 0.46022266 0.08752385 -0.7904222 0.60682464 -0.08364587 -0.70747286 0.7065267 0.0173858 -0.70745134 0.7065407 0.01768139 -0.70743901 0.70655334 0.01767527 -0.70738769 0.70661163 0.01739659 -0.70726943 0.70673484 0.01720043 -0.70726645 0.70672274 0.01780993 -0.70726502 0.70672774 0.01766409 -0.707259 0.70673043 0.01779778 -0.70725501 0.70673686 0.01770341 -0.7072264 0.70677066 0.01749359 -0.70720077 0.70678997 0.01775163 -0.70719784 0.70679569 0.01763782 -0.7071963 0.70679539 0.01770896 -0.70718122 0.70680916 0.0177697 -0.707178 0.70682108 0.01741322 -0.70717657 0.70683289 0.01698495 -0.70716166 0.70683002 0.01771223 -0.70713437 0.70685822 0.01767404 -0.70712906 0.70686328 0.01768132 -0.70712626 0.70687312 0.01739657 -0.70712596 0.70688123 0.0170856 -0.70711917 0.70687383 0.01766407 -0.70710945 0.70689362 0.01725228 -0.70710021 0.7068944 0.01759842 -0.70708942 0.70692551 0.01675848 -0.70707887 0.70692551 0.01719761 -0.70707548 0.70691168 0.01789222 -0.70707363 0.70692164 0.01757155 -0.70707113 0.7069242 0.01756522 -0.70705968 0.70694113 0.0173433 -0.7070567 0.70694429 0.01733407 -0.70705444 0.70695019 0.01718459 -0.7070536 0.70694107 0.01759034 -0.70705152 0.70694983 0.01732344 -0.70704061 0.70696115 0.01730849 -0.70703661 0.7069608 0.01748388 -0.70703596 0.7069608 0.01750759 -0.70703244 0.70696431 0.01750871 -0.7070322 0.70696312 0.01757112 -0.70702863 0.70696968 0.0174474 -0.70702749 0.7069726 0.01737589 -0.70702457 0.70697403 0.0174389 -0.7070207 0.70697838 0.01741902 -0.70702022 0.70698142 0.01731195 -0.70701402 0.70698833 0.01728683 -0.70700604 0.70699334 0.01740075 -0.7070002 0.70698994 0.01777426 -0.70699549 0.70699883 0.01760799 -0.70699203 0.70701373 0.01714005 -0.70696187 0.70704401 0.01713692 -0.70695859 0.70704436 0.01725882 -0.70695364 0.70704299 0.01751492 -0.70695066 0.70705283 0.01723859 -0.70694721 0.70706636 0.01681628 -0.70694584 0.70704484 0.01775324 -0.70694011 0.7070564 0.0175113 -0.70693642 0.7070511 0.01787529 -0.70693469 0.70705384 0.01783442 -0.70693094 0.70706922 0.01737229 -0.7069304 0.70706588 0.01752678 -0.70692557 0.70707613 0.01731217 -0.70690918 0.70709294 0.01729226 -0.70690745 0.70708919 0.01751697 -0.70689863 0.7071014 0.01738156 -0.70689744 0.70709485 0.01769315 -0.70689446 0.70710438 0.0174263 -0.70689255 0.70710313 0.01755006 -0.70689118 0.70710403 0.01757283 -0.70688808 0.70710951 0.01747358 -0.70687693 0.70712006 0.01749844 -0.7068736 0.70711815 0.01771107 -0.70685238 0.70714265 0.0175781 -0.70685166 0.70714897 0.0173466 -0.70680362 0.70719075 0.01759591 -0.70680314 0.70719415 0.01748607 -0.70678085 0.70721018 0.01773706 -0.70677334 0.7072292 0.01727475 -0.70670921 0.70728004 0.01780772 -0.70669037 0.70731157 0.0172875 -0.70667809 0.70732403 0.01728087 -0.70665252 0.70733559 0.01785085 -0.70647442 0.70753723 0.01687969 -0.70626807 0.70773101 0.01738569 -0.7001285 -0.69300902 -0.17192586 -0.69944614 -0.70942092 0.0865856 -0.69819826 -0.7105338 -0.08752588 -0.69621652 -0.71446836 0.069407 -0.69611853 -0.71465069 0.06850847 -0.69005096 -0.67582244 0.25902456 -0.68857598 -0.6775856 0.2583425 -0.68656856 -0.66991866 0.28254652 -0.68496263 -0.68097812 -0.25902689 -0.67411053 -0.65147793 -0.348068 -0.65327156 -0.62831652 0.42243895 -0.64698756 -0.63455045 -0.42279151 -0.63469815 -0.64758974 0.42164642 -0.63304466 -0.63876009 -0.43730986 -0.62598753 -0.49759111 -0.60045207 -0.59181821 -0.8047511 0.04611932 -0.58736008 -0.57079417 0.57376134 -0.58330017 -0.57469058 -0.57401365 -0.57435721 -0.60126299 0.55551457 -0.56579506 -0.82079875 -0.07852002 -0.55953568 -0.59760851 -0.57426816 -0.55896354 -0.82437915 -0.08921254 -0.55894971 -0.82438755 -0.08922157 -0.5190478 -0.48387456 -0.70459539 -0.51827174 -0.52935678 -0.67169625 -0.51394755 -0.85262698 -0.09426095 -0.51394236 -0.85263115 -0.09425105 -0.51393336 -0.85262734 -0.09433496 -0.5139026 -0.85265243 -0.09427601 -0.50885439 -0.51557952 0.68938011 -0.50878346 -0.86088187 0.00466898 -0.49977881 -0.49975157 0.70743871 -0.49388582 -0.46809036 -0.73278123 -0.49023929 -0.86488819 -0.10785963 -0.48961192 -0.51574486 0.70305574 -0.48695904 -0.87342209 0.00216477 -0.47365886 -0.88070744 0.00131853 -0.46205023 -0.88685381 0.00016939 -0.46176577 -0.88700187 -4.76e-05 -0.46173981 -0.8870154 1.353e-05 -0.46173334 -0.88701886 3.412e-05 -0.46172804 -0.88702154 3.36e-05 -0.4617272 -0.8870219 4.457e-05 -0.46171877 -0.88702631 3.269e-05 -0.46171397 -0.88702893 3.221e-05 -0.46171397 -0.88702887 3.221e-05 -0.46125519 -0.88726753 -0.00015475 -0.46020934 0.82127619 -0.33721328 -0.45359498 -0.89119565 -0.00468087 -0.45174187 -0.88661826 0.09918407 -0.44342899 -0.89029557 -0.10365529 -0.44342855 -0.89029592 -0.103654 -0.44032419 0.78779441 -0.43069085 -0.42923006 -0.88083661 -0.19972095 -0.42920145 -0.88084495 -0.19974576 -0.42917114 -0.88087207 -0.19969076 -0.41949227 -0.39145398 0.81901771 -0.40686926 -0.41112831 0.81573957 -0.40554315 -0.91407585 6.744e-05 -0.40501899 -0.91430831 -9.698e-05 -0.40500599 -0.91431403 -1.796e-05 -0.40500596 -0.91431403 -1.801e-05 -0.40499008 -0.91432112 2.234e-05 -0.40498704 -0.91432256 -1.614e-05 -0.4048368 -0.91438895 -6.718e-05 -0.40421489 -0.40711671 0.8190642 -0.40359983 -0.91005766 0.09435246 -0.40359849 -0.91005796 0.09435443 -0.39509997 -0.9132638 -0.09922317 -0.39509544 -0.91326481 -0.09923151 -0.3903943 -0.92064679 0.0013098 -0.39024746 -0.90080011 0.19043671 -0.39023843 -0.90079147 0.19049637 -0.37923801 -0.92529702 0.00198359 -0.35527068 -0.93475181 0.00468472 -0.3552565 -0.93475705 0.00468658 -0.35317153 -0.3484236 -0.86825734 -0.34045771 -0.34840822 -0.8733272 -0.33697236 -0.40312156 -0.8508482 -0.31709507 -0.2802119 0.90605295 -0.31118384 -0.94421285 0.10782707 -0.31118336 -0.94421566 0.10780459 -0.31117794 -0.94420427 0.10791866 -0.28496832 -0.31305566 0.90597421 -0.28238279 -0.95580626 -0.0818193 -0.26488426 -0.96327847 0.04394161 -0.20938419 -0.24802059 -0.94585621 -0.2091492 -0.24789546 -0.94594103 -0.19772971 -0.18162258 -0.96328413 -0.1960275 -0.16976614 0.96579129 -0.1929777 -0.17483176 -0.96550167 -0.16731197 -0.19927236 0.96555543 -0.145869 0.32661134 0.93383467 -0.13725099 -0.21588056 -0.96672529 -0.13061643 -0.06757064 -0.98912764 -0.12200421 0.06093902 -0.99065697 -0.11823138 -0.17384937 -0.97764909 -0.11398565 -0.05618124 0.99189258 -0.10207338 -0.09638523 0.99009639 -0.10116591 0.02347778 0.99459249 -0.10096394 -0.01512475 -0.99477506 -0.10087692 0.05358944 -0.99345458 -0.10058935 -0.090921 -0.99076498 -0.09951282 0.00546735 -0.99502122 -0.09704803 0.0010015 0.99527919 -0.09359388 0.01621523 -0.99547839 -0.09322955 0.04851858 -0.99446172 -0.09174496 0.04251387 0.99487466 -0.08963183 0.03542497 -0.99534476 -0.08951941 0.01529408 -0.99586761 -0.08884276 0.01797683 -0.99588346 -0.08811228 0.034068 -0.9955278 -0.08693797 0.03490629 -0.99560201 -0.08689113 0.03825056 0.99548328 -0.0859431 0.03804911 0.99557322 -0.0854324 0.01614348 0.99621314 -0.08491662 0.02560585 -0.996059 -0.08486741 0.02076899 -0.99617577 -0.08311462 0.03687421 -0.9958576 -0.08223604 0.02949489 0.9961763 -0.08218638 0.0443871 0.995628 -0.08210146 0.02822278 0.99622428 -0.0818513 0.04141937 0.99578351 -0.08143109 0.05700291 -0.99504751 -0.08142563 0.0312492 -0.99618948 -0.08132994 0.03146045 -0.99619055 -0.08126343 0.0322898 0.99616945 -0.08034294 0.03435134 -0.99617523 -0.08025461 0.03556536 0.99613965 -0.08012258 0.07538275 0.99393052 -0.0798972 0.04737988 -0.99567646 -0.07984599 0.04412116 -0.9958303 -0.07981864 0.03537219 0.99618167 -0.0797227 0.03531772 0.99619114 -0.07970372 0.03521062 0.99619651 -0.07970228 0.0352568 0.99619502 -0.07970228 0.03525681 0.99619496 -0.07969665 0.03525431 0.9961955 -0.07968441 0.03529217 0.9961952 -0.07967218 0.03529764 0.99619597 -0.07967008 0.03528251 0.99619669 -0.07962075 0.0352691 0.99620122 -0.07945193 -0.00167948 0.99683738 -0.07938614 0.04302233 -0.99591511 -0.07917981 0.0349818 0.9962464 -0.07907782 0.03339884 0.9963088 -0.07899953 0.03531957 0.99624872 -0.07849439 0.07234176 0.9942863 -0.07843613 0.03386398 0.99634379 -0.07842058 0.03241701 0.9963932 -0.07819276 0.02738827 -0.996562 -0.07815337 0.03567462 0.99630284 -0.07811131 0.04124229 -0.99609125 -0.07795911 0.04145645 -0.99609423 -0.07794484 0.04854671 -0.99577492 -0.07786678 0.04011509 -0.99615639 -0.07785045 0.04113297 -0.9961161 -0.07772431 0.04045764 -0.99615365 -0.07753857 0.04024978 -0.99617654 -0.07748643 0.03992794 -0.99619347 -0.07736803 0.04019102 -0.99619216 -0.07735039 0.04024437 -0.99619144 -0.07733824 0.04025247 -0.99619204 -0.07732777 0.04027473 -0.99619192 -0.07729933 0.0402178 -0.99619639 -0.077293 0.04024053 -0.99619597 -0.07729205 0.04022928 -0.99619651 -0.07728902 0.04023308 -0.99619663 -0.07727672 0.04024815 -0.99619699 -0.07723142 0.0402129 -0.99620193 -0.07723089 0.04018945 -0.99620289 -0.07718734 0.02103404 -0.99679464 -0.07717217 0.04009295 -0.99621129 -0.07710104 0.04013577 -0.99621511 -0.07709762 0.03551217 0.99639088 -0.0770353 0.03639866 0.9963637 -0.07701986 0.04019373 -0.99621904 -0.07698994 0.04007703 -0.99622607 -0.07692111 0.03972801 -0.99624538 -0.07674365 0.03899267 -0.99628806 -0.07666813 0.03991892 -0.99625725 -0.07664785 0.03930198 -0.99628335 -0.07635051 0.04276371 0.99616361 -0.07626932 0.03318628 -0.99653482 -0.0762559 0.03920463 -0.99631733 -0.07621055 0.04889588 -0.99589211 -0.07620516 0.04553571 -0.99605191 -0.07594317 0.0358042 0.9964692 -0.07588962 0.04058971 0.99628973 -0.07531375 0.02906427 -0.99673623 -0.07459585 0.02610888 -0.99687201 -0.07086303 0.05436214 -0.99600363 -0.07029396 0.03656367 -0.99685597 -0.07019124 0.04341891 -0.99658823 -0.0701648 0.04412515 -0.99655902 -0.06977036 -0.05330009 0.99613816 -0.06887214 0.05638239 -0.99603093 -0.06859297 0.06395606 -0.99559253 -0.067574 0.04673324 -0.99661916 -0.06649732 0.03368651 -0.99721777 -0.06645983 0.04823029 -0.99662274 -0.06335583 0.03490331 -0.99738038 -0.06319973 0.02797665 0.99760866 -0.06233951 0.02770801 0.99767035 -0.06169947 0.04644067 -0.99701369 -0.06147435 0.07050035 -0.99561572 -0.06139151 0.06703671 -0.99586004 -0.06073998 -0.08635817 -0.99441081 -0.05990459 -0.07844673 0.99511683 -0.05954656 0.07463682 0.99543136 -0.05938795 0.07460112 -0.9954434 -0.05854129 0.0828704 -0.99483937 -0.0539629 0.05208951 0.99718332 -0.05375501 0.0622245 0.9966135 -0.05351987 -0.06999662 0.9961105 -0.0339674 0.01251375 0.99934459 -0.02388217 -0.03271097 -0.99917948 -0.01200505 0.01800236 -0.99976587 0.0147153 -0.04860092 -0.99870986 0.02669309 0.03721992 -0.99895054 0.03310152 -0.01461933 0.99934506 0.033436 0.0248841 -0.99913102 0.04551012 0.07821643 0.99589711 0.04703649 0.13132872 -0.99022245 0.0544433 -0.05290036 0.99711466 0.05448416 -0.09014928 0.99443686 0.05480559 -0.04931302 0.99727863 0.06046656 -0.03156987 0.99767089 0.06129761 -0.03188804 0.99761003 0.06396624 -0.07071877 -0.99544328 0.06447177 -0.06956644 -0.99549174 0.06463617 0.0844371 -0.99433023 0.06541216 -0.03084034 -0.99738163 0.06579623 -0.04922995 -0.99661797 0.06766583 -0.0588082 -0.99597335 0.06848868 -0.02943845 -0.99721742 0.0691613 -0.05907225 -0.99585497 0.07109434 -0.05459161 -0.9959746 0.07162417 -0.04084991 0.99659479 0.07217915 0.07836867 -0.99430805 0.07244964 -0.03206498 -0.99685645 0.07247286 -0.0595295 -0.9955923 0.07270944 -0.04068629 0.99652296 0.07318669 -0.04528071 0.99628985 0.07351127 -0.04748894 0.99616319 0.07384925 -0.0330978 0.99672008 0.0738929 -0.03147337 0.99676937 0.0741015 -0.04512545 -0.99622923 0.07454757 -0.05125281 -0.9958995 0.07481579 -0.04008755 0.99639124 0.07500353 -0.04141672 0.99632275 0.07557147 -0.02311606 -0.99687237 0.07563481 -0.06306587 -0.99513918 0.07604016 -0.04241335 -0.99620229 0.07649729 0.04635615 0.99599159 0.0765176 -0.0295443 -0.99663043 0.07666221 -0.03078633 -0.99658167 0.0766838 -0.02162514 -0.99682093 0.07702192 -0.04009346 0.99622291 0.07706751 -0.04001663 0.9962225 0.07729531 -0.04023505 0.99619597 0.07729571 -0.04023859 0.99619585 0.0773128 -0.04022232 0.9961952 0.07731745 -0.04025808 0.99619335 0.07732251 -0.04019968 0.99619532 0.07733304 -0.04014745 0.99619669 0.07734536 -0.0402564 0.99619138 0.07734766 -0.04027684 0.99619019 0.07743256 -0.04024506 0.99618495 0.07754315 -0.04029903 0.99617422 0.07814097 -0.02564686 -0.99661237 0.07822297 -0.03301057 -0.99638921 0.07846612 -0.03992396 0.99611706 0.07852945 -0.03885063 -0.99615449 0.07878376 -0.04752687 0.99575806 0.07901533 -0.03544161 -0.99624312 0.07909261 -0.02881683 -0.99645078 0.07911085 -0.03504627 -0.99624962 0.079177 -0.03487615 -0.99625027 0.07927654 -0.03511975 -0.99623388 0.0793552 -0.03724437 0.99615037 0.07965883 -0.03531468 -0.99619645 0.07966086 -0.0352903 -0.99619716 0.07967362 -0.03529439 -0.99619597 0.07967442 -0.03529973 -0.99619579 0.07967664 -0.03517349 -0.99620008 0.07971924 -0.0353076 -0.99619186 0.07972121 -0.0296499 -0.99637616 0.07972818 -0.0353177 -0.99619079 0.07975115 -0.03522988 -0.99619204 0.07980436 -0.03498343 -0.99619657 0.07984188 -0.03526955 -0.99618345 0.07999746 -0.03542711 -0.99616534 0.08002273 -0.03543485 -0.99616301 0.08005232 -0.03551552 -0.99615777 0.08005316 -0.03546007 -0.99615973 0.08012773 -0.03563115 -0.99614763 0.08016241 -0.0333236 0.9962247 0.08019499 -0.03552785 -0.99614584 0.0802175 -0.03462163 0.996176 0.08028039 -0.03605909 -0.99611986 0.08049792 -0.0354294 -0.99612486 0.08054768 -0.03515159 -0.9961307 0.08087477 -0.05255661 0.99533755 0.08121282 -0.06003258 -0.99488717 0.0813276 -0.06618619 0.9944874 0.08138181 -0.04967904 0.99544412 0.08160868 -0.04042615 -0.99584424 0.08163296 -0.03466888 -0.99605936 0.08224388 -0.03479987 -0.9960044 0.08245602 -0.03446039 -0.99599874 0.08266501 -0.0332644 -0.99602199 0.08288532 -0.03162865 -0.99605709 0.08335368 -0.03392106 -0.99594247 0.08337528 -0.04337802 0.99557364 0.08417533 -0.03163144 -0.99594873 0.08430497 -0.04363763 0.99548399 0.08435943 -0.0112154 -0.99637228 0.08647997 -0.03270735 -0.99571657 0.08658025 -0.01365125 -0.99615127 0.08889552 -0.02517173 -0.99572283 0.08890047 -0.04820946 0.99487317 0.08979812 -0.01234324 -0.99588352 0.09030125 -0.00964106 -0.99586785 0.09032636 -0.01192283 0.99584091 0.09035304 -0.02406914 -0.99561894 0.09405764 -0.0220089 -0.99532348 0.09609935 -0.04255718 -0.99446148 0.09931547 -0.01656483 0.99491817 0.10373294 -0.00032076 0.99460518 0.10405477 -0.04713917 -0.9934538 0.10506549 0.00700988 0.99444062 0.10670313 0.00221519 -0.99428856 0.12557061 -0.05313045 -0.99066091 0.14169165 0.14321217 -0.97949672 0.14585264 0.14783527 -0.97819817 0.15958281 0.18685289 -0.96933961 0.16827868 0.19783464 0.96568304 0.19370683 0.17189942 0.96588212 0.20355733 0.97807652 0.0439403 0.22179285 0.97165519 -0.08181714 0.22308508 0.20891041 0.95214993 0.26047236 0.27399427 0.92578685 0.27563477 0.28665394 -0.9175266 0.28890297 0.30928123 0.90602434 0.29538494 0.95120263 0.08922581 0.29541597 0.95119339 0.08922196 0.3126511 0.28454265 0.90624762 0.31440687 0.27190787 -0.90951329 0.35526192 0.93475509 -0.00468599 0.36994624 0.92277211 0.10784958 0.36995947 0.92276865 0.10783291 0.36997756 0.92275918 0.10785145 0.39065969 0.4347257 -0.8114177 0.39289984 0.41864893 0.81875676 0.40450126 0.91453743 -0.00016314 0.40498698 0.91432244 1.614e-05 0.40498698 0.9143225 1.614e-05 0.40499982 0.91431671 9.52e-05 0.40500906 0.9143126 -2.052e-05 0.40504894 0.91429508 2.206e-05 0.40504968 0.91429466 1.244e-05 0.40530553 0.39944357 -0.82229698 0.40533844 0.91416669 0.000168 0.41097608 0.90623724 -0.0991603 0.41334763 0.91056061 0.0047967 0.41719925 0.90881419 0.00130637 0.41899377 0.90204948 0.10368718 0.41901404 0.90204525 0.10364123 0.41963765 0.39131331 0.81901044 0.42047116 0.88504291 0.19975697 0.42053345 0.88503283 0.19967097 0.43112069 0.90229172 0.00216426 0.43515161 0.48778221 -0.75677711 0.4368569 0.89952892 0.00197126 0.44668609 0.46985072 -0.761388 0.4474493 0.89430827 0.00131296 0.4536019 0.89119178 0.00472455 0.45926252 0.88328785 -0.09423586 0.45928028 0.88327175 -0.09430046 0.45929626 0.88326383 -0.09429743 0.4593071 0.88325268 -0.09434942 0.46039155 0.86705619 -0.19040261 0.46040538 0.86702257 -0.19052204 0.46154118 0.8871187 -7.097e-05 0.4617196 0.88702595 4.106e-05 0.46172208 0.88702464 7.308e-05 0.46172968 0.88702071 -1.258e-05 0.46174908 0.88701057 -3.568e-05 0.46175727 0.88700628 6.966e-05 0.46176025 0.88700479 -9.203e-05 0.46176448 0.88700259 -3.719e-05 0.46177015 0.88699955 3.61e-05 0.46227291 0.88673776 7.276e-05 0.46712264 0.87861246 0.09917932 0.48375353 0.85211658 -0.19969958 0.48378238 0.85207909 -0.19978967 0.49711743 0.50775909 0.70360148 0.4988015 0.51018959 0.70064509 0.50449687 0.49515408 0.70732266 0.50599331 0.85791498 -0.0891773 0.50650156 0.84215498 -0.18501674 0.51313049 0.50861531 0.69138098 0.52732325 0.41236341 -0.74289072 0.54368007 0.83232397 -0.10792986 0.58912855 0.56922966 0.5735026 0.5896486 0.56706208 -0.57511306 0.59209794 0.58744955 -0.55165482 0.59482324 0.61945283 0.51231188 0.60035712 0.57376677 -0.55710232 0.61633843 0.78356087 -0.07848184 0.64127761 0.76592046 0.04613912 0.6430766 0.63834697 -0.42304331 0.64996988 0.63138771 0.42295226 0.66462255 0.68342543 -0.3020041 0.66573924 0.68760687 -0.28980684 0.67347288 0.67317754 0.30539522 0.67683405 0.6807248 0.28019512 0.6821602 0.68388146 -0.258773 0.68459392 0.68771148 0.24162804 0.68480289 0.6891824 0.23679654 0.70056868 0.7082746 0.08689378 0.70275843 0.70216238 -0.1144488 0.70623451 -0.70775008 0.01796556 0.70654446 -0.70745778 0.01727447 0.7065466 -0.70746702 0.01680173 0.70658946 -0.70740694 0.01751499 0.70660818 -0.70739454 0.01725619 0.70662153 -0.70738828 0.01696431 0.70662552 -0.70737243 0.01745749 0.70663565 -0.70736676 0.01727045 0.70665371 -0.70735419 0.01705039 0.70666885 -0.70732582 0.01758621 0.70667297 -0.70733762 0.01693016 0.7067017 -0.70729363 0.01756437 0.70671022 -0.7072717 0.01809437 0.70671135 -0.70727783 0.0178044 0.70672482 -0.7072714 0.01752694 0.70673239 -0.70727754 0.01696612 0.70674527 -0.70725459 0.01737495 0.70677221 -0.70721388 0.01792605 0.70679122 -0.70720959 0.01734613 0.7068029 -0.70719713 0.01737232 0.70681578 -0.70718747 0.01724614 0.7068736 -0.70711273 0.01792632 0.70688027 -0.70711619 0.01752111 0.70688295 -0.7071237 0.017106 0.70691115 -0.70708686 0.01745929 0.7069211 -0.70708007 0.01733132 0.70693773 -0.70707542 0.01683987 0.70694447 -0.70704877 0.01765025 0.70694643 -0.70704377 0.01776972 0.70695275 -0.70704401 0.01751569 0.70695281 -0.70703769 0.01775581 0.70695394 -0.70705825 0.01687602 0.70696193 -0.70703441 0.01752537 0.7069838 -0.70700663 0.01776783 0.70698941 -0.70700818 0.01747942 0.70699203 -0.70700872 0.01734374 0.70699543 -0.70699871 0.01761455 0.70700526 -0.70698762 0.01766033 0.70700711 -0.70698953 0.01751848 0.70701069 -0.70698667 0.01748603 0.70702219 -0.70696336 0.01795929 0.70702547 -0.70698297 0.01703099 0.70703071 -0.70695788 0.01783449 0.70703322 -0.70696348 0.01751153 0.70704526 -0.70696604 0.01691412 0.70704532 -0.70695305 0.01744586 0.7070455 -0.70695007 0.01755873 0.70704556 -0.70694673 0.01769059 0.70704603 -0.70695215 0.01745371 0.70706826 -0.70692641 0.01758615 0.70707399 -0.70692569 0.01738832 0.70707554 -0.70691174 0.01788915 0.7070778 -0.70691758 0.01756046 0.70707828 -0.70692593 0.01719888 0.70708162 -0.70691198 0.01763796 0.70708299 -0.70691717 0.01737498 0.70708942 -0.70692551 0.01675848 0.70709139 -0.70690191 0.0176498 0.70709532 -0.70690393 0.01740479 0.70710856 -0.70687771 0.01792967 0.70711064 -0.70688158 0.01769114 0.70712948 -0.70686889 0.0174426 0.70713001 -0.70686835 0.01744485 0.70713168 -0.70687521 0.01709277 0.70713687 -0.70686811 0.01717375 0.70714039 -0.70685422 0.01759755 0.70715207 -0.70683801 0.01777603 0.70716095 -0.70681942 0.01816215 0.70716369 -0.70683563 0.01740833 0.70717788 -0.7068184 0.01752225 0.70717943 -0.70681781 0.01748345 0.70718223 -0.70680821 0.01776445 0.70718527 -0.70681107 0.01752129 0.70720655 -0.706797 0.01722891 0.70723438 -0.70677119 0.01714438 0.70724905 -0.70674431 0.01764793 0.70725703 -0.70673257 0.0177884 0.70728105 -0.70672435 0.0171521 0.70730817 -0.70668602 0.0176078 0.70739573 -0.70659697 0.01766411 0.70741028 -0.70658225 0.01767164 0.70760524 -0.70640385 0.01698143 0.70768625 -0.7063396 0.01626475 0.70794564 0.69950551 -0.09749373 0.70871753 0.70192403 0.07086647 0.70948839 0.69928306 -0.08734667 0.8556177 0.51694155 -0.02626385 0.88350517 -0.46023643 -0.08718403 0.88353825 -0.46017838 -0.08715515 0.88354075 -0.46017584 -0.08714408 0.88359368 -0.46028256 -0.08603706 0.88360232 -0.46020827 -0.08634377 0.88361442 -0.46003014 -0.08716564 0.88362676 -0.46001342 -0.08712858 0.88362896 -0.4600133 -0.08710762 0.88363105 -0.45999393 -0.08718765 0.88363189 -0.45998731 -0.08721395 0.88363338 -0.46000168 -0.08712295 0.88363433 -0.45998856 -0.08718277 0.88363475 -0.45999095 -0.08716585 0.88363522 -0.45997554 -0.08724234 0.8836357 -0.45998809 -0.08717092 0.88363612 -0.45996577 -0.08728483 0.88363814 -0.4599857 -0.08715966 0.88363844 -0.45998746 -0.08714747 0.88363868 -0.45998529 -0.08715528 0.88363886 -0.45998818 -0.08713908 0.88363981 -0.45998666 -0.08713718 0.88363987 -0.45998663 -0.08713725 0.88364005 -0.45999131 -0.08711039 0.88364118 -0.45998129 -0.08715256 0.8836416 -0.45998129 -0.08714879 0.88364387 -0.45996103 -0.08723234 0.88364488 -0.45996577 -0.08719599 0.88364697 -0.45996904 -0.08715828 0.8836481 -0.45994022 -0.08729834 0.88365144 -0.4599717 -0.08709951 0.88365448 -0.45995352 -0.08716381 0.88365543 -0.45991865 -0.08733766 0.88366687 -0.45992732 -0.08717655 0.88366693 -0.45992488 -0.08718766 0.88367188 -0.45992744 -0.08712562 0.88367379 -0.45993233 -0.08708013 0.88367945 -0.45993134 -0.08702797 0.88373625 -0.45979613 -0.08716534 0.88373792 -0.45979702 -0.08714396 0.91071278 -0.40374085 0.08715227 0.91071868 -0.40374351 0.08707815 0.91079575 -0.40351489 0.08733252 0.91081887 -0.40349898 0.08716365 0.91082525 -0.4034805 0.08718305 0.91082549 -0.40349764 0.0871004 0.91082656 -0.40348366 0.0871548 0.91082728 -0.40348092 0.08715986 0.91082782 -0.4034752 0.08718156 0.91082799 -0.40348428 0.08713695 0.91082817 -0.40347818 0.08716365 0.91082919 -0.40347579 0.0871647 0.91083163 -0.40379357 0.08565355 0.91083181 -0.40341935 0.0873965 0.91083241 -0.40346563 0.08717743 0.91083306 -0.40345943 0.0871985 0.91083753 -0.40345672 0.08716469 0.91084456 -0.40345389 0.08710331 0.91084677 -0.40341344 0.08726837 0.91085356 -0.40342024 0.08716609 0.9108547 -0.40343669 0.08707815 0.91085988 -0.40341926 0.08710473</float_array>
          <technique_common>
            <accessor source="#normals-array" count="713" stride="3">
              <param name="X" type="float" />
              <param name="Y" type="float" />
              <param name="Z" type="float" />
            </accessor>
          </technique_common>
        </source>
        <vertices id="vertices">
          <input semantic="POSITION" source="#positions" />
        </vertices>
        <triangles count="720" material="MATERIAL">
          <input semantic="VERTEX" source="#vertices" offset="0" />
          <input semantic="NORMAL" source="#normals" offset="1" />
          <p>0 186 1 186 2 186 0 187 3 187 1 187 4 507 5 507 6 507 5 494 7 494 6 494 6 406 7 406 8 406 7 172 9 172 8 172 7 163 5 163 9 163 10 380 11 380 12 380 9 401 13 401 12 401 13 391 10 391 12 391 11 366 14 366 12 366 14 471 15 471 12 471 16 445 15 445 14 445 16 448 17 448 15 448 17 405 5 405 15 405 9 416 18 416 13 416 19 466 18 466 9 466 5 422 19 422 9 422 20 410 5 410 17 410 19 392 5 392 20 392 12 546 15 546 21 546 15 512 22 512 21 512 22 208 12 208 21 208 22 209 23 209 12 209 12 409 24 409 25 409 24 384 26 384 25 384 26 368 27 368 25 368 27 473 28 473 25 473 29 447 28 447 27 447 12 387 30 387 24 387 29 400 23 400 28 400 23 367 31 367 12 367 31 388 30 388 12 388 32 414 23 414 29 414 33 411 23 411 32 411 23 470 33 470 31 470 25 538 28 538 34 538 28 493 35 493 34 493 34 404 35 404 36 404 35 168 25 168 36 168 35 167 28 167 25 167 25 403 0 403 2 403 25 402 28 402 0 402 1 662 25 662 2 662 37 665 4 665 1 665 9 680 12 680 1 680 4 655 9 655 1 655 12 659 25 659 1 659 25 653 34 653 36 653 9 652 4 652 8 652 4 687 6 687 8 687 37 684 38 684 4 684 37 528 39 528 38 528 39 533 40 533 38 533 38 408 5 408 4 408 38 407 40 407 5 407 28 41 3 41 0 41 28 45 39 45 3 45 23 42 39 42 28 42 22 51 15 51 23 51 15 52 39 52 23 52 5 44 39 44 15 44 40 43 39 43 5 43 41 531 42 531 43 531 44 534 41 534 43 534 45 510 46 510 47 510 48 509 45 509 47 509 45 301 48 301 49 301 46 213 49 213 47 213 46 164 45 164 49 164 50 347 51 347 52 347 53 299 47 299 52 299 51 253 53 253 52 253 50 292 54 292 51 292 55 273 47 273 53 273 50 325 56 325 54 325 57 285 47 285 55 285 46 319 58 319 50 319 58 323 56 323 50 323 57 313 59 313 47 313 59 333 46 333 47 333 46 254 59 254 58 254 60 530 50 530 52 530 61 527 60 527 52 527 60 306 61 306 62 306 63 310 60 310 62 310 64 184 62 184 65 184 64 182 63 182 62 182 66 259 67 259 68 259 67 342 69 342 68 342 69 340 70 340 68 340 70 315 65 315 68 315 71 320 65 320 70 320 66 265 72 265 67 265 73 318 65 318 71 318 64 322 74 322 66 322 74 326 72 326 66 326 73 328 75 328 65 328 75 269 64 269 65 269 76 245 64 245 75 245 64 335 76 335 74 335 77 492 66 492 68 492 78 537 77 537 68 537 66 169 78 169 79 169 66 170 77 170 78 170 80 266 81 266 82 266 81 247 83 247 82 247 84 312 79 312 82 312 83 346 84 346 82 346 85 321 79 321 84 321 80 272 86 272 81 272 66 300 87 300 80 300 87 294 86 294 80 294 88 332 79 332 85 332 88 348 66 348 79 348 89 327 66 327 88 327 66 250 89 250 87 250 90 513 80 513 82 513 91 536 90 536 82 536 90 303 91 303 92 303 93 305 90 305 92 305 80 214 92 214 82 214 80 191 93 191 92 191 94 338 95 338 96 338 95 260 97 260 96 260 97 314 82 314 96 314 94 353 98 353 95 353 99 295 82 295 97 295 94 331 100 331 98 331 80 311 100 311 94 311 101 298 82 298 99 298 101 296 102 296 82 296 102 267 80 267 82 267 80 297 103 297 100 297 80 336 102 336 103 336 104 532 94 532 96 532 105 529 104 529 96 529 106 304 105 304 107 304 106 304 104 304 105 304 108 181 107 181 109 181 108 183 106 183 107 183 80 40 94 40 110 40 42 50 80 50 110 50 108 38 111 38 110 38 94 57 108 57 110 57 94 56 106 56 108 56 94 39 104 39 106 39 80 55 90 55 93 55 42 49 66 49 80 49 42 47 64 47 66 47 42 53 50 53 64 53 50 54 63 54 64 54 50 54 60 54 63 54 42 46 46 46 50 46 42 48 41 48 46 48 41 302 44 302 47 302 46 309 41 309 47 309 112 657 109 657 113 657 109 688 96 688 113 688 96 681 82 681 113 681 82 664 43 664 113 664 107 686 105 686 109 686 105 686 96 686 109 686 92 689 91 689 82 689 79 667 43 667 82 667 78 654 68 654 79 654 68 656 43 656 79 656 65 669 43 669 68 669 52 683 43 683 65 683 61 685 52 685 65 685 62 690 61 690 65 690 47 677 43 677 52 677 49 682 48 682 47 682 44 660 43 660 47 660 111 307 109 307 112 307 108 308 109 308 111 308 110 180 112 180 113 180 110 185 111 185 112 185 114 658 115 658 116 658 115 674 117 674 116 674 118 671 119 671 114 671 119 668 115 668 114 668 119 673 117 673 115 673 118 672 117 672 119 672 113 341 120 341 121 341 116 251 113 251 121 251 116 252 110 252 113 252 43 334 120 334 113 334 116 248 42 248 110 248 117 243 42 243 116 243 43 339 117 339 120 339 42 352 117 352 43 352 121 675 120 675 122 675 120 670 123 670 122 670 1 385 124 385 122 385 37 456 1 456 122 456 123 458 37 458 122 458 3 369 125 369 124 369 1 386 3 386 124 386 39 370 125 370 3 370 123 441 39 441 37 441 125 439 39 439 123 439 124 679 126 679 127 679 125 676 126 676 124 676 128 666 129 666 127 666 126 663 128 663 127 663 125 661 128 661 126 661 125 678 129 678 128 678 129 463 130 463 127 463 129 362 131 362 130 362 124 179 116 179 122 179 116 188 121 188 122 188 130 227 124 227 127 227 130 178 116 178 124 178 132 177 116 177 130 177 132 226 114 226 116 226 133 343 118 343 114 343 132 237 133 237 114 237 120 535 125 535 123 535 117 526 125 526 120 526 125 553 131 553 129 553 117 518 131 518 125 518 117 516 133 516 131 516 118 552 133 552 117 552 134 498 135 498 136 498 134 501 137 501 135 501 138 195 139 195 140 195 141 224 138 224 140 224 142 279 138 279 141 279 139 523 141 523 140 523 139 521 142 521 141 521 143 293 144 293 140 293 144 268 139 268 140 268 145 283 146 283 140 283 146 288 143 288 140 288 147 257 139 257 144 257 148 262 139 262 147 262 148 290 149 290 139 290 149 286 150 286 139 286 150 246 151 246 145 246 151 289 152 289 145 289 152 264 146 264 145 264 153 316 150 316 149 316 151 354 150 354 153 354 154 196 150 196 145 196 155 223 154 223 145 223 156 280 154 280 155 280 150 520 155 520 145 520 150 522 156 522 155 522 157 351 150 351 145 351 158 241 157 241 145 241 159 274 160 274 145 274 160 329 158 329 145 329 161 284 150 284 157 284 162 287 150 287 161 287 162 270 163 270 150 270 159 291 164 291 160 291 163 239 165 239 159 239 165 271 164 271 159 271 166 317 163 317 162 317 165 355 163 355 166 355 167 217 163 217 159 217 168 210 167 210 159 210 169 277 167 277 168 277 170 278 169 278 168 278 171 543 170 543 159 543 171 502 169 502 170 502 135 282 171 282 159 282 135 281 137 281 171 281 139 27 134 27 172 27 173 0 139 0 172 0 138 4 142 4 139 4 150 30 134 30 139 30 154 6 156 6 150 6 163 28 134 28 150 28 167 5 169 5 163 5 169 3 171 3 163 3 171 8 134 8 163 8 137 31 134 31 171 31 173 204 172 204 174 204 175 203 173 203 174 203 140 276 173 276 175 276 140 275 139 275 173 275 136 698 159 698 174 698 145 705 140 705 174 705 140 707 175 707 174 707 159 693 145 693 174 693 159 710 170 710 168 710 136 701 135 701 159 701 176 203 177 203 178 203 177 202 179 202 178 202 180 201 181 201 182 201 181 205 183 205 182 205 183 428 184 428 182 428 183 432 185 432 184 432 185 500 186 500 184 500 185 503 187 503 186 503 187 379 188 379 186 379 188 457 189 457 186 457 189 450 190 450 186 450 190 437 191 437 186 437 187 418 192 418 188 418 193 438 191 438 190 438 194 420 192 420 187 420 195 421 194 421 187 421 196 395 195 395 191 395 193 429 196 429 191 429 195 460 197 460 194 460 197 389 195 389 196 389 191 193 195 193 198 193 195 192 199 192 198 192 199 525 200 525 198 525 199 487 195 487 200 487 195 390 201 390 200 390 201 467 202 467 200 467 202 453 203 453 200 453 203 419 204 419 200 419 195 398 205 398 201 398 206 413 204 413 203 413 207 397 205 397 195 397 208 440 207 440 195 440 206 412 209 412 204 412 209 376 208 376 204 376 208 443 210 443 207 443 210 468 208 468 209 468 204 190 208 190 211 190 208 175 212 175 211 175 212 423 213 423 211 423 212 491 214 491 213 491 212 488 208 488 214 488 215 454 216 454 214 454 208 415 215 415 214 415 216 417 217 417 214 417 217 427 218 427 214 427 208 394 219 394 215 394 208 393 220 393 219 393 221 449 218 449 217 449 222 434 223 434 208 434 223 436 220 436 208 436 221 459 224 459 218 459 224 378 222 378 218 378 222 444 225 444 223 444 225 462 222 462 224 462 218 211 222 211 226 211 222 197 227 197 226 197 227 524 228 524 226 524 227 506 229 506 228 506 229 372 230 372 228 372 230 474 231 474 228 474 231 455 232 455 228 455 233 435 234 435 228 435 232 451 233 451 228 451 229 399 235 399 230 399 236 433 235 433 229 433 237 446 238 446 234 446 238 461 236 461 234 461 233 442 237 442 234 442 236 452 239 452 235 452 236 375 238 375 239 375 234 222 236 222 240 222 236 216 241 216 240 216 241 430 242 430 240 430 242 542 234 542 240 542 242 519 243 519 234 519 180 694 176 694 178 694 228 695 244 695 176 695 200 696 204 696 176 696 204 699 214 699 176 699 214 704 218 704 176 704 218 703 228 703 176 703 180 709 186 709 176 709 186 706 191 706 176 706 191 700 200 700 176 700 184 712 180 712 182 712 184 712 186 712 180 712 198 697 200 697 191 697 213 692 204 692 211 692 213 702 214 702 204 702 226 691 228 691 218 691 234 708 244 708 228 708 245 711 244 711 234 711 179 431 181 431 178 431 181 424 180 424 178 424 177 1 181 1 179 1 246 9 229 9 177 9 208 12 195 12 177 12 222 10 208 10 177 10 229 11 222 11 177 11 187 35 181 35 177 35 195 2 187 2 177 2 187 36 185 36 183 36 181 37 187 37 183 37 222 7 229 7 227 7 246 34 236 34 229 34 243 20 242 20 241 20 236 20 243 20 241 20 246 14 243 14 236 14 246 25 247 25 243 25 243 426 245 426 234 426 247 425 245 425 243 425 247 501 244 501 245 501 247 499 246 499 244 499 248 19 249 19 250 19 251 16 249 16 248 16 252 13 251 13 248 13 251 24 253 24 250 24 249 18 251 18 250 18 252 32 253 32 251 32 254 383 177 383 248 383 177 371 176 371 248 371 176 472 252 472 248 472 244 469 252 469 176 469 254 382 246 382 177 382 255 377 246 377 254 377 246 465 255 465 252 465 244 464 246 464 252 464 256 22 257 22 254 22 257 23 255 23 254 23 174 263 256 263 258 263 136 344 174 344 258 344 259 345 136 345 258 345 174 261 172 261 256 261 172 255 257 255 256 255 134 256 257 256 172 256 259 324 134 324 136 324 259 330 257 330 134 330 260 26 261 26 258 26 261 15 262 15 258 15 262 29 259 29 258 29 263 17 262 17 260 17 262 21 261 21 260 21 263 33 259 33 262 33 264 357 260 357 265 357 264 249 263 249 260 249 252 514 264 514 266 514 253 482 252 482 266 482 259 508 264 508 252 508 257 505 259 505 252 505 255 497 257 497 252 497 259 481 263 481 264 481 250 374 253 374 267 374 253 475 266 475 267 475 248 161 250 161 267 161 265 215 248 215 267 215 258 206 254 206 248 206 265 212 258 212 248 212 260 157 258 157 265 157 256 200 254 200 258 200 268 596 269 596 270 596 271 592 268 592 270 592 272 609 268 609 271 609 268 612 273 612 269 612 274 582 268 582 272 582 268 632 275 632 273 632 276 618 268 618 274 618 268 575 277 575 275 575 278 578 268 578 276 578 268 622 279 622 277 622 280 599 268 599 278 599 268 619 281 619 279 619 282 646 268 646 280 646 268 572 283 572 281 572 284 590 268 590 282 590 268 645 285 645 283 645 286 581 268 581 284 581 268 614 287 614 285 614 288 620 268 620 286 620 289 594 290 594 268 594 290 574 287 574 268 574 291 642 292 642 268 642 292 597 293 597 268 597 293 604 289 604 268 604 294 595 295 595 268 595 295 628 296 628 268 628 296 577 291 577 268 577 297 608 298 608 268 608 298 616 299 616 268 616 299 621 294 621 268 621 300 580 301 580 268 580 301 617 302 617 268 617 302 600 297 600 268 600 288 569 303 569 268 569 303 644 304 644 268 644 304 627 300 627 268 627 305 583 306 583 307 583 308 571 305 571 307 571 309 568 308 568 307 568 305 566 310 566 306 566 311 567 309 567 307 567 310 603 312 603 306 603 313 573 311 573 307 573 314 602 313 602 307 602 312 625 315 625 306 625 316 576 313 576 314 576 317 638 318 638 306 638 315 626 317 626 306 626 319 613 316 613 314 613 320 565 318 565 317 565 321 611 318 611 320 611 322 615 319 615 314 615 323 587 318 587 321 587 324 605 322 605 314 605 325 606 324 606 314 606 326 607 318 607 323 607 327 591 324 591 325 591 326 601 328 601 318 601 329 586 328 586 326 586 330 639 327 639 325 639 331 598 328 598 329 598 325 585 332 585 330 585 333 593 328 593 331 593 325 647 334 647 332 647 335 630 336 630 333 630 336 624 328 624 333 624 337 589 334 589 325 589 337 588 338 588 334 588 339 634 336 634 335 634 337 623 340 623 338 623 341 641 342 641 339 641 342 637 336 637 339 637 337 633 343 633 340 633 344 640 342 640 341 640 337 610 345 610 343 610 345 629 346 629 343 629 347 636 342 636 344 636 345 635 348 635 346 635 349 570 350 570 347 570 350 631 342 631 347 631 345 643 351 643 348 643 351 579 350 579 349 579 345 584 350 584 351 584 352 234 353 234 354 234 355 189 356 189 353 189 355 194 357 194 356 194 357 58 358 58 356 58 306 145 359 145 307 145 359 142 360 142 307 142 361 146 359 146 306 146 362 147 361 147 306 147 360 155 363 155 307 155 363 162 314 162 307 162 364 152 362 152 306 152 363 166 365 166 314 166 318 171 366 171 306 171 366 158 364 158 306 158 367 173 366 173 318 173 365 219 354 219 314 219 368 198 367 198 318 198 369 229 370 229 314 229 370 235 325 235 314 235 354 228 369 228 314 228 371 221 368 221 318 221 370 349 372 349 325 349 328 240 373 240 318 240 373 231 371 231 318 231 372 358 374 358 325 358 375 337 373 337 328 337 374 381 376 381 325 381 377 364 375 364 328 364 376 476 378 476 325 476 378 359 356 359 325 359 356 490 337 490 325 490 336 484 379 484 328 484 379 479 377 479 328 479 356 504 358 504 337 504 380 486 379 486 336 486 342 540 381 540 336 540 381 496 380 496 336 496 358 548 382 548 337 548 382 551 345 551 337 551 383 539 381 539 342 539 382 554 384 554 345 554 385 550 383 550 342 550 384 560 386 560 345 560 350 558 385 558 342 558 386 650 387 650 345 650 387 648 350 648 345 648 388 559 385 559 350 559 387 563 388 563 350 563 354 220 389 220 369 220 354 244 353 244 389 244 353 360 390 360 389 360 390 545 356 545 378 545 353 478 356 478 390 478 391 112 392 112 393 112 394 116 391 116 393 116 395 113 391 113 394 113 391 97 396 97 392 97 397 79 391 79 395 79 391 111 398 111 396 111 399 84 391 84 397 84 391 80 400 80 398 80 401 136 391 136 399 136 391 77 402 77 400 77 403 100 391 100 401 100 391 91 404 91 402 91 405 130 391 130 403 130 391 138 406 138 404 138 407 94 391 94 405 94 391 60 408 60 406 60 409 62 391 62 407 62 391 141 410 141 408 141 411 78 391 78 409 78 412 110 413 110 391 110 413 59 410 59 391 59 414 134 415 134 391 134 415 98 416 98 391 98 416 118 412 118 391 118 417 115 418 115 391 115 418 74 419 74 391 74 419 93 414 93 391 93 420 96 421 96 391 96 421 85 422 85 391 85 422 83 417 83 391 83 423 76 424 76 391 76 424 87 425 87 391 87 425 104 420 104 391 104 411 137 426 137 391 137 426 61 427 61 391 61 427 140 423 140 391 140 428 86 429 86 430 86 431 66 428 66 430 66 432 75 431 75 430 75 429 108 433 108 430 108 434 71 431 71 432 71 435 128 436 128 430 128 433 132 435 132 430 132 437 65 434 65 432 65 435 133 438 133 436 133 439 67 437 67 432 67 440 123 441 123 436 123 438 126 440 126 436 126 442 64 439 64 432 64 443 73 442 73 432 73 444 129 441 129 440 129 445 82 441 82 444 82 446 89 442 89 443 89 447 125 441 125 445 125 448 122 446 122 443 122 449 105 441 105 447 105 450 109 448 109 443 109 451 117 450 117 443 117 449 119 452 119 441 119 453 127 452 127 449 127 454 70 450 70 451 70 455 107 452 107 453 107 451 139 456 139 454 139 457 81 456 81 451 81 458 131 452 131 455 131 457 69 459 69 456 69 460 88 452 88 458 88 457 135 461 135 459 135 462 103 463 103 460 103 463 102 452 102 460 102 457 63 464 63 461 63 465 99 463 99 462 99 466 92 464 92 457 92 466 106 467 106 464 106 468 101 463 101 465 101 466 120 469 120 467 120 470 121 463 121 468 121 466 68 471 68 469 68 472 72 473 72 470 72 473 114 463 114 470 114 466 124 473 124 471 124 473 90 474 90 471 90 474 95 473 95 472 95 475 651 476 651 477 651 430 144 478 144 479 144 480 143 430 143 479 143 481 148 430 148 480 148 430 150 482 150 478 150 432 149 430 149 481 149 483 154 432 154 481 154 436 153 484 153 482 153 430 151 436 151 482 151 485 160 432 160 483 160 436 159 486 159 484 159 487 176 432 176 485 176 441 165 488 165 486 165 436 174 441 174 486 174 489 207 432 207 487 207 443 199 432 199 489 199 490 225 443 225 489 225 441 218 491 218 488 218 492 233 443 233 490 233 493 156 494 156 491 156 441 232 493 232 491 232 494 238 495 238 491 238 496 356 443 356 492 356 451 350 443 350 496 350 497 396 451 396 496 396 494 365 498 365 495 365 499 480 451 480 497 480 494 363 500 363 498 363 457 483 451 483 499 483 501 489 457 489 499 489 500 515 502 515 498 515 502 361 452 361 498 361 452 485 503 485 498 485 504 511 457 511 501 511 452 495 463 495 503 495 505 541 457 541 504 541 463 517 506 517 503 517 466 544 457 544 505 544 507 547 466 547 505 547 463 549 508 549 506 549 441 230 509 230 493 230 510 555 466 555 507 555 476 562 466 562 510 562 463 556 477 556 508 556 463 557 473 557 477 557 473 561 466 561 476 561 475 649 473 649 476 649 473 564 475 564 477 564 441 236 511 236 509 236 441 258 512 258 511 258 441 242 452 242 512 242 452 373 513 373 512 373 513 477 452 477 502 477</p>
        </triangles>
      </mesh>
    </geometry>
  </library_geometries>
  <library_visual_scenes>
    <visual_scene id="Scene" name="Scene">
      <node id="Object" name="Object" type="NODE">
        <instance_geometry url="#geometry">
          <bind_material>
            <technique_common>
              <instance_material symbol="MATERIAL" target="#mat" />
            </technique_common>
          </bind_material>
        </instance_geometry>
      </node>
    </visual_scene>
  </library_visual_scenes>
  <scene>
    <instance_visual_scene url="#Scene" />
  </scene>
</COLLADA>