<?xml version='1.0' encoding='utf-8'?>
<COLLADA xmlns="http://www.collada.org/2005/11/COLLADASchema" version="1.4.1">
  <asset>
    <contributor>
      <authoring_tool>RM27 reviewed Blender visual export</authoring_tool>
    </contributor>
    <created>2026-10-07T00:00:00Z</created>
    <modified>2026-10-07T00:00:00Z</modified>
    <unit name="meter" meter="1" />
    <up_axis>Z_UP</up_axis>
  </asset>
  <library_effects>
    <effect id="fx">
      <profile_COMMON>
        <technique sid="common">
          <phong>
            <emission>
              <color>0 0 0 1</color>
            </emission>
            <ambient>
              <color>0.282352941 0.266666667 0.176470588 1</color>
            </ambient>
            <diffuse>
              <color>0.282352941 0.266666667 0.176470588 1</color>
            </diffuse>
            <specular>
              <color>0.08 0.08 0.08 1</color>
            </specular>
            <shininess>
              <float>12</float>
            </shininess>
          </phong>
        </technique>
      </profile_COMMON>
    </effect>
  </library_effects>
  <library_materials>
    <material id="mat" name="source_color">
      <instance_effect url="#fx" />
    </material>
  </library_materials>
  <library_geometries>
    <geometry id="geometry" name="geometry">
      <mesh>
        <source id="positions">
          <float_array id="positions-array" count="738">0.679701447487 1.88021457195 -0.63060259819 0.679323971272 1.88049697876 -0.632544994354 0.679674804211 1.88014507294 -0.632369875908 0.679369032383 1.88059294224 -0.630491375923 0.680192530155 1.88062405586 -0.633928954601 0.680204629898 1.88075649738 -0.629060149193 0.680108249187 1.88123571873 -0.634382784367 0.679932951927 1.88119518757 -0.628927052021 0.681133270264 1.88153505325 -0.635120093822 0.681345641613 1.88244569302 -0.635497033596 0.681189775467 1.88176846504 -0.62796574831 0.681387722492 1.88268196583 -0.627631306648 0.682842552662 1.8832321167 -0.635628402233 0.682127356529 1.88271594048 -0.627589643002 0.683076560497 1.88417863846 -0.635414600372 0.683335363865 1.88391911983 -0.627757668495 0.683101177216 1.8843909502 -0.62782728672 0.684584915638 1.88500523567 -0.634392082691 0.684459745884 1.88559687138 -0.634008944035 0.684581816196 1.88513696194 -0.628922820091 0.684484660625 1.88573670387 -0.629338681698 0.685297012329 1.8857717514 -0.632183015347 0.685182154179 1.88569843769 -0.630484104156 0.684968411922 1.88616275787 -0.631679952145 0.676282942295 1.87753736973 -0.629255354404 0.676101922989 1.87729799747 -0.631590485573 0.676289260387 1.87743473053 -0.633671462536 0.677177965641 1.87825620174 -0.636372923851 0.676854729652 1.87815594673 -0.627341091633 0.677839279175 1.8791872263 -0.625466883183 0.678329229355 1.87936496735 -0.638100981712 0.67957341671 1.8805809021 -0.639262318611 0.679016172886 1.88039398193 -0.624230504036 0.68054074049 1.88194131851 -0.623319745064 0.681171894073 1.88216197491 -0.639960110188 0.682649314404 1.88363564014 -0.64009642601 0.682626664639 1.88403296471 -0.623107671738 0.684651374817 1.88603723049 -0.623918890953 0.684671401978 1.88567566872 -0.639374673367 0.685895323753 1.88725304604 -0.625080108643 0.686385810375 1.88743138313 -0.637713432312 0.687047362328 1.88836121559 -0.626809418201 0.687583684921 1.8886885643 -0.635315060616 0.687724411488 1.88899302483 -0.628683805466 0.688120305538 1.88933157921 -0.630980193615 0.688049614429 1.88920998573 -0.633066296577 0.676591336727 1.87713181973 -0.629501461983 0.676477015018 1.87694525719 -0.632453918457 0.676853716373 1.87727105618 -0.634488523006 0.677641451359 1.878008008 -0.636581003666 0.677416145802 1.87802445889 -0.626793265343 0.679165780544 1.87948060036 -0.638637900352 0.678521990776 1.87917196751 -0.625071406364 0.679739296436 1.88041806221 -0.623908698559 0.681097507477 1.88138270378 -0.63985234499 0.681318819523 1.88201498985 -0.623212218285 0.683192789555 1.88347291946 -0.640064179897 0.682793438435 1.88349270821 -0.623075902462 0.684620022774 1.88491201401 -0.63956797123 0.684832930565 1.88551402092 -0.623797595501 0.686080157757 1.88639903069 -0.638497054577 0.686248779297 1.88689899445 -0.625071406364 0.687519550323 1.88789105415 -0.63636136055 0.687290489674 1.88790357113 -0.626583516598 0.688340783119 1.88877868652 -0.633659482002 0.688077926636 1.88863897324 -0.628674983978 0.688453793526 1.88896560669 -0.63070243597 0.673047423363 1.89590895176 -0.642057597637 0.674808502197 1.89414799213 -0.64149838686 0.674814879894 1.89414203167 -0.642013907433 0.673040986061 1.89591598511 -0.64154201746 0.669505596161 1.89237999916 -0.64154201746 0.669992089272 1.89285004139 -0.642199993134 0.669511795044 1.8923740387 -0.642057597637 0.670047521591 1.89291799068 -0.641707599163 0.671283423901 1.89413797855 -0.642359375954 0.671277225018 1.89414405823 -0.641859591007 0.672570705414 1.89542901516 -0.642199993134 0.672503173351 1.89537394047 -0.641707599163 0.671272993088 1.89061295986 -0.64149838686 0.671279370785 1.89060604572 -0.642013907433 0.673081994057 1.88987898827 -0.641632080078 0.672739088535 1.88989198208 -0.642102003098 0.672959983349 1.88987398148 -0.642125487328 0.673146009445 1.88987994194 -0.641639411449 0.673152327538 1.88987398148 -0.642146289349 0.673562586308 1.88992500305 -0.642189919949 0.672732889652 1.88989794254 -0.641592621803 0.67355632782 1.88993096352 -0.641685426235 0.672328174114 1.88998401165 -0.641550421715 0.672334492207 1.8899769783 -0.642062306404 0.673958778381 1.89004194736 -0.642227709293 0.673952579498 1.89004802704 -0.641725301743 0.671943128109 1.89013397694 -0.641518175602 0.671949505806 1.89012801647 -0.642032027245 0.674330115318 1.89022302628 -0.642255604267 0.674323916435 1.89022898674 -0.641754806042 0.671588182449 1.89034605026 -0.641499876976 0.671594500542 1.89033901691 -0.642014980316 0.674666285515 1.89046299458 -0.642270326614 0.674660205841 1.89046895504 -0.641770303249 0.674812197685 1.89060902596 -0.641772270203 0.674818396568 1.89060294628 -0.642272174358 0.674952089787 1.8907610178 -0.641770303249 0.67495828867 1.89075505733 -0.642270326614 0.675198018551 1.89109098911 -0.642255604267 0.675191819668 1.89109694958 -0.641754806042 0.675378978252 1.89146196842 -0.642227709293 0.675372898579 1.89146900177 -0.641725301743 0.675496280193 1.89185905457 -0.642189919949 0.67549008131 1.89186501503 -0.641685426235 0.675546824932 1.89226901531 -0.642146289349 0.675540626049 1.89227497578 -0.641639411449 0.675542294979 1.89233899117 -0.641632080078 0.675547122955 1.89246094227 -0.642125487328 0.67552292347 1.89268803596 -0.641592621803 0.675529181957 1.89268195629 -0.642102003098 0.67544400692 1.89308702946 -0.642062306404 0.675437629223 1.89309298992 -0.641550421715 0.675293505192 1.89347195625 -0.642032027245 0.675287008286 1.89347803593 -0.641518175602 0.675081789494 1.89382696152 -0.642014980316 0.675075471401 1.89383304119 -0.641499876976 -0.684351980686 1.4018933773 -0.552462339401 -0.683743476868 1.40185129642 -0.554739832878 -0.683956921101 1.4015775919 -0.552314698696 -0.6839235425 1.40238821507 -0.555168807507 -0.683464109898 1.4020293951 -0.550676286221 -0.683445036411 1.40273880959 -0.549968242645 -0.682581484318 1.40288329124 -0.549474954605 -0.682775020599 1.40285611153 -0.556248664856 -0.682769536972 1.40357637405 -0.556534707546 -0.681371092796 1.40427875519 -0.55699133873 -0.681623399258 1.40453279018 -0.548852860928 -0.680661857128 1.40478718281 -0.548853993416 -0.681614041328 1.40474200249 -0.55695438385 -0.68016409874 1.40617990494 -0.556456923485 -0.679946184158 1.40569245815 -0.556536138058 -0.68020683527 1.40596091747 -0.549311161041 -0.678794085979 1.40669548512 -0.550508797169 -0.678769469261 1.40683543682 -0.555178105831 -0.679243683815 1.40694987774 -0.550377964973 -0.678935945034 1.40736496449 -0.554724037647 -0.67866486311 1.4075769186 -0.552312791348 -0.678285777569 1.40726149082 -0.552840292454 -0.686971247196 1.39863634109 -0.555261552334 -0.687152326107 1.39839696884 -0.55292648077 -0.686965584755 1.39853262901 -0.550848901272 -0.686076521873 1.39935493469 -0.548144578934 -0.686399519444 1.39925503731 -0.557175815105 -0.685415506363 1.40028560162 -0.559049189091 -0.684592962265 1.40078651905 -0.546018362045 -0.684238016605 1.4014929533 -0.560286581516 -0.683099091053 1.40225303173 -0.544940292835 -0.682713925838 1.40304005146 -0.56119710207 -0.681655704975 1.4036847353 -0.544443547726 -0.681246817112 1.40451300144 -0.561425209045 -0.679994881153 1.40534794331 -0.54455691576 -0.679591417313 1.40616071224 -0.561128258705 -0.678582549095 1.40677499771 -0.545142352581 -0.677692532539 1.40802764893 -0.559836089611 -0.677198112011 1.40819096565 -0.54641610384 -0.6766051054 1.40907895565 -0.558389306068 -0.676194369793 1.4092310667 -0.547926723957 -0.675680100918 1.40995514393 -0.556410253048 -0.675458073616 1.41001999378 -0.550019681454 -0.6752409935 1.41034495831 -0.554402172565 -0.675131797791 1.41039586067 -0.552052617073 -0.687518358231 1.39875340462 -0.553529262543 -0.687266945839 1.39893186092 -0.550582408905 -0.687043488026 1.39929878712 -0.556400716305 -0.686319828033 1.39981269836 -0.547918736935 -0.685899078846 1.40050363541 -0.558853328228 -0.68479090929 1.40129113197 -0.545857489109 -0.684224903584 1.40222120285 -0.56058883667 -0.683452606201 1.40260696411 -0.544931590557 -0.682642400265 1.40382099152 -0.561287403107 -0.681820631027 1.40422570705 -0.544411718845 -0.68116748333 1.4052990675 -0.56142359972 -0.679743528366 1.40631055832 -0.544715583324 -0.679538309574 1.40691494942 -0.560903906822 -0.678199589252 1.40823125839 -0.559977829456 -0.677882969379 1.40820300579 -0.54599994421 -0.676958620548 1.40943300724 -0.55838060379 -0.676442503929 1.40969610214 -0.548136711121 -0.67611593008 1.41023278236 -0.556641936302 -0.67562097311 1.41058409214 -0.550837218761 -0.675506651402 1.4107708931 -0.553789556026 -0.673838198185 1.39356803894 -0.562834382057 -0.67207711935 1.39180696011 -0.563393473625 -0.672070682049 1.39180099964 -0.562877893448 -0.673844516277 1.39357495308 -0.56334990263 -0.671532809734 1.39234304428 -0.563043475151 -0.671600282192 1.39228701591 -0.563535928726 -0.670901179314 1.39297699928 -0.563160002232 -0.670313000679 1.3935790062 -0.563695371151 -0.670306921005 1.39357304573 -0.5631955266 -0.669711470604 1.39416694641 -0.563160002232 -0.669021785259 1.39486598969 -0.563535928726 -0.66907709837 1.39479804039 -0.563043475151 -0.668535172939 1.39533603191 -0.562877893448 -0.668541491032 1.39534294605 -0.563393473625 -0.670309007168 1.39710998535 -0.56334990263 -0.670302629471 1.39710402489 -0.562834382057 -0.674105107784 1.39388298988 -0.562835872173 -0.674111485481 1.39389002323 -0.563350975513 -0.674316704273 1.39423894882 -0.562854111195 -0.67432308197 1.3942450285 -0.563367903233 -0.674467325211 1.39462399483 -0.562886416912 -0.674473583698 1.39462995529 -0.563398301601 -0.674552619457 1.39502799511 -0.562928497791 -0.67455881834 1.39503502846 -0.563437998295 -0.674571990967 1.39537703991 -0.562968015671 -0.674576818943 1.3952549696 -0.56346142292 -0.67457652092 1.39544796944 -0.563482224941 -0.674570202827 1.3954410553 -0.562975287437 -0.674519717693 1.39585196972 -0.563021421432 -0.674525976181 1.39585804939 -0.563525795937 -0.674402415752 1.39624798298 -0.56306129694 -0.674408614635 1.39625394344 -0.563563704491 -0.674221396446 1.39661896229 -0.56309068203 -0.674227714539 1.39662504196 -0.563591480255 -0.673981785774 1.39695501328 -0.563106298447 -0.673987925053 1.39696204662 -0.563606321812 -0.673841893673 1.39710700512 -0.563108205795 -0.673847973347 1.39711403847 -0.563608109951 -0.67062407732 1.39737701416 -0.563350975513 -0.670617699623 1.3973710537 -0.562835872173 -0.673689782619 1.39724695683 -0.563106298447 -0.673695981503 1.39725399017 -0.563606321812 -0.673353612423 1.39748704433 -0.56309068203 -0.673359692097 1.3974930048 -0.563591480255 -0.670979082584 1.39758896828 -0.563367903233 -0.670972824097 1.39758205414 -0.562854111195 -0.672982215881 1.39766800404 -0.56306129694 -0.672988414764 1.3976739645 -0.563563704491 -0.671364188194 1.39773905277 -0.563398301601 -0.671357810497 1.3977329731 -0.562886416912 -0.672585904598 1.39778494835 -0.563021421432 -0.672592222691 1.3977919817 -0.563525795937 -0.671768784523 1.39782500267 -0.563437998295 -0.671762526035 1.39781796932 -0.562928497791 -0.672175705433 1.39783596992 -0.562975287437 -0.672181904316 1.3978420496 -0.563482224941 -0.672111690044 1.39783799648 -0.562968015671 -0.671989619732 1.3978420496 -0.56346142292</float_array>
          <technique_common>
            <accessor source="#positions-array" count="246" stride="3">
              <param name="X" type="float" />
              <param name="Y" type="float" />
              <param name="Z" type="float" />
            </accessor>
          </technique_common>
        </source>
        <source id="normals">
          <float_array id="normals-array" count="939">-0.99995482 0.0025312 0.0091583 -0.99948573 0.02937914 0.01285755 -0.99834281 -0.05282114 0.02283685 -0.99670184 -0.08039957 0.01101659 -0.99224693 0.12348543 0.01405085 -0.99221581 0.123763 0.01380365 -0.97870982 -0.20504852 0.00907699 -0.97858793 -0.20560676 0.00957045 -0.9582873 0.28539523 0.01533095 -0.95825005 0.28552672 0.01521066 -0.93151045 -0.3636443 0.00715465 -0.93146515 -0.3637583 0.00725794 -0.89826977 0.43912849 0.01666362 -0.89808846 0.43951288 0.01629523 -0.85967076 -0.51083535 0.00366885 -0.85907841 -0.51182336 0.00460736 -0.85791403 -0.46400344 -0.22064535 -0.81428111 0.58018655 0.01815866 -0.81371826 0.58100128 0.01731924 -0.81328768 -0.57967865 0.05035613 -0.80451757 -0.40858921 0.43105268 -0.80297393 -0.44926342 0.39165688 -0.79239565 -0.56436473 -0.23152018 -0.78520495 -0.61607206 0.06251722 -0.76314485 -0.64244956 0.06977575 -0.76294357 -0.64646482 0.00061931 -0.76289457 -0.64652252 0.00067872 -0.74344552 -0.66710854 0.0474862 -0.73554611 0.67722273 0.01847359 -0.73540795 0.67737043 0.01855724 -0.72713125 -0.47085598 -0.49957451 -0.71710438 -0.69591939 0.03817834 -0.70723581 -0.70697731 -0.00081424 -0.7071861 -0.70702732 -0.00032886 -0.70716977 0.70681655 -0.01792797 -0.70716667 0.70681953 -0.01792874 -0.70712513 0.70687562 0.01734937 -0.70712245 0.7068848 0.01707949 -0.70709223 0.70690364 0.01754658 -0.70707601 0.70691556 0.01772014 -0.70706856 0.70692718 0.01754775 -0.70706576 0.70693141 0.01749588 -0.70706385 0.7069363 0.01737002 -0.70706052 0.70693725 0.01746763 -0.70705777 0.70693946 0.01749254 -0.70705026 0.70694327 0.01764002 -0.70704758 0.70695192 0.01739606 -0.70704412 -0.70716906 0.00073744 -0.70704252 0.7069537 0.01753165 -0.70702904 0.70697063 0.01738748 -0.70702839 0.70697182 -0.01736936 -0.70701867 0.70696849 -0.01789291 -0.70701766 0.70698076 0.01743793 -0.70701379 0.7069816 0.01756441 -0.70701003 0.70699048 0.017359 -0.70700949 0.70698822 0.01747049 -0.70700318 -0.70721 0.00065148 -0.70699888 0.70700186 0.01734792 -0.70699632 0.70700133 0.01747284 -0.70699412 0.70700455 0.01743443 -0.70699036 0.70700568 0.01754036 -0.70696813 0.70702869 0.01751151 -0.70696688 0.70703274 0.01739169 -0.70695883 0.70704412 0.01726118 -0.70695657 0.7070362 0.01767254 -0.70695609 0.70704406 -0.01736929 -0.70695353 0.70704544 0.01742344 -0.70694256 0.70705247 0.01757756 -0.70692915 0.70706683 0.0175408 -0.70692444 0.70704788 -0.01847162 -0.70691955 0.70707649 0.01753494 -0.70691109 0.70708728 0.0174505 -0.70687127 0.70712346 0.01759555 -0.70684075 0.7071594 0.0173691 -0.70683885 0.70716453 0.01723697 -0.70680249 0.70719939 0.01729638 -0.70672095 0.70726812 -0.01781856 -0.70631808 0.70769823 -0.01667363 -0.68435347 -0.68924439 -0.23791243 -0.68352908 -0.5703845 -0.4554663 -0.68350357 -0.56391174 0.46349367 -0.67737025 0.73540741 0.01858469 -0.67708981 0.73566163 0.01874185 -0.67426634 -0.3093687 0.67056388 -0.67153352 -0.58269656 -0.45772001 -0.66014534 -0.64931822 0.37761617 -0.64647293 -0.76293355 0.00223467 -0.64623088 -0.76313788 0.00249361 -0.63724172 -0.5489645 0.54088891 -0.63295001 -0.74268609 -0.21861321 -0.6290099 -0.63908517 -0.44262493 -0.61552906 -0.74002421 0.27108717 -0.61060524 -0.66352367 0.43231648 -0.58812582 -0.29464158 -0.75318944 -0.5855633 -0.76219243 0.27600425 -0.58525461 -0.79838687 -0.14161745 -0.5816561 0.81322098 0.0186497 -0.58163458 -0.59440273 0.55532557 -0.57973278 0.81463486 0.01673366 -0.55282432 -0.77924764 0.29522598 -0.54359061 -0.18217808 0.81934154 -0.5383746 -0.73862082 -0.40569937 -0.53264427 -0.74249673 -0.40618783 -0.52747285 -0.21698624 -0.82139486 -0.51289421 -0.85525852 -0.07397462 -0.51276505 -0.85852146 0.00359428 -0.51072359 -0.8597275 0.00547456 -0.50625646 -0.24801105 -0.82595092 -0.5028528 -0.5189957 -0.69121814 -0.49000838 -0.04373289 0.87061995 -0.48033276 -0.49736178 0.7224347 -0.45880741 -0.57719815 -0.67552811 -0.45461163 -0.55657238 -0.69538164 -0.44638735 -0.19123751 0.87416619 -0.43904275 0.89832228 0.01607458 -0.43898219 0.89835292 0.01602136 -0.42835698 -0.58582598 -0.68798119 -0.42198178 -0.34115821 -0.83996576 -0.42022589 -0.53762668 0.7310046 -0.39125896 -0.72018951 0.57292533 -0.38549259 -0.47815892 0.78915113 -0.3828643 -0.23851533 0.8924827 -0.3827669 -0.40256065 -0.83152533 -0.36478502 -0.93107057 0.00627248 -0.36230081 -0.93202388 0.0083343 -0.36027217 -0.65304053 -0.66613966 -0.35537168 -0.25997475 0.89784408 -0.35173219 -0.58856016 -0.72792953 -0.31837395 -0.0726611 -0.94517642 -0.28693056 0.95780146 0.01695051 -0.28436321 0.95860112 0.01488123 -0.27799809 -0.06936625 -0.95807374 -0.27762571 -0.67490298 0.68368846 -0.22246884 0.26681435 -0.9377194 -0.22199364 -0.54697442 0.80717891 -0.21903238 -0.12452098 -0.96773922 -0.20711491 -0.97827584 0.00892671 -0.20455016 -0.97879517 0.01092402 -0.19339713 0.01751028 0.98096436 -0.1389941 -0.45891488 -0.87754083 -0.12512217 0.99202174 0.01540079 -0.12331797 -0.22011574 0.96764749 -0.12251469 0.99237621 0.01339964 -0.12189754 -0.26410422 -0.95676011 -0.11775852 -0.36575279 -0.92323226 -0.1035879 0.39559951 0.91256261 -0.09693383 0.02898237 -0.99486876 -0.09584948 -0.23818804 0.96647781 -0.07807766 -0.99651319 0.02941919 -0.06429631 0.20105876 0.97746682 -0.0529667 -0.99853528 0.01103967 -0.04990703 0.1414884 0.98868108 -0.03755489 -0.33636522 0.94098258 -0.03168369 0.99949783 0.00037179 -0.02572855 0.11715287 0.99278057 -0.02469777 -0.28342441 0.95867646 -0.02212319 0.12273158 0.99219322 -0.0217235 0.13537371 0.99055648 -0.00129906 0.9999271 0.01200796 0.00127338 -0.9999299 0.01177422 0.01561521 -0.99985826 0.00628458 0.02557224 -0.16907914 -0.98527062 0.05578098 0.99835712 0.01309653 0.07413904 0.99689496 0.02653124 0.09688886 0.46384448 0.8806026 0.10099643 0.31210744 -0.94466323 0.10662765 0.20575349 -0.97277749 0.10828584 -0.40525293 0.90776879 0.12172567 -0.02077805 -0.99234635 0.12478743 -0.99209541 0.01322166 0.1248505 -0.99208683 0.01327008 0.13366485 -0.40547898 -0.90427899 0.14135422 -0.04985235 -0.98870313 0.15601128 0.17970841 -0.97127008 0.16363825 0.37565535 0.91219825 0.16872516 0.16599414 -0.97158515 0.17263301 -0.01943919 0.98479432 0.19457272 0.11662205 -0.97393054 0.20442295 0.97882086 0.01100099 0.20693938 0.97831202 0.00904114 0.22982532 0.56280792 -0.79399472 0.26122394 0.38471013 -0.88530236 0.27727705 0.57740378 0.76793391 0.2843675 -0.95860028 0.01485333 0.284688 -0.95850116 0.01511148 0.3020418 0.32373187 -0.89664286 0.30207106 0.67348695 -0.67466176 0.31263694 0.1007731 0.94451201 0.3357408 0.07779706 0.93873626 0.3408047 0.48979482 -0.80246705 0.3625524 0.93192798 0.00812478 0.36448804 0.93118531 0.00651848 0.36985844 0.6036498 0.70626593 0.39862227 0.14066802 -0.90626311 0.40346482 0.62038088 -0.67256498 0.43776309 0.57406294 -0.69196481 0.43904921 -0.89831823 0.01612627 0.43923438 -0.89822483 0.01628892 0.44168445 0.34162822 0.8295812 0.45701385 0.85366905 0.24977471 0.45933071 0.40528789 0.79041582 0.48171708 0.34459892 0.80572975 0.48373425 0.29597476 -0.82365054 0.48919165 0.28629738 0.82384783 0.49755853 0.8117047 -0.30589366 0.50864094 0.32221666 0.79841149 0.51058829 0.85980862 0.00535105 0.51249939 0.85868001 0.00359067 0.51777965 0.60505927 0.60482019 0.51846826 0.84476179 -0.13254479 0.53176636 0.36213812 -0.76555884 0.53225875 0.74606979 0.40010059 0.5367375 0.74229658 0.40113422 0.53875762 0.05666884 -0.84055275 0.540438 0.44053191 -0.71683908 0.55954307 0.47621495 0.67832941 0.56129003 0.72369921 -0.40151343 0.56467611 0.79220784 0.23140357 0.57046789 0.68345958 0.45546621 0.57624406 0.80728018 0.12744197 0.57880455 0.70754039 -0.40542802 0.58128613 -0.81352645 0.01676527 0.5813992 -0.8134433 0.01687811 0.58795512 0.80553222 -0.07366685 0.58947521 0.69652563 -0.4091101 0.62742871 0.0591796 0.7764219 0.64654768 0.76287311 0.00082235 0.64654833 0.76287258 0.00082167 0.67709374 -0.73569232 0.01734331 0.67770201 -0.73514003 0.01700317 0.68013006 0.42988026 -0.59382319 0.68733412 0.5806269 -0.43639919 0.6947934 0.46203208 0.55117017 0.70659155 -0.70741665 -0.01703005 0.70677418 -0.70722413 -0.01744667 0.7068004 -0.707192 0.01767911 0.70680261 -0.70722121 -0.0163777 0.70686001 -0.70714068 0.01734662 0.70690495 -0.70709383 0.01743021 0.7069236 -0.70707476 0.01744245 0.70694596 -0.70704943 0.01756302 0.70694613 -0.70707697 -0.01641378 0.70695227 -0.70702827 -0.01815063 0.70695353 -0.70704526 0.01742523 0.70695561 -0.70703959 0.01757339 0.70696568 -0.70703369 0.01740979 0.70696974 -0.70703226 0.01730044 0.70698375 -0.70701623 0.01737759 0.70698488 -0.70701814 0.01725286 0.70698851 -0.70701277 0.01733052 0.7069909 -0.7070058 0.0175123 0.70699233 0.70722109 0.00056955 0.70699632 -0.70700109 0.01748015 0.70700353 -0.70699394 0.01747766 0.70701176 -0.70698464 0.0175232 0.70701367 -0.70698512 0.01742837 0.70701629 -0.70698136 0.01747604 0.70701849 -0.70698601 0.01719506 0.70701951 -0.70697349 0.0176607 0.70702124 0.70719182 0.00081971 0.70702356 -0.70697546 0.01741873 0.70702404 -0.70697457 0.0174355 0.70702487 -0.70697445 0.01740718 0.70703268 -0.70696408 0.01750757 0.70704842 -0.70694685 0.01757315 0.70705801 -0.7069388 0.01750894 0.70705944 -0.7069419 0.01732421 0.70706272 -0.70693523 0.01745996 0.70707577 -0.70692194 0.01746933 0.7070806 -0.70691723 0.01746657 0.70708078 -0.7069124 0.01765208 0.7070809 -0.70692545 0.01711837 0.70708668 -0.70691514 0.01731053 0.70712942 -0.70687979 -0.01700092 0.70718181 -0.70680654 -0.01784411 0.7071895 -0.70679253 -0.01809145 0.7072069 0.70700645 -0.00057469 0.70721197 0.70700115 -0.00081471 0.70722526 -0.70675528 -0.01814445 0.7075578 -0.7064501 -0.01703028 0.73556447 -0.67723238 0.01735739 0.73583883 -0.67693835 0.01719169 0.74246931 0.53265524 0.40622362 0.7518847 0.64740372 -0.12465087 0.75932956 0.64239252 -0.10368477 0.76282513 0.64660197 0.00196116 0.76301557 0.64637774 0.00172982 0.7729007 0.44133228 0.45590612 0.78068376 0.61510891 -0.11033596 0.80205792 0.4348276 -0.40942386 0.80416673 0.58399206 0.11076602 0.81132793 0.57911336 0.07984208 0.81349891 -0.5813182 0.0169883 0.81351656 -0.58129281 0.01701454 0.82032269 0.48847333 0.29742956 0.83396715 0.48611251 -0.26113853 0.83985066 0.49069825 0.23209091 0.85895556 0.51202768 0.00480215 0.85914755 0.51170808 0.00449843 0.89816904 -0.43934628 0.01634661 0.89849675 -0.43865025 0.01701357 0.93146938 0.36374307 0.00747342 0.93151397 0.36363083 0.00737179 0.95837408 -0.28511363 0.01514441 0.95850986 -0.28463337 0.01558367 0.97868848 0.20511644 0.00980531 0.97874391 0.20486237 0.00958017 0.99220705 -0.1238563 0.01359068 0.9922151 -0.123785 0.01365417 0.99675399 0.07971215 0.01129517 0.99834287 0.05282634 0.02282538 0.99954319 -0.02749583 0.01254728 0.99995482 -0.00254504 0.00915549</float_array>
          <technique_common>
            <accessor source="#normals-array" count="313" stride="3">
              <param name="X" type="float" />
              <param name="Y" type="float" />
              <param name="Z" type="float" />
            </accessor>
          </technique_common>
        </source>
        <vertices id="vertices">
          <input semantic="POSITION" source="#positions" />
        </vertices>
        <triangles count="313" material="MATERIAL">
          <input semantic="VERTEX" source="#vertices" offset="0" />
          <input semantic="NORMAL" source="#normals" offset="1" />
          <p>0 31 1 31 2 31 3 27 1 27 0 27 1 101 4 101 2 101 5 92 3 92 0 92 1 30 6 30 4 30 7 80 3 80 5 80 6 127 8 127 4 127 6 103 9 103 8 103 10 120 7 120 5 120 10 100 11 100 7 100 9 171 12 171 8 171 13 152 11 152 10 152 9 133 14 133 12 133 15 149 11 149 13 149 15 157 16 157 11 157 14 213 17 213 12 213 14 180 18 180 17 180 19 198 16 198 15 198 19 182 20 182 16 182 18 289 21 289 17 289 22 287 20 287 19 287 18 204 23 204 21 204 21 291 23 291 22 291 23 199 20 199 22 199 1 270 24 270 25 270 26 257 1 257 25 257 1 254 3 254 24 254 27 240 1 240 26 240 3 246 28 246 24 246 6 250 1 250 27 250 7 264 29 264 28 264 3 249 7 249 28 249 30 260 6 260 27 260 9 255 6 255 30 255 31 266 9 266 30 266 7 237 32 237 29 237 11 267 33 267 32 267 7 262 11 262 32 262 34 243 9 243 31 243 35 238 9 238 34 238 11 269 36 269 33 269 14 252 9 252 35 252 16 268 36 268 11 268 37 239 36 239 16 239 35 256 38 256 14 256 38 265 18 265 14 265 20 244 39 244 16 244 39 272 37 272 16 272 38 263 40 263 18 263 41 235 39 235 20 235 40 253 42 253 18 253 43 271 41 271 20 271 42 247 23 247 18 247 23 245 44 245 20 245 44 258 43 258 20 258 42 261 45 261 23 261 45 248 44 248 23 248 25 223 46 223 47 223 26 290 25 290 47 290 48 217 26 217 47 217 25 283 24 283 46 283 27 282 26 282 48 282 49 218 27 218 48 218 24 224 50 224 46 224 28 216 50 216 24 216 29 230 50 230 28 230 30 215 27 215 49 215 51 192 30 192 49 192 29 194 52 194 50 194 31 203 30 203 51 203 29 202 53 202 52 202 32 189 53 189 29 189 54 164 31 164 51 164 33 193 53 193 32 193 34 187 31 187 54 187 33 165 55 165 53 165 35 151 34 151 54 151 56 156 35 156 54 156 33 172 57 172 55 172 36 168 57 168 33 168 38 141 35 141 56 141 58 147 38 147 56 147 36 135 59 135 57 135 37 143 59 143 36 143 60 113 38 113 58 113 40 134 38 134 60 134 37 117 61 117 59 117 39 122 61 122 37 122 62 83 40 83 60 83 39 108 63 108 61 108 41 111 63 111 39 111 42 119 40 119 62 119 64 21 42 21 62 21 41 84 65 84 63 84 43 90 65 90 41 90 45 99 42 99 64 99 43 78 66 78 65 78 44 23 45 23 64 23 66 24 44 24 64 24 43 89 44 89 66 89 67 251 68 251 69 251 67 277 70 277 68 277 71 77 72 77 73 77 74 35 72 35 71 35 74 34 75 34 72 34 76 50 75 50 74 50 76 65 77 65 75 65 78 51 77 51 76 51 70 69 67 69 78 69 67 76 77 76 78 76 79 47 71 47 80 47 71 33 73 33 80 33 81 148 82 148 83 148 84 160 81 160 83 160 85 159 84 159 83 159 86 169 84 169 85 169 87 150 82 150 81 150 86 170 88 170 84 170 89 137 90 137 82 137 87 136 89 136 82 136 91 183 88 183 86 183 91 184 92 184 88 184 93 123 94 123 90 123 89 124 93 124 90 124 95 197 92 197 91 197 95 196 96 196 92 196 97 106 98 106 94 106 93 105 97 105 94 105 99 222 96 222 95 222 99 221 100 221 96 221 79 86 80 86 98 86 97 87 79 87 98 87 101 229 100 229 99 229 102 228 101 228 99 228 103 280 101 280 102 280 104 281 103 281 102 281 105 293 103 293 104 293 105 292 106 292 103 292 107 299 106 299 105 299 107 300 108 300 106 300 109 304 108 304 107 304 109 303 110 303 108 303 111 308 110 308 109 308 111 307 112 307 110 307 113 311 112 311 111 311 114 312 113 312 111 312 114 310 115 310 113 310 116 309 115 309 114 309 117 306 115 306 116 306 117 305 118 305 115 305 119 302 118 302 117 302 119 301 120 301 118 301 121 297 120 297 119 297 121 298 122 298 120 298 69 286 122 286 121 286 69 285 68 285 122 285 123 95 124 95 125 95 123 16 126 16 124 16 127 85 123 85 125 85 128 20 123 20 127 20 129 132 128 132 127 132 126 125 130 125 124 125 126 93 131 93 130 93 131 144 132 144 130 144 129 109 133 109 128 109 134 167 133 167 129 167 131 131 135 131 132 131 136 166 137 166 132 166 135 175 136 175 132 175 134 145 138 145 133 145 139 225 138 225 134 225 136 210 140 210 137 210 139 200 141 200 138 200 136 186 142 186 140 186 143 212 141 212 139 212 144 294 143 294 139 294 142 295 144 295 140 295 142 209 143 209 144 209 125 45 145 45 146 45 147 49 125 49 146 49 125 53 124 53 145 53 127 64 125 64 147 64 148 66 127 66 147 66 124 57 149 57 145 57 124 41 150 41 149 41 129 37 127 37 148 37 151 42 129 42 148 42 130 73 152 73 150 73 124 75 130 75 150 75 153 72 129 72 151 72 130 38 154 38 152 38 134 67 129 67 153 67 155 36 134 36 153 36 130 40 132 40 154 40 132 48 156 48 154 48 157 71 134 71 155 71 158 68 156 68 132 68 137 55 158 55 132 55 157 44 159 44 134 44 160 58 158 58 137 58 159 62 139 62 134 62 140 61 160 61 137 61 159 46 161 46 139 46 162 70 160 70 140 70 161 74 163 74 139 74 164 59 162 59 140 59 163 39 165 39 139 39 165 43 144 43 139 43 144 52 166 52 140 52 166 54 164 54 140 54 165 63 167 63 144 63 167 60 166 60 144 60 145 219 168 219 146 219 168 288 147 288 146 288 168 284 169 284 147 284 170 296 168 296 145 296 169 220 148 220 147 220 149 211 170 211 145 211 171 231 148 231 169 231 150 208 172 208 149 208 172 232 170 232 149 232 171 195 151 195 148 195 173 214 151 214 171 214 152 205 174 205 150 205 174 201 172 201 150 201 173 181 153 181 151 181 154 174 174 174 152 174 175 185 153 185 173 185 175 173 155 173 153 173 176 188 174 188 154 188 177 177 155 177 175 177 156 176 178 176 154 176 178 154 176 154 154 154 177 146 157 146 155 146 158 138 178 138 156 138 179 161 157 161 177 161 179 128 159 128 157 128 180 155 178 155 158 155 160 126 181 126 158 126 181 121 180 121 158 121 182 139 159 139 179 139 182 107 161 107 159 107 182 116 163 116 161 116 162 110 183 110 160 110 183 118 181 118 160 118 184 112 163 112 182 112 164 88 185 88 162 88 185 97 183 97 162 97 184 79 165 79 163 79 186 102 165 102 184 102 186 22 167 22 165 22 166 94 187 94 164 94 187 91 185 91 164 91 167 19 187 19 166 19 186 104 187 104 167 104 188 56 189 56 190 56 188 32 191 32 189 32 189 273 192 273 190 273 193 241 192 241 189 241 194 236 192 236 193 236 195 274 194 274 193 274 195 279 196 279 194 279 195 233 197 233 196 233 198 242 199 242 195 242 199 234 197 234 195 234 198 275 200 275 199 275 201 278 200 278 198 278 202 276 203 276 200 276 201 259 202 259 200 259 204 26 191 26 188 26 204 25 205 25 191 25 206 14 205 14 204 14 206 15 207 15 205 15 208 11 207 11 206 11 208 10 209 10 207 10 210 7 209 7 208 7 210 6 211 6 209 6 212 2 213 2 210 2 213 3 211 3 210 3 212 0 214 0 213 0 215 1 214 1 212 1 216 4 214 4 215 4 216 5 217 5 214 5 218 8 217 8 216 8 218 9 219 9 217 9 220 13 219 13 218 13 220 12 221 12 219 12 222 18 221 18 220 18 222 17 223 17 221 17 224 28 225 28 222 28 225 29 223 29 222 29 202 227 226 227 203 227 226 226 227 226 203 226 228 82 229 82 224 82 229 81 225 81 224 81 230 96 229 96 228 96 230 98 231 98 229 98 226 207 232 207 227 207 232 206 233 206 227 206 234 115 231 115 230 115 234 114 235 114 231 114 232 190 236 190 233 190 236 191 237 191 233 191 238 130 235 130 234 130 238 129 239 129 235 129 236 179 240 179 237 179 240 178 241 178 237 178 242 140 239 140 238 140 242 142 243 142 239 142 240 162 244 162 241 162 245 163 244 163 240 163 244 153 245 153 242 153 245 158 243 158 242 158</p>
        </triangles>
      </mesh>
    </geometry>
  </library_geometries>
  <library_visual_scenes>
    <visual_scene id="Scene" name="Scene">
      <node id="Object" name="Object" type="NODE">
        <instance_geometry url="#geometry">
          <bind_material>
            <technique_common>
              <instance_material symbol="MATERIAL" target="#mat" />
            </technique_common>
          </bind_material>
        </instance_geometry>
      </node>
    </visual_scene>
  </library_visual_scenes>
  <scene>
    <instance_visual_scene url="#Scene" />
  </scene>
</COLLADA>