<?xml version='1.0' encoding='utf-8'?>
<COLLADA xmlns="http://www.collada.org/2005/11/COLLADASchema" version="1.4.1">
  <asset>
    <contributor>
      <authoring_tool>RM27 reviewed Blender visual export</authoring_tool>
    </contributor>
    <created>2026-10-07T00:00:00Z</created>
    <modified>2026-10-07T00:00:00Z</modified>
    <unit name="meter" meter="1" />
    <up_axis>Z_UP</up_axis>
  </asset>
  <library_effects>
    <effect id="fx">
      <profile_COMMON>
        <technique sid="common">
          <phong>
            <emission>
              <color>0 0 0 1</color>
            </emission>
            <ambient>
              <color>0 1 1 1</color>
            </ambient>
            <diffuse>
              <color>0 1 1 1</color>
            </diffuse>
            <specular>
              <color>0.08 0.08 0.08 1</color>
            </specular>
            <shininess>
              <float>12</float>
            </shininess>
          </phong>
        </technique>
      </profile_COMMON>
    </effect>
  </library_effects>
  <library_materials>
    <material id="mat" name="source_color">
      <instance_effect url="#fx" />
    </material>
  </library_materials>
  <library_geometries>
    <geometry id="geometry" name="geometry">
      <mesh>
        <source id="positions">
          <float_array id="positions-array" count="2118">-11.4083051682 1.67099094391 -0.593467473984 -11.4083032608 1.6711410284 -0.593466341496 -11.4054784775 1.67006266117 -0.594634473324 -11.4083023071 1.67199099064 -0.593465387821 -11.4090900421 1.67006397247 -0.592901349068 -11.4083023071 1.67299103737 -0.593465387821 -11.4083032608 1.67214095592 -0.593466520309 -11.4079999924 1.67356598377 -0.593468427658 -11.4083032608 1.67314088345 -0.593465805054 -11.4090900421 1.67647230625 -0.592901706696 -11.4080018997 1.67506599426 -0.59346818924 -11.4082403183 1.67399096489 -0.593343198299 -11.4079999924 1.67399096489 -0.593468129635 -11.4079999924 1.67414104939 -0.593468129635 -11.4082403183 1.6745660305 -0.593343198299 -11.4082403183 1.67414104939 -0.593343198299 -11.4082403183 1.67499101162 -0.593343198299 -11.4082403183 1.67556595802 -0.593343198299 -11.4082403183 1.67514097691 -0.593343317509 -11.4079999924 1.67606604099 -0.593468308449 -11.4082403183 1.67606604099 -0.593343317509 -11.4079999924 1.67906594276 -0.593468427658 -11.4082994461 1.67706596851 -0.593343317509 -11.4080476761 1.67706596851 -0.593468308449 -11.4079790115 1.67806601524 -0.593468308449 -11.4082403183 1.67906594276 -0.593343198299 -11.4082193375 1.67806601524 -0.593343377113 -11.4079999924 1.68056595325 -0.593468427658 -11.4079999924 1.68014097214 -0.593468427658 -11.4079999924 1.67999100685 -0.593468427658 -11.4082403183 1.67999100685 -0.593343377113 -11.4082403183 1.68014097214 -0.593343377113 -11.4079999924 1.68156599998 -0.593468427658 -11.4079999924 1.68099105358 -0.593468427658 -11.4079999924 1.68114101887 -0.593468427658 -11.4082393646 1.68106603622 -0.593343496323 -11.407998085 1.68206596375 -0.593468487263 -11.4082403183 1.6819909811 -0.593343496323 -11.4082298279 1.68306601048 -0.593343615532 -11.4093017578 1.68414127827 -0.593310534954 -11.4082403183 1.68214094639 -0.593343615532 -11.4054803848 1.68906247616 -0.594634413719 -11.4077157974 1.68306601048 -0.593468606472 -11.4079999924 1.68356597424 -0.593468427658 -11.4079999924 1.68456602097 -0.593468427658 -11.4079999924 1.68399095535 -0.593468606472 -11.4079999924 1.68414103985 -0.593468427658 -11.4082403183 1.68399095535 -0.593343615532 -11.4079999924 1.68506598473 -0.593468427658 -11.4079999924 1.68599104881 -0.593468546867 -11.4082241058 1.68506598473 -0.593343675137 -11.4082393646 1.6861410141 -0.593343675137 -11.4082403183 1.68599104881 -0.593343675137 -11.4080018997 1.68706595898 -0.593471467495 -11.4083347321 1.68706595898 -0.593343794346 -11.4082403183 1.68799102306 -0.593343794346 -11.4082403183 1.68906402588 -0.593343317509 -11.4090900421 1.68906402588 -0.592902183533 -11.4079999924 1.68799102306 -0.593468427658 -11.4079360962 1.68814086914 -0.593344986439 -11.4335803986 1.65366601944 -0.586331903934 -11.4348297119 1.63506603241 -0.585681021214 -11.4335803986 1.63506603241 -0.586331129074 -11.4348297119 1.65366601944 -0.585681796074 -11.4336395264 1.63876605034 -0.586446583271 -11.4336395264 1.63886594772 -0.586446583271 -11.4336395264 1.63506603241 -0.586446523666 -11.4336395264 1.6378660202 -0.586446523666 -11.4336395264 1.63936603069 -0.58644670248 -11.4336395264 1.63946604729 -0.58644670248 -11.4336395264 1.63966596127 -0.58644670248 -11.4336395264 1.63976597786 -0.58644670248 -11.4336395264 1.640666008 -0.58644670248 -11.4336395264 1.64086604118 -0.58644670248 -11.4336395264 1.64096605778 -0.58644670248 -11.4336395264 1.63906598091 -0.586446583271 -11.4336395264 1.63916599751 -0.586446583271 -11.4336395264 1.63996601105 -0.58644670248 -11.4336395264 1.64006602764 -0.58644670248 -11.4336395264 1.64026594162 -0.58644670248 -11.4336395264 1.64116597176 -0.58644670248 -11.4336395264 1.64126598835 -0.58644670248 -11.4336395264 1.64146602154 -0.58644670248 -11.4336395264 1.64156603813 -0.58644670248 -11.4336395264 1.64176595211 -0.58644670248 -11.4336395264 1.6418659687 -0.58644670248 -11.4336395264 1.63816595078 -0.586446583271 -11.4336395264 1.64036595821 -0.58644670248 -11.4336395264 1.6405659914 -0.58644670248 -11.4336395264 1.64206600189 -0.58644670248 -11.4336395264 1.64216601849 -0.58644682169 -11.4336395264 1.63846600056 -0.586446583271 -11.4336395264 1.63856601715 -0.586446583271 -11.4336395264 1.64246594906 -0.58644682169 -11.4336395264 1.64266598225 -0.58644682169 -11.4336395264 1.64276599884 -0.58644682169 -11.4336395264 1.64296603203 -0.58644682169 -11.4336395264 1.64306604862 -0.58644682169 -11.4336395264 1.6432659626 -0.58644682169 -11.4336395264 1.64336597919 -0.58644682169 -11.4336395264 1.64356601238 -0.58644682169 -11.4336395264 1.64366602898 -0.58644682169 -11.4336395264 1.64386594296 -0.58644682169 -11.4336395264 1.64396595955 -0.58644682169 -11.4336395264 1.64416599274 -0.58644682169 -11.4336395264 1.64426600933 -0.58644682169 -11.4336395264 1.64446604252 -0.58644682169 -11.4336395264 1.64456605911 -0.58644682169 -11.4336395264 1.64476597309 -0.58644682169 -11.4336395264 1.64486598969 -0.58644682169 -11.4336395264 1.64506602287 -0.586446881294 -11.4336395264 1.64516603947 -0.586446881294 -11.4336395264 1.64536595345 -0.586446881294 -11.4336395264 1.64546597004 -0.586446881294 -11.4336395264 1.64566600323 -0.586446881294 -11.4336395264 1.64576601982 -0.586446881294 -11.4336395264 1.64596605301 -0.586446881294 -11.4336395264 1.64606595039 -0.586446881294 -11.4336395264 1.64626598358 -0.586446881294 -11.4336395264 1.64636600018 -0.586447000504 -11.4336395264 1.64656603336 -0.586447000504 -11.4336395264 1.64666604996 -0.586447000504 -11.4336395264 1.64686596394 -0.586447000504 -11.4336395264 1.64696598053 -0.586447000504 -11.4336395264 1.64716601372 -0.586447000504 -11.4336395264 1.64726603031 -0.586447000504 -11.4336395264 1.6479190588 -0.586447000504 -11.4336395264 1.64836597443 -0.586447000504 -11.4336395264 1.64846599102 -0.586447000504 -11.4336395264 1.64866602421 -0.586447000504 -11.4336395264 1.6487660408 -0.586447000504 -11.4336395264 1.64896595478 -0.586447000504 -11.4336395264 1.64906597137 -0.586447000504 -11.4336395264 1.64926600456 -0.586447119713 -11.4336395264 1.64936602116 -0.586447119713 -11.4336395264 1.64956605434 -0.586447119713 -11.4336395264 1.64966595173 -0.586447119713 -11.4336395264 1.64986598492 -0.586447119713 -11.4336395264 1.64996600151 -0.586447119713 -11.4336395264 1.6501660347 -0.586447119713 -11.4336395264 1.65026605129 -0.586447119713 -11.4336395264 1.65046596527 -0.586447119713 -11.4336395264 1.65056598186 -0.586447119713 -11.4336395264 1.65076601505 -0.586447119713 -11.4336395264 1.65086603165 -0.586447119713 -11.4336395264 1.65106594563 -0.586447119713 -11.4336395264 1.65116596222 -0.586447119713 -11.4336395264 1.65136599541 -0.586447119713 -11.4336395264 1.651466012 -0.586447119713 -11.4336395264 1.65166604519 -0.586447119713 -11.4336395264 1.65176594257 -0.586447119713 -11.4336395264 1.65196597576 -0.586447179317 -11.4336395264 1.65206599236 -0.586447179317 -11.4336395264 1.65226602554 -0.586447179317 -11.4336395264 1.65236604214 -0.586447179317 -11.4336395264 1.65256595612 -0.586447179317 -11.4336395264 1.65266597271 -0.586447179317 -11.4336395264 1.6528660059 -0.586447179317 -11.4336395264 1.65296602249 -0.586447179317 -11.4336395264 1.65336608887 -0.586447238922 -11.4336395264 1.65366601944 -0.586447298527 -11.4090995789 1.59966397285 -0.592897117138 -11.4083127975 1.60059094429 -0.593462467194 -11.4054889679 1.59966266155 -0.59463095665 -11.4083118439 1.60159099102 -0.593462347984 -11.4080095291 1.60074102879 -0.593464970589 -11.4093112946 1.60359120369 -0.593304693699 -11.408249855 1.60074102879 -0.593339979649 -11.4080095291 1.60174095631 -0.593465089798 -11.408249855 1.60174095631 -0.593340098858 -11.4083137512 1.60259103775 -0.59346395731 -11.4080095291 1.60274100304 -0.593465089798 -11.4080095291 1.60359096527 -0.593465089798 -11.408249855 1.60274100304 -0.593340098858 -11.4080095291 1.604591012 -0.593465209007 -11.4080095291 1.60374104977 -0.593465089798 -11.408249855 1.60374104977 -0.593340218067 -11.4080095291 1.60474097729 -0.593465209007 -11.408249855 1.604591012 -0.593340218067 -11.408249855 1.6051659584 -0.593340098858 -11.408249855 1.60474097729 -0.593340218067 -11.4080095291 1.60616600513 -0.593465387821 -11.4081296921 1.60559105873 -0.59340274334 -11.4080095291 1.60574102402 -0.593465328217 -11.4090995789 1.61866402626 -0.592897832394 -11.408249855 1.60616600513 -0.593340396881 -11.408249855 1.60574102402 -0.593340277672 -11.4054880142 1.61866247654 -0.594632148743 -11.4080095291 1.60959100723 -0.593465447426 -11.4080095291 1.60759103298 -0.593465328217 -11.4080095291 1.60774099827 -0.593465328217 -11.408249855 1.60659098625 -0.593340277672 -11.4080095291 1.60659098625 -0.593465328217 -11.4080095291 1.60674095154 -0.593465328217 -11.408249855 1.60866594315 -0.593340218067 -11.408249855 1.60674095154 -0.593340277672 -11.408249855 1.60759103298 -0.593340277672 -11.408249855 1.60774099827 -0.593340277672 -11.4080095291 1.60974097252 -0.59346562624 -11.4082365036 1.60966598988 -0.59334051609 -11.4080095291 1.61159098148 -0.593465566635 -11.4080095291 1.61059105396 -0.59346550703 -11.4080095291 1.61074101925 -0.59346550703 -11.408249855 1.61059105396 -0.59334051609 -11.4082489014 1.61074101925 -0.59334051609 -11.4080095291 1.6121660471 -0.593465685844 -11.4082489014 1.61174094677 -0.59334051609 -11.408249855 1.61159098148 -0.59334051609 -11.4080095291 1.61359095573 -0.59346550703 -11.4080095291 1.61259102821 -0.59346550703 -11.4080095291 1.6127409935 -0.59346562624 -11.408249855 1.61259102821 -0.593340575695 -11.4082489014 1.6127409935 -0.593340575695 -11.4081296921 1.61374104023 -0.593402981758 -11.408249855 1.61359095573 -0.593340575695 -11.4079866409 1.61466598511 -0.593465566635 -11.4082183838 1.61466598511 -0.593340575695 -11.4078197479 1.61566603184 -0.593465387821 -11.4080095291 1.61666595936 -0.593465447426 -11.4082384109 1.61566603184 -0.593340694904 -11.408249855 1.61666595936 -0.593340814114 -11.408249855 1.61866402626 -0.593340277672 -11.4080095291 1.61759102345 -0.59346550703 -11.408249855 1.61759102345 -0.593340814114 -11.4079456329 1.61774086952 -0.593342006207 -11.408000946 1.63594126701 -0.592914164066 -11.4054918289 1.63486325741 -0.594630897045 -11.4090986252 1.63486397266 -0.592897176743 -11.4080095291 1.6357909441 -0.593466639519 -11.408249855 1.6357909441 -0.593341588974 -11.4080104828 1.63686597347 -0.593482613564 -11.4080057144 1.63779079914 -0.592913389206 -11.4082593918 1.63686597347 -0.593359172344 -11.4090995789 1.6378660202 -0.592898726463 -11.4080190659 1.63794112206 -0.592960715294 -11.4081201553 1.63979101181 -0.593404233456 -11.408249855 1.63879096508 -0.593341708183 -11.4080095291 1.63879096508 -0.593466579914 -11.4080095291 1.63894104958 -0.593466758728 -11.4090995789 1.64399886131 -0.592898964882 -11.408000946 1.64079105854 -0.593466699123 -11.4079999924 1.6399409771 -0.593466699123 -11.408249855 1.64079105854 -0.593341827393 -11.408249855 1.6399409771 -0.593341708183 -11.4079999924 1.64136600494 -0.593466877937 -11.4079999924 1.64094102383 -0.593466699123 -11.408249855 1.64094102383 -0.593341827393 -11.4079999924 1.64386594296 -0.593466997147 -11.4079999924 1.64279103279 -0.593466818333 -11.4079999924 1.64294099808 -0.593466818333 -11.408323288 1.6418659687 -0.593341827393 -11.4079999924 1.64179098606 -0.593466699123 -11.4079999924 1.64194095135 -0.593466699123 -11.408249855 1.64279103279 -0.593341827393 -11.408249855 1.64294099808 -0.593341886997 -11.4054908752 1.65386247635 -0.594631254673 -11.4079999924 1.64536595345 -0.593466877937 -11.4081287384 1.64494097233 -0.593404352665 -11.4081249237 1.64479100704 -0.593404352665 -11.4079999924 1.64636600018 -0.593466877937 -11.4079999924 1.64579105377 -0.593466877937 -11.4079999924 1.64594101906 -0.593466877937 -11.408249855 1.64579105377 -0.593342006207 -11.4082489014 1.64594101906 -0.593342006207 -11.4079999924 1.64736604691 -0.593467116356 -11.4079999924 1.64679098129 -0.593466997147 -11.4079999924 1.64694094658 -0.593466997147 -11.408249855 1.64679098129 -0.593342006207 -11.408249855 1.64694094658 -0.593342006207 -11.4082460403 1.64786601067 -0.593466997147 -11.408249855 1.64779102802 -0.593342006207 -11.408249855 1.64836597443 -0.593341708183 -11.4091005325 1.65386402607 -0.59290844202 -11.408249855 1.64794099331 -0.593342006207 -11.4081258774 1.64879095554 -0.593404531479 -11.4081287384 1.64894104004 -0.593404531479 -11.4080877304 1.6498657465 -0.593466997147 -11.4082479477 1.64986550808 -0.593459546566 -11.4079999924 1.650791049 -0.593466877937 -11.4079999924 1.65094101429 -0.593467175961 -11.4082403183 1.650791049 -0.59334218502 -11.4082403183 1.65094101429 -0.59334218502 -11.4082431793 1.65179097652 -0.593897521496 -11.4082536697 1.6519408226 -0.593934237957 -11.4079999924 1.65279102325 -0.593467175961 -11.4082403183 1.65279102325 -0.59334230423 -11.4082565308 1.65293860435 -0.593938291073 -11.6392745972 1.82398736477 -0.594617426395 -11.6475334167 1.81918156147 -0.594746291637 -11.6557216644 1.81447553635 -0.594612121582 -11.6535701752 1.81258094311 -0.593340814114 -11.6512880325 1.81291353703 -0.592897832394 -11.6539421082 1.81138181686 -0.592898070812 -11.6548595428 1.81297302246 -0.593853294849 -11.6536903381 1.81278896332 -0.593465805054 -11.6534404755 1.81265604496 -0.593340814114 -11.6535596848 1.81286394596 -0.593465805054 -11.6527004242 1.81308102608 -0.593340814114 -11.6527547836 1.81332623959 -0.593466758728 -11.6525697708 1.81315600872 -0.593340814114 -11.6517753601 1.81363725662 -0.593299329281 -11.6518936157 1.81384062767 -0.593433856964 -11.6510276794 1.81433212757 -0.593453764915 -11.6499700546 1.81465613842 -0.593340277672 -11.6494665146 1.81396579742 -0.592897832394 -11.650970459 1.8140809536 -0.593340575695 -11.6508398056 1.81415605545 -0.593340575695 -11.6500997543 1.81458115578 -0.593340218067 -11.6502199173 1.81478905678 -0.59346562624 -11.6491565704 1.81508779526 -0.59340941906 -11.6472520828 1.81524562836 -0.592896878719 -11.6500902176 1.81486403942 -0.59346562624 -11.6493597031 1.81528890133 -0.593465983868 -11.6492300034 1.81536400318 -0.59346550703 -11.6484422684 1.8158557415 -0.593400478363 -11.6483345032 1.81566977501 -0.593227624893 -11.6481304169 1.81694126129 -0.593891143799 -11.6476202011 1.81628894806 -0.59346550703 -11.647485733 1.81620538235 -0.593148171902 -11.6466398239 1.81658136845 -0.59333974123 -11.6465101242 1.81665623188 -0.593340098858 -11.6426496506 1.81789076328 -0.592911064625 -11.6474895477 1.81636404991 -0.59346550703 -11.6467599869 1.81678879261 -0.593465864658 -11.6466302872 1.81686401367 -0.593465328217 -11.644900322 1.81786334515 -0.593466758728 -11.6450300217 1.81778895855 -0.593465328217 -11.6448411942 1.81761229038 -0.593354344368 -11.6441602707 1.81828904152 -0.593465328217 -11.6439552307 1.81808412075 -0.593415856361 -11.6431703568 1.81858098507 -0.593340218067 -11.6430397034 1.81865608692 -0.593339920044 -11.6440296173 1.81836402416 -0.593465328217 -11.6433038712 1.81896257401 -0.593159615993 -11.6423101425 1.81908106804 -0.593339920044 -11.6396789551 1.81961524487 -0.592896997929 -11.6424303055 1.81928896904 -0.593465209007 -11.6421804428 1.81915605068 -0.593340218067 -11.6414403915 1.8195810318 -0.593340337276 -11.6422996521 1.81936395168 -0.593465209007 -11.64149189 1.81982159615 -0.593476355076 -11.6413097382 1.81965601444 -0.593340098858 -11.6407003403 1.82028841972 -0.5934664011 -11.6405801773 1.82008099556 -0.593340098858 -11.6404399872 1.8201559782 -0.593340098858 -11.6405601501 1.82036459446 -0.5934638381 -11.6398296356 1.82078802586 -0.593465089798 -11.6397104263 1.82058095932 -0.593340098858 -11.6389055252 1.82134389877 -0.593424141407 -11.6387796402 1.82112586498 -0.593321502209 -11.6374816895 1.82088434696 -0.592895507812 -11.6395797729 1.82065594196 -0.593340098858 -11.6396999359 1.82086396217 -0.593465089798 11.4082403183 1.59962403774 -0.593343377113 11.4082393646 1.60254597664 -0.593343675137 11.4090900421 1.59962403774 -0.592902123928 11.4079360962 1.60054600239 -0.593344986439 11.4054803848 1.59962403774 -0.594634056091 11.4082403183 1.60069596767 -0.593343794346 11.4054794312 1.61862397194 -0.594634592533 11.4079999924 1.60162103176 -0.593468666077 11.4079999924 1.60069596767 -0.593468785286 11.4082403183 1.60162103176 -0.593343794346 11.4079999924 1.60254597664 -0.593468606472 11.4079999924 1.60269594193 -0.593468725681 11.4082403183 1.60269594193 -0.593343675137 11.4082307816 1.60362100601 -0.593343675137 11.4079999924 1.60412096977 -0.593468725681 11.4079046249 1.60362100601 -0.593468606472 11.4082403183 1.60454595089 -0.593343615532 11.4079999924 1.60469603539 -0.593468606472 11.4079999924 1.60454595089 -0.593468606472 11.4082403183 1.60469603539 -0.593343615532 11.4082403183 1.6051210165 -0.593343377113 11.4079999924 1.60612094402 -0.593468725681 11.4081897736 1.60562098026 -0.593468606472 11.4082403183 1.60554599762 -0.593343615532 11.4082403183 1.60569596291 -0.593343615532 11.4079999924 1.60669600964 -0.593468487263 11.4081201553 1.60654604435 -0.5934060812 11.4093008041 1.60669589043 -0.593308091164 11.4079999924 1.60769605637 -0.593468427658 11.4079999924 1.60754597187 -0.593468427658 11.4082403183 1.60754597187 -0.593343496323 11.4082403183 1.60769605637 -0.593343496323 11.4082403183 1.60812103748 -0.593343377113 11.408000946 1.60869598389 -0.593468427658 11.4079999924 1.6085460186 -0.593468427658 11.4082403183 1.6085460186 -0.593343377113 11.4082403183 1.60869598389 -0.593343377113 11.4082403183 1.60962104797 -0.593343377113 11.4079999924 1.61212098598 -0.593468606472 11.4079999924 1.61062097549 -0.593468308449 11.4082403183 1.61054599285 -0.593343377113 11.4079999924 1.6125459671 -0.593468308449 11.4082403183 1.61069595814 -0.593343377113 11.4081201553 1.61169600487 -0.593405783176 11.4082403183 1.61154603958 -0.593343317509 11.4079999924 1.61154603958 -0.593468308449 11.4079999924 1.6126960516 -0.593468308449 11.4082403183 1.6125459671 -0.593343317509 11.4093065262 1.61269593239 -0.593317985535 11.4080114365 1.61362099648 -0.59346818924 11.408493042 1.61362099648 -0.593343257904 11.408000946 1.61469602585 -0.593468129635 11.4079999924 1.61454594135 -0.593468129635 11.4082403183 1.61454594135 -0.593343198299 11.4082403183 1.61469602585 -0.593343198299 11.4082403183 1.61554598808 -0.593343198299 11.4083023071 1.61569583416 -0.593465387821 11.4079999924 1.61554598808 -0.593468129635 11.4079999924 1.61654603481 -0.593468129635 11.4083013535 1.61669588089 -0.59346473217 11.4082403183 1.61654603481 -0.59334307909 11.4090900421 1.61862397194 -0.592901349068 11.4083023071 1.61769592762 -0.593464851379 11.4079999924 1.61754596233 -0.593468010426 11.4082403183 1.61754596233 -0.59334307909 11.4348297119 1.65362203121 -0.585681021214 11.4335803986 1.63502204418 -0.586331903934 11.4348297119 1.63502204418 -0.585681796074 11.4335803986 1.65362203121 -0.586331129074 11.4336395264 1.63540959358 -0.586447238922 11.4336395264 1.63502204418 -0.586447298527 11.4336395264 1.63912367821 -0.586447060108 11.4336395264 1.63842201233 -0.586447119713 11.4336395264 1.6361219883 -0.586447179317 11.4336395264 1.6360219717 -0.586447179317 11.4336395264 1.63822197914 -0.586447119713 11.4336395264 1.63812196255 -0.586447119713 11.4336395264 1.63792204857 -0.586447119713 11.4336395264 1.63782203197 -0.586447119713 11.4336395264 1.63762199879 -0.586447119713 11.4336395264 1.63752198219 -0.586447119713 11.4336395264 1.63732194901 -0.586447119713 11.4336395264 1.63722205162 -0.586447119713 11.4336395264 1.63702201843 -0.586447119713 11.4336395264 1.63692200184 -0.586447119713 11.4336395264 1.63672196865 -0.586447179317 11.4336395264 1.63662195206 -0.586447179317 11.4336395264 1.63582205772 -0.586447179317 11.4336395264 1.63572204113 -0.586447179317 11.4336395264 1.64622199535 -0.58644682169 11.4336395264 1.64602196217 -0.58644682169 11.4336395264 1.64122200012 -0.586447000504 11.4336395264 1.64112198353 -0.586447000504 11.4336395264 1.64092195034 -0.586447000504 11.4336395264 1.64082205296 -0.586447000504 11.4336395264 1.64062201977 -0.586447000504 11.4336395264 1.64052200317 -0.586447000504 11.4336395264 1.63642203808 -0.586447179317 11.4336395264 1.63632202148 -0.586447179317 11.4336395264 1.64592194557 -0.58644682169 11.4336395264 1.64572203159 -0.58644682169 11.4336395264 1.645622015 -0.58644682169 11.4336395264 1.64032196999 -0.586447000504 11.4336395264 1.64022195339 -0.586447000504 11.4336395264 1.64652204514 -0.58644682169 11.4336395264 1.64632201195 -0.58644682169 11.4336395264 1.64542198181 -0.58644682169 11.4336395264 1.64532196522 -0.58644682169 11.4336395264 1.64512205124 -0.58644682169 11.4336395264 1.64242196083 -0.586446881294 11.4336395264 1.64232194424 -0.586447000504 11.4336395264 1.64262199402 -0.586446881294 11.4336395264 1.64182198048 -0.586447000504 11.4336395264 1.64172196388 -0.586447000504 11.4336395264 1.64502203465 -0.58644682169 11.4336395264 1.64482200146 -0.58644682169 11.4336395264 1.64472198486 -0.58644682169 11.4336395264 1.64362204075 -0.586446881294 11.4336395264 1.64352202415 -0.586446881294 11.4336395264 1.64382195473 -0.58644682169 11.4336395264 1.64332199097 -0.586446881294 11.4336395264 1.64322197437 -0.586446881294 11.4336395264 1.64302194118 -0.586446881294 11.4336395264 1.6429220438 -0.586446881294 11.4336395264 1.64272201061 -0.586446881294 11.4336395264 1.64212203026 -0.586447000504 11.4336395264 1.64202201366 -0.586447000504 11.4336395264 1.6415220499 -0.586447000504 11.4336395264 1.64142203331 -0.586447000504 11.4336395264 1.64452195168 -0.58644682169 11.4336395264 1.64442205429 -0.58644682169 11.4336395264 1.6442220211 -0.58644682169 11.4336395264 1.64412200451 -0.58644682169 11.4336395264 1.64392197132 -0.58644682169 11.4336395264 1.64662194252 -0.58644670248 11.4336395264 1.64682197571 -0.58644670248 11.4336395264 1.6469219923 -0.58644670248 11.4336395264 1.64712202549 -0.58644670248 11.4336395264 1.64722204208 -0.58644670248 11.4336395264 1.64742195606 -0.58644670248 11.4336395264 1.64752197266 -0.58644670248 11.4336395264 1.64772200584 -0.58644670248 11.4336395264 1.64782202244 -0.58644670248 11.4336395264 1.64802205563 -0.58644670248 11.4336395264 1.64812195301 -0.58644670248 11.4336395264 1.6483219862 -0.58644670248 11.4336395264 1.64842200279 -0.58644670248 11.4336395264 1.64862203598 -0.58644670248 11.4336395264 1.64872205257 -0.58644670248 11.4336395264 1.64892196655 -0.58644670248 11.4336395264 1.64902198315 -0.58644670248 11.4336395264 1.64922201633 -0.58644670248 11.4336395264 1.64932203293 -0.58644670248 11.4336395264 1.64952194691 -0.586446583271 11.4336395264 1.6496219635 -0.586446583271 11.4336395264 1.64982199669 -0.586446583271 11.4336395264 1.64992201328 -0.586446583271 11.4336395264 1.65012204647 -0.586446583271 11.4336395264 1.65022194386 -0.586446583271 11.4336395264 1.65042197704 -0.586446583271 11.4336395264 1.65052199364 -0.586446583271 11.4336395264 1.65077209473 -0.586446523666 11.4336395264 1.6510219574 -0.586446523666 11.4336395264 1.65112197399 -0.586446523666 11.4336395264 1.65132200718 -0.586446523666 11.4336395264 1.65362203121 -0.586446523666 11.4079456329 1.67094600201 -0.593342006207 11.4090995789 1.67002403736 -0.592897832394 11.4054870605 1.67002403736 -0.594632863998 11.408249855 1.67109596729 -0.593340814114 11.407948494 1.67209601402 -0.593344330788 11.4082431793 1.6730209589 -0.593340694904 11.4079456329 1.67194604874 -0.593341886997 11.4080095291 1.67109596729 -0.593465685844 11.4080095291 1.67352104187 -0.59346562624 11.4080095291 1.67294597626 -0.593465685844 11.408246994 1.67402100563 -0.593340575695 11.4080095291 1.67309594154 -0.593465685844 11.4080095291 1.67452096939 -0.59346562624 11.4080095291 1.67394602299 -0.59346562624 11.408246994 1.67502105236 -0.593340575695 11.4080095291 1.67409598827 -0.59346562624 11.4080095291 1.67552101612 -0.59346562624 11.4080095291 1.67494595051 -0.59346562624 11.408249855 1.67594599724 -0.593340575695 11.4080095291 1.675096035 -0.59346562624 11.4080095291 1.67652094364 -0.59346562624 11.4080095291 1.67594599724 -0.59346562624 11.4081296921 1.67609596252 -0.593403041363 11.408249855 1.67652094364 -0.593340396881 11.4080095291 1.67709600925 -0.59346550703 11.4081296921 1.67694604397 -0.593403041363 11.408249855 1.67709600925 -0.59334051609 11.408249855 1.67794597149 -0.59334051609 11.4080095291 1.6785210371 -0.59346562624 11.4080095291 1.67794597149 -0.59346550703 11.4081296921 1.67809605598 -0.593402981758 11.408249855 1.6785210371 -0.593340396881 11.4080095291 1.67909598351 -0.593465387821 11.4081287384 1.67894601822 -0.593402981758 11.408249855 1.67909598351 -0.59334051609 11.4080095291 1.6825209856 -0.59346562624 11.4080200195 1.68102097511 -0.593465328217 11.4082708359 1.68102097511 -0.593340277672 11.40832901 1.68202102184 -0.593340277672 11.4082603455 1.68302094936 -0.593340277672 11.4081668854 1.68202102184 -0.593465328217 11.4080219269 1.68402099609 -0.593465209007 11.4080095291 1.68294596672 -0.593465328217 11.4090995789 1.68902397156 -0.592896997929 11.4080095291 1.68309605122 -0.593465209007 11.4085655212 1.68402099609 -0.593340218067 11.408249855 1.68494594097 -0.593340218067 11.4081306458 1.68509602547 -0.59340262413 11.4080095291 1.68494594097 -0.593465089798 11.4080209732 1.68602097034 -0.593465089798 11.4054889679 1.68902397156 -0.594630897045 11.4082555771 1.68602097034 -0.593351840973 11.4083118439 1.68709599972 -0.593462347984 11.4080095291 1.68694603443 -0.593465089798 11.408249855 1.68694603443 -0.593340098858 11.408249855 1.68794596195 -0.593340039253 11.4080095291 1.68902397156 -0.59346550703 11.4080095291 1.68794596195 -0.593464970589 11.4083137512 1.68809592724 -0.593463778496 11.4054899216 1.63482403755 -0.594631433487 11.4082574844 1.63574838638 -0.593940019608 11.4090919495 1.63482403755 -0.592902183533 11.4082536697 1.63674616814 -0.593935847282 11.4090995789 1.63732206821 -0.592899620533 11.4082403183 1.63589596748 -0.59334230423 11.4082355499 1.636895895 -0.593868374825 11.4079999924 1.63589596748 -0.593466877937 11.408244133 1.63789594173 -0.593465566635 11.4082450867 1.63774704933 -0.593466877937 11.4082489014 1.63882148266 -0.593466818333 11.408000946 1.6397459507 -0.593466997147 11.4079999924 1.63874602318 -0.593466877937 11.408249855 1.6397459507 -0.593342125416 11.4079999924 1.63889598846 -0.593466877937 11.4079999924 1.64032101631 -0.593466997147 11.408249855 1.63989603519 -0.593342125416 11.408249855 1.64082098007 -0.593342006207 11.4079999924 1.63989603519 -0.593466877937 11.4079999924 1.64132094383 -0.593466997147 11.4079999924 1.64074599743 -0.593466997147 11.4082489014 1.64174604416 -0.593342006207 11.4079999924 1.64089596272 -0.593466997147 11.4080066681 1.6418210268 -0.593466997147 11.408249855 1.64189600945 -0.593342006207 11.408249855 1.64232099056 -0.593341708183 11.4079999924 1.64332103729 -0.593467175961 11.4079999924 1.64274597168 -0.593466877937 11.408249855 1.64274597168 -0.593342006207 11.408249855 1.64289605618 -0.593342006207 11.4082508087 1.64382100105 -0.593341469765 11.4079999924 1.64289605618 -0.593466877937 11.4079999924 1.64382100105 -0.593467056751 11.4054927826 1.65382397175 -0.594630539417 11.4082460403 1.6458209753 -0.593341827393 11.4079999924 1.64732098579 -0.593466997147 11.4079999924 1.64574599266 -0.593466818333 11.4082584381 1.64682102203 -0.593341827393 11.4079999924 1.64589595795 -0.593466818333 11.4080982208 1.64682102203 -0.593466699123 11.4081201553 1.64789605141 -0.59340429306 11.4079999924 1.64774596691 -0.593466699123 11.408249855 1.64774596691 -0.593341827393 11.408249855 1.64832103252 -0.593341708183 11.4080114365 1.64882099628 -0.593466699123 11.408249855 1.64882099628 -0.593341708183 11.408249855 1.64932096004 -0.593341886997 11.4090995789 1.64982104301 -0.592898726463 11.4080047607 1.64982056618 -0.593382000923 11.408249855 1.64974594116 -0.593341708183 11.408249855 1.64989602566 -0.593341708183 11.4080095291 1.65074598789 -0.593466699123 11.4079990387 1.6508961916 -0.592903494835 11.408249855 1.65074598789 -0.593341708183 11.4090995789 1.65382397175 -0.592898547649 11.408249855 1.65174603462 -0.593341648579 11.4080047607 1.65189623833 -0.592922627926 11.4080095291 1.65174603462 -0.593466579914 11.4079790115 1.65274572372 -0.592840313911 11.4080095291 1.65289604664 -0.593466520309 11.408249855 1.65289604664 -0.593341827393 11.6482048035 1.46989488602 -0.594745516777 11.6557273865 1.47420108318 -0.594617009163 11.6392879486 1.46467864513 -0.594629406929 11.6397657394 1.46785962582 -0.593461573124 11.6405601501 1.46832323074 -0.593463540077 11.6407003403 1.46839940548 -0.593465924263 11.638710022 1.46753203869 -0.593339979649 11.6389036179 1.46734666824 -0.593432247639 11.6374816895 1.46780240536 -0.592895030975 11.6396789551 1.46907174587 -0.592896997929 11.6395797729 1.46803200245 -0.593340098858 11.6424303055 1.46939909458 -0.593465447426 11.6388397217 1.46760702133 -0.593339979649 11.6397104263 1.46810698509 -0.593340098858 11.6404399872 1.46853196621 -0.593340098858 11.6405801773 1.46860742569 -0.593341052532 11.6422996521 1.46932399273 -0.593465268612 11.6414299011 1.46882402897 -0.593465089798 11.6415596008 1.46889901161 -0.593465089798 11.6413097382 1.46903204918 -0.593340098858 11.6414403915 1.46910703182 -0.593340218067 11.6432342529 1.46984469891 -0.5934278965 11.6410799026 1.46988272667 -0.592897057533 11.6422538757 1.46955513954 -0.593307495117 11.6440296173 1.47032392025 -0.593465149403 11.6425094604 1.47070538998 -0.592900633812 11.6432161331 1.46987807751 -0.592918753624 11.6441602707 1.4703990221 -0.593465328217 11.644900322 1.47082364559 -0.593466639519 11.643910408 1.47053098679 -0.593340277672 11.6440401077 1.47060704231 -0.593340277672 11.6467599869 1.47189819813 -0.593465924263 11.6450300217 1.47089898586 -0.593465328217 11.6466302872 1.47182297707 -0.593465328217 11.6448421478 1.47107338905 -0.593351006508 11.6449184418 1.47209513187 -0.592892885208 11.6484899521 1.47289788723 -0.593465328217 11.6474895477 1.47232234478 -0.593464195728 11.6465101242 1.47203099728 -0.59334051609 11.6466398239 1.47210597992 -0.59334051609 11.6483602524 1.4728230238 -0.59346550703 11.6483697891 1.47310590744 -0.593340337276 11.6480369568 1.47389864922 -0.592897117138 11.6482400894 1.47303104401 -0.59334051609 11.6476202011 1.47239804268 -0.59346550703 11.6474542618 1.47253584862 -0.593267798424 11.6491975784 1.47352766991 -0.593835175037 11.649148941 1.47361207008 -0.593438565731 11.6500902176 1.47382307053 -0.593465983868 11.6502199173 1.47389805317 -0.59346562624 11.6510238647 1.47436225414 -0.593469977379 11.6494150162 1.47469210625 -0.592897832394 11.6500196457 1.47409510612 -0.593399405479 11.650970459 1.47460579872 -0.593340098858 11.6508398056 1.4745310545 -0.593340575695 11.6519832611 1.47469127178 -0.593084216118 11.6517753601 1.47504973412 -0.593299329281 11.6512975693 1.47577929497 -0.592897176743 11.6527547836 1.47536075115 -0.593466758728 11.6548595428 1.47571396828 -0.593853294849 11.6525697708 1.47553098202 -0.593340814114 11.6527004242 1.47560596466 -0.593340814114 11.6535596848 1.47582304478 -0.593465805054 11.6536903381 1.47589802742 -0.593465805054 11.6539421082 1.47730517387 -0.592898070812 11.6534404755 1.47603094578 -0.593340814114 11.6535701752 1.47610604763 -0.593340814114</float_array>
          <technique_common>
            <accessor source="#positions-array" count="706" stride="3">
              <param name="X" type="float" />
              <param name="Y" type="float" />
              <param name="Z" type="float" />
            </accessor>
          </technique_common>
        </source>
        <source id="normals">
          <float_array id="normals-array" count="2367">-1 0 0 -0.99999994 0 0 -0.99993181 0.0055245 -0.01029107 -0.99980384 0.00336508 -0.01952011 -0.98039794 0.00965594 0.19679101 -0.93637443 -0.32935578 -0.12135811 -0.92728746 -0.16195898 -0.33750173 -0.91051638 -0.14055078 -0.38885126 -0.90235978 0.00051369 -0.43098325 -0.89794987 0.36476892 -0.24623109 -0.89350241 4.654e-05 -0.44905832 -0.89333898 0.00013398 -0.44938335 -0.89058936 0.00013552 -0.45480844 -0.89046228 -0.16614375 -0.42364287 -0.89025688 0 -0.45545891 -0.89025682 0 -0.45545888 -0.89014673 3.871e-05 -0.45567384 -0.89006615 0 -0.4558315 -0.89006609 0 -0.45583147 -0.88999355 8.698e-05 -0.45597312 -0.88997418 1.9e-05 -0.45601094 -0.8899706 0 -0.456018 -0.88997054 7.014e-05 -0.45601797 -0.88997048 0 -0.45601794 -0.88994521 2.475e-05 -0.45606747 -0.88977915 0 -0.45639136 -0.88977909 0 -0.45639133 -0.88968325 0 -0.45657825 -0.88968319 0 -0.45657825 -0.88968319 0 -0.45657822 -0.88949114 0 -0.45695248 -0.88949114 0 -0.45695245 -0.88929856 0 -0.45732719 -0.88929844 0 -0.45732716 -0.88920206 0 -0.45751476 -0.889202 0 -0.45751473 -0.88920194 0 -0.4575147 -0.88887358 0.00010919 -0.45815253 -0.88604897 0.00027644 -0.46359134 -0.87567455 0.00057625 -0.4829013 -0.86123693 -0.42377505 -0.28050938 -0.79809672 -0.58957231 -0.12428231 -0.78219384 0.29495066 -0.54879588 -0.73377758 -0.2624597 -0.6266461 -0.71406251 0.41260257 -0.56557381 -0.70249099 -0.00031627 0.71169257 -0.69954348 -0.20252812 -0.68528926 -0.6908893 0.70638925 0.15390322 -0.68999815 -0.26409051 -0.673913 -0.59547925 0.01362875 -0.80325502 -0.58877951 -0.04674419 -0.80694085 -0.58643264 0.00173698 -0.80999613 -0.58470416 0.00156628 -0.81124508 -0.58280843 -4.535e-05 -0.81260961 -0.56756783 -0.00590462 -0.82330555 -0.56614733 -0.00982473 -0.82424563 -0.56500161 -0.001111 -0.82508904 -0.55004901 0.80055583 -0.2378159 -0.53757989 -0.19129191 -0.82122785 -0.53225189 0.52406454 -0.66487914 -0.52770627 0.66272765 -0.53133619 -0.52751249 0.66286963 -0.53135163 -0.52553636 -0.01336817 -0.85066617 -0.52526134 0.42509264 -0.73715454 -0.51720512 0.85262996 -0.07430381 -0.50365496 -0.0058084 -0.8638854 -0.49888274 0.86329663 -0.07638671 -0.4915159 0.84978235 -0.19047834 -0.48637283 0 -0.87375146 -0.4863728 -0.0001126 -0.8737514 -0.4857443 -0.11609867 -0.86635649 -0.48407319 -0.00979846 -0.87497264 -0.48114431 -0.00060539 -0.87664115 -0.4809593 -0.00694168 -0.87671536 -0.48063076 0.00615549 -0.87690151 -0.47928447 0 0.87765968 -0.47928444 0 0.87765962 -0.47915423 0.8298499 -0.28593808 -0.47468528 -0.00961106 -0.88010311 -0.47466156 0.01386297 -0.88005918 -0.46893489 0.81132567 0.34907123 -0.46826944 -0.00531096 -0.88356984 -0.46498415 -0.00026383 -0.88531893 -0.46431309 -0 -0.88567114 -0.46390429 0.0002485 -0.88588536 -0.46312401 -0.00018373 -0.88629347 -0.46307948 -0.00030339 -0.88631678 -0.46303365 0.00077747 -0.88634044 -0.46303362 0.00012431 -0.8863408 -0.4628602 -6.216e-05 -0.88643134 -0.46268672 0 -0.88652188 -0.46264872 -0.00101117 -0.88654101 -0.46263531 -0.00017558 -0.88654864 -0.46257284 -0.00035238 -0.88658118 -0.46256962 -0.0005811 -0.88658285 -0.46243146 0.00036247 -0.88665491 -0.46218246 -0.00027574 0.88678473 -0.46217906 0 -0.88678664 -0.46210742 -0.00017142 -0.88682395 -0.46209207 0.0003621 -0.88683194 -0.46208522 -0.00980136 -0.88678133 -0.46206856 -8.63e-05 0.88684416 -0.46196327 -5.286e-05 -0.88689917 -0.46193445 -5.715e-05 -0.88691413 -0.46193436 -0.00012437 -0.88691401 -0.4619047 -0.00047625 -0.88692939 -0.46183589 -0.0016395 -0.8869639 -0.46183062 -0.00010573 -0.88696814 -0.46162474 0 -0.8870753 -0.46162352 -0.000164 -0.8870759 -0.46161258 -3.696e-05 0.88708162 -0.46158826 -0.00024883 -0.88709432 -0.46158826 0 -0.88709432 -0.46158826 0.00012442 -0.88709432 -0.46158823 0 -0.88709426 -0.46158823 5.717e-05 -0.88709426 -0.4615882 -0.00051791 -0.8870942 -0.46158662 -0.00264649 -0.88709116 -0.46154481 -0.00026437 -0.88711685 -0.46141508 -0.00012443 -0.88718438 -0.46141508 -0 -0.88718438 -0.46141508 0.00012441 -0.88718438 -0.46141508 0.00024886 -0.88718438 -0.46141505 -0.00021149 -0.88718432 -0.46141502 -0.00037329 -0.88718426 -0.46141118 -0.00414152 -0.88717669 -0.46126884 -2.747e-05 0.88726038 -0.46124342 -0.02727429 -0.88685429 -0.46124187 -0 -0.88727444 -0.46124184 -0.00051752 -0.88727438 -0.46124184 0.00037333 -0.88727438 -0.46124178 0.00062221 -0.88727427 -0.46123046 -0.00021151 -0.88728029 -0.46122098 -0.00951884 -0.88723427 -0.46119994 6.347e-05 -0.88729614 -0.46113759 3.526e-05 -0.88732862 -0.46112806 -0.0004398 -0.88733351 -0.46106857 -0.00012446 -0.88736445 -0.46105355 -0.00808032 -0.88733548 -0.46105286 0 -0.88737273 -0.46101072 0.03165362 -0.88682979 -0.46075869 -4.174e-05 -0.8875255 -0.46069801 -0.00014763 -0.88755697 -0.46054849 -5.719e-05 -0.88763458 -0.46037501 -0 -0.88772458 -0.46037155 0.00386633 -0.8877179 -0.46036834 -0.00537471 -0.8877117 -0.46028265 -0.00062256 0.88777214 -0.46010768 0.04374208 -0.88678497 -0.4598805 -0.00089751 -0.88798034 -0.45944452 -0.16071996 -0.87354451 -0.45913988 -0.0018485 -0.88836205 -0.45898065 -0.00017176 -0.88844615 -0.45894971 0.00164496 -0.88846081 -0.4576585 -0.00074405 -0.88912773 -0.45692894 0.00518167 -0.88948816 -0.45572844 0.03703794 -0.88934791 -0.45555922 -0.15881157 -0.87592506 -0.45533627 -0.16178671 -0.87549639 -0.45289949 -0.0115205 -0.89148718 -0.45288724 0.00018646 -0.89156777 -0.45230943 -0.0061776 0.89183962 -0.45023036 0 -0.89291251 -0.44841182 0 -0.89382708 -0.44841176 -0.00050306 -0.89382702 -0.44821256 0.02853772 -0.8934713 -0.4477264 -0.00050236 -0.89417052 -0.44772542 -0 -0.894171 -0.4473843 -0.00025087 -0.89434189 -0.44738424 -0.0002508 -0.89434177 -0.44738424 -0.00012542 -0.89434183 -0.4471615 0.01526819 -0.89432299 -0.44704291 0 -0.89451259 -0.44704288 -0.00037637 -0.89451253 -0.44590214 0.0158282 -0.89494187 -0.44456726 -0.02120016 -0.89549458 -0.44438621 0.03554416 -0.89512992 -0.44420037 -0.02048878 -0.89569318 -0.44395244 0.03918315 -0.89519328 -0.44359592 0.00252859 -0.89622337 -0.43772304 -0.00406187 0.89910072 -0.43704677 7.148e-05 -0.89943886 -0.43065155 -0.00503761 -0.90250421 -0.43019077 0.00545179 -0.90272141 -0.42952088 -0.00818785 -0.90301973 -0.42591622 -0.17935176 -0.88680792 -0.42553815 -0.1811742 -0.88661897 -0.42446876 0.00063491 -0.9054423 -0.4238883 0.03364887 -0.90508914 -0.42132008 0.00384882 -0.90690386 -0.42114234 7.205e-05 -0.90699458 -0.42105919 -4.328e-05 -0.90703315 -0.42094153 0 -0.9070878 -0.42091948 4.05e-06 -0.907098 -0.42040995 -0.00021632 -0.90733415 -0.42017785 -0.00039002 -0.90744174 -0.4201299 -3.933e-05 -0.90746403 -0.42009699 0.00011388 -0.90747917 -0.42008227 0.0004146 -0.90748596 -0.41997558 0 -0.90753543 -0.41996288 -0.00011386 -0.90754128 -0.4199582 2.924e-05 -0.90754348 -0.41994822 -0.00010822 -0.90754807 -0.41988784 -5.848e-05 -0.90757602 -0.41987908 -1.579e-05 -0.90758008 -0.41986388 -7.592e-05 -0.90758705 -0.41983765 -3.607e-05 -0.90759927 -0.41981184 -0.13672501 -0.89725375 -0.41980934 -0 -0.90761238 -0.41979715 -3.587e-05 -0.90761787 -0.41978446 -0.13665801 -0.89727676 -0.41977385 0 -0.90762877 -0.41973159 0 -0.90764827 -0.41973141 0 -0.90764832 -0.41945592 -0.00018818 -0.9077757 -0.41908267 -0.00049678 -0.90794796 -0.41841349 0.0006898 -0.90825629 -0.41684309 -0.00471627 -0.90896624 -0.41671169 -0.00108391 -0.90903807 -0.41419184 0.00147154 -0.9101885 -0.41260925 0.00523722 -0.91089302 -0.40964878 -0.00780903 -0.91220987 -0.40856081 -0.46346149 -0.78630888 -0.40615234 -0.47454357 -0.78092808 -0.40384349 -0.02267539 -0.91454709 -0.40324903 -0.03201462 -0.9145301 -0.39958718 -0.32252508 -0.85808372 -0.39834353 0.39281115 -0.82886779 -0.39097682 0.5300287 -0.75246704 -0.38252053 0 -0.92394686 -0.38222083 0.00047469 -0.92407089 -0.38166583 0.00146532 -0.92429924 -0.38146251 -0.02531469 -0.92403769 -0.37827 0.01179167 -0.92562026 -0.36724418 0.52187079 -0.76992381 -0.36600861 0.02905429 -0.93015772 -0.36436033 -0.62539846 -0.69001323 -0.36022481 0.00039251 -0.93286544 -0.35791078 0.03652904 -0.93304104 -0.35790429 -0.03702236 -0.93302405 -0.34627429 -0.04793365 -0.93690789 -0.33639663 0.34800747 -0.87505895 -0.32807514 0.03223987 -0.94410133 -0.30990565 -0.15985064 -0.93723333 -0.28511894 0.0477533 -0.95730186 -0.28502572 -0.05415349 -0.95698887 -0.28354368 0.09462048 -0.95427984 -0.28008381 -0.54655576 -0.78919566 -0.27910313 0.48399282 -0.82936871 -0.27191809 -0.00049871 0.96232033 -0.26874065 0.36684471 -0.89061975 -0.26429471 0.45776775 -0.84887981 -0.26072648 0.44758657 -0.85538769 -0.25970855 0.13150014 -0.9566918 -0.25573674 0.52955157 -0.80881011 -0.25097409 0.33603632 -0.90779495 -0.24818845 0.28280157 -0.92651266 -0.24772707 0.35685185 -0.90071529 -0.24648263 -0.19079369 0.95018113 -0.24643472 0.36641312 -0.89722425 -0.2447926 0.38525674 -0.88974935 -0.24457303 0.33518961 -0.90985274 -0.23905063 0.39724907 -0.88602936 -0.23735255 -0.94189978 -0.2376733 -0.23575202 0.06643119 -0.96954 -0.23498347 0.41222873 -0.88025582 -0.23418212 -0.13277194 -0.96308368 -0.23354033 0.3975209 -0.88737595 -0.23275024 0.40259501 -0.8852936 -0.23256181 0.40119842 -0.88597679 -0.23236513 0.40192887 -0.88569725 -0.2322605 0.40723488 -0.88329768 -0.2315855 0.36379504 -0.90223128 -0.23145282 0.39933008 -0.88711053 -0.23131341 0.39942023 -0.88710636 -0.23130922 0.39941305 -0.88711059 -0.23124322 0.39905095 -0.88729078 -0.23120108 0.37524399 -0.89762908 -0.23117591 0.40125018 -0.88631594 -0.23116679 0.39931226 -0.8871932 -0.23106721 0.40121353 -0.88636094 -0.23097186 0.39980799 -0.88702053 -0.23094724 0.3997497 -0.88705331 -0.2308327 0.39869204 -0.88755894 -0.23082304 0.40397149 -0.885171 -0.23082004 0.40005708 -0.88694787 -0.2306354 0.39989471 -0.88706911 -0.23063019 0.40081778 -0.88665372 -0.23062252 0.39917767 -0.88739532 -0.23060611 0.40181923 -0.88620663 -0.23059541 0.40121058 -0.88648516 -0.23057784 0.40022397 -0.88693553 -0.23056981 0.39819041 -0.88785249 -0.23050685 0.40164629 -0.88631076 -0.23044144 0.39297852 -0.89020479 -0.23041354 0.40259948 -0.88590252 -0.23035359 0.40369648 -0.88541877 -0.2302639 0.40001681 -0.88711053 -0.23020373 0.39915121 -0.8875159 -0.23019692 0.40048587 -0.88691628 -0.23009561 0.39491954 -0.88943499 -0.23007074 0.39994198 -0.88719434 -0.22968563 0.4000459 -0.88724726 -0.22957791 0.40002766 -0.88728338 -0.2295313 0.39977893 -0.88740754 -0.2292604 0.41243434 -0.88166744 -0.22902811 0.40598673 -0.88471514 -0.22879164 0.48395845 -0.84465301 -0.22836849 0.38753179 -0.89312208 -0.22834045 0.48025674 -0.84688497 -0.22809862 0.40020499 -0.88758487 -0.22792453 0.40323991 -0.88625515 -0.22619961 0.15543933 -0.96159887 -0.22565353 0.40804338 -0.88463616 -0.22415228 0.33364975 -0.9156602 -0.2238798 0.42736125 -0.87592256 -0.22009215 0.64045519 -0.73578298 -0.21737613 0.35847899 -0.90787697 -0.21595526 0.37134394 -0.90303212 -0.21518321 0.36488414 -0.90584534 -0.21476418 0.40887833 -0.88695818 -0.21386407 0.40019688 -0.89112544 -0.21345386 0.36446524 -0.90642291 -0.21145448 0.36621919 -0.90618455 -0.21059051 0.37479031 -0.90287536 -0.20980231 0.3565492 -0.91041517 -0.20978439 0.36346552 -0.90768021 -0.20779477 0.35671923 -0.9108088 -0.20439112 0.35340217 -0.91286975 -0.20245866 0.89813995 -0.39032704 -0.20048666 0.42640987 -0.88203156 -0.19919075 -0.09779556 -0.97506875 -0.19892611 0.08950964 -0.97591829 -0.19713946 -0.05761528 -0.97868109 -0.19440718 0.33399102 -0.92231005 -0.1941732 0.50825983 -0.8390283 -0.18313518 0.73164481 -0.65662575 -0.17174265 0.16534345 -0.97116739 -0.16859253 0.38885614 -0.90574139 -0.16729178 0.32019502 -0.93246371 -0.16054568 0.27770063 -0.9471575 -0.14039744 0.95258391 0.26994872 -0.13990456 0.5391652 -0.8304984 -0.1391245 0.0913303 -0.98605436 -0.1299371 0.25635955 -0.95780802 -0.12621953 0.96701157 -0.22126293 -0.1222895 0 -0.99249452 -0.12212894 0.20240681 -0.97165632 -0.12040874 0 -0.99272442 -0.10852677 -0.05132095 -0.99276793 -0.0954654 0.16582802 -0.98152298 -0.09507661 -0.27374247 -0.95709223 -0.07722186 0.21806942 -0.97287333 -0.07550205 -0.24229196 -0.96726108 -0.07472598 0.0279566 -0.99681216 -0.06992523 0.00079297 0.99755192 -0.06601974 0.00041984 0.99781823 -0.06002733 0.32031611 -0.94540691 -0.05727295 -3.881e-05 -0.99835867 -0.05197067 0.40505773 -0.91281283 -0.04978177 0.40289736 -0.91389024 -0.04931886 0.1260429 -0.99079812 -0.04626949 0.12603652 -0.99094599 -0.04625674 -0.06528397 -0.99679404 -0.03385572 -0.00026833 0.99942666 -0.0335925 -0.30284247 -0.95244837 -0.03346117 8.361e-05 -0.99944001 -0.03120071 -0.00035387 -0.99951315 -0.0307588 8.709e-05 -0.99952686 -0.03036816 -0.00043104 -0.99953872 -0.02429152 0.3736892 -0.92723584 -0.02231135 0.00198678 0.99974912 -0.01094189 -0.00066602 0.99993998 -0.01051305 0.00012922 0.99994469 -0.00937198 5.96e-05 0.99995607 -0.00906399 -1.017e-05 0.99995899 -0.00901372 -0.00011151 0.99995929 -0.00727581 0.00049761 0.99997336 -0.00493952 0.00012393 0.99998784 -0.00470279 -0.0028143 -0.99998498 -0.00416471 0.00049994 -0.99999124 -0.00413735 0.00044439 -0.99999142 -0.00378793 3.974e-05 0.99999285 -0.00262001 0.00015241 -0.9999966 -0.00235864 0.00012934 -0.99999732 -0.00211435 0.95096707 -0.30928481 -0.00085145 -5.847e-05 0.9999997 -0.00067202 -3.974e-05 0.99999976 -0.00066843 -6.726e-05 0.9999997 -0.00062818 6.411e-05 0.99999976 -9.22e-05 -3.147e-05 0.99999994 -0 0 -0.99999994 0 0 0 0 -0 1 0.00019742 -0.00014047 -1 0.00040774 -8.366e-05 -0.99999988 0.00056054 -3.902e-05 0.99999982 0.00065047 -0.00135575 -0.99999887 0.00102671 -0.76191235 -0.64767921 0.00125 0 0.99999928 0.00129137 -0.00018965 -0.99999917 0.0023953 -0.00012548 -0.99999708 0.00344107 -2.187e-05 0.99999416 0.00411033 -0.00038923 -0.99999142 0.00416376 -0.00049762 -0.9999913 0.00831735 -0.00012713 0.99996543 0.01027715 1.06e-05 0.99994719 0.01387931 -0.02444948 -0.9996047 0.01845234 -6.96e-05 -0.99982977 0.02461482 0.52391392 -0.85141551 0.03325498 0 -0.99944693 0.0333672 0 -0.99944311 0.03363131 0.00028035 -0.99943429 0.04032838 -0.4064151 -0.91279817 0.05112519 -0.00070035 0.9986921 0.05915417 -0.00079289 0.99824852 0.06057959 -0.95413858 -0.29317176 0.08348361 -0.47152397 -0.87789267 0.08463785 -0.43071088 -0.89851248 0.08800967 -0.14969094 -0.98480809 0.08930319 0.00051617 0.9960044 0.08963512 -0.05974342 -0.99418122 0.09016073 -0.06030378 -0.99409986 0.10960904 -0.00069704 0.99397451 0.11430049 -0.00128617 -0.9934454 0.11449847 -0.0017474 -0.99342191 0.12163619 0.11066031 -0.98638684 0.12403473 0 0.9922778 0.12403474 -0 0.99227792 0.13064213 -0.38243857 -0.9146986 0.14175045 -0.2800099 -0.94947422 0.14784031 0.04656767 -0.98791426 0.14967169 -0.34906077 -0.92507023 0.15883312 -0.44083476 -0.88342333 0.16234246 0.00041518 -0.98673433 0.16677557 0.00027658 0.98599488 0.1722119 -0.38665932 -0.90600085 0.17409454 -0.1263416 -0.97659051 0.18049824 0.44276071 0.87828428 0.18728837 -0.08605357 -0.97852844 0.18861373 -0.09047081 -0.97787517 0.18986428 -0.46248648 -0.86605877 0.19055286 -0.64511108 -0.7399469 0.19635618 -0.63073224 -0.75074708 0.20191354 -0.89787555 -0.39121655 0.20478874 -0.35430908 -0.91242903 0.20775974 -0.40215346 -0.89168859 0.20824659 -0.41412827 -0.88607633 0.20830469 -0.36187032 -0.90865785 0.20901363 -0.36327952 -0.9079324 0.20958708 -0.35617188 -0.91061234 0.20986925 -0.36301708 -0.90783995 0.21121635 -0.37557086 -0.90240461 0.21163163 -0.3894425 -0.8964076 0.21286923 -0.36358199 -0.90691501 0.21388726 -0.3975924 -0.89228499 0.21473108 -0.36470139 -0.90602618 0.22092584 -0.41305053 -0.88350493 0.22168337 -0.46253636 -0.85843849 0.22204678 -0.40504426 -0.88692409 0.22256209 -0.38428187 -0.89598745 0.22343434 0.07625391 -0.9717316 0.22356556 -0.06816566 -0.97230232 0.22416601 -0.33379203 -0.91560495 0.22439933 -0.38683426 -0.89442962 0.22443902 -0.37473279 -0.89955676 0.22615521 -0.39826873 -0.88895214 0.22716677 -0.36888441 -0.90128773 0.22735719 -0.40285298 -0.88657665 0.22776611 -0.38506836 -0.89434046 0.22780614 -0.39891371 -0.88824111 0.22835732 -0.35256606 -0.90749669 0.22844818 -0.368141 -0.90126777 0.22847535 -0.36847386 -0.90112484 0.22912465 -0.44146308 -0.86753231 0.22940114 -0.39908513 -0.88775343 0.22940266 -0.39972228 -0.88746637 0.2295581 -0.40512016 -0.88497508 0.22963478 -0.39949161 -0.88751018 0.22971295 -0.39915732 -0.8876403 0.22998865 -0.44035208 -0.8678683 0.23017903 -0.40107659 -0.8866539 0.23028259 -0.40274876 -0.88586873 0.23035359 -0.40369648 -0.88541877 0.23035967 -0.39782751 -0.88806969 0.23039863 -0.4014577 -0.88642436 0.23040642 -0.40147129 -0.88641614 0.23042029 -0.40139821 -0.8864457 0.23043308 -0.39914289 -0.88746017 0.23043914 -0.40092734 -0.88665384 0.2304946 -0.40110528 -0.88655895 0.23050685 -0.40164629 -0.88631076 0.23067497 -0.39971057 -0.8871417 0.23073435 -0.40416527 -0.88510561 0.23073643 -0.40005398 -0.886971 0.23073854 -0.4000636 -0.88696611 0.23087017 -0.40227935 -0.88592905 0.23092301 -0.39953125 -0.88715798 0.23095325 -0.42218161 -0.87659764 0.23100142 -0.40077087 -0.88657832 0.23101516 -0.39984584 -0.88699228 0.23102544 -0.39972943 -0.88704211 0.23103489 -0.39993349 -0.88694763 0.23116677 -0.39931226 -0.8871932 0.23131509 -0.39914796 -0.88722843 0.23131602 -0.40169156 -0.88607943 0.23138343 -0.39969102 -0.88696599 0.23145282 -0.39933008 -0.88711053 0.23281668 -0.39637718 -0.8880775 0.24179257 -0.38109592 -0.89235771 0.24205527 -0.38804904 -0.88928473 0.24280348 -0.07355434 -0.96728301 0.24507426 -0.39668694 -0.88463438 0.24816936 -0.28272635 -0.92654073 0.25048712 -0.33519408 -0.90824068 0.25389299 -0.59999472 -0.75864667 0.25651219 -0.38360986 -0.88715553 0.26739416 -0.12298032 -0.95570707 0.26874065 -0.36684471 -0.89061975 0.27302673 -0.05229285 -0.9605841 0.28191233 0.54522222 -0.7894671 0.28294361 -0.85651296 -0.43165776 0.2875928 -0.36573553 -0.88517106 0.29251951 0.15601696 -0.94344634 0.29254395 0.15707035 -0.94326395 0.29683137 -0.33262467 -0.8951267 0.30050966 0.02511593 -0.95344806 0.30160519 -0.08830611 -0.94933468 0.30337983 0.0778252 -0.94968623 0.32169184 0.08207697 -0.94328034 0.32745796 -0.02164043 -0.94461793 0.32748049 0.49538276 -0.80458224 0.32982382 -0.0868429 -0.94003963 0.34660128 0.04483686 -0.93694037 0.35686278 -0.06829325 -0.93165708 0.3573519 0.16084376 -0.92001569 0.35745341 0.03697113 -0.93319899 0.35887325 -0.46810484 -0.8075195 0.36758417 -0.52784401 -0.76567787 0.36892077 0.49338433 -0.78769881 0.37821057 -0.50310874 -0.77707034 0.38268068 -0.00047507 -0.92388058 0.38352376 0.00097123 -0.92353046 0.3898941 -0.53123456 -0.75217849 0.39342356 -0.01577657 -0.91922194 0.39663064 -0.51043051 -0.76298416 0.40227079 0.02762375 -0.91510391 0.41029841 -0.00495898 -0.91193789 0.41591337 0.00174259 -0.90940255 0.41604277 -0.00072285 -0.90934473 0.41827771 5.204e-05 -0.90831918 0.4184719 -0.00039911 -0.90822971 0.41876927 -0.00519156 -0.9080779 0.4188025 0.06418595 -0.90580606 0.41890919 0.00037654 -0.90802813 0.41949898 -7.594e-05 -0.90775585 0.41955495 0.00018817 -0.90772998 0.41957331 0.00069581 -0.90772122 0.4196274 0.13689882 -0.89731354 0.41972235 0.00011697 -0.90765256 0.41980174 -4.55e-06 -0.90761584 0.41980937 0 -0.90761238 0.41995418 0 -0.90754539 0.41995418 0 -0.90754527 0.41999248 6.956e-05 -0.90752757 0.42009088 5.409e-05 -0.90748203 0.42015192 5.848e-05 -0.90745378 0.42016476 -7.591e-05 -0.90744787 0.42017171 0.00021637 -0.9074446 0.42021188 -6.317e-05 -0.907426 0.42070046 0.00018806 -0.9071995 0.42082775 0 -0.90714061 0.42084345 0.00047011 -0.9071331 0.42087105 -2.069e-05 -0.90712053 0.42098966 1.545e-05 -0.90706539 0.42134511 0.000376 -0.90690029 0.4252331 0.00419972 -0.905074 0.42552719 -0.47140807 -0.77246428 0.4259125 0.17720713 -0.88724083 0.42787558 0.00252014 -0.9038341 0.43045405 0.10697765 -0.89625061 0.4326258 0.034215 -0.90092415 0.43309629 -0.0057815 -0.90132922 0.43350214 -0.00333229 -0.90114635 0.43436971 0.00012631 0.90073472 0.4346796 0.0142203 -0.90047288 0.43470481 -0.0092727 -0.90052533 0.43541816 0.01388837 -0.90012115 0.43591788 0.00704252 -0.89995879 0.43687451 0.0006308 -0.89952224 0.44047526 -0.00448371 -0.8977536 0.44105831 -0.04671853 -0.89626169 0.44201565 -0.00281091 0.89700282 0.44441411 -0.00595683 -0.8958016 0.44513136 -0.46561542 -0.76489234 0.44521257 0.11924061 -0.88744998 0.44604212 0.00062764 -0.89501184 0.44604224 -0.02594691 -0.89463574 0.44618744 -0.00475224 -0.89492691 0.44670126 -0.00025096 -0.89468306 0.44703904 0.00414832 -0.89450485 0.44704038 0.00334177 -0.89450753 0.44704282 -0.00062729 -0.89451241 0.44719976 0.00011528 -0.89443415 0.4473843 0 -0.89434189 0.4477233 0.00090758 -0.89417171 0.44772348 0.0002132 -0.89417201 0.44797295 5.663e-05 -0.89404702 0.44812343 0.00046198 -0.89397156 0.45230785 -0.00115473 -0.89186108 0.45247233 -0.00657362 -0.89175427 0.45287958 0.00011043 -0.8915717 0.45287973 -0.00692066 -0.89154476 0.45302653 0.00249641 -0.89149356 0.45435974 -0.00140542 -0.89081711 0.454835 -0.00162882 -0.89057422 0.45499888 0.1617271 -0.87568277 0.45535505 0.15925799 -0.87595016 0.45544237 0.15807952 -0.87611818 0.45636967 0.13440548 -0.87958056 0.45697412 0.00062376 -0.88947976 0.45704755 -0.00610123 -0.88942134 0.45731813 0.14828022 -0.87685406 0.45818862 0.12114689 -0.88056034 0.45855573 -0.00018426 -0.88866568 0.45897862 -0.00036842 -0.88844717 0.45899969 -0.00062303 -0.88843614 0.45992476 -0.00015879 -0.88795781 0.46013907 -0.00030303 -0.88784677 0.46038702 0.00051656 0.8877182 0.46048591 -0.00018405 -0.88766706 0.46073389 0.00051688 0.88753814 0.46083915 -0.00015193 -0.88748366 0.46085677 5.99e-05 -0.88747454 0.46086046 0 -0.88747263 0.46105948 0.00629431 -0.88734692 0.4610672 -0.00248515 -0.88736176 0.4610686 0 -0.88736451 0.46106863 5.718e-05 -0.88736451 0.46123421 0.0057639 -0.88725972 0.46124184 0.00024888 -0.88727438 0.46124184 0.00051752 -0.88727438 0.46124187 0 -0.88727444 0.46124187 0 -0.88727438 0.46124187 6.222e-05 -0.88727444 0.46125677 0.00036786 -0.88726664 0.4614076 0.00570814 -0.88716996 0.46141487 -0.00100662 -0.8871839 0.46141502 0.00049772 -0.88718426 0.46141508 0 -0.88718438 0.46141508 6.221e-05 -0.88718438 0.46141508 0.00011433 -0.88718438 0.46141508 0.00024886 -0.88718438 0.46142256 0.00018391 -0.88718051 0.46142268 0.00018391 -0.88718039 0.46148634 0.00024885 0.88714731 0.46148819 -7.421e-05 -0.88714635 0.46151292 0.00027591 -0.88713348 0.46158302 0.00475859 -0.88708425 0.46158826 0 -0.88709432 0.46161258 3.696e-05 0.88708162 0.46176881 -0.00018387 -0.88700026 0.46176895 -0.00018387 -0.8870002 0.46193436 0.00012437 -0.88691401 0.46193439 0 -0.88691401 0.46203959 -0.0004597 -0.88685912 0.46210629 9.834e-05 -0.88682461 0.46210715 0.00109918 -0.88682342 0.46210742 -6.219e-05 -0.88682395 0.46210742 -6.217e-05 -0.88682395 0.46210742 6.219e-05 -0.88682395 0.46217152 0.00028388 -0.88679057 0.46228576 0.00029787 -0.88673097 0.46231082 3.961e-05 -0.88671798 0.46239424 6.343e-05 -0.88667434 0.4626866 0.00059132 -0.88652164 0.46268672 0 -0.88652188 0.46272826 0.00036754 -0.88650006 0.46279886 -0.00049731 -0.88646322 0.46303362 0 -0.8863408 0.46333441 0.00047766 -0.88618338 0.46337855 0.0001837 -0.88616037 0.4635179 -0.00027717 -0.88608754 0.46358207 -0.00143394 -0.88605285 0.46359104 0.00027557 -0.88604927 0.46415442 0.0003673 -0.88575423 0.46431303 -0.00031676 -0.88567102 0.46431309 0 -0.88567114 0.46436524 -0.80333942 0.37284136 0.4650403 0.00062082 -0.88528919 0.46555331 0.00017584 0.8850199 0.46594778 0 -0.88481218 0.46594781 0 -0.88481224 0.46683058 3.884e-05 -0.88434672 0.46750742 0.00095657 -0.88398856 0.46838298 -0.00477238 -0.88351268 0.46871838 -0.00168264 -0.88334608 0.47083285 0.00375914 -0.88221449 0.47168463 -0.81386971 -0.33930767 0.47172785 0.00012363 -0.88174421 0.47224894 -0.8170473 0.33077917 0.479072 -0.02343856 -0.87746263 0.49059048 0.00287641 -0.87138551 0.5046227 -0.15743485 -0.84886408 0.52298898 -0.09450214 -0.84708434 0.52753407 -0.66291791 -0.53126985 0.52764964 -0.66310346 -0.53092337 0.53231484 -0.52509731 -0.66401327 0.53687483 0.0747915 -0.8403402 0.54990518 -0.00396265 -0.83521765 0.55144852 -0.02870929 -0.83371478 0.55208594 -0.01910691 -0.83356827 0.5567944 0.01088129 -0.83057904 0.58780128 0.35115281 -0.72882193 0.59601295 0.38874599 -0.70259887 0.59982336 0.18832205 -0.77765471 0.60830927 -0.08933568 -0.78865647 0.60844988 0.09479056 -0.78791082 0.61033154 0.11944575 -0.78308886 0.61471474 -0.00762073 -0.78871268 0.62998098 0.32553762 -0.7050882 0.66065621 0.00029219 0.75068855 0.66684937 0.09893443 -0.73859596 0.66799617 0.2381687 -0.70502251 0.68706113 0.26424938 -0.67684501 0.68874109 -0.70713162 0.16000162 0.69043553 -0.70066309 0.17991689 0.72904503 -0.00035472 -0.68446577 0.74255574 0.27553272 -0.61048555 0.76010936 0.64960945 -0.01553595 0.76491117 0 -0.64413577 0.77512431 -0.00171912 -0.63180631 0.80089033 0.58630085 -0.12176151 0.80493057 0.30542222 -0.50872785 0.80764502 -0.53506845 -0.24781272 0.80796975 -0.53957999 -0.23672435 0.86602807 0.30920985 0.39291814 0.87027937 -0.17856486 -0.45905173 0.87569374 -0.00057553 -0.48286641 0.88605165 -0.00027627 -0.46358648 0.88907307 -9.097e-05 -0.45776546 0.8892011 0 -0.45751652 0.88920152 0 -0.4575156 0.88920194 0 -0.4575147 0.88920242 0 -0.45751381 0.88920295 0 -0.45751294 0.88929808 0 -0.45732781 0.88929826 0 -0.45732775 0.88929862 0 -0.45732698 0.88929874 0 -0.45732671 0.88929957 0 -0.45732516 0.8894906 0 -0.45695359 0.88949102 0 -0.45695269 0.88949114 0 -0.45695233 0.8894912 0 -0.45695242 0.8894912 0 -0.45695224 0.88949138 0 -0.45695174 0.88961929 0 -0.45670295 0.88968295 0 -0.45657894 0.88968307 0 -0.45657873 0.88968313 0 -0.45657846 0.88968313 0 -0.45657834 0.88968337 0 -0.45657805 0.88968384 0 -0.45657715 0.88977909 0 -0.45639133 0.88977915 0 -0.45639136 0.88994658 -6.795e-05 -0.45606464 0.88997054 -9.062e-05 -0.45601797 0.88997054 0 -0.45601794 0.88997418 -1.9e-05 -0.45601094 0.89006609 0 -0.45583147 0.89006615 0 -0.4558315 0.89025682 0 -0.45545888 0.89058942 -0.00013552 -0.45480824 0.89333695 -0.00013391 -0.44938761 0.89379299 -0.00026727 -0.44847965 0.90235925 -0.00051369 -0.43098423 0.92471611 0.13159795 -0.3571862 0.925295 -0.37922722 0.00398388 0.92570746 -0.37823763 -0.00145268 0.92629206 -0.34794489 -0.14462809 0.96641195 0.10864983 0.23290171 0.99118644 0.12599742 0.04091411 0.99454349 -0.05780923 0.08684012 0.99925464 0.00673514 -0.03801343 0.99982172 2.25e-05 0.0188868 0.99991769 0.00258321 -0.01257324 0.99999994 -0 0 1 0 0</float_array>
          <technique_common>
            <accessor source="#normals-array" count="789" stride="3">
              <param name="X" type="float" />
              <param name="Y" type="float" />
              <param name="Z" type="float" />
            </accessor>
          </technique_common>
        </source>
        <vertices id="vertices">
          <input semantic="POSITION" source="#positions" />
        </vertices>
        <triangles count="997" material="MATERIAL">
          <input semantic="VERTEX" source="#vertices" offset="0" />
          <input semantic="NORMAL" source="#normals" offset="1" />
          <p>0 233 1 233 2 233 1 231 3 231 2 231 4 186 0 186 2 186 1 49 0 49 4 49 5 229 2 229 3 229 6 730 5 730 3 730 4 52 3 52 1 52 6 55 3 55 4 55 7 253 2 253 5 253 8 379 7 379 5 379 4 51 5 51 6 51 9 53 8 53 4 53 8 54 5 54 4 54 10 195 2 195 7 195 8 312 11 312 7 312 11 131 12 131 7 131 12 1 13 1 7 1 13 249 10 249 7 249 14 757 11 757 8 757 9 246 14 246 8 246 14 392 15 392 11 392 15 128 14 128 13 128 14 91 10 91 13 91 14 83 16 83 10 83 17 392 16 392 14 392 9 139 17 139 14 139 17 0 18 0 16 0 18 84 17 84 10 84 17 87 19 87 10 87 19 216 2 216 10 216 17 123 20 123 19 123 9 132 20 132 17 132 21 206 2 206 19 206 20 127 22 127 19 127 22 175 23 175 19 175 23 391 24 391 19 391 24 382 21 382 19 382 9 135 25 135 20 135 25 387 22 387 20 387 22 176 26 176 23 176 26 140 24 140 23 140 25 384 26 384 22 384 26 133 25 133 24 133 25 100 21 100 24 100 27 212 2 212 21 212 28 392 27 392 21 392 29 392 28 392 21 392 25 98 30 98 21 98 30 114 29 114 21 114 31 0 30 0 25 0 9 142 31 142 25 142 31 112 27 112 28 112 32 213 2 213 27 213 33 392 34 392 27 392 34 392 32 392 27 392 35 90 33 90 27 90 31 99 35 99 27 99 9 95 35 95 31 95 35 90 32 90 34 90 36 219 2 219 32 219 37 153 36 153 32 153 35 105 37 105 32 105 38 406 37 406 35 406 39 368 38 368 35 368 9 333 39 333 35 333 38 355 40 355 37 355 38 155 36 155 40 155 2 196 36 196 41 196 42 396 43 396 36 396 38 264 42 264 36 264 38 266 43 266 42 266 43 215 41 215 36 215 44 199 41 199 43 199 45 787 46 787 43 787 46 392 44 392 43 392 38 81 47 81 43 81 47 124 45 124 43 124 39 367 47 367 38 367 39 348 44 348 46 348 48 0 49 0 44 0 49 205 41 205 44 205 39 337 50 337 44 337 50 68 48 68 44 68 50 69 49 69 48 69 51 165 41 165 49 165 50 138 52 138 49 138 51 393 52 393 50 393 39 369 51 369 50 369 51 224 53 224 41 224 54 239 53 239 51 239 55 389 54 389 51 389 56 45 55 45 51 45 39 332 57 332 51 332 57 141 56 141 51 141 58 189 41 189 53 189 54 238 55 238 53 238 55 145 58 145 53 145 59 60 41 60 58 60 56 381 59 381 55 381 56 207 41 207 59 207 60 660 61 660 62 660 60 660 63 660 61 660 64 770 65 770 62 770 66 768 67 768 62 768 68 772 69 772 62 772 69 772 70 772 62 772 70 772 71 772 62 772 72 772 73 772 62 772 73 772 74 772 62 772 65 771 75 771 62 771 75 771 76 771 62 771 76 739 68 739 62 739 71 772 77 772 62 772 77 772 78 772 62 772 78 772 79 772 62 772 74 772 80 772 62 772 80 772 81 772 62 772 81 772 82 772 62 772 82 772 83 772 62 772 83 772 84 772 62 772 84 772 85 772 62 772 67 740 86 740 62 740 79 772 87 772 62 772 87 772 88 772 62 772 88 772 72 772 62 772 85 772 89 772 62 772 89 738 90 738 62 738 90 769 60 769 62 769 86 770 91 770 62 770 91 771 92 771 62 771 92 771 64 771 62 771 93 743 60 743 90 743 94 741 60 741 93 741 95 745 60 745 94 745 96 743 60 743 95 743 97 741 60 741 96 741 98 744 60 744 97 744 99 741 60 741 98 741 100 745 60 745 99 745 101 741 60 741 100 741 102 744 60 744 101 744 103 741 60 741 102 741 104 743 60 743 103 743 105 745 60 745 104 745 106 741 60 741 105 741 107 745 60 745 106 745 108 742 60 742 107 742 109 745 60 745 108 745 110 774 60 774 109 774 111 748 60 748 110 748 112 747 60 747 111 747 113 750 60 750 112 750 114 746 60 746 113 746 115 748 60 748 114 748 116 748 60 748 115 748 117 749 60 749 116 749 118 746 60 746 117 746 119 776 60 776 118 776 120 752 60 752 119 752 121 756 60 756 120 756 122 753 60 753 121 753 123 756 60 756 122 756 124 752 60 752 123 752 125 751 60 751 124 751 126 755 60 755 125 755 127 754 60 754 126 754 128 751 60 751 127 751 129 752 60 752 128 752 130 756 60 756 129 756 131 753 60 753 130 753 132 756 60 756 131 756 133 775 60 775 132 775 134 763 60 763 133 763 135 760 60 760 134 760 136 759 60 759 135 759 137 762 60 762 136 762 138 758 60 758 137 758 139 762 60 762 138 762 140 762 60 762 139 762 141 761 60 761 140 761 142 762 60 762 141 762 143 760 60 760 142 760 144 762 60 762 143 762 145 761 60 761 144 761 146 762 60 762 145 762 147 760 60 760 146 760 148 762 60 762 147 762 149 762 60 762 148 762 150 759 60 759 149 759 151 773 60 773 150 773 152 765 60 765 151 765 153 765 60 765 152 765 154 765 60 765 153 765 155 764 60 764 154 764 156 765 60 765 155 765 157 765 60 765 156 765 158 765 60 765 157 765 159 766 60 766 158 766 160 767 60 767 159 767 161 185 162 185 163 185 164 230 163 230 162 230 165 405 164 405 162 405 166 70 162 70 161 70 167 724 162 724 166 724 167 157 166 157 165 157 166 150 164 150 165 150 168 339 163 339 164 339 169 713 164 713 166 713 169 158 170 158 168 158 170 58 163 58 168 58 166 243 170 243 169 243 170 344 171 344 163 344 171 208 172 208 163 208 173 539 170 539 166 539 173 223 166 223 171 223 166 346 172 346 171 346 174 202 163 202 172 202 175 0 174 0 172 0 176 137 174 137 175 137 177 211 163 211 174 211 176 120 178 120 174 120 179 0 178 0 176 0 166 366 179 366 176 366 179 0 180 0 178 0 180 122 179 122 177 122 181 200 163 200 177 200 179 104 182 104 177 104 182 107 183 107 177 107 183 0 181 0 177 0 166 354 184 354 179 354 185 118 182 118 179 118 184 82 185 82 179 82 185 655 186 655 182 655 186 111 185 111 183 111 185 119 181 119 183 119 181 209 187 209 163 209 188 204 187 204 181 204 189 0 190 0 181 0 185 122 191 122 181 122 191 113 192 113 181 113 192 0 193 0 181 0 193 0 189 0 181 0 190 0 188 0 181 0 194 788 191 788 185 788 184 134 194 134 185 134 194 0 195 0 191 0 195 112 189 112 193 112 196 112 189 112 195 112 194 0 196 0 195 0 194 0 197 0 196 0 197 115 194 115 190 115 194 103 188 103 190 103 198 218 187 218 188 218 194 74 199 74 188 74 184 220 199 220 194 220 200 201 187 201 198 201 201 0 202 0 198 0 202 0 200 0 198 0 203 121 201 121 198 121 199 73 203 73 198 73 204 393 203 393 199 393 184 65 204 65 199 65 204 89 200 89 202 89 205 214 187 214 200 214 206 85 205 85 200 85 204 116 207 116 200 116 206 393 207 393 204 393 184 108 206 108 204 108 208 197 187 197 205 197 209 0 210 0 205 0 210 788 208 788 205 788 211 130 209 130 205 130 206 94 211 94 205 94 212 374 211 374 206 374 184 102 212 102 206 102 212 88 208 88 210 88 213 174 187 174 208 174 212 129 214 129 208 129 213 629 214 629 212 629 184 92 213 92 212 92 215 183 187 183 213 183 216 79 215 79 213 79 184 242 216 242 213 242 217 388 218 388 215 388 218 217 187 217 215 217 219 244 217 244 215 244 216 78 219 78 215 78 184 71 219 71 216 71 219 245 218 245 217 245 219 146 220 146 218 146 221 364 220 364 219 364 184 106 221 106 219 106 222 203 187 203 218 203 220 144 223 144 218 144 223 143 222 143 218 143 221 0 223 0 220 0 224 61 187 61 222 61 221 380 224 380 223 380 221 210 187 210 224 210 225 227 226 227 227 227 228 726 225 726 227 726 227 117 229 117 228 117 225 47 229 47 227 47 227 594 230 594 225 594 231 56 226 56 225 56 230 786 231 786 225 786 227 177 232 177 230 177 233 72 232 72 227 72 233 178 230 178 232 178 234 43 226 43 231 43 233 409 231 409 230 409 234 365 231 365 233 365 235 46 226 46 234 46 236 222 237 222 234 222 237 785 238 785 234 785 238 781 235 781 234 781 233 358 239 358 234 358 238 438 236 438 234 438 239 6 238 6 234 6 240 182 226 182 235 182 241 631 240 631 235 631 242 782 235 782 238 782 239 86 242 86 238 86 242 584 243 584 235 584 243 170 242 170 241 170 242 164 240 164 241 164 244 198 226 198 240 198 245 356 244 356 240 356 239 97 246 97 242 97 246 173 244 173 245 173 247 191 226 191 244 191 248 0 249 0 244 0 250 237 251 237 244 237 251 0 252 0 244 0 252 0 248 0 244 0 246 225 250 225 244 225 249 1 247 1 244 1 239 50 250 50 246 50 253 170 248 170 252 170 250 235 253 235 252 235 239 188 253 188 250 188 239 93 254 93 253 93 254 171 239 171 249 171 239 152 247 152 249 152 247 193 255 193 226 193 256 190 255 190 247 190 257 181 256 181 247 181 258 62 257 62 247 62 239 151 258 151 247 151 257 159 258 159 239 159 259 192 255 192 256 192 260 392 261 392 256 392 261 392 259 392 256 392 262 172 260 172 256 172 257 179 262 179 256 179 263 592 262 592 257 592 239 109 263 109 257 109 263 163 259 163 261 163 264 194 255 194 259 194 265 788 266 788 259 788 266 0 264 0 259 0 267 168 265 168 259 168 263 166 267 166 259 166 268 393 267 393 263 393 239 136 268 136 263 136 268 169 264 169 266 169 269 331 255 331 264 331 270 40 269 40 264 40 268 167 270 167 264 167 271 0 270 0 268 0 239 149 272 149 268 149 272 160 271 160 268 160 271 0 273 0 270 0 273 9 255 9 269 9 271 187 255 187 273 187 274 221 275 221 255 221 275 240 276 240 255 240 271 232 274 232 255 232 275 184 274 184 271 184 272 154 275 154 271 154 275 363 277 363 276 363 272 7 277 7 275 7 278 371 279 371 276 371 279 156 255 156 276 156 280 148 278 148 276 148 277 362 280 362 276 362 272 361 280 361 277 361 272 162 281 162 280 162 281 125 272 125 279 125 279 418 282 418 255 418 272 5 282 5 279 5 283 13 282 13 272 13 283 353 255 353 282 353 284 59 255 59 283 59 285 228 284 228 283 228 272 520 285 520 283 520 286 444 255 444 284 444 272 41 286 41 285 41 272 234 255 234 286 234 287 67 288 67 289 67 290 488 291 488 292 488 293 503 294 503 292 503 294 507 290 507 292 507 290 484 295 484 291 484 296 489 291 489 295 489 293 491 296 491 294 491 293 482 291 482 296 482 297 490 291 490 293 490 298 483 297 483 293 483 289 463 298 463 293 463 297 486 299 486 291 486 299 514 300 514 291 514 298 518 300 518 299 518 289 513 300 513 298 513 289 441 301 441 300 441 300 436 302 436 291 436 301 480 302 480 300 480 291 502 303 502 304 502 289 446 302 446 301 446 305 429 291 429 302 429 306 479 307 479 291 479 305 475 306 475 291 475 307 492 303 492 291 492 302 448 307 448 306 448 289 452 307 452 302 452 289 447 308 447 307 447 309 515 310 515 303 515 310 506 304 506 303 506 311 433 309 433 303 433 289 451 311 451 308 451 289 443 309 443 311 443 312 439 309 439 289 439 309 517 313 517 310 517 289 450 313 450 312 450 314 540 315 540 313 540 315 519 310 519 313 519 315 417 316 417 310 417 317 777 318 777 310 777 316 459 317 459 310 459 318 351 319 351 310 351 314 577 316 577 315 577 313 537 316 537 314 537 320 466 321 466 310 466 319 470 320 470 310 470 322 521 319 521 318 521 316 478 322 478 317 478 316 508 319 508 322 508 316 453 313 453 289 453 323 477 319 477 316 477 324 468 321 468 320 468 288 455 316 455 289 455 325 495 323 495 316 495 325 688 324 688 323 688 326 445 327 445 324 445 325 700 326 700 324 700 327 498 321 498 324 498 325 471 321 471 327 471 288 494 325 494 316 494 328 419 329 419 325 419 288 504 328 504 325 504 329 442 321 442 325 442 329 525 330 525 321 525 330 464 331 464 321 464 332 437 330 437 329 437 288 485 332 485 328 485 288 487 330 487 332 487 288 531 333 531 330 531 333 327 334 327 331 327 331 469 335 469 321 469 288 416 334 416 333 416 288 499 336 499 334 499 334 252 337 252 331 252 337 407 338 407 331 407 338 500 335 500 331 500 339 481 338 481 337 481 288 496 339 496 336 496 288 493 338 493 339 493 340 474 338 474 288 474 338 501 341 501 335 501 341 458 340 458 335 458 342 472 340 472 288 472 342 512 343 512 340 512 343 509 335 509 340 509 344 510 345 510 335 510 343 457 344 457 335 457 287 473 342 473 288 473 287 456 345 456 342 456 287 449 346 449 345 449 346 505 347 505 345 505 347 497 335 497 345 497 348 432 349 432 335 432 349 460 350 460 335 460 347 476 351 476 335 476 287 465 348 465 335 465 351 783 287 783 335 783 352 522 287 522 351 522 287 454 352 454 346 454 348 413 287 413 349 413 287 467 350 467 349 467 353 633 354 633 355 633 356 558 353 558 357 558 358 721 354 721 353 721 356 403 358 403 353 403 359 560 360 560 357 560 361 706 356 706 357 706 360 559 361 559 357 559 360 651 358 651 361 651 360 637 362 637 358 637 362 427 354 427 358 427 359 566 363 566 360 566 363 638 362 638 360 638 363 675 354 675 362 675 364 549 363 549 359 549 365 393 366 393 354 393 366 697 355 697 354 697 364 658 366 658 365 658 367 561 364 561 359 561 367 399 368 399 364 399 368 536 366 536 364 536 369 590 355 590 366 590 367 534 366 534 368 534 367 695 369 695 366 695 370 570 367 570 359 570 370 788 371 788 367 788 371 652 369 652 367 652 372 788 373 788 369 788 373 677 355 677 369 677 370 648 373 648 372 648 374 555 370 555 359 555 374 395 375 395 370 395 376 678 373 678 370 678 375 737 376 737 370 737 376 788 377 788 373 788 377 625 355 625 373 625 374 733 377 733 375 733 378 575 374 575 359 575 378 645 379 645 374 645 379 663 377 663 374 663 379 422 380 422 377 422 380 421 355 421 377 421 381 565 378 565 359 565 381 788 382 788 378 788 382 644 383 644 378 644 383 426 380 426 378 426 383 411 384 411 380 411 384 412 385 412 380 412 381 640 385 640 384 640 386 551 381 551 359 551 386 393 387 393 381 393 387 659 385 659 381 659 387 659 388 659 385 659 388 392 389 392 385 392 389 392 390 392 385 392 390 410 380 410 385 410 386 679 390 679 389 679 391 564 386 564 359 564 391 690 392 690 386 690 392 671 390 671 386 671 392 642 393 642 390 642 394 349 380 349 390 349 393 392 395 392 390 392 396 101 394 101 390 101 397 126 396 126 390 126 395 788 397 788 390 788 398 643 395 643 392 643 391 788 398 788 392 788 398 650 397 650 395 650 391 665 396 665 398 665 391 689 394 689 396 689 399 572 391 572 359 572 399 787 394 787 391 787 400 341 401 341 394 341 401 425 380 425 394 425 402 547 399 547 359 547 402 424 401 424 399 424 403 258 402 258 401 258 404 576 402 576 359 576 404 402 405 402 402 402 405 639 406 639 402 639 406 76 407 76 402 76 407 75 408 75 402 75 408 431 401 431 402 431 404 676 408 676 407 676 409 527 404 527 359 527 409 375 410 375 404 375 410 641 408 641 404 641 409 48 401 48 408 48 411 736 401 736 409 736 412 542 409 542 359 542 412 372 411 372 409 372 413 623 401 623 411 623 413 528 414 528 401 528 412 779 414 779 413 779 415 541 412 541 359 541 415 373 416 373 412 373 416 618 417 618 412 618 417 523 414 523 412 523 415 734 414 734 417 734 359 578 414 578 415 578 418 110 419 110 420 110 418 110 421 110 419 110 419 22 422 22 423 22 424 16 425 16 419 16 426 25 427 25 419 25 425 29 428 29 419 29 428 29 429 29 419 29 429 28 430 28 419 28 430 29 431 29 419 29 431 29 432 29 419 29 432 29 433 29 419 29 433 29 434 29 419 29 434 27 435 27 419 27 435 29 436 29 419 29 436 29 437 29 419 29 437 12 438 12 419 12 438 25 439 25 419 25 427 26 440 26 419 26 440 25 441 25 419 25 441 19 422 19 419 19 442 36 443 36 419 36 444 31 445 31 419 31 445 31 446 31 419 31 446 31 447 31 419 31 447 31 448 31 419 31 448 31 449 31 419 31 439 26 450 26 419 26 450 25 451 25 419 25 451 25 426 25 419 25 443 36 452 36 419 36 452 34 453 34 419 34 453 36 454 36 419 36 449 31 455 31 419 31 455 31 456 31 419 31 456 24 424 24 419 24 421 20 457 20 419 20 457 36 458 36 419 36 458 36 442 36 419 36 454 36 459 36 419 36 459 36 460 36 419 36 460 34 461 34 419 34 462 8 463 8 419 8 464 33 462 33 419 33 465 31 466 31 419 31 461 36 467 36 419 36 467 36 468 36 419 36 468 36 469 36 419 36 470 33 471 33 419 33 472 11 470 11 419 11 471 33 473 33 419 33 473 33 474 33 419 33 474 33 475 33 419 33 475 32 476 32 419 32 476 33 477 33 419 33 477 33 464 33 419 33 463 30 478 30 419 30 478 31 479 31 419 31 479 31 465 31 419 31 466 30 480 30 419 30 480 31 481 31 419 31 481 31 444 31 419 31 469 36 482 36 419 36 482 35 483 35 419 35 483 36 484 36 419 36 484 36 485 36 419 36 485 36 486 36 419 36 486 36 472 36 419 36 421 39 487 39 457 39 421 15 488 15 487 15 421 15 489 15 488 15 421 15 490 15 489 15 421 15 491 15 490 15 421 15 492 15 491 15 421 15 493 15 492 15 421 15 494 15 493 15 421 15 495 15 494 15 421 15 496 15 495 15 421 14 497 14 496 14 421 15 498 15 497 15 421 15 499 15 498 15 421 15 500 15 499 15 421 15 501 15 500 15 421 15 502 15 501 15 421 15 503 15 502 15 421 15 504 15 503 15 421 15 505 15 504 15 421 38 506 38 505 38 421 17 507 17 506 17 421 17 508 17 507 17 421 17 509 17 508 17 421 17 510 17 509 17 421 18 511 18 510 18 421 17 512 17 511 17 421 17 513 17 512 17 421 37 514 37 513 37 421 21 515 21 514 21 421 23 516 23 515 23 421 23 517 23 516 23 421 21 518 21 517 21 519 580 520 580 521 580 519 430 522 430 520 430 523 511 524 511 520 511 525 530 523 530 520 530 522 723 525 723 520 723 523 701 525 701 521 701 526 705 519 705 521 705 525 535 526 535 521 535 525 616 522 616 526 616 527 704 523 704 521 704 527 10 528 10 523 10 528 703 524 703 523 703 529 615 520 615 524 615 527 0 530 0 528 0 530 699 527 699 524 699 527 696 529 696 524 696 531 562 527 562 521 562 531 392 532 392 527 392 532 691 529 691 527 691 533 634 520 634 529 634 531 392 534 392 532 392 531 691 529 691 534 691 531 692 533 692 529 692 535 563 531 563 521 563 535 392 536 392 531 392 536 691 533 691 531 691 537 614 520 614 533 614 535 392 538 392 536 392 535 691 533 691 538 691 535 683 537 683 533 683 539 562 535 562 521 562 539 392 540 392 535 392 540 659 537 659 535 659 541 657 542 657 537 657 542 684 520 684 537 684 539 664 541 664 540 664 539 670 542 670 541 670 543 556 539 556 521 556 543 653 544 653 539 653 544 669 542 669 539 669 545 788 546 788 542 788 544 661 545 661 542 661 546 656 520 656 542 656 543 649 546 649 545 649 547 567 543 567 521 567 547 788 548 788 543 788 548 649 546 649 543 649 549 654 550 654 546 654 550 681 520 681 546 681 547 662 549 662 548 662 547 668 550 668 549 668 551 554 547 554 521 554 551 685 552 685 547 685 552 667 550 667 547 667 552 624 553 624 550 624 553 630 520 630 550 630 554 569 551 569 521 569 555 636 553 636 551 636 554 408 555 408 551 408 555 598 556 598 553 598 557 386 558 386 553 386 558 609 520 609 553 609 556 383 557 383 553 383 554 400 559 400 555 400 559 716 557 716 555 716 557 597 556 597 555 597 554 715 557 715 559 715 554 546 558 546 557 546 560 583 554 583 521 583 560 414 561 414 554 414 561 596 558 596 554 596 558 693 562 693 520 693 560 415 563 415 561 415 560 593 558 593 563 593 560 462 564 462 558 462 564 390 565 390 558 390 565 613 562 613 558 613 560 461 565 461 564 461 566 526 560 526 521 526 566 161 567 161 560 161 567 635 565 635 560 635 566 682 562 682 565 682 568 610 566 610 521 610 569 550 568 550 521 550 568 586 570 586 566 586 570 710 562 710 566 710 568 585 562 585 570 585 571 532 568 532 569 532 571 376 572 376 568 376 572 646 573 646 568 646 573 587 562 587 568 587 571 778 562 778 573 778 574 524 562 524 571 524 575 553 571 553 569 553 575 377 576 377 571 377 576 617 574 617 571 617 575 404 577 404 576 404 577 735 562 735 574 735 575 622 562 622 577 622 578 538 579 538 580 538 581 731 582 731 580 731 579 732 583 732 580 732 583 247 581 247 580 247 584 359 581 359 578 359 585 329 579 329 578 329 581 707 585 707 578 707 581 543 583 543 585 543 584 714 582 714 581 714 586 370 584 370 578 370 586 784 587 784 584 784 587 720 582 720 584 720 587 712 586 712 582 712 586 709 588 709 582 709 589 533 586 533 578 533 589 378 590 378 586 378 590 397 588 397 586 397 591 722 582 722 588 722 589 428 592 428 590 428 589 595 591 595 588 595 592 394 589 394 588 394 593 557 589 557 578 557 594 788 595 788 591 788 595 666 582 666 591 666 593 435 596 435 589 435 593 599 594 599 596 599 593 603 595 603 594 603 597 571 593 571 578 571 597 392 598 392 593 392 598 604 595 604 593 604 599 680 582 680 595 680 597 392 600 392 598 392 597 604 595 604 600 604 597 608 599 608 595 608 601 582 597 582 578 582 601 621 599 621 597 621 602 423 603 423 599 423 603 628 582 628 599 628 601 620 603 620 602 620 604 548 601 548 578 548 604 420 605 420 601 420 605 601 606 601 601 601 606 626 603 626 601 626 606 787 607 787 603 787 607 727 608 727 603 727 608 632 582 632 603 632 604 787 609 787 605 787 604 602 607 602 609 602 604 607 608 607 607 607 610 568 604 568 578 568 611 573 610 573 578 573 610 606 608 606 604 606 612 694 582 694 608 694 610 605 612 605 608 605 613 574 610 574 611 574 614 611 612 611 610 611 613 787 614 787 610 787 615 552 582 552 612 552 613 788 616 788 614 788 613 401 617 401 616 401 617 591 612 591 616 591 617 719 615 719 612 719 613 718 615 718 617 718 618 588 613 588 611 588 618 147 619 147 613 147 619 589 615 589 613 589 619 600 620 600 615 600 620 180 618 180 615 180 618 579 621 579 615 579 621 702 582 702 615 702 622 544 618 544 611 544 622 612 621 612 618 612 622 687 623 687 621 687 623 1 624 1 621 1 624 627 582 627 621 627 624 674 625 674 582 674 622 686 624 686 623 686 626 708 622 708 611 708 626 529 624 529 622 529 626 434 627 434 624 434 627 0 628 0 624 0 628 96 629 96 624 96 629 672 625 672 624 672 626 440 629 440 628 440 630 728 626 728 611 728 630 3 629 3 626 3 631 647 625 647 629 647 631 673 632 673 625 673 630 42 632 42 631 42 633 780 632 780 630 780 634 711 630 711 611 711 635 545 633 545 630 545 634 2 635 2 630 2 634 44 632 44 633 44 611 717 636 717 634 717 636 343 632 343 634 343 611 263 637 263 636 263 638 725 632 725 636 725 611 619 638 619 637 619 611 581 632 581 638 581 639 698 640 698 641 698 642 319 643 319 641 319 643 322 644 322 641 322 645 360 646 360 641 360 647 257 645 257 641 257 648 4 649 4 641 4 646 324 648 324 641 324 649 259 642 259 641 259 644 326 650 326 641 326 650 277 639 277 641 277 651 357 648 357 646 357 647 270 651 270 645 270 647 269 648 269 651 269 652 308 643 308 642 308 648 303 652 303 649 303 648 286 643 286 652 286 648 260 653 260 643 260 648 313 654 313 653 313 655 251 650 251 644 251 654 276 656 276 644 276 656 340 657 340 644 340 657 350 655 350 644 350 648 274 658 274 654 274 658 275 656 275 654 275 659 299 655 299 657 299 648 280 659 280 658 280 648 284 655 284 659 284 660 307 639 307 650 307 661 342 662 342 655 342 648 283 661 283 655 283 662 254 660 254 650 254 661 317 660 317 662 317 660 261 663 261 639 261 664 729 665 729 660 729 661 318 664 318 660 318 665 64 663 64 660 64 664 226 663 226 665 226 666 328 667 328 663 328 667 282 639 282 663 282 664 311 668 311 663 311 669 281 667 281 666 281 664 294 669 294 668 294 664 300 667 300 669 300 667 285 670 285 639 285 671 77 672 77 667 77 672 80 670 80 667 80 673 272 667 272 664 272 674 265 673 265 664 265 673 323 672 323 671 323 674 305 672 305 673 305 675 321 640 321 639 321 676 291 639 291 670 291 674 267 677 267 672 267 678 278 676 278 670 278 674 268 678 268 677 268 674 271 676 271 678 271 639 302 679 302 675 302 680 320 640 320 675 320 681 310 682 310 639 310 682 297 679 297 639 297 676 262 683 262 639 262 683 301 681 301 639 301 674 316 684 316 676 316 684 63 681 63 683 63 681 304 680 304 682 304 685 345 686 345 640 345 686 336 687 336 640 336 680 398 685 398 640 398 681 241 686 241 680 241 686 57 685 57 680 57 684 334 674 334 681 334 688 66 689 66 687 66 689 325 640 325 687 325 690 309 691 309 686 309 691 352 687 352 686 352 681 248 690 248 686 248 691 347 689 347 688 347 690 335 689 335 691 335 689 330 692 330 640 330 690 315 693 315 689 315 690 306 692 306 693 306 694 236 695 236 640 236 692 385 694 385 640 385 696 338 695 338 692 338 695 516 694 516 692 516 690 298 696 298 692 298 697 314 698 314 640 314 695 256 697 256 640 256 699 250 697 250 695 250 696 255 699 255 695 255 700 296 698 296 697 296 696 289 700 289 699 289 696 295 698 295 700 295 696 290 701 290 698 290 701 293 702 293 698 293 702 279 703 279 698 279 704 287 701 287 696 287 705 273 703 273 702 273 696 292 705 292 704 292 696 288 703 288 705 288</p>
        </triangles>
      </mesh>
    </geometry>
  </library_geometries>
  <library_visual_scenes>
    <visual_scene id="Scene" name="Scene">
      <node id="Object" name="Object" type="NODE">
        <instance_geometry url="#geometry">
          <bind_material>
            <technique_common>
              <instance_material symbol="MATERIAL" target="#mat" />
            </technique_common>
          </bind_material>
        </instance_geometry>
      </node>
    </visual_scene>
  </library_visual_scenes>
  <scene>
    <instance_visual_scene url="#Scene" />
  </scene>
</COLLADA>