<?xml version='1.0' encoding='utf-8'?>
<COLLADA xmlns="http://www.collada.org/2005/11/COLLADASchema" version="1.4.1">
  <asset>
    <contributor>
      <authoring_tool>RM27 reviewed Blender visual export</authoring_tool>
    </contributor>
    <created>2026-10-07T00:00:00Z</created>
    <modified>2026-10-07T00:00:00Z</modified>
    <unit name="meter" meter="1" />
    <up_axis>Z_UP</up_axis>
  </asset>
  <library_effects>
    <effect id="fx">
      <profile_COMMON>
        <technique sid="common">
          <phong>
            <emission>
              <color>0 0 0 1</color>
            </emission>
            <ambient>
              <color>0.0470588235 0.0470588235 0.0470588235 1</color>
            </ambient>
            <diffuse>
              <color>0.0470588235 0.0470588235 0.0470588235 1</color>
            </diffuse>
            <specular>
              <color>0.08 0.08 0.08 1</color>
            </specular>
            <shininess>
              <float>12</float>
            </shininess>
          </phong>
        </technique>
      </profile_COMMON>
    </effect>
  </library_effects>
  <library_materials>
    <material id="mat" name="source_color">
      <instance_effect url="#fx" />
    </material>
  </library_materials>
  <library_geometries>
    <geometry id="geometry" name="geometry">
      <mesh>
        <source id="positions">
          <float_array id="positions-array" count="771">-11.4274196625 1.66234505177 -0.589979887009 -11.427359581 1.66234505177 -0.58986467123 -11.4245700836 1.67181503773 -0.591462671757 -11.4245100021 1.67181503773 -0.591347515583 -11.4151697159 1.65766203403 -0.596357107162 -11.4151096344 1.65766203403 -0.59624171257 -11.412320137 1.66713202 -0.597839772701 -11.4122600555 1.66713202 -0.597724497318 -3.22922611237 -2.21345162392 -0.853749215603 -3.22922611237 -2.21337938309 -0.854499220848 -3.22922611237 -2.21328544617 -0.853166341782 -3.22922611237 -2.21287155151 -0.855260193348 -3.22922611237 -2.21281170845 -0.852555751801 -3.22922611237 -2.2123041153 -0.855577528477 -3.22922611237 -2.2123041153 -0.852288603783 -3.22922611237 -2.21183013916 -0.852181494236 -3.22922611237 -2.21174359322 -0.855699419975 -3.22922611237 -2.21122479439 -0.852244079113 -3.22922611237 -2.21098875999 -0.855536043644 -3.22922611237 -2.21054029465 -0.85260528326 -3.22922611237 -2.21048331261 -0.855193853378 -3.22922611237 -2.21012592316 -0.854699790478 -3.22922611237 -2.21010279655 -0.853215396404 -3.22922611237 -2.20998191833 -0.853629171848 -3.22922611237 -2.20995926857 -0.854117333889 -3.21032595634 -2.21459197998 -0.86118298769 -3.21032595634 -2.21459197998 -0.843683004379 -3.21032595634 -2.21345496178 -0.855683028698 -3.21032595634 -2.21345496178 -0.843683004379 -3.21032595634 -2.20995593071 -0.855683028698 -3.21032595634 -2.20995593071 -0.843683004379 -3.21032595634 -2.20881891251 -0.86118298769 -3.21032595634 -2.20881891251 -0.843683004379 -3.21031832695 -2.21094274521 -0.891182899475 -3.21024775505 -2.21273303032 -0.894683003426 -3.21020054817 -2.21046328545 -0.894682943821 -3.21015048027 -2.21308326721 -0.891183018684 -3.20947980881 -2.21451830864 -0.894683003426 -3.20947957039 -2.20889091492 -0.891183018684 -3.20939040184 -2.214646101 -0.891183018684 -3.209389925 -2.20876312256 -0.894683003426 -3.20853996277 -2.21553611755 -0.894683003426 -3.20835471153 -2.21177363396 -0.894683003426 -3.20833826065 -2.21570134163 -0.891183018684 -3.20832037926 -2.21139264107 -0.906683027744 -3.20819592476 -2.21267294884 -0.906683027744 -3.20813918114 -2.2075510025 -0.894683003426 -3.20803403854 -2.2103908062 -0.906683027744 -3.20803380013 -2.21301913261 -0.894683003426 -3.20798063278 -2.21024703979 -0.894683003426 -3.20794725418 -2.20739102364 -0.891183018684 -3.20748829842 -2.21380114555 -0.906683027744 -3.20742249489 -2.20954442024 -0.906683027744 -3.20742201805 -2.21386742592 -0.894683003426 -3.20715999603 -2.2164106369 -0.894682884216 -3.20709228516 -2.20926737785 -0.894683003426 -3.20669269562 -2.21654605865 -0.891183018684 -3.20663762093 -2.21441459656 -0.906683027744 -3.20655322075 -2.20895600319 -0.906683027744 -3.20654582977 -2.20683836937 -0.894683003426 -3.20632600784 -2.21345543861 -0.853800833225 -3.20632600784 -2.21345496178 -0.855683028698 -3.20632600784 -2.21345496178 -0.843683004379 -3.20632600784 -2.21335268021 -0.854572534561 -3.20632600784 -2.21330857277 -0.853215813637 -3.20632600784 -2.21287155151 -0.852605879307 -3.20632600784 -2.21281170845 -0.855310320854 -3.20632600784 -2.2123041153 -0.855577528477 -3.20632600784 -2.2123041153 -0.852288603783 -3.20632600784 -2.21188426018 -0.852186203003 -3.20632600784 -2.21183252335 -0.855683863163 -3.20632600784 -2.21113944054 -0.852259397507 -3.20632600784 -2.21106600761 -0.855580091476 -3.20632600784 -2.21058011055 -0.855273604393 -3.20632600784 -2.21048474312 -0.85267072916 -3.20632600784 -2.21025133133 -0.854916930199 -3.20632600784 -2.21012592316 -0.853165924549 -3.20632600784 -2.20998191833 -0.853629171848 -3.20632600784 -2.20995688438 -0.854196310043 -3.20632600784 -2.20995593071 -0.855683028698 -3.20632600784 -2.20995593071 -0.843683004379 -3.20629477501 -2.21457505226 -0.894683003426 -3.2061548233 -2.20881104469 -0.894683003426 -3.20584392548 -2.20671463013 -0.891183018684 -3.20553803444 -2.20870232582 -0.906683027744 -3.20539331436 -2.2147333622 -0.906683027744 -3.20532608032 -2.21747899055 -0.86118298769 -3.20532608032 -2.21747899055 -0.843683004379 -3.20532608032 -2.20593190193 -0.86118298769 -3.20532608032 -2.20593190193 -0.843683004379 -3.20511364937 -2.20870232582 -0.894683003426 -3.20501255989 -2.21469926834 -0.894683003426 -3.20496845245 -2.21670937538 -0.894683003426 -3.20481300354 -2.21669578552 -0.891183018684 -3.20480966568 -2.20671439171 -0.894683003426 -3.20422148705 -2.20888328552 -0.906683027744 -3.2041053772 -2.20683884621 -0.891183018684 -3.2040116787 -2.21441292763 -0.894683003426 -3.20387840271 -2.20904040337 -0.894683003426 -3.20386791229 -2.21435976028 -0.906683027744 -3.20361590385 -2.21640396118 -0.894683003426 -3.20361590385 -2.21640396118 -0.891183018684 -3.2031648159 -2.21380138397 -0.894683003426 -3.20316457748 -2.20961046219 -0.906683027744 -3.20313286781 -2.2071928978 -0.894683003426 -3.20288801193 -2.21347117424 -0.906683027744 -3.20288681984 -2.20994138718 -0.894683003426 -3.20257806778 -2.21293377876 -0.894683003426 -3.20257782936 -2.21047616005 -0.906683027744 -3.20251607895 -2.20754909515 -0.891183018684 -3.20243191719 -2.21087789536 -0.894683003426 -3.20243167877 -2.21253156662 -0.906683027744 -3.20238256454 -2.21576786041 -0.891183018684 -3.20232343674 -2.21191740036 -0.894683003426 -3.20232343674 -2.21149420738 -0.906683027744 -3.20216536522 -2.21564126015 -0.894683003426 -3.20149588585 -2.20849108696 -0.891183018684 -3.2013862133 -2.20854902267 -0.894683003426 -3.20117139816 -2.2145178318 -0.891183018684 -3.20081400871 -2.21389842033 -0.894683003426 -3.20081400871 -2.20951128006 -0.891183018684 -3.20045995712 -2.21292519569 -0.891183018684 -3.20045995712 -2.21048474312 -0.894683003426 -3.20033526421 -2.21222019196 -0.894683003426 -3.20033526421 -2.21118974686 -0.891183018684 -3.20032596588 -2.21459197998 -0.86118298769 -3.20032596588 -2.21459197998 -0.843683004379 -3.20032596588 -2.20881891251 -0.86118298769 -3.20032596588 -2.20881891251 -0.843683004379 3.19992399216 5.5123500824 -0.86118298769 3.19992399216 5.5123500824 -0.843683004379 3.20007896423 5.5098285675 -0.891183018684 3.20008277893 5.50998449326 -0.894683003426 3.20028710365 5.50658798218 -0.86118298769 3.20028710365 5.50658798218 -0.843683004379 3.20029902458 5.5111951828 -0.894683003426 3.20039558411 5.51153850555 -0.891183018684 3.20042514801 5.50786828995 -0.894683003426 3.20051431656 5.50766468048 -0.891183018684 3.20085525513 5.51246452332 -0.894683003426 3.20128035545 5.51304149628 -0.891183018684 3.20171761513 5.50607347488 -0.894683003426 3.20183467865 5.50597047806 -0.891183018684 3.2020277977 5.51375389099 -0.894683003426 3.20209431648 5.51018571854 -0.906683027744 3.20212674141 5.50928640366 -0.894683003426 3.20213651657 5.51033210754 -0.894683003426 3.20222783089 5.50886917114 -0.906683027744 3.20232796669 5.51394796371 -0.891183018684 3.20247650146 5.50830030441 -0.894683003426 3.20249915123 5.51130771637 -0.894683003426 3.20254778862 5.51138734818 -0.906683027744 3.20285558701 5.50774621964 -0.906683027744 3.20317983627 5.51210546494 -0.894683003426 3.20319223404 5.50514173508 -0.894683003426 3.20323562622 5.50740909576 -0.894683003426 3.20325279236 5.51216363907 -0.906683027744 3.20333766937 5.50508451462 -0.891183018684 3.20342302322 5.51451349258 -0.891183018684 3.20357060432 5.51456308365 -0.894683003426 3.20408940315 5.51262140274 -0.894683003426 3.20417046547 5.50689792633 -0.906683027744 3.20444536209 5.51274251938 -0.906683027744 3.20446562767 5.5068321228 -0.894683003426 3.20453906059 5.50481414795 -0.894683003426 3.20453906059 5.50481414795 -0.891183018684 3.2047328949 5.51554584503 -0.86118298769 3.2047328949 5.51554584503 -0.843683004379 3.20512223244 5.51279354095 -0.894683003426 3.20513629913 5.51480054855 -0.891183018684 3.20545911789 5.50402116776 -0.86118298769 3.20545911789 5.50402116776 -0.843683004379 3.20550465584 5.50680160522 -0.906683027744 3.20559716225 5.5068154335 -0.894683003426 3.20568537712 5.5147895813 -0.894683122635 3.20576858521 5.50481176376 -0.894683003426 3.20592284203 5.50483512878 -0.891183018684 3.20598363876 5.51159334183 -0.853806436062 3.2059841156 5.51159286499 -0.855683028698 3.2059841156 5.51159286499 -0.843683004379 3.20598721504 5.511531353 -0.854416668415 3.20599317551 5.51144742966 -0.853218197823 3.20600438118 5.51126527786 -0.854964673519 3.20600891113 5.51118516922 -0.852808177471 3.20601582527 5.51266956329 -0.906683027744 3.20602917671 5.51087379456 -0.852510392666 3.2060406208 5.51069259644 -0.855483293533 3.20606350899 5.51032781601 -0.852244496346 3.20608615875 5.50997400284 -0.855683863163 3.20611071587 5.50957918167 -0.852186560631 3.20613384247 5.50920629501 -0.855579435825 3.20616364479 5.50874519348 -0.852553665638 3.20618057251 5.50847101212 -0.855038285255 3.20619702339 5.50820493698 -0.853290140629 3.20620083809 5.50814723969 -0.854360640049 3.20620393753 5.50810003281 -0.855683028698 3.20620393753 5.50810003281 -0.853932976723 3.20620393753 5.50810003281 -0.843683004379 3.20638012886 5.51252651215 -0.894683003426 3.20662140846 5.51455450058 -0.891183018684 3.20671892166 5.50722646713 -0.906683027744 3.20683073997 5.50730085373 -0.894683003426 3.2070980072 5.50520181656 -0.894683003426 3.2070980072 5.50520181656 -0.891183018684 3.20712423325 5.51200819016 -0.906683027744 3.20741558075 5.5117020607 -0.894683003426 3.2077524662 5.51404476166 -0.89468306303 3.20777964592 5.50837993622 -0.906683027744 3.20783901215 5.50849962234 -0.894683003426 3.20789837837 5.51093244553 -0.906683027744 3.20793366432 5.5107884407 -0.894683003426 3.20810365677 5.50966596603 -0.906683027744 3.20810604095 5.50975990295 -0.894683003426 3.20816659927 5.50581693649 -0.894683003426 3.20819664001 5.5137424469 -0.891183018684 3.20866036415 5.50620937347 -0.891183018684 3.20906591415 5.51285076141 -0.894683003426 3.2093360424 5.50710105896 -0.894683003426 3.20946121216 5.51225566864 -0.891183018684 3.2097966671 5.50802898407 -0.891183018684 3.20990395546 5.51297903061 -0.86118298769 3.20990395546 5.51297903061 -0.843683004379 3.20994544029 5.51111221313 -0.894683003426 3.20997595787 5.51184511185 -0.855683028698 3.20997595787 5.51184511185 -0.843683004379 3.21003890038 5.50885057449 -0.894682943821 3.2101290226 5.51020288467 -0.89118295908 3.21019601822 5.50835180283 -0.855683028698 3.21019601822 5.50835180283 -0.843683004379 3.21026802063 5.50721693039 -0.86118298769 3.21026802063 5.50721693039 -0.843683004379 3.22883796692 5.51303529739 -0.854056417942 3.22884225845 5.51297235489 -0.85344928503 3.22884750366 5.51288795471 -0.854649364948 3.22885870934 5.51270771027 -0.85290402174 3.22886919975 5.51254558563 -0.855155348778 3.22889566422 5.512134552 -0.852383375168 3.22890067101 5.51205158234 -0.855513513088 3.22893691063 5.51146554947 -0.855679810047 3.22894024849 5.51141119003 -0.852181494236 3.22897577286 5.51086044312 -0.855636060238 3.2289788723 5.51080751419 -0.852244138718 3.2290096283 5.51030683517 -0.85538828373 3.22901248932 5.51026153564 -0.852509438992 3.22903299332 5.50994920731 -0.855057895184 3.22903299332 5.50994920731 -0.852808177471 3.2290494442 5.50968694687 -0.853218078613 3.22905230522 5.50964260101 -0.854570388794 3.22905898094 5.50953912735 -0.853803515434 11.4122600555 1.62155497074 -0.597724497318 11.412320137 1.62155497074 -0.597839772701 11.4151096344 1.6310249567 -0.59624171257 11.4151697159 1.6310249567 -0.596357107162 11.4245100021 1.61687195301 -0.591347515583 11.4245700836 1.61687195301 -0.591462671757 11.427359581 1.62634205818 -0.58986467123 11.4274196625 1.62634205818 -0.589979887009</float_array>
          <technique_common>
            <accessor source="#positions-array" count="257" stride="3">
              <param name="X" type="float" />
              <param name="Y" type="float" />
              <param name="Z" type="float" />
            </accessor>
          </technique_common>
        </source>
        <source id="normals">
          <float_array id="normals-array" count="924">-1 0 0 -0.99999994 0 0 -0.99995059 0.00934746 0.00340246 -0.99931002 0.02078478 -0.03078019 -0.99802029 -0.06289246 0 -0.99674255 -0.07815958 0.0198811 -0.99529117 -0.09674898 -0.00591926 -0.99488527 -0.10089383 -0.00487301 -0.98713118 -0.15970261 -0.00819071 -0.98437208 0.17582227 0.00991053 -0.98326129 0.18206511 0.0070394 -0.98026627 -0.19721973 0.01350095 -0.97125399 0.23799741 0.00477749 -0.96835601 -0.24950369 0.00588501 -0.96149766 0.27481169 0.00098673 -0.94246536 -0.33428356 0.00368338 -0.93734151 0.34841067 -0.00095396 -0.93559378 0.3530753 -0.00144907 -0.92544782 0.37830999 0.02068154 -0.91852736 -0.39510906 -0.01400927 -0.91582918 0.40132034 -0.01410017 -0.90262514 0.43036371 -0.00740546 -0.89926267 -0.43735307 0.00700287 -0.87285817 -0.48794806 -0.0050436 -0.86157829 0.50718862 0.02103526 -0.84714597 -0.53134602 -0.00388334 -0.83996975 0.32122415 -0.4373396 -0.83978301 0.32122886 -0.43769446 -0.83968943 0.32123125 0.43787223 -0.83959723 0.32122892 0.43805072 -0.81141943 -0.5843125 -0.01331962 -0.81107515 -0.58494067 0.00124902 -0.81055415 0.5856539 -0.00340908 -0.78872699 -0.61468762 0.00829153 -0.76125234 -0.64842898 0.00589206 -0.76071447 0.64908546 0.00122405 -0.74077904 0.671731 0.0048762 -0.74027884 0.67229873 -0.00124145 -0.73966473 0.67264628 -0.02104781 -0.73467147 -0.67839652 -0.00600264 -0.70812613 -0.70604622 0.00747852 -0.6994819 0.71460348 0.0081759 -0.69592214 0.71809745 0.00533882 -0.65426171 0.75613517 0.01418402 -0.58490896 -0.81109798 -0.00124932 -0.56055301 0.82811034 -0.00369346 -0.55347991 0.83286262 0 -0.54210865 -0.84028375 -0.00643808 -0.5352658 -0.84463549 -0.00902572 -0.53414446 -0.84536421 -0.00701175 -0.5316686 -0.8469438 0.00386528 -0.50779575 -0.861449 0.00701687 -0.50004297 -0.86600059 0 -0.50004297 0.86600059 0 -0.49338606 0.86980957 0.00121707 -0.46447101 0.88556039 -0.00703753 -0.46174556 6.732e-05 -0.88701242 -0.46174249 5.498e-05 -0.88701403 -0.45883718 0.88846511 -0.0099138 -0.45651424 -0.88932014 0.02654273 -0.44455242 -0.89575291 0 -0.43767262 0.89912689 0.00366929 -0.4366762 0.89961052 -0.00387341 -0.42467478 -0.90532941 0.00548116 -0.40820289 0.91268647 -0.01933306 -0.30602422 0.95161992 0.02772783 -0.28483811 -0.94703406 0.14830305 -0.28477383 -0.94703442 -0.148424 -0.28474134 -0.94703478 0.14848386 -0.2847119 -0.94703376 -0.14854676 -0.24816121 -0.96870106 -0.0058627 -0.24242678 0.97016275 -0.00367092 -0.23633406 -0.97165293 -0.00606491 -0.21955365 -0.97560036 0 -0.16524062 0.98622841 0.00700624 -0.16439687 0.98638117 0.00507904 -0.13503835 -0.9906323 -0.02030069 -0.10647374 0.99411798 -0.01981802 -0.10385416 0.99458575 0.00367284 -0.09642307 -0.99532306 0.00588731 -0.07940131 -0.99681526 0.00739701 -0.07200652 -0.9973973 -0.00369821 -0.07121191 0.99724066 -0.02097548 -0.06374747 0.99281895 -0.1012263 -0.06294232 0.99801713 0 -0.06294232 0.99801719 0 -0.06294231 0.99801713 0 -0.06219503 0.96847123 0.24123707 -0.06150485 0.99274123 0.10335392 -0.05993434 0.96851522 -0.2416324 -0.05770568 0.8973614 -0.43750712 -0.05548148 0.89759189 0.4373219 -0.05372566 0.84025979 0.5395155 -0.05093852 0.82612777 -0.56117558 -0.04365262 0.66909575 -0.74189317 -0.04287973 0.6890651 0.7234298 -0.04107647 0.67036557 0.74089319 -0.03585434 0.58510482 -0.81016475 -0.02904513 0.43618372 0.89938873 -0.01743877 0.27194932 -0.96215355 -0.01730809 0.26778057 -0.96332437 -0.01534018 0.2679055 0.96332312 -0.01474765 -0.99989051 0.00126592 -0.00638075 0.0767563 0.99702948 -0.00193911 -0.99999809 0 -0.00116636 0.21154188 -0.97736818 -0.00114788 0.46669805 0.88441592 -0.00112031 0.81023777 -0.58610028 -0.00104879 0.9614194 -0.27508476 -0.00080718 -0.83178937 -0.55509084 -0.00072283 -0.7900824 0.61300027 -0.00069046 0.53350091 -0.84579927 -0.00063498 -0.48810068 -0.872787 -0.00043821 0.8126592 0.58273917 -0.00038192 -0.99539316 -0.0958767 -0.00037888 -0.96167952 0.27417552 -0.00032037 -0.22042276 0.97540438 -0.00028746 0.80976331 0.58675671 -0.00023842 -0.99999994 0 -0.00020822 -1.312e-05 1 -0.00019149 -0.21995811 -0.97550929 -5.943e-05 -3.693e-05 -1 -5.153e-05 -4.518e-05 -1 -3.146e-05 -5.011e-05 -1 -2.797e-05 0.00044353 1 -2.751e-05 6.74e-06 -0.99999994 -2.458e-05 -2.334e-05 -1 -1.818e-05 -2.283e-05 -1 -1.345e-05 2.654e-05 -1 -1.196e-05 -5.635e-05 -0.99999994 0 -1 9.071e-05 0 -0.99999982 -0.00064146 -0 -0.46581924 -0.88487989 0 -0.46573788 0.88492274 0 -0.23694985 0.97152191 0 -0.21249437 -0.97716236 0 -0.00044467 0.99999988 -0 0 -1 0 0 -0.99999994 0 -0 0.99999994 0 0 1 0 0.00051433 0.99999988 -0 0.9598791 0.28041413 0 0.99902713 0.04409789 0 1 -0 -0 1 0.00025334 1.108e-05 -4.927e-05 -1 1.88e-05 -2.558e-05 -1 1.968e-05 -2.827e-05 -1 2.314e-05 2.477e-05 -1 2.804e-05 -5.94e-06 -1 3.244e-05 -0.00051342 0.99999982 5.584e-05 0.99892533 0.04634819 6.064e-05 -4.063e-05 -0.99999994 0.00014139 1 -4.713e-05 0.00020862 -0 0.99999988 0.00028207 0.102839 0.99469799 0.00029829 0.56061274 -0.82807809 0.00032308 0.95492488 0.29684746 0.00038727 -0.96990365 0.2434888 0.00043577 0.09780033 0.99520594 0.00043733 -0.81287909 0.58243221 0.00063525 -0.48803082 0.87282616 0.00073329 -0.99125034 -0.13199319 0.0007476 0.73527414 -0.67776942 0.00081305 -0.80644202 -0.59131265 0.00112939 0.53199279 0.84674811 0.00119418 0.13415711 -0.99095935 0.00148292 0.92570448 -0.37824482 0.00486362 -0.07180119 -0.99740708 0.00727185 -0.13433661 -0.9909091 0.00802117 -0.1027064 0.99467939 0.01515994 -0.99986708 0.00600671 0.02387083 -0.40149245 0.91555125 0.0271624 -0.4355368 0.89976108 0.02720889 -0.40697894 -0.91303223 0.03516391 -0.59092969 -0.8059563 0.04312337 -0.6764273 -0.73524594 0.04432526 -0.68900961 0.72339547 0.04640401 0.99889928 -0.00686456 0.04893457 -0.80428869 0.59222049 0.05278656 -0.84020507 0.53969336 0.05415491 -0.8442902 -0.53314275 0.05495047 -0.90029573 -0.43179613 0.06110717 -0.9849956 0.16139831 0.06196805 -0.96746737 0.24528953 0.06291518 -0.99801892 -4.997e-05 0.0630648 -0.99800944 0 0.0630648 -0.99800932 0.00026962 0.06308106 -0.99193341 -0.10995002 0.06348515 -0.98894697 -0.13399054 0.0712506 0.99723476 0.02112277 0.13616836 0.99067402 -0.00481564 0.1634071 0.98630118 0.02254397 0.20765176 0.97818816 0.00535688 0.22025691 -0.97542346 -0.00599512 0.23684035 -0.97154856 0 0.2378865 -0.97128129 -0.00478846 0.26398027 0.96451467 0.00508124 0.27435347 0.96139914 -0.02102111 0.27505371 -0.96142834 -0.00096442 0.28152764 -0.95953435 -0.00600232 0.28471193 0.947034 -0.14854535 0.28473487 0.94703728 0.14848047 0.28477383 0.94703442 -0.148424 0.28483063 0.94703674 0.14830025 0.29786694 -0.95460743 0 0.33025926 -0.94388914 -0.00145823 0.33886132 0.94043559 -0.0274582 0.36617434 -0.9305433 0.00235624 0.40791559 0.9127779 0.02100903 0.44461817 0.89572018 -0 0.45813164 0.88868922 0.01862085 0.45837715 -0.88875002 -0.00370195 0.46174246 -5.498e-05 -0.88701403 0.4617455 -6.736e-05 -0.88701242 0.46539265 -0.88510436 0 0.49888521 -0.86666805 0 0.50002509 -0.8660109 0 0.50002509 0.8660109 0 0.51239532 0.85873324 -0.00531871 0.54188359 -0.84026575 0.01776816 0.55347991 -0.83286262 0 0.56681228 0.82382911 -0.00541884 0.58543706 -0.81071049 0.0034219 0.61303365 0.78957182 -0.02767696 0.62288481 0.78229862 0.00483405 0.67174023 -0.74077064 -0.0048891 0.67247885 0.74010044 0.00484429 0.67250526 0.73978156 -0.02144611 0.67835903 0.73467433 0.00909531 0.71804738 -0.69572395 0.01939452 0.73607701 -0.67689264 -0.00266292 0.73904306 -0.67304236 -0.02879635 0.7615127 0.64770103 0.02411946 0.76529127 -0.64367878 0.00263391 0.789967 -0.61252159 -0.02773642 0.81166488 0.5841037 -0.00480542 0.82777643 0.56104589 -0.00368809 0.82834917 -0.56019992 0.00369223 0.83127403 0.55560732 0.01685105 0.8395983 -0.32122529 0.43805128 0.83969051 -0.32122782 0.43787274 0.83978289 -0.32122904 -0.43769452 0.83996975 -0.32122415 -0.4373396 0.84784651 -0.52945971 0.02878867 0.86986786 0.49327323 0.00336163 0.89205509 0.4512879 -0.02401995 0.89949179 0.43692213 0.00369001 0.89952016 -0.43686411 -0.00366934 0.90167373 0.43145737 -0.02879121 0.9128412 -0.40777215 0.02104611 0.92766637 -0.37268391 -0.02328103 0.95050257 0.30921781 0.03048107 0.96142536 -0.27426368 -0.02099266 0.96143579 0.27422771 0.02098504 0.96969402 -0.24431111 -0.00236053 0.97001535 -0.2430158 0.00368797 0.97016269 0.24242707 -0.00368058 0.97828078 -0.20727856 0.00142822 0.9862448 0.1652886 -0.00091652 0.98711634 0.1599976 -0.00144859 0.98797816 -0.15104736 0.03292131 0.99459207 0.10379343 0.00366038 0.99459356 -0.1037797 -0.0036599 0.99720675 -0.07164983 0.02109472 0.99720675 0.07164983 -0.02109472 0.99783498 0.06576639 -0 0.99785155 0.0655155 -0 0.99787289 0.06467734 0.00816246 0.99788243 0.06504394 -4.394e-05 0.99790007 0.06477313 -0.00018238 0.9979015 0.06474622 0.00079967 0.9979558 0.06390566 -0.00048263 0.99795979 0.06384636 3.991e-05 0.99798405 0.06346509 0.00023254 0.99798799 0.06340247 -0.00048126 0.99799001 0.06337111 0 0.99799007 0.06336883 0.00032039 0.99799007 0.06337111 -0 0.99799335 0.06331807 0 0.99799341 0.06331807 -0 0.99799418 0.06330623 7.111e-05 0.99799716 0.06325677 -0.00023068 0.9980067 0.06310519 0.00062262 0.99800932 0.06306658 -0.00017826 0.99800986 0.06305698 -6.502e-05 0.99801588 0.06272759 0.00543303 0.99801797 0.06292897 -4.348e-05 0.9980185 0.06290835 0.00120745 0.99802041 0.06289078 -0.00018406 0.99802172 0.0628702 9.279e-05 0.99802548 0.06281088 -1.54e-05 0.99802923 0.06274994 -1.691e-05 0.99802971 0.06274246 0.00045656 0.99803358 0.06268159 0.00010159 0.99804991 0.06242095 0.00018443 0.99805576 0.06232452 0.00056521 0.99806088 0.06224077 0.00068125 0.99808902 0.06167496 -0.00382484 0.99809313 0.06172547 -4.431e-05 0.99809825 0.06164158 -0.00038407 0.99810588 0.06151907 3.6e-06 0.99815768 0.0605261 0.00422482 0.99820161 0.05994545 3.413e-05 0.99828058 0.0412519 -0.04164379 0.99847275 0.05524481 0.00023967 1 -0 0</float_array>
          <technique_common>
            <accessor source="#normals-array" count="308" stride="3">
              <param name="X" type="float" />
              <param name="Y" type="float" />
              <param name="Z" type="float" />
            </accessor>
          </technique_common>
        </source>
        <vertices id="vertices">
          <input semantic="POSITION" source="#positions" />
        </vertices>
        <triangles count="420" material="MATERIAL">
          <input semantic="VERTEX" source="#vertices" offset="0" />
          <input semantic="NORMAL" source="#normals" offset="1" />
          <p>0 56 6 56 4 56 2 57 6 57 0 57 3 29 2 29 0 29 1 28 3 28 0 28 2 204 7 204 6 204 2 202 3 202 7 202 6 244 5 244 4 244 6 243 7 243 5 243 1 68 0 68 4 68 5 66 1 66 4 66 250 214 256 214 254 214 252 215 256 215 250 215 256 241 253 241 254 241 256 242 255 242 253 242 249 67 250 67 254 67 253 69 249 69 254 69 251 26 252 26 250 26 249 27 251 27 250 27 252 203 255 203 256 203 252 205 251 205 255 205 16 0 9 0 8 0 10 0 16 0 8 0 16 0 11 0 9 0 12 0 16 0 10 0 16 0 13 0 11 0 14 0 16 0 12 0 15 1 16 1 14 1 20 0 18 0 16 0 24 1 21 1 16 1 21 0 20 0 16 0 22 0 23 0 16 0 23 0 24 0 16 0 19 0 22 0 16 0 17 1 19 1 16 1 15 0 17 0 16 0 78 118 30 118 29 118 79 131 78 131 29 131 80 130 30 130 78 130 72 0 79 0 70 0 73 0 79 0 72 0 75 0 79 0 73 0 78 0 79 0 75 0 70 155 29 155 27 155 61 141 70 141 27 141 79 136 29 136 70 136 28 144 62 144 27 144 62 154 60 154 27 154 60 145 61 145 27 145 60 0 63 0 61 0 63 0 66 0 61 0 66 0 67 0 61 0 67 0 70 0 61 0 9 114 60 114 8 114 9 163 63 163 60 163 60 159 64 159 8 159 64 115 10 115 8 115 11 109 63 109 9 109 11 165 66 165 63 165 64 161 65 161 10 161 65 110 12 110 10 110 13 112 66 112 11 112 13 132 67 132 66 132 65 162 68 162 12 162 68 133 14 133 12 133 16 135 67 135 13 135 16 120 70 120 67 120 68 134 69 134 14 134 69 116 15 116 14 116 16 167 72 167 70 167 69 160 71 160 15 160 71 156 17 156 15 156 18 105 72 105 16 105 71 106 19 106 17 106 20 157 72 157 18 157 20 111 73 111 72 111 71 166 74 166 19 166 20 164 75 164 73 164 21 107 75 107 20 107 74 117 76 117 19 117 76 113 22 113 19 113 21 168 78 168 75 168 24 108 78 108 21 108 76 158 77 158 22 158 77 142 23 142 22 142 77 143 78 143 23 143 78 152 24 152 23 152 64 0 60 0 62 0 69 0 68 0 62 0 68 0 65 0 62 0 80 0 71 0 62 0 71 0 69 0 62 0 65 0 64 0 62 0 80 0 74 0 71 0 80 0 76 0 74 0 80 0 77 0 76 0 80 1 78 1 77 1 62 140 26 140 87 140 126 140 62 140 87 140 62 140 28 140 26 140 80 139 62 139 126 139 128 139 80 139 126 139 89 140 32 140 30 140 80 139 89 139 30 139 128 140 89 140 80 140 87 52 26 52 86 52 26 52 25 52 86 52 125 218 87 218 86 218 125 218 126 218 87 218 127 307 126 307 125 307 127 307 128 307 126 307 88 219 128 219 127 219 88 219 89 219 128 219 32 53 89 53 31 53 89 53 88 53 31 53 27 0 31 0 25 0 26 0 27 0 25 0 28 0 27 0 26 0 29 0 31 0 27 0 30 0 32 0 29 0 32 0 31 0 29 0 91 79 81 79 85 79 81 70 57 70 85 70 99 197 91 197 85 197 99 200 97 200 91 200 81 50 53 50 57 50 53 44 51 44 57 44 99 224 102 224 97 224 105 227 102 227 99 227 53 31 48 31 51 31 48 25 45 25 51 25 105 239 107 239 102 239 111 249 107 249 105 249 48 13 42 13 45 13 111 257 113 257 107 257 42 6 44 6 45 6 114 264 113 264 111 264 114 263 110 263 113 263 42 12 49 12 44 12 49 14 47 14 44 14 108 258 110 258 114 258 108 248 106 248 110 248 49 32 52 32 47 32 103 238 106 238 108 238 49 36 55 36 52 36 103 228 98 228 106 228 55 45 58 45 52 45 95 223 98 223 103 223 55 61 82 61 58 61 82 71 84 71 58 71 95 198 90 198 98 198 82 78 90 78 84 78 84 192 90 192 95 192 81 138 91 138 92 138 54 121 81 121 92 121 91 137 100 137 92 137 97 138 115 138 100 138 91 137 97 137 100 137 53 123 81 123 54 123 41 153 53 153 54 153 37 138 53 138 41 138 97 137 102 137 115 137 48 137 53 137 37 137 102 137 119 137 115 137 34 137 48 137 37 137 102 137 107 137 119 137 42 137 48 137 34 137 107 138 123 138 119 138 113 137 123 137 107 137 35 128 42 128 34 128 110 137 122 137 113 137 122 137 123 137 113 137 35 125 49 125 42 125 106 138 117 138 110 138 117 138 122 138 110 138 35 126 40 126 49 126 40 137 55 137 49 137 98 137 117 137 106 137 40 138 46 138 55 138 104 137 117 137 98 137 46 137 82 137 55 137 46 137 59 137 82 137 90 137 94 137 98 137 94 138 104 138 98 138 59 137 90 137 82 137 59 137 94 137 90 137 93 80 56 80 92 80 56 76 54 76 92 76 100 195 93 195 92 195 100 196 101 196 93 196 115 216 101 216 100 216 115 213 112 213 101 213 43 59 54 59 56 59 43 48 41 48 54 48 39 39 37 39 41 39 43 40 39 40 41 40 115 231 118 231 112 231 119 236 118 236 115 236 36 19 34 19 37 19 39 22 36 22 37 22 119 251 121 251 118 251 123 254 121 254 119 254 36 5 33 5 34 5 123 265 124 265 121 265 33 3 35 3 34 3 122 266 124 266 123 266 122 255 120 255 124 255 33 18 38 18 35 18 38 21 40 21 35 21 117 250 120 250 122 250 117 240 116 240 120 240 38 41 50 41 40 41 50 42 46 42 40 42 117 230 109 230 116 230 104 225 109 225 117 225 50 64 59 64 46 64 104 210 96 210 109 210 50 65 83 65 59 65 94 199 96 199 104 199 83 82 94 82 59 82 94 191 83 191 96 191 247 285 238 285 248 285 238 275 246 275 248 275 244 278 238 278 247 278 238 290 245 290 246 290 242 299 238 299 244 299 238 272 243 272 245 272 240 269 238 269 242 269 238 301 241 301 243 301 238 274 239 274 241 274 233 297 231 297 238 297 231 276 232 276 238 276 235 298 233 298 238 298 237 303 235 303 238 303 236 302 239 302 238 302 234 273 236 273 238 273 232 296 234 296 238 296 196 86 227 86 195 86 197 84 228 84 196 84 228 85 227 85 196 85 190 283 192 283 195 283 194 268 196 268 195 268 188 287 190 287 195 287 192 295 194 295 195 295 227 124 188 124 195 124 223 119 188 119 227 119 223 151 178 151 188 151 223 188 177 188 178 188 223 186 179 186 177 186 223 187 224 187 179 187 178 289 186 289 188 289 178 294 182 294 186 294 178 284 180 284 182 284 178 306 177 306 180 306 248 184 193 184 196 184 194 189 248 189 196 189 247 190 248 190 194 190 248 185 246 185 193 185 192 183 247 183 194 183 245 180 191 180 193 180 246 181 245 181 193 181 244 182 247 182 192 182 245 178 243 178 191 178 242 177 244 177 192 177 190 176 242 176 192 176 241 173 189 173 191 173 243 174 241 174 191 174 240 175 242 175 190 175 188 170 240 170 190 170 241 171 239 171 189 171 238 169 240 169 188 169 239 103 187 103 189 103 186 100 238 100 188 100 239 101 236 101 187 101 237 99 238 99 186 99 236 98 185 98 187 98 235 97 237 97 186 97 182 94 235 94 186 94 234 95 183 95 185 95 236 96 234 96 185 96 234 92 181 92 183 92 233 93 235 93 182 93 180 90 233 90 182 90 234 91 232 91 181 91 232 87 177 87 181 87 231 89 233 89 180 89 177 83 231 83 180 83 232 88 231 88 177 88 193 267 197 267 196 267 193 300 191 300 197 300 191 282 189 282 197 282 189 292 179 292 197 292 187 288 179 288 189 288 185 293 179 293 187 293 183 271 179 271 185 271 181 304 179 304 183 304 177 270 179 270 181 270 230 140 228 140 171 140 228 140 197 140 171 140 197 140 134 140 171 140 197 140 130 140 134 140 179 140 130 140 197 140 224 140 221 140 179 140 221 139 167 139 179 139 167 140 130 140 179 140 166 211 221 211 220 211 166 211 167 211 221 211 130 46 167 46 129 46 167 46 166 46 129 46 134 4 130 4 133 4 130 4 129 4 133 4 171 60 134 60 170 60 134 60 133 60 170 60 229 222 171 222 170 222 229 222 230 222 171 222 227 281 230 281 229 281 223 291 227 291 229 291 220 286 223 286 229 286 227 280 228 280 230 280 221 279 224 279 223 279 220 277 221 277 223 277 173 102 163 102 172 102 163 81 161 81 172 81 200 207 173 207 172 207 200 209 201 209 173 209 155 63 161 63 163 63 155 47 152 47 161 47 207 232 201 232 200 232 207 235 208 235 201 235 155 34 149 34 152 34 149 23 147 23 152 23 149 15 145 15 147 15 211 256 208 256 207 256 211 259 212 259 208 259 145 7 144 7 147 7 145 2 146 2 144 2 209 261 212 261 211 261 209 260 210 260 212 260 146 16 150 16 144 16 150 17 151 17 144 17 209 246 205 246 210 246 204 237 205 237 209 237 150 35 153 35 151 35 153 37 156 37 151 37 204 226 198 226 205 226 184 220 198 220 204 220 153 54 160 54 156 54 160 62 162 62 156 62 184 194 168 194 198 194 160 75 168 75 162 75 162 179 168 179 184 179 163 137 173 137 175 137 164 137 163 137 175 137 154 138 163 138 164 138 173 138 202 138 175 138 155 137 163 137 154 137 201 137 213 137 202 137 173 137 201 137 202 137 141 137 155 137 154 137 201 137 217 137 213 137 149 137 155 137 141 137 137 137 149 137 141 137 201 138 208 138 217 138 208 149 225 149 217 149 145 137 149 137 137 137 132 137 145 137 137 137 212 150 225 150 208 150 146 137 145 137 132 137 212 147 222 147 225 147 210 137 222 137 212 137 135 137 146 137 132 137 135 137 150 137 146 137 205 137 216 137 210 137 216 137 222 137 210 137 135 137 139 137 150 137 139 137 153 137 150 137 198 127 206 127 205 127 206 148 216 148 205 148 139 137 143 137 153 137 143 137 160 137 153 137 174 146 206 146 198 146 143 137 159 137 160 137 168 129 174 129 198 129 159 137 168 137 160 137 159 122 174 122 168 122 176 172 165 172 175 172 165 104 164 104 175 104 165 73 157 73 164 73 157 72 154 72 164 72 202 201 176 201 175 201 202 206 203 206 176 206 213 217 203 217 202 217 213 221 215 221 203 221 157 51 142 51 154 51 142 49 141 49 154 49 217 233 215 233 213 233 142 33 138 33 141 33 138 30 137 30 141 30 217 245 219 245 215 245 225 252 219 252 217 252 225 262 226 262 219 262 138 11 131 11 137 11 131 8 132 8 137 8 222 305 226 305 225 305 131 10 136 10 132 10 136 9 135 9 132 9 222 253 218 253 226 253 136 20 139 20 135 20 216 247 218 247 222 247 136 24 140 24 139 24 216 234 214 234 218 234 140 38 143 38 139 38 206 229 214 229 216 229 140 43 148 43 143 43 148 58 158 58 143 58 158 55 159 55 143 55 174 208 199 208 206 208 199 212 214 212 206 212 174 193 169 193 199 193 158 74 169 74 159 74 169 77 174 77 159 77</p>
        </triangles>
      </mesh>
    </geometry>
  </library_geometries>
  <library_visual_scenes>
    <visual_scene id="Scene" name="Scene">
      <node id="Object" name="Object" type="NODE">
        <instance_geometry url="#geometry">
          <bind_material>
            <technique_common>
              <instance_material symbol="MATERIAL" target="#mat" />
            </technique_common>
          </bind_material>
        </instance_geometry>
      </node>
    </visual_scene>
  </library_visual_scenes>
  <scene>
    <instance_visual_scene url="#Scene" />
  </scene>
</COLLADA>