<?xml version='1.0' encoding='utf-8'?>
<COLLADA xmlns="http://www.collada.org/2005/11/COLLADASchema" version="1.4.1">
  <asset>
    <contributor>
      <authoring_tool>RM27 reviewed Blender visual export</authoring_tool>
    </contributor>
    <created>2026-10-07T00:00:00Z</created>
    <modified>2026-10-07T00:00:00Z</modified>
    <unit name="meter" meter="1" />
    <up_axis>Z_UP</up_axis>
  </asset>
  <library_effects>
    <effect id="fx">
      <profile_COMMON>
        <technique sid="common">
          <phong>
            <emission>
              <color>0 0 0 1</color>
            </emission>
            <ambient>
              <color>0.298039216 0.298039216 0.298039216 1</color>
            </ambient>
            <diffuse>
              <color>0.298039216 0.298039216 0.298039216 1</color>
            </diffuse>
            <specular>
              <color>0.08 0.08 0.08 1</color>
            </specular>
            <shininess>
              <float>12</float>
            </shininess>
          </phong>
        </technique>
      </profile_COMMON>
    </effect>
  </library_effects>
  <library_materials>
    <material id="mat" name="source_color">
      <instance_effect url="#fx" />
    </material>
  </library_materials>
  <library_geometries>
    <geometry id="geometry" name="geometry">
      <mesh>
        <source id="positions">
          <float_array id="positions-array" count="336">-1.02779996395 -0.189999952912 4.87747193745e-08 -1.02779996395 0.190000042319 4.87747193745e-08 -0.980880081654 -0.510767102242 4.87747193745e-08 -0.980880081654 0.510766029358 4.87747193745e-08 -0.967800438404 -0.25 4.87747193745e-08 -0.967800438404 0.249999985099 4.87747193745e-08 -0.948669731617 -0.53487098217 0.0867950245738 -0.948669731617 0.534870028496 0.0867950245738 -0.947770416737 -0.534493088722 0.0865569636226 -0.947770416737 0.534492015839 0.0865569636226 -0.934740364552 -0.620000004768 4.87747193745e-08 -0.934740364552 0.620000004768 4.87747193745e-08 -0.924290001392 -0.592601895332 0.0867950245738 -0.924290001392 0.592602014542 0.0867950245738 -0.923389732838 -0.592224001884 0.0865569636226 -0.923389732838 0.592224001884 0.0865569636226 -0.794209778309 -0.5011729002 0.296000063419 -0.794209778309 0.501173019409 0.296000063419 -0.752470314503 -0.600000023842 0.296000063419 -0.752470314503 0.600000023842 0.296000063419 -0.748050034046 -0.445000052452 4.87747193745e-08 -0.748050034046 0.445000052452 4.87747193745e-08 -0.645229637623 -0.620000004768 0.356000006199 -0.645229637623 -0.619000077248 0.356000006199 -0.645229637623 0.618999958038 0.356000006199 -0.645229637623 0.620000004768 0.356000006199 -0.630750000477 -0.455000042915 0.296000063419 -0.630750000477 0.455000042915 0.296000063419 -0.567799866199 -0.445000052452 4.87747193745e-08 -0.567799866199 -0.355000019073 4.87747193745e-08 -0.567799866199 0.355000019073 4.87747193745e-08 -0.567799866199 0.445000052452 4.87747193745e-08 -0.54780036211 -0.355000019073 4.87747193745e-08 -0.54780036211 -0.25 4.87747193745e-08 -0.54780036211 0.249999985099 4.87747193745e-08 -0.54780036211 0.355000019073 4.87747193745e-08 -0.489130318165 -0.53487098217 1.81005930901 -0.489130318165 0.534870028496 1.81005930901 -0.488239586353 -0.534493088722 1.80982065201 -0.488239586353 0.534492015839 1.80982065201 -0.46583968401 -0.592601895332 1.8059527874 -0.46583968401 0.592602014542 1.8059527874 -0.464949905872 -0.592224001884 1.80571424961 -0.464949905872 0.592224001884 1.80571424961 -0.463850319386 -0.5011729002 1.53486847878 -0.463850319386 0.501173019409 1.53486847878 -0.424880325794 -0.600000023842 1.52447664738 -0.424880325794 0.600000023842 1.52447664738 -0.407800018787 -0.289999961853 4.87747193745e-08 -0.407800018787 0.289999961853 4.87747193745e-08 -0.352150261402 -0.620000004768 1.45505225658 -0.352150261402 -0.619000077248 1.45505225658 -0.352150261402 0.618999958038 1.45505225658 -0.352150261402 0.620000004768 1.45505225658 -0.311239540577 -0.455000042915 1.49417304993 -0.311239540577 0.455000042915 1.49417304993 -0.214920341969 -0.455000042915 0.296000063419 -0.214920341969 -0.455000042915 1.46848750114 -0.214920341969 -0.445000052452 0.296000063419 -0.214920341969 -0.445000052452 1.46848750114 -0.214920341969 0.445000052452 0.296000063419 -0.214920341969 0.445000052452 1.46848750114 -0.214920341969 0.455000042915 0.296000063419 -0.214920341969 0.455000042915 1.46848750114 -0.0399201586843 -0.620000004768 0.356000006199 -0.0399201586843 -0.620000004768 1.39999783039 -0.0399201586843 -0.619000077248 0.356000006199 -0.0399201586843 -0.619000077248 1.39999783039 -0.0399201586843 0.618999958038 0.356000006199 -0.0399201586843 0.618999958038 1.39999783039 -0.0399201586843 0.620000004768 0.356000006199 -0.0399201586843 0.620000004768 1.39999783039 0.0231596753001 -0.600000023842 1.40500032902 0.0231596753001 -0.445000052452 1.40500032902 0.0231596753001 0.445000052452 1.40500032902 0.0231596753001 0.600000023842 1.40500032902 0.0400797650218 -0.600000023842 0.296000063419 0.0400797650218 -0.600000023842 1.15600025654 0.0400797650218 -0.445000052452 0.296000063419 0.0400797650218 -0.445000052452 1.15600025654 0.0400797650218 0.445000052452 0.296000063419 0.0400797650218 0.445000052452 1.15600025654 0.0400797650218 0.600000023842 0.296000063419 0.0400797650218 0.600000023842 1.15600025654 0.122079543769 -0.620000004768 1.15600025654 0.122079543769 -0.620000004768 1.77760338783 0.122079543769 -0.600000023842 1.15600025654 0.122079543769 -0.600000023842 1.40500032902 0.122079543769 -0.445000052452 1.40500032902 0.122079543769 -0.445000052452 1.77760338783 0.122079543769 0.445000052452 1.40500032902 0.122079543769 0.445000052452 1.77760338783 0.122079543769 0.600000023842 1.15600025654 0.122079543769 0.600000023842 1.40500032902 0.122079543769 0.620000004768 1.15600025654 0.122079543769 0.620000004768 1.77760338783 0.122819595039 -0.620000004768 1.15600025654 0.122819595039 -0.620000004768 1.77747285366 0.122819595039 -0.445000052452 1.15600025654 0.122819595039 -0.445000052452 1.77747285366 0.122819595039 0.445000052452 1.15600025654 0.122819595039 0.445000052452 1.77747285366 0.122819595039 0.620000004768 1.15600025654 0.122819595039 0.620000004768 1.77747285366 0.555000007153 -0.620000004768 4.87747193745e-08 0.555000007153 -0.445000052452 4.87747193745e-08 0.555000007153 0.445000052452 4.87747193745e-08 0.555000007153 0.620000004768 4.87747193745e-08 0.691210448742 -0.445000052452 4.87747193745e-08 0.691210448742 -0.289999961853 4.87747193745e-08 0.691210448742 0.289999961853 4.87747193745e-08 0.691210448742 0.445000052452 4.87747193745e-08</float_array>
          <technique_common>
            <accessor source="#positions-array" count="112" stride="3">
              <param name="X" type="float" />
              <param name="Y" type="float" />
              <param name="Z" type="float" />
            </accessor>
          </technique_common>
        </source>
        <source id="normals">
          <float_array id="normals-array" count="141">-1 0 0 -0.36649263 -0.9252739 0.09773185 -0.36638227 0.92532086 0.09770063 -0.36373737 -0.92643785 0.09699535 -0.3636384 0.92647916 0.09697073 -0.25766668 -1.263e-05 -0.96623385 -0.25766668 -7.44e-06 -0.96623379 -0.2576606 1.97e-06 -0.96623552 -0.2576606 2.35e-06 -0.96623552 -0.25765949 0 -0.96623582 -0.25765949 0 -0.96623576 -0.25765947 0 -0.96623582 -0.25765812 -2.8e-07 -0.96623611 -0.25765812 2.9e-07 -0.96623611 -0.21840811 -0.09223722 -0.9714886 -0.21839996 0.09222845 -0.97149128 -0.21822391 -0.09215583 -0.97153771 -0.21821347 0.09215331 -0.97154039 -0.17364769 0 -0.98480785 -0.17364767 0 -0.98480779 0 -1 0 0 -0.99999994 0 -0 0 -1 -0 0 -0.99999994 -0 0 1 0 0.99999994 0 0 1 0 0.24656062 -0.03056661 0.96864522 0.24656296 0.03057025 0.9686445 0.24666739 -0.0306138 0.96861649 0.24667095 0.03061384 0.96861571 0.27111956 -0.95982671 -0.07229736 0.27112007 0.95982653 -0.07229815 0.27112404 -0.95982534 -0.07229921 0.27112469 0.9598251 -0.07229872 0.36332035 -0.92661297 -0.09688497 0.36342996 0.92656666 -0.0969164 0.3667123 -0.92518044 -0.0977917 0.3668119 0.92513841 -0.09781605 0.89460558 0.37785006 -0.23855875 0.8946057 -0.37785044 -0.23855758 0.89461046 -0.37783754 -0.23856005 0.89461088 0.37783736 -0.23855893 0.96623516 0 -0.25766167 0.96623516 0 -0.25766164 0.99999994 -0 0 1 -0 0</float_array>
          <technique_common>
            <accessor source="#normals-array" count="47" stride="3">
              <param name="X" type="float" />
              <param name="Y" type="float" />
              <param name="Z" type="float" />
            </accessor>
          </technique_common>
        </source>
        <vertices id="vertices">
          <input semantic="POSITION" source="#positions" />
        </vertices>
        <triangles count="132" material="MATERIAL">
          <input semantic="VERTEX" source="#vertices" offset="0" />
          <input semantic="NORMAL" source="#normals" offset="1" />
          <p>50 18 67 18 65 18 51 18 67 18 50 18 64 24 23 24 22 24 66 24 23 24 64 24 51 43 50 43 22 43 23 43 51 43 22 43 65 0 66 0 64 0 67 0 66 0 65 0 6 16 14 16 12 16 6 14 8 14 14 14 42 37 40 37 12 37 14 35 42 35 12 35 38 28 36 28 40 28 42 30 38 30 40 30 36 4 8 4 6 4 38 2 8 2 36 2 97 0 98 0 96 0 99 0 98 0 97 0 73 22 87 22 72 22 73 22 88 22 87 22 58 46 57 46 56 46 58 46 59 46 57 46 54 31 44 31 16 31 26 33 54 33 16 33 56 20 54 20 26 20 57 21 54 21 56 21 57 10 73 10 72 10 54 5 57 5 72 5 46 8 54 8 72 8 44 13 54 13 46 13 59 9 73 9 57 9 16 42 44 42 18 42 44 39 46 39 18 39 76 24 56 24 18 24 56 24 26 24 18 24 26 24 16 24 18 24 78 24 58 24 76 24 58 24 56 24 76 24 77 0 79 0 76 0 79 0 78 0 76 0 77 26 76 26 18 26 46 26 77 26 18 26 72 25 86 25 77 25 46 26 72 26 77 26 72 26 87 26 86 26 96 24 86 24 84 24 98 24 86 24 96 24 86 24 98 24 77 24 98 24 79 24 77 24 86 46 87 46 84 46 87 45 85 45 84 45 87 46 89 46 85 46 88 46 89 46 87 46 43 27 37 27 39 27 43 29 41 29 37 29 13 36 41 36 15 36 41 38 43 38 15 38 7 15 13 15 9 15 13 17 15 17 9 17 39 3 7 3 9 3 37 1 7 1 39 1 68 24 25 24 24 24 70 24 25 24 68 24 52 19 71 19 69 19 53 19 71 19 52 19 25 44 53 44 24 44 53 44 52 44 24 44 69 0 70 0 68 0 71 0 70 0 69 0 93 45 95 45 90 45 95 46 91 46 90 46 94 46 93 46 92 46 94 45 95 45 93 45 75 22 90 22 74 22 75 22 93 22 90 22 47 40 45 40 17 40 19 41 47 41 17 41 17 34 45 34 27 34 45 32 55 32 27 32 55 26 63 26 27 26 63 25 62 25 27 25 61 10 75 10 74 10 63 11 75 11 61 11 47 7 75 7 63 7 55 6 47 6 63 6 45 12 47 12 55 12 62 46 61 46 60 46 62 46 63 46 61 46 80 24 62 24 60 24 82 24 62 24 80 24 62 24 82 24 27 24 82 24 19 24 27 24 19 24 17 24 27 24 81 0 83 0 80 0 83 0 82 0 80 0 82 20 47 20 19 20 83 20 47 20 82 20 92 21 93 21 83 21 75 20 47 20 83 20 93 20 75 20 83 20 92 24 83 24 81 24 100 24 92 24 81 24 102 24 92 24 100 24 102 24 94 24 92 24 101 0 102 0 100 0 103 0 102 0 101 0 2 23 20 23 10 23 20 22 28 22 10 22 28 22 104 22 10 22 28 22 32 22 104 22 32 22 105 22 104 22 29 23 32 23 28 23 109 22 108 22 105 22 32 23 48 23 105 23 48 22 109 22 105 22 33 23 48 23 32 23 33 22 49 22 48 22 5 22 33 22 4 22 1 23 5 23 4 23 0 22 1 22 4 22 34 22 49 22 33 22 5 22 34 22 33 22 35 22 49 22 34 22 106 22 110 22 49 22 35 23 106 23 49 23 106 22 111 22 110 22 31 23 35 23 30 23 107 22 106 22 35 22 31 22 107 22 35 22 11 22 31 22 21 22 3 22 11 22 21 22 11 22 107 22 31 22</p>
        </triangles>
      </mesh>
    </geometry>
  </library_geometries>
  <library_visual_scenes>
    <visual_scene id="Scene" name="Scene">
      <node id="Object" name="Object" type="NODE">
        <instance_geometry url="#geometry">
          <bind_material>
            <technique_common>
              <instance_material symbol="MATERIAL" target="#mat" />
            </technique_common>
          </bind_material>
        </instance_geometry>
      </node>
    </visual_scene>
  </library_visual_scenes>
  <scene>
    <instance_visual_scene url="#Scene" />
  </scene>
</COLLADA>