<?xml version='1.0' encoding='utf-8'?>
<COLLADA xmlns="http://www.collada.org/2005/11/COLLADASchema" version="1.4.1">
  <asset>
    <contributor>
      <authoring_tool>RM27 reviewed Blender visual export</authoring_tool>
    </contributor>
    <created>2026-10-07T00:00:00Z</created>
    <modified>2026-10-07T00:00:00Z</modified>
    <unit name="meter" meter="1" />
    <up_axis>Z_UP</up_axis>
  </asset>
  <library_effects>
    <effect id="fx">
      <profile_COMMON>
        <technique sid="common">
          <phong>
            <emission>
              <color>0 0 0 1</color>
            </emission>
            <ambient>
              <color>1 1 1 1</color>
            </ambient>
            <diffuse>
              <color>1 1 1 1</color>
            </diffuse>
            <specular>
              <color>0.08 0.08 0.08 1</color>
            </specular>
            <shininess>
              <float>12</float>
            </shininess>
          </phong>
        </technique>
      </profile_COMMON>
    </effect>
  </library_effects>
  <library_materials>
    <material id="mat" name="source_color">
      <instance_effect url="#fx" />
    </material>
  </library_materials>
  <library_geometries>
    <geometry id="geometry" name="geometry">
      <mesh>
        <source id="positions">
          <float_array id="positions-array" count="1326">0.394330322742 -0.143734142184 1.66086602211 0.394350349903 -0.143633052707 1.66081511974 0.394359886646 -0.143596813083 1.66079926491 0.394399940968 -0.143404170871 1.66066384315 0.394410431385 -0.143367931247 1.66064786911 0.394469559193 -0.143206760287 1.66047728062 0.394469559193 -0.1431709975 1.66046130657 0.394529640675 0.141928032041 1.66030025482 0.394540131092 -0.143047019839 1.66026115417 0.394540131092 0.141952827573 1.66026115417 0.394549667835 -0.143010780215 1.66024529934 0.394560158253 0.141989067197 1.66020905972 0.394620239735 -0.142928764224 1.66002213955 0.394620239735 0.142071083188 1.66002213955 0.394629776478 -0.142893001437 1.6600061655 0.394640266895 0.142105892301 1.65997004509 0.39470988512 -0.142856761813 1.6597673893 0.39470988512 0.142143085599 1.6597673893 0.394720375538 -0.142821952701 1.65975141525 0.394729912281 0.142178848386 1.65971517563 0.394799530506 -0.142831966281 1.65950453281 0.394799530506 0.142166927457 1.65950453281 0.394810020924 -0.142797157168 1.65948855877 0.394819557667 0.142203167081 1.65945243835 0.394890129566 -0.142856761813 1.65924179554 0.394890129566 0.142143085599 1.65924179554 0.394899666309 -0.142821952701 1.6592258215 0.394910156727 0.142178848386 1.65918970108 0.394979774952 -0.142928764224 1.65898704529 0.394979774952 0.142071083188 1.65898704529 0.394990265369 -0.142893001437 1.65897107124 0.394999802113 0.142105892301 1.65893495083 0.395059883595 -0.143047019839 1.65874791145 0.395059883595 0.141952827573 1.65874791145 0.395070374012 -0.143010780215 1.65873193741 0.395079910755 0.141989067197 1.65869581699 0.395090401173 0.139242008328 1.65865695477 0.395139992237 -0.143206760287 1.65853190422 0.395139992237 -0.143171951175 1.65851593018 0.395139992237 0.139342144132 1.65853190422 0.395139992237 0.141793087125 1.65853190422 0.39514952898 0.139376953244 1.65848016739 0.39514952898 0.141827896237 1.65847980976 0.395200073719 -0.143404170871 1.65834534168 0.395200073719 0.139539077878 1.65834534168 0.395200073719 0.141596153378 1.65834534168 0.395209610462 -0.143368884921 1.65832948685 0.39522010088 0.139573886991 1.65829360485 0.39522010088 0.141631916165 1.65829324722 0.395249664783 -0.143633052707 1.65819406509 0.395249664783 0.13976700604 1.65819406509 0.395249664783 0.141368225217 1.65819406509 0.395260155201 -0.143596813083 1.65817821026 0.395269691944 0.139802768826 1.65814220905 0.395269691944 0.141403034329 1.65814208984 0.395280182362 -0.145095035434 1.65812730789 0.395289719105 -0.144980117679 1.65808260441 0.395289719105 -0.143885776401 1.65808260441 0.395289719105 0.140020206571 1.65808260441 0.395289719105 0.141114071012 1.65808260441 0.395300209522 -0.144944831729 1.65806686878 0.395300209522 -0.143850013614 1.65806674957 0.395309746265 -0.144710227847 1.65801429749 0.395309746265 -0.144155189395 1.65801429749 0.395309746265 0.140055015683 1.65803074837 0.395309746265 0.140290096402 1.65801429749 0.395309746265 0.140845134854 1.65801429749 0.395309746265 0.141149833798 1.65803062916 0.395320236683 -0.144674941897 1.65799856186 0.395320236683 -0.144433185458 1.65799129009 0.395320236683 -0.144118949771 1.65799844265 0.395320236683 0.140568092465 1.65799129009 0.395329773426 -0.144396945834 1.65797555447 0.395329773426 0.140324905515 1.65796244144 0.395329773426 0.140880897641 1.65796232224 0.395340263844 0.140602901578 1.65793943405 0.406130135059 -0.0900971144438 1.62651801109 0.406139671803 0.0375340692699 1.62650179863 0.406350433826 0.0457351915538 1.62587690353 0.407010376453 0.0538981668651 1.62394845486 0.40808993578 0.0615370981395 1.62079775333 0.409579575062 0.0685508996248 1.61648607254 0.411420166492 0.0747612267733 1.61110711098 0.413569748402 0.079947784543 1.60484242439 0.415959656239 0.0839489251375 1.597894907 0.417889893055 -0.0660912245512 1.59226632118 0.417900383472 -0.0122739542276 1.59224808216 0.417900383472 -0.0121218431741 1.59225893021 0.417900383472 0.0375288240612 1.592253685 0.417900383472 0.0377572290599 1.59225296974 0.417909920216 -0.012435125187 1.59221160412 0.417929947376 -0.0125872362405 1.59215044975 0.417960464954 -0.0127269495279 1.59206628799 0.417979538441 0.0402491800487 1.59201109409 0.417999565601 -0.0128499735147 1.59196138382 0.418039619923 -0.0129529703408 1.59183871746 0.418090164661 -0.0130330789834 1.59170162678 0.418139755726 -0.0130888689309 1.59155392647 0.418190300465 -0.0131179559976 1.59139955044 0.418199837208 0.0426591150463 1.59136772156 0.418250381947 -0.0131189096719 1.59124279022 0.418299973011 -0.0130931604654 1.59108805656 0.418349564075 -0.0130411852151 1.59093940258 0.418400108814 -0.0129629839212 1.5908010006 0.418440163136 -0.0128618944436 1.59067678452 0.418520271778 0.0866778641939 1.59043705463 0.418549835682 0.0449169389904 1.59034180641 0.419029533863 0.0469549410045 1.58896398544 0.419610321522 0.0487130396068 1.58727526665 0.419800102711 0.0444520227611 1.58671176434 0.419809639454 0.0444777719676 1.5866702795 0.419880211353 0.0445712320507 1.58647096157 0.419900238514 0.0445960275829 1.58643126488 0.419969856739 0.0446432344615 1.58621621132 0.419980347157 0.0446689836681 1.58617639542 0.420060455799 0.0446680299938 1.58595335484 0.420079529285 0.044692825526 1.58591365814 0.420150101185 0.0446432344615 1.58569061756 0.420170128345 0.0446680299938 1.58565092087 0.420239746571 0.0445712320507 1.58543586731 0.420250236988 0.0445960275829 1.58539605141 0.420279800892 0.0501368753612 1.58532607555 0.420319855213 0.0444529764354 1.58519673347 0.420330345631 0.0417078249156 1.58515548706 0.420330345631 0.0444777719676 1.58515703678 0.420399963856 0.0418418161571 1.58498072624 0.420399963856 0.0442932359874 1.58498072624 0.420410454273 0.0418661348522 1.58494126797 0.420410454273 0.0443180315197 1.58494102955 0.420460045338 0.0420392267406 1.5847941637 0.420460045338 0.0440958254039 1.5847941637 0.420469582081 0.0420640222728 1.58475470543 0.420469582081 0.0441210977733 1.58475446701 0.420509636402 0.0422681085765 1.58464288712 0.420509636402 0.043866943568 1.58464288712 0.420529663563 0.0422919504344 1.58460342884 0.420529663563 0.0438922159374 1.58460319042 0.420549690723 0.0425198785961 1.58453142643 0.420549690723 0.0436142198741 1.58453142643 0.420560181141 0.0425451509655 1.58449196815 0.420560181141 0.0436390154064 1.58449172974 0.420569717884 0.0427897684276 1.58446311951 0.420569717884 0.0433448068798 1.58446311951 0.420580208302 0.0430668108165 1.58444011211 0.420589745045 0.042815040797 1.58442366123 0.420589745045 0.0430930368602 1.58440053463 0.420589745045 0.0433700792491 1.58442354202 0.421010315418 0.0511849634349 1.58317422867 0.42118960619 0.0880678445101 1.58265483379 0.421799957752 0.0518267862499 1.58088409901 0.422609627247 0.0520427934825 1.57852351665 0.423420250416 0.0518258325756 1.57616317272 0.423960030079 0.0880869179964 1.57461082935 0.42420989275 0.0511840097606 1.57387304306 0.424949944019 0.0501349680126 1.5717215538 0.425589859486 -0.0506588704884 1.56984555721 0.425620377064 0.0487101785839 1.56977260113 0.425649940968 -0.0505468137562 1.56968593597 0.425649940968 0.0174549352378 1.56968319416 0.425660431385 -0.0505239255726 1.56965816021 0.425660431385 0.0174759160727 1.56964957714 0.42573004961 -0.0504290349782 1.56944680214 0.42573004961 0.0175708066672 1.56944680214 0.425739586353 -0.0504061467946 1.56941914558 0.425739586353 0.017594171688 1.56941056252 0.425819694996 -0.0503570325673 1.56919205189 0.425819694996 0.0176428090781 1.56919205189 0.425830185413 -0.0503341443837 1.56916439533 0.425830185413 0.0176661740988 1.56915569305 0.425910294056 -0.0503331907094 1.56892931461 0.425910294056 0.0176680814475 1.56892931461 0.425919830799 -0.0503098256886 1.56890153885 0.425919830799 -0.0435349233449 1.56890070438 0.425919830799 0.00809080712497 1.56889414787 0.425919830799 0.0176900159568 1.56889295578 0.425999939442 -0.0503570325673 1.56866645813 0.425999939442 0.0176428090781 1.56866645813 0.426010429859 -0.0503341443837 1.56863880157 0.426010429859 0.0176661740988 1.56863021851 0.426080048084 -0.0504290349782 1.56841170788 0.426080048084 0.0175708066672 1.56841170788 0.426089584827 -0.0504061467946 1.56838405132 0.426100075245 0.017594171688 1.56837534904 0.42616969347 -0.0505468137562 1.56817269325 0.42616969347 0.0174530278891 1.56817269325 0.426180183887 -0.0505239255726 1.56814491749 0.426180183887 0.0147031079978 1.56813919544 0.426180183887 0.0147040616721 1.56813669205 0.426180183887 0.0174759160727 1.56813633442 0.426200211048 0.0469520799816 1.56808435917 0.426240265369 -0.0531579740345 1.56795656681 0.426240265369 -0.0507070310414 1.56795656681 0.426240265369 0.0148418676108 1.56795656681 0.426240265369 0.017292810604 1.56795656681 0.426249802113 -0.0531360395253 1.56792926788 0.426249802113 -0.0506841428578 1.56792891026 0.426249802113 0.0148638021201 1.56792056561 0.426249802113 0.0173161756247 1.56792032719 0.426300346851 -0.0529610402882 1.56777000427 0.426300346851 -0.0509039647877 1.56777000427 0.426300346851 0.0150388013572 1.56777000427 0.426300346851 0.0170958768576 1.56777000427 0.426309883595 -0.0529391057789 1.56774270535 0.426309883595 -0.0508820302784 1.56774246693 0.426320374012 0.0150621663779 1.56773400307 0.426320374012 0.0171178113669 1.56773376465 0.426360428333 -0.0527331121266 1.56761872768 0.426360428333 -0.0511328466237 1.56761872768 0.426360428333 0.0152681600302 1.56761872768 0.426360428333 0.0168669950217 1.56761872768 0.426369965076 -0.052710223943 1.56759130955 0.426369965076 -0.0511099584401 1.56759107113 0.426369965076 0.0152900945395 1.56758272648 0.426369965076 0.0168898832053 1.56758248806 0.42639952898 -0.0524799115956 1.567507267 0.42639952898 -0.0513850934803 1.567507267 0.42639952898 0.0155199300498 1.567507267 0.42639952898 0.0166152250022 1.567507267 0.426410019398 -0.052457023412 1.56747984886 0.426410019398 -0.0513631589711 1.56747972965 0.426410019398 0.0155428182334 1.56747126579 0.426410019398 0.0166371595114 1.56747102737 0.426419556141 -0.0522109754384 1.56743896008 0.426419556141 -0.0516549833119 1.56743896008 0.426419556141 0.0157898198813 1.56743896008 0.426419556141 0.0163448583335 1.56743896008 0.426430046558 -0.0521880872548 1.56741154194 0.426430046558 -0.0519320257008 1.56741595268 0.426430046558 -0.0516320951283 1.56741142273 0.426430046558 0.0158122312278 1.56740295887 0.426430046558 0.0160668622702 1.56741595268 0.426430046558 0.0163682233542 1.56740283966 0.426439583302 -0.0519100911915 1.56738853455 0.426439583302 0.016090227291 1.56737983227 0.426670372486 0.0449140779674 1.56670713425 0.42669993639 0.086681202054 1.56662690639 0.42702037096 0.0426557771862 1.56568181515 0.427239716053 0.0402448885143 1.56503903866 0.427319824696 -0.0660950392485 1.56481122971 0.427330315113 0.0375250093639 1.56479716301 0.427330315113 0.0377529375255 1.56479775906 0.427339851856 -0.0660950392485 1.56476318836 0.429250061512 0.0839617997408 1.55918431282 0.431630432606 0.079977825284 1.55225384235 0.433780014515 0.0748189240694 1.54600322247 0.435630142689 0.068614795804 1.54061317444 0.437119781971 0.0615828745067 1.53627765179 0.438209831715 0.0539348833263 1.53311538696 0.438869774342 0.0458648912609 1.53119528294 0.439079582691 -0.0296861398965 1.53055870533 0.439090073109 0.0375211946666 1.53055012226 0.440160095692 0.0479892008007 1.52741348743 0.440260231495 -0.0104839075357 1.52714598179 0.440300285816 -0.0104290712625 1.52702140808 0.440300285816 0.0595710985363 1.52701985836 0.440309822559 -0.0104119051248 1.52698862553 0.440309822559 0.0595877878368 1.52697825432 0.440389931202 -0.0103570688516 1.52676665783 0.440389931202 0.0596431009471 1.52676510811 0.440400421619 -0.0103399027139 1.52673375607 0.440400421619 0.0596597902477 1.52672338486 0.440409958363 0.0427768938243 1.52670228481 0.440479576588 -0.0103317964822 1.52650380135 0.440479576588 0.0596669428051 1.52650225163 0.440490067005 -0.010316060856 1.52647101879 0.440490067005 -0.00257079512812 1.5264698267 0.440490067005 0.0375159494579 1.52646386623 0.440490067005 0.0596841089427 1.52646064758 0.440570175648 -0.0103570688516 1.52624094486 0.440570175648 0.0596431009471 1.52623963356 0.440579712391 -0.0103408563882 1.52620828152 0.440579712391 0.0596597902477 1.52619791031 0.44065028429 -0.0104290712625 1.52598619461 0.440659821033 0.0595710985363 1.5259847641 0.440670311451 -0.0104119051248 1.52595353127 0.440670311451 0.0565798990428 1.52594435215 0.440670311451 0.0595877878368 1.52594304085 0.440710365772 -0.0133649576455 1.52582895756 0.440739929676 -0.013318227604 1.52574717999 0.440739929676 -0.0105468500406 1.52574717999 0.440739929676 0.0566819421947 1.52574574947 0.440739929676 0.059452842921 1.52574574947 0.440750420094 -0.0133020151407 1.52571475506 0.440750420094 -0.01053016074 1.52571439743 0.440750420094 0.0566981546581 1.52570438385 0.440750420094 0.0594690553844 1.52570414543 0.440809547901 -0.0131580103189 1.52553105354 0.440809547901 -0.0107070673257 1.52553105354 0.440809547901 0.0568421594799 1.52552962303 0.440809547901 0.059293102473 1.52552962303 0.440820038319 -0.0131417978555 1.52549874783 0.440820038319 -0.010689901188 1.5254983902 0.440829575062 0.0568578951061 1.52548825741 0.440829575062 0.0593097917736 1.52548801899 0.440869629383 -0.0129610765725 1.52534461021 0.440869629383 -0.010904001072 1.52534461021 0.440869629383 0.0570390932262 1.52534306049 0.440869629383 0.0590961687267 1.52534306049 0.440889656544 -0.0129448641092 1.52531206608 0.440889656544 -0.0108868349344 1.52531194687 0.440889656544 0.0570548288524 1.52530181408 0.440889656544 0.0591128580272 1.52530145645 0.440929710865 -0.0127331484109 1.52519333363 0.440929710865 -0.011132882908 1.52519333363 0.440929710865 0.0572670213878 1.52519178391 0.440929710865 0.0588668100536 1.52519178391 0.440940201283 -0.0127159822732 1.52516078949 0.440940201283 -0.0111161936074 1.52516055107 0.440940201283 0.0572841875255 1.52515041828 0.440940201283 0.0588839761913 1.52515029907 0.440960228443 -0.0124799478799 1.52508175373 0.440960228443 -0.0113851297647 1.52508175373 0.440969765186 0.0575202219188 1.52508032322 0.440969765186 0.0586140863597 1.52508032322 0.440980255604 -0.0124627817422 1.5250493288 0.440980255604 -0.0113689173013 1.52504920959 0.440980255604 0.0575369112194 1.5250389576 0.440980255604 0.0586307756603 1.52503883839 0.440989792347 -0.0122110117227 1.52501344681 0.440989792347 -0.0116550195962 1.52501344681 0.440989792347 0.0577901117504 1.52501213551 0.440989792347 0.0583451502025 1.52501213551 0.441000282764 -0.012193845585 1.52498102188 0.441000282764 -0.0119320619851 1.52499055862 0.441000282764 -0.0116378534585 1.52498090267 0.441000282764 0.0578058473766 1.52497065067 0.441000282764 0.0580681078136 1.52498912811 0.441000282764 0.058361839503 1.52497065067 0.441009819508 -0.0119158495218 1.52495801449 0.441009819508 0.0580838434398 1.52494764328 0.4508202672 0.0264671575278 1.49638712406 0.450860321522 0.0265677701682 1.49626290798 0.450909912586 0.0266459714621 1.496124506 0.450960457325 0.0266989003867 1.49597585201 0.451010048389 0.0267260801047 1.49582099915 0.451070129871 0.0267241727561 1.49566411972 0.451119720936 0.0266960393637 1.49550962448 0.451170265675 0.0266397725791 1.49536168575 0.451219856739 0.0265601407737 1.49522435665 0.45125991106 0.0264571439475 1.49510157108 0.451299965382 0.0263341199607 1.4949965477 0.451329529285 0.0261939298362 1.49491226673 0.451349556446 0.0260408651084 1.49485111237 0.451360046864 -0.0146528948098 1.49480962753 0.451360046864 0.0257280599326 1.49480354786 0.451360046864 0.0258801709861 1.49481463432 0.455490410328 0.0542410127819 1.48277294636 0.455499947071 0.0540898554027 1.48276209831 0.455499947071 0.0909322053194 1.48276758194 0.455510437489 0.0539282076061 1.48272538185 0.455530464649 0.0537751428783 1.48266375065 0.455560028553 0.0536349527538 1.48257911205 0.455600082874 0.0535109750926 1.48247361183 0.455640137196 0.0534079782665 1.48235034943 0.45568972826 0.0533278696239 1.48221254349 0.455740272999 0.0532730333507 1.48206400871 0.455789864063 0.0532448999584 1.48190903664 0.455840408802 0.0532439462841 1.48175168037 0.45589953661 0.0532720796764 1.48159646988 0.455950081348 0.053325008601 1.48144769669 0.455999672413 0.0534051172435 1.48130941391 0.456039726734 0.0535071603954 1.48118543625 0.456890404224 -0.0911800116301 1.47872257233 0.456930458546 -0.0912272185087 1.47859740257 0.456969559193 -0.0912949293852 1.47847533226 0.457009613514 -0.0913798063993 1.47836387157 0.457040131092 -0.0914818495512 1.4782654047 0.457069694996 -0.0915981978178 1.4781819582 0.457089722157 -0.0917212218046 1.47811734676 0.458310425282 -0.0997149199247 1.47458207607 0.458310425282 -0.0460078008473 1.47457528114 0.467529594898 0.0861900597811 1.44773030281 0.471129715443 -0.142830058932 1.43722915649 0.471149742603 0.142168834805 1.43719315529 0.471180260181 0.138974025846 1.43710911274 0.471220314503 -0.142856761813 1.43698227406 0.471220314503 -0.142852947116 1.43696630001 0.471220314503 0.138991191983 1.43698227406 0.471220314503 0.142143085599 1.43698227406 0.471240341663 0.138995960355 1.43693065643 0.471240341663 0.142146900296 1.4369301796 0.471249878407 -0.145985767245 1.43688416481 0.471309959888 -0.145936176181 1.4367275238 0.471309959888 -0.145931884646 1.43671190739 0.471309959888 -0.142928764224 1.4367275238 0.471309959888 -0.142924949527 1.43671154976 0.471309959888 0.139064148068 1.4367275238 0.471309959888 0.142071083188 1.4367275238 0.471320450306 0.139067962766 1.43667578697 0.471329987049 0.142074897885 1.43667542934 0.471390068531 -0.145817920566 1.43648838997 0.471390068531 -0.145814105868 1.43647277355 0.471390068531 -0.143047019839 1.43648838997 0.471390068531 -0.143043205142 1.43647253513 0.471390068531 0.139181926847 1.43648838997 0.471390068531 0.141952827573 1.43648838997 0.471410095692 0.139186218381 1.43643665314 0.471410095692 0.141957119107 1.43643629551 0.471459686756 -0.145658180118 1.43627238274 0.471459686756 -0.143206760287 1.43627238274 0.471459686756 0.139342144132 1.43627238274 0.471459686756 0.141793087125 1.43627238274 0.471470177174 -0.145654842257 1.43625664711 0.471470177174 -0.14320294559 1.43625640869 0.471479713917 0.139345005155 1.4362206459 0.471479713917 0.141796901822 1.43622028828 0.471530258656 -0.145460769534 1.4360858202 0.471530258656 -0.145456954837 1.43607020378 0.471530258656 -0.143404170871 1.4360858202 0.471530258656 -0.143399879336 1.43606984615 0.471530258656 0.139539077878 1.4360858202 0.471530258656 0.141596153378 1.4360858202 0.471539795399 0.139542892575 1.43603408337 0.471550285816 0.141599968076 1.43603384495 0.47157984972 -0.145231887698 1.43593454361 0.47157984972 -0.145229026675 1.43591892719 0.47157984972 -0.143633052707 1.43593454361 0.47157984972 -0.143628761172 1.43591868877 0.47157984972 0.13976700604 1.43593454361 0.47157984972 0.141368225217 1.43593454361 0.471599876881 0.139770820737 1.43588268757 0.471599876881 0.14137108624 1.43588244915 0.471619904041 -0.144980117679 1.43582308292 0.471619904041 -0.144975826144 1.4358073473 0.471619904041 -0.143885776401 1.43582308292 0.471619904041 -0.143881961703 1.43580722809 0.471619904041 0.140020206571 1.43582308292 0.471619904041 0.141114071012 1.43582308292 0.471630394459 0.140024021268 1.43577122688 0.471630394459 0.141117885709 1.43577110767 0.471639931202 -0.144710227847 1.435754776 0.471639931202 -0.144155189395 1.435754776 0.471639931202 0.140290096402 1.435754776 0.471639931202 0.140845134854 1.435754776 0.471650421619 -0.144705936313 1.43573915958 0.471650421619 -0.144433185458 1.43573176861 0.471650421619 -0.144428893924 1.43571603298 0.471650421619 -0.144150897861 1.43573904037 0.471650421619 0.140568092465 1.43573176861 0.471659958363 0.140292957425 1.43570291996 0.471659958363 0.140848949552 1.43570291996 0.47167044878 0.140571907163 1.43567991257</float_array>
          <technique_common>
            <accessor source="#positions-array" count="442" stride="3">
              <param name="X" type="float" />
              <param name="Y" type="float" />
              <param name="Z" type="float" />
            </accessor>
          </technique_common>
        </source>
        <source id="normals">
          <float_array id="normals-array" count="1221">0.10446145 -0.95897704 -0.26353568 0.24201955 0.33425152 0.91088009 0.42916298 -0.81042486 -0.39878666 0.46527302 -0.77175957 -0.43348378 0.49267644 0.828031 0.26764637 0.53449333 -0.81495976 -0.22395842 0.54761446 0.64868104 0.52851796 0.58424169 -0.7883985 -0.19258589 0.59095776 -0.78367674 -0.19136292 0.63413167 0.65640205 0.40867284 0.63862944 -0.44325924 -0.629026 0.64739573 0.14150135 0.74890321 0.67690676 0.71593744 0.17097014 0.68184066 0.60379195 0.41295099 0.71861303 0.40534565 0.56505775 0.72885346 0.31741044 0.6066491 0.72889692 0.31322896 0.60876673 0.73253685 -0.63613147 -0.2423358 0.73462522 -0.64721107 -0.20357716 0.77561784 0.26439136 0.5731616 0.7818169 -0.62184936 -0.04545137 0.79042125 0.24982312 0.55930549 0.79813707 0.1726976 0.5771938 0.81263077 0.36853391 0.45145759 0.81337827 0.01749004 0.58147228 0.81471193 0.12078142 0.56714755 0.81927997 0.15034415 0.55333275 0.82160956 0.55445993 0.13240834 0.82222956 0.27026775 0.50089312 0.82263023 0.05007459 0.56636751 0.82806295 0.01518646 0.56042939 0.83079964 -0.54067421 -0.13207309 0.83115113 -0.28411356 0.47798258 0.83684152 -0.04515305 0.54557985 0.83788294 0.01641114 0.54560316 0.83893257 -0.21690948 0.49914151 0.83896685 0.04550564 0.54227662 0.83898467 -0.07430565 0.53905791 0.84742451 0.20508404 0.4897064 0.84854901 0.20372729 0.48832342 0.84872854 -0.01440787 0.52863246 0.85468543 0.21172452 0.47401014 0.85497421 0.313752 0.41301173 0.85968912 0.10515698 0.49987665 0.86362821 -0.06273545 0.5002107 0.86423326 -0.00901736 0.50301045 0.86923784 0.07785375 0.4882257 0.86976725 -0.10778262 0.48154747 0.87298363 -0.46643248 0.14261918 0.87301505 -0.32263762 0.36571795 0.8731581 -0.11950747 0.47256014 0.87686163 -0.16125073 0.45289287 0.87871677 -0.23960216 0.41285294 0.88176942 -0.4689362 0.05081024 0.88328284 -0.05255363 0.4658857 0.88365364 -0.05226297 0.46521485 0.8843224 -0.37723768 -0.27507371 0.88630784 0.02000978 0.46266401 0.8866837 0.06965052 0.45710039 0.88893831 -0.05941217 0.45415729 0.88926989 -0.05898632 0.45356324 0.89066553 0.00403065 0.4546414 0.89438921 -0.39911684 0.20192519 0.89454424 -0.09522259 0.43671867 0.89682609 0.2269484 0.37973329 0.89843935 -0.124736 0.42100787 0.89895767 0.22030264 0.37860504 0.90075016 -0.03594646 0.43284753 0.90126449 0.18048392 0.39388809 0.90200567 -0.041891 0.42968693 0.90511441 0.41353986 0.09875578 0.90534139 -0.07956277 0.4171651 0.9053688 -0.17166524 0.38837895 0.90547389 0.41262662 0.09927858 0.90577579 0.26243591 0.33271226 0.90730727 -0.23177354 0.35081971 0.90818679 -0.07204419 0.41231838 0.90831506 0.25272542 0.33330712 0.90863305 -0.07468414 0.4108628 0.90949661 -0.06979818 0.40980998 0.91159213 -0.09970539 0.39882156 0.91206002 0.09876915 0.39798397 0.91248369 0.16963644 0.37228626 0.91266119 -0.06538382 0.40345329 0.91270816 -0.12747654 0.38821849 0.913266 0.18730183 0.3617503 0.91333288 0.16993092 0.37006274 0.91334331 -0.23279972 0.33407801 0.91490722 0.06526419 0.39835328 0.91507614 -0.40326783 -0.00329534 0.91507965 0.06505143 0.39799172 0.91921484 -0.19272546 0.34336695 0.91937125 -0.20881751 0.33339438 0.91962725 0.14081565 0.36668351 0.9211325 0.06373513 0.38399571 0.92172068 -0.07844271 0.37983918 0.92198986 -0.10227314 0.37346324 0.92499673 -0.32762429 -0.1924665 0.92516071 -0.10897408 0.36359641 0.92516607 -0.23693696 0.29652759 0.92542249 -0.10774866 0.36329541 0.92564881 -0.17464145 0.33567083 0.92600143 0.02668858 0.37657538 0.92612308 0.09109923 0.36605588 0.92647165 0.02627362 0.37544629 0.92655504 -0.36541507 -0.0892617 0.92701536 -0.11206826 0.35788712 0.92726272 0.08839002 0.36382833 0.92742974 0.02137467 0.37338617 0.92812383 0.22014797 0.30020177 0.92902893 0.01576681 0.36967105 0.92915237 0.01567148 0.36936477 0.92939097 -0.02830154 0.36801013 0.92961127 0.01504225 0.36823437 0.92990553 0.15134875 0.33521512 0.92993981 -0.09132031 0.35619146 0.93082488 -0.02599715 0.36453986 0.93143678 0.02765882 0.36285046 0.93167698 0.00511189 0.36325151 0.93188238 0.00530149 0.36272177 0.93192869 0.35257986 0.08483125 0.93207824 -0.08523922 0.3520858 0.93228102 -0.08147787 0.35243919 0.93238336 0.0082231 0.36137733 0.93250483 0.01139007 0.36097768 0.93260193 -0.07993098 0.35194418 0.93270105 0.00536998 0.3606106 0.93276191 -0.07132056 0.35336784 0.93293399 -0.00541031 0.36000702 0.93296713 -0.00540014 0.3599211 0.93299615 -0.00693485 0.35981938 0.93299627 -0.01120049 0.35971162 0.93301523 -0.07035647 0.35289183 0.93316275 -0.02164102 0.3588019 0.93325233 -0.00582471 0.35917431 0.93329859 -0.04422006 0.35636815 0.93341994 -0.03401215 0.3571701 0.93348706 -0.03384699 0.35701028 0.93350947 -0.00489506 0.35851935 0.93376684 0.00056048 0.35788137 0.93377125 0.01856115 0.35738888 0.93377221 0.00256985 0.35785875 0.93403918 0.00704263 0.35710096 0.93411416 -0.00570961 0.35692868 0.93425536 0.13176848 0.33136666 0.9346261 -0.12970959 0.3311336 0.9347645 -0.01954096 0.35473025 0.93493491 -0.00825243 0.3547233 0.93496859 -0.00817792 0.3546361 0.93563801 -0.00607897 0.35290864 0.93600625 -0.00186238 0.35197842 0.93687224 -0.00923211 0.34954998 0.93718612 -0.10395809 0.33297855 0.9372046 -0.01866759 0.34828004 0.93797672 0.16534299 0.30473164 0.93811393 -0.00985724 0.3461864 0.9382965 -0.02479101 0.34494227 0.93846941 0.01086439 0.34519145 0.93854731 -0.02403785 0.34431258 0.93875349 0.0242035 0.34373856 0.93888009 -0.01740598 0.34380409 0.93903005 -0.01723187 0.34340313 0.93949413 0.01023426 0.34241194 0.93954289 0.020623 0.34180981 0.93957114 -0.33802992 -0.05423744 0.93967766 0.02101118 0.34141535 0.93982005 0.0084578 0.34156528 0.93992752 -0.29677579 0.1687023 0.93992943 -0.03217104 0.33984944 0.93997955 -0.03144356 0.33977917 0.94005656 0.0080679 0.34092328 0.94009268 0.08972571 0.32889965 0.9403497 0.01865552 0.33969757 0.94039804 -0.03368126 0.33840388 0.94071418 0.00315195 0.33918554 0.94084603 -0.14246152 0.30743048 0.94116241 -0.01048231 0.33779198 0.94135588 -0.04023831 0.33500734 0.94136542 0.00118311 0.33738658 0.94149858 -0.0391136 0.33473963 0.94169319 0.00628034 0.33641416 0.94176471 -0.04059166 0.33381376 0.9420557 0.00621118 0.335399 0.94224519 0.17519502 0.28544834 0.94248015 0.00793623 0.33416817 0.94250667 0.11208196 0.31483153 0.94253647 0.00463752 0.33407104 0.94289428 0.0006904 0.33309135 0.94292873 -0.04805586 0.32950863 0.94295096 -0.04738826 0.32954171 0.94302678 0.02217031 0.33197725 0.94318187 0.05183744 0.32820818 0.94361734 0.03591697 0.32908419 0.94367403 0.0517326 0.32680732 0.94376302 -0.03338439 0.32893282 0.94392526 0.04896475 0.32650849 0.94419926 0.0045405 0.32934359 0.94453692 0.08401325 0.31747723 0.9445855 0.00185134 0.32826033 0.94464159 -0.03936543 0.32573405 0.94500083 -0.00195728 0.32706204 0.94501406 -0.1518933 0.28961489 0.94509727 0.07287563 0.31855962 0.94526625 4.128e-05 0.3263002 0.94531441 -0.00200368 0.32615426 0.94531924 0.00186423 0.32614133 0.94541109 -0.00035763 0.32587996 0.94541466 0.00149842 0.32586637 0.94543445 0.0006289 0.32581186 0.94547385 0.00275526 0.3256864 0.94549507 -7.451e-05 0.32563636 0.94558883 -0.11645564 0.30380905 0.9456259 -0.00089044 0.3252551 0.9456296 -7.98e-05 0.32524541 0.94567317 -0.00011424 0.32511896 0.94567925 0.00038111 0.32510102 0.94569767 0.00036856 0.32504734 0.94571471 4.893e-05 0.32499793 0.94571871 0.00041697 0.32498592 0.94571877 0.00029741 0.32498625 0.94572669 -0.00015715 0.32496315 0.94572681 0.00099544 0.32496122 0.94573098 2.343e-05 0.3249507 0.94573128 -6.679e-05 0.32494998 0.94573629 0.00014732 0.3249352 0.94574797 -0.00057791 0.3249006 0.9457581 4.83e-05 0.32487181 0.94575864 3.431e-05 0.32487023 0.94577444 0.00020059 0.32482409 0.94577485 -0.00012188 0.32482275 0.94577932 -9.87e-06 0.32480988 0.94578207 8.895e-05 0.32480186 0.9457826 4.125e-05 0.32480016 0.94578463 1.872e-05 0.32479429 0.94578934 0.00011219 0.32478061 0.9457919 -0.00019835 0.3247731 0.94579369 -0.00084929 0.32476702 0.94579405 -0.00010615 0.32476702 0.94579649 0.00012675 0.32476005 0.94579774 0.00294331 0.32474273 0.94580036 0.00026467 0.32474858 0.94580245 0.00023723 0.32474265 0.94580364 9.718e-05 0.32473916 0.94580436 0.00025254 0.32473674 0.94580609 0.0002722 0.32473183 0.94581431 -8.95e-05 0.32470778 0.94581854 -5.086e-05 0.32469571 0.94582134 -0.00082867 0.32468662 0.9458257 -2.943e-05 0.3246749 0.94582689 -5.168e-05 0.32467136 0.94582701 -1.458e-05 0.32467088 0.94582748 -0.0003114 0.32466942 0.94582808 0.13899998 0.29340819 0.94583189 0.0010172 0.32465503 0.94584209 -0.0001971 0.32462686 0.94586122 -0.00559002 0.32452318 0.94586349 0.001458 0.32456163 0.94589907 7.716e-05 0.32446113 0.9459036 7.788e-05 0.32444796 0.94590729 0.00078757 0.32443607 0.94593823 0.00057347 0.32434651 0.94594663 -0.00093977 0.32432097 0.94597542 -0.00030067 0.32423824 0.94598579 0.07769014 0.31476176 0.94601166 -0.0067062 0.3240633 0.94601166 0.00038599 0.32413262 0.94615358 -0.0678727 0.31652287 0.94615501 -0.06766476 0.31656304 0.94618189 -0.01205498 0.3234109 0.94619912 -0.00080401 0.32358414 0.94632041 0.0361116 0.32120663 0.94633365 0.06586995 0.31640747 0.94636732 -0.0476098 0.31956571 0.9465394 -0.00132382 0.32258558 0.94668645 -0.26001358 0.19020447 0.94670546 -0.04928492 0.31830764 0.94673395 0.0012623 0.32201445 0.9467355 0.03126251 0.32049096 0.94685203 0.03494449 0.31976599 0.946926 0.0635784 0.3151015 0.94692826 -0.00075492 0.32144421 0.94699967 -0.00215881 0.32122713 0.94714051 -0.07994727 0.31069794 0.94715345 0.09250045 0.30715448 0.94722533 -0.07562701 0.31151998 0.9472627 0.02656187 0.3193554 0.94766456 -0.00283902 0.31925514 0.9478476 0.02337879 0.31786498 0.94788331 -0.01242379 0.31837526 0.94790775 -0.0032373 0.31852868 0.94809985 -0.01105703 0.31778035 0.94816542 -0.01133248 0.31757501 0.94850945 -0.0586029 0.31128049 0.94863933 -0.00030686 0.31635943 0.9489522 -0.00831338 0.31531015 0.94926596 -0.00567409 0.31442308 0.94928795 -0.00523171 0.31436437 0.94954628 0.00898285 0.31349808 0.94964087 0.00960992 0.31319314 0.94998199 -0.00638564 0.31223974 0.95009053 0.00845765 0.31185982 0.95030701 0.01359103 0.3110173 0.95047599 0.00423894 0.31076893 0.95061225 0.00555988 0.31033096 0.95065475 0.00707534 0.3101702 0.95092434 -0.23325783 0.20330644 0.9509902 -0.00808762 0.30911523 0.95149457 -0.02602629 0.30656257 0.95157897 -0.00988512 0.30724519 0.95168144 0.07436637 0.29794645 0.95186818 -0.00967798 0.30635476 0.95199126 0.000714 0.30612427 0.95203942 -0.00183847 0.30596989 0.95207381 -0.0040056 0.30584192 0.95216364 0.00175074 0.30558366 0.95221496 -0.00189252 0.30542254 0.95231593 -0.00058533 0.30511326 0.95267379 -0.00465106 0.30395874 0.95292252 -0.01265758 0.30294979 0.95308089 -0.01102059 0.30251527 0.95345193 -0.0113937 0.30132994 0.95395464 -0.00223302 0.29994255 0.95408994 0.06430452 0.29253581 0.95414346 -0.03891462 0.29680976 0.95445287 -0.00245154 0.29835165 0.9550907 0.06036261 0.29010031 0.95512211 0.06127133 0.28980595 0.95542544 0.05970023 0.28913316 0.95550805 0.096769 0.27863979 0.95587474 -0.01857039 0.29318723 0.95648599 0.02359471 0.2908228 0.95659155 0.12155148 0.26487336 0.95687056 0.08950016 0.27638465 0.95687377 0.08981089 0.27627268 0.9569816 0.02049177 0.28942391 0.95699567 0.12766765 0.26050022 0.95717829 -0.06508842 0.2820873 0.95755172 -0.14231378 0.25068232 0.95756298 -0.14376974 0.24980687 0.95767969 -0.12331637 0.26008186 0.95786285 0.01256339 0.28695109 0.95853895 -0.0207142 0.2842077 0.95864183 0.00934401 0.28446174 0.95878124 -0.06942631 0.27553326 0.95882678 0.04383931 0.28058764 0.95891154 0.0700002 0.27493384 0.95908093 0.27343616 0.07346046 0.95952779 0.07173762 0.27232373 0.96015805 -0.00052118 0.27945673 0.96016014 -0.00052216 0.27944979 0.96021867 0.00057648 0.2792483 0.96041936 0.00089356 0.27855697 0.96048307 0.03559274 0.27605346 0.96093965 -0.01007558 0.2765747 0.96127456 0.03160834 0.27377385 0.96143913 0.03190484 0.27316073 0.96156073 0.03014143 0.27293321 0.96226454 -0.013868 0.27176189 0.96226788 0.10929533 0.24918917 0.96273649 -0.26966554 0.02046636 0.96378213 0.11123231 0.24238682 0.96414733 0.04653785 0.2612547 0.96440381 0.01454073 0.26403394 0.96489644 0.03826052 0.25982875 0.96497554 0.03848971 0.25950119 0.96587437 -0.04023498 0.25586697 0.96639997 -0.24970098 -0.06099566 0.96687418 -0.18960939 0.17088775 0.96687973 -0.17190264 0.18866149 0.96716207 -0.0047053 0.25411704 0.96765637 -0.00798896 0.25214532 0.96819723 0.01253434 0.24987404 0.96856719 0.00909941 0.24858572 0.96877754 -0.0126355 0.24760939 0.96878189 0.0205531 0.24706094 0.96952224 0.01635411 0.24445687 0.96972734 -0.2401928 -0.04400479 0.97030073 -0.01094725 0.24165374 0.97040826 -0.01099734 0.24121919 0.97084606 -0.01684647 0.23911126 0.97262591 -0.05065012 0.22678958 0.97291791 -0.05520184 0.2244626 0.97293931 0.01770872 0.23038131 0.9730646 -0.05542573 0.22377054 0.97349387 -0.07102769 0.21740481 0.97391635 -0.06827904 0.21639062 0.97528613 -0.12401792 0.18285656 0.97528642 -0.12486981 0.1822744 0.97572321 -0.01539191 0.21846588 0.97601157 -0.13618387 0.16986877 0.97692358 -0.17003025 0.12926766 0.97719282 0.06540202 0.20203173 0.97786188 0.0564043 0.20150638 0.97960949 -0.09537515 0.17682999 0.97995085 -0.09812422 0.17340113 0.98009992 -0.03187994 0.1959279 0.98021334 -0.02297736 0.19660574 0.98232657 0.18076511 0.04856376 0.9823522 0.18054365 0.04886896 0.98307312 -0.17675804 -0.04820674 0.9848603 -0.17051202 -0.03123884 0.98931408 0.14175475 0.0341064 0.98944759 0.13985816 0.03785634 0.99400401 0.10630952 0.02557823 0.99660456 -0.07943607 -0.02166438 0.99926925 0.03687593 0.01005707 1 0 0</float_array>
          <technique_common>
            <accessor source="#normals-array" count="407" stride="3">
              <param name="X" type="float" />
              <param name="Y" type="float" />
              <param name="Z" type="float" />
            </accessor>
          </technique_common>
        </source>
        <vertices id="vertices">
          <input semantic="POSITION" source="#positions" />
        </vertices>
        <triangles count="420" material="MATERIAL">
          <input semantic="VERTEX" source="#vertices" offset="0" />
          <input semantic="NORMAL" source="#normals" offset="1" />
          <p>194 81 198 81 190 81 202 81 198 81 194 81 202 336 206 336 198 336 210 343 206 343 202 343 210 200 214 200 206 200 218 113 214 113 210 113 218 102 222 102 214 102 226 102 222 102 218 102 226 149 227 149 222 149 232 255 227 255 226 255 232 184 223 184 227 184 228 141 223 141 232 141 228 161 215 161 223 161 219 160 215 160 228 160 219 151 207 151 215 151 211 196 207 196 219 196 211 165 199 165 207 165 203 163 199 163 211 163 203 288 191 288 199 288 195 291 191 291 203 291 195 290 183 290 191 290 185 194 183 194 195 194 157 155 159 155 155 155 185 150 179 150 183 150 161 339 159 339 157 339 181 159 179 159 185 159 161 323 163 323 159 323 181 307 175 307 179 307 165 272 167 272 161 272 167 172 163 172 161 172 177 292 175 292 181 292 177 199 169 199 175 199 169 205 171 205 165 205 171 275 167 275 165 275 171 207 169 207 177 207 282 53 278 53 277 53 282 303 286 303 278 303 290 298 286 298 282 298 290 302 294 302 286 302 298 15 294 15 290 15 298 22 302 22 294 22 306 320 302 320 298 320 306 285 310 285 302 285 314 25 310 25 306 25 314 36 318 36 310 36 322 300 318 300 314 300 322 319 323 319 318 319 328 353 323 353 322 353 328 340 319 340 323 340 324 304 319 304 328 304 324 287 311 287 319 287 315 44 311 44 324 44 315 47 303 47 311 47 307 301 303 301 315 301 307 270 295 270 303 270 299 50 295 50 307 50 299 51 287 51 295 51 291 277 287 277 299 277 291 311 279 311 287 311 283 314 279 314 291 314 283 191 272 191 279 191 274 52 272 52 283 52 253 42 255 42 252 42 274 49 268 49 272 49 257 64 255 64 253 64 270 263 268 263 274 263 257 93 259 93 255 93 270 197 262 197 268 197 262 193 264 193 257 193 264 195 259 195 257 195 264 278 262 278 270 278 127 18 125 18 123 18 127 386 129 386 125 386 131 390 129 390 127 390 131 393 133 393 129 393 135 43 133 43 131 43 135 46 137 46 133 46 139 369 137 369 135 369 139 370 141 370 137 370 144 57 141 57 139 57 144 61 143 61 141 61 145 374 143 374 144 374 145 375 142 375 143 375 146 67 142 67 145 67 146 69 138 69 142 69 140 352 138 352 146 352 140 354 134 354 138 354 136 76 134 76 140 76 136 78 130 78 134 78 132 345 130 345 136 345 132 361 126 361 130 361 128 356 126 356 132 356 128 309 122 309 126 309 124 309 122 309 128 309 124 325 119 325 122 325 112 6 110 6 109 6 111 8 112 8 109 8 120 326 119 326 124 326 120 283 117 283 119 283 113 62 112 62 111 62 118 91 117 91 120 91 113 144 114 144 112 144 118 92 115 92 117 92 115 99 116 99 113 99 116 85 114 85 113 85 118 101 116 101 115 101 187 17 192 17 186 17 196 89 192 89 187 89 196 387 200 387 192 387 204 16 200 16 196 16 204 26 208 26 200 26 212 385 208 385 204 385 212 380 216 380 208 380 220 365 216 365 212 365 220 349 224 349 216 349 229 348 224 348 220 348 229 357 230 357 224 357 233 373 230 373 229 373 233 362 225 362 230 362 231 342 225 342 233 342 231 350 217 350 225 350 221 351 217 351 231 351 221 334 209 334 217 334 213 355 209 355 221 355 213 327 201 327 209 327 205 63 201 63 213 63 205 65 193 65 201 65 197 322 193 322 205 322 197 344 184 344 193 344 188 330 184 330 197 330 188 202 180 202 184 202 162 68 160 68 158 68 182 72 180 72 188 72 162 23 164 23 160 23 182 75 176 75 180 75 166 66 164 66 162 66 178 279 176 279 182 279 166 82 168 82 164 82 178 271 170 271 176 271 170 114 174 114 166 114 174 171 168 171 166 171 174 185 170 185 178 185 379 4 377 4 374 4 379 86 386 86 377 86 388 48 386 48 379 48 388 167 394 167 386 167 396 117 394 117 388 117 396 103 400 103 394 103 404 107 400 107 396 107 404 123 410 123 400 123 412 389 410 389 404 389 412 394 418 394 410 394 420 130 418 130 412 130 420 124 426 124 418 124 428 395 426 395 420 395 428 396 432 396 426 396 439 131 432 131 428 131 439 128 438 128 432 128 441 129 438 129 439 129 441 126 433 126 438 126 440 126 433 126 441 126 440 133 427 133 433 133 429 392 427 392 440 392 429 391 419 391 427 391 421 135 419 135 429 135 421 137 411 137 419 137 413 136 411 136 421 136 413 134 401 134 411 134 405 138 401 138 413 138 405 127 395 127 401 127 397 132 395 132 405 132 397 125 387 125 395 125 389 122 387 122 397 122 389 121 378 121 387 121 380 121 378 121 389 121 380 87 373 87 378 87 383 0 382 0 381 0 383 5 390 5 382 5 391 7 390 7 383 7 391 31 398 31 390 31 402 14 398 14 391 14 402 19 406 19 398 19 407 105 406 105 402 105 407 366 414 366 406 366 415 376 414 376 407 376 415 400 422 400 414 400 423 399 422 399 415 399 423 404 430 404 422 404 434 29 430 29 423 29 434 30 435 30 430 30 436 406 435 406 434 406 436 405 431 405 435 405 437 33 431 33 436 33 437 37 424 37 431 37 425 403 424 403 437 403 425 401 416 401 424 401 417 402 416 402 425 402 417 398 408 398 416 398 409 397 408 397 417 397 409 346 399 346 408 346 403 35 399 35 409 35 403 32 392 32 399 32 393 120 392 120 403 120 393 73 384 73 392 73 385 70 384 70 393 70 385 27 375 27 384 27 376 27 375 27 385 27 376 12 372 12 375 12 60 1 56 1 55 1 60 11 62 11 56 11 68 11 62 11 60 11 68 24 69 24 62 24 72 34 69 34 68 34 72 45 63 45 69 45 70 40 63 40 72 40 70 55 57 55 63 55 61 54 57 54 70 54 61 59 49 59 57 59 52 60 49 60 61 60 1 10 2 10 0 10 52 71 43 71 49 71 3 97 2 97 1 97 46 83 43 83 52 83 3 56 4 56 2 56 46 95 37 95 43 95 5 21 6 21 3 21 6 359 4 359 3 359 38 360 37 360 46 360 38 331 32 331 37 331 8 368 10 368 5 368 10 41 6 41 5 41 34 96 32 96 38 96 34 100 28 100 32 100 12 338 14 338 8 338 14 337 10 337 8 337 30 98 28 98 34 98 30 106 24 106 28 106 16 201 18 201 12 201 18 211 14 211 12 211 26 115 24 115 30 115 26 152 20 152 24 152 20 175 22 175 16 175 22 175 18 175 16 175 26 145 22 145 20 145 41 3 39 3 36 3 41 164 44 164 39 164 47 108 44 108 41 108 47 90 50 90 44 90 53 88 50 88 47 88 53 110 58 110 50 110 64 111 58 111 53 111 64 104 65 104 58 104 73 104 65 104 64 104 73 143 71 143 65 143 75 143 71 143 73 143 75 118 66 118 71 118 74 119 66 119 75 119 74 153 59 153 66 153 67 153 59 153 74 153 67 148 51 148 59 148 54 147 51 147 67 147 54 156 45 156 51 156 48 158 45 158 54 158 48 173 40 173 45 173 42 358 40 358 48 358 42 335 33 335 40 335 35 181 33 181 42 181 9 2 11 2 7 2 35 179 29 179 33 179 13 305 11 305 9 305 31 177 29 177 35 177 13 274 15 274 11 274 31 168 25 168 29 168 17 282 15 282 13 282 27 169 25 169 31 169 17 284 19 284 15 284 27 188 21 188 25 188 21 266 23 266 17 266 23 267 19 267 17 267 27 189 23 189 21 189 284 20 280 20 275 20 284 367 288 367 280 367 292 28 288 28 284 28 292 39 296 39 288 39 300 38 296 38 292 38 300 58 304 58 296 58 308 384 304 384 300 384 308 383 312 383 304 383 316 381 312 381 308 381 316 377 320 377 312 377 325 378 320 378 316 378 325 379 326 379 320 379 329 388 326 388 325 388 329 382 321 382 326 382 327 371 321 371 329 371 327 372 313 372 321 372 317 372 313 372 327 372 317 364 305 364 313 364 309 363 305 363 317 363 309 347 297 347 305 347 301 79 297 79 309 79 301 80 289 80 297 80 293 80 289 80 301 80 293 84 281 84 289 84 285 328 281 328 293 328 285 333 273 333 281 333 276 332 273 332 285 332 276 252 269 252 273 252 258 9 256 9 254 9 271 183 269 183 276 183 258 13 260 13 256 13 271 109 263 109 269 109 263 74 260 74 258 74 267 154 263 154 271 154 263 77 267 77 260 77 371 230 361 230 343 230 361 317 360 317 343 317 360 174 359 174 343 174 359 280 358 280 343 280 358 142 357 142 343 142 357 313 356 313 343 313 356 217 344 217 343 217 352 226 266 226 265 226 353 294 352 294 265 294 330 233 353 233 265 233 356 310 355 310 344 310 355 273 354 273 344 273 354 341 345 341 344 341 354 306 342 306 345 306 354 289 341 289 342 289 354 198 340 198 341 198 354 157 339 157 340 157 354 295 338 295 339 295 354 182 353 182 330 182 331 329 354 329 330 329 354 180 337 180 338 180 332 162 354 162 331 162 354 269 336 269 337 269 333 281 354 281 332 281 354 308 335 308 336 308 334 318 354 318 333 318 354 140 334 140 335 140 351 209 350 209 266 209 350 251 261 251 266 251 352 190 351 190 266 190 350 221 251 221 261 221 346 235 348 235 251 235 347 192 346 192 251 192 350 264 349 264 251 264 349 268 347 268 251 268 370 203 368 203 369 203 370 321 367 321 368 321 370 187 366 187 367 187 370 324 365 324 366 324 370 178 364 178 365 178 370 312 363 312 364 312 370 315 362 315 363 315 370 231 241 231 362 231 95 296 94 296 76 296 96 166 95 166 76 166 94 170 92 170 76 170 92 186 91 186 76 186 91 248 77 248 76 248 85 246 98 246 76 246 98 299 97 299 76 299 97 286 96 286 76 286 249 94 238 94 241 94 370 228 249 228 241 228 249 249 239 249 238 249 102 293 101 293 85 293 172 223 102 223 85 223 101 316 100 316 85 316 100 139 98 139 85 139 173 232 104 232 172 232 104 297 103 297 172 297 103 176 102 176 172 176 250 237 239 237 249 237 78 265 77 265 91 265 90 146 78 146 91 146 86 112 78 112 90 112 87 116 78 116 86 116 88 227 78 227 87 227 240 236 239 236 250 236 237 239 240 239 250 239 248 220 237 220 250 220 89 253 78 253 88 253 93 256 78 256 89 256 248 225 236 225 237 225 99 241 79 241 93 241 79 243 78 243 93 243 248 222 247 222 236 222 247 247 234 247 236 247 106 259 80 259 99 259 80 244 79 244 99 244 247 218 246 218 234 218 246 261 189 261 234 261 107 204 81 204 106 204 81 212 80 212 106 212 246 238 245 238 189 238 245 242 156 242 189 242 108 214 82 214 107 214 82 260 81 260 107 260 245 250 244 250 156 250 244 216 154 216 156 216 121 224 83 224 108 224 83 240 82 240 108 240 244 219 243 219 154 219 243 215 153 215 154 215 147 276 84 276 121 276 84 213 83 213 121 213 243 234 242 234 153 234 242 208 151 208 153 208 149 206 105 206 147 206 105 245 84 245 147 245 242 262 235 262 151 262 235 229 150 229 151 229 150 258 148 258 149 258 148 257 105 257 149 257 235 254 152 254 150 254 152 210 148 210 150 210</p>
        </triangles>
      </mesh>
    </geometry>
  </library_geometries>
  <library_visual_scenes>
    <visual_scene id="Scene" name="Scene">
      <node id="Object" name="Object" type="NODE">
        <instance_geometry url="#geometry">
          <bind_material>
            <technique_common>
              <instance_material symbol="MATERIAL" target="#mat" />
            </technique_common>
          </bind_material>
        </instance_geometry>
      </node>
    </visual_scene>
  </library_visual_scenes>
  <scene>
    <instance_visual_scene url="#Scene" />
  </scene>
</COLLADA>