<?xml version='1.0' encoding='utf-8'?>
<COLLADA xmlns="http://www.collada.org/2005/11/COLLADASchema" version="1.4.1">
  <asset>
    <contributor>
      <authoring_tool>RM27 reviewed Blender visual export</authoring_tool>
    </contributor>
    <created>2026-10-07T00:00:00Z</created>
    <modified>2026-10-07T00:00:00Z</modified>
    <unit name="meter" meter="1" />
    <up_axis>Z_UP</up_axis>
  </asset>
  <library_effects>
    <effect id="fx">
      <profile_COMMON>
        <technique sid="common">
          <phong>
            <emission>
              <color>0 0 0 1</color>
            </emission>
            <ambient>
              <color>0.250980392 0.215686275 0.192156863 1</color>
            </ambient>
            <diffuse>
              <color>0.250980392 0.215686275 0.192156863 1</color>
            </diffuse>
            <specular>
              <color>0.08 0.08 0.08 1</color>
            </specular>
            <shininess>
              <float>12</float>
            </shininess>
          </phong>
        </technique>
      </profile_COMMON>
    </effect>
  </library_effects>
  <library_materials>
    <material id="mat" name="source_color">
      <instance_effect url="#fx" />
    </material>
  </library_materials>
  <library_geometries>
    <geometry id="geometry" name="geometry">
      <mesh>
        <source id="positions">
          <float_array id="positions-array" count="150">-0.119999997318 -1 0 -0.113570965827 -1 0.010285211727 -0.106262758374 -1 0.0199655089527 -0.0981319472194 -1 0.0289659556001 -0.0892414823174 -1 0.0372168757021 -0.0796601846814 -1 0.0446543991566 -0.0694622173905 -1 0.0512209497392 -0.0587265342474 -1 0.0568656921387 -0.047536239028 -1 0.0615449361503 -0.0359779559076 -1 0.0652224496007 -0.0241411589086 -1 0.0678697749972 -0.0121174808592 -1 0.0694664120674 0 -1 0.070000000298 0.0121174808592 -1 0.0694664120674 0.0241411589086 -1 0.0678697749972 0.0359779559076 -1 0.0652224496007 0.047536239028 -1 0.0615449361503 0.0587265342474 -1 0.0568656921387 0.0694622173905 -1 0.0512209497392 0.0796601846814 -1 0.0446543991566 0.0892414823174 -1 0.0372168757021 0.0981319472194 -1 0.0289659556001 0.106262758374 -1 0.0199655089527 0.113570965827 -1 0.010285211727 0.119999997318 -1 0 -0.119999997318 1 0 -0.113570965827 1 0.010285211727 -0.106262758374 1 0.0199655089527 -0.0981319472194 1 0.0289659556001 -0.0892414823174 1 0.0372168757021 -0.0796601846814 1 0.0446543991566 -0.0694622173905 1 0.0512209497392 -0.0587265342474 1 0.0568656921387 -0.047536239028 1 0.0615449361503 -0.0359779559076 1 0.0652224496007 -0.0241411589086 1 0.0678697749972 -0.0121174808592 1 0.0694664120674 0 1 0.070000000298 0.0121174808592 1 0.0694664120674 0.0241411589086 1 0.0678697749972 0.0359779559076 1 0.0652224496007 0.047536239028 1 0.0615449361503 0.0587265342474 1 0.0568656921387 0.0694622173905 1 0.0512209497392 0.0796601846814 1 0.0446543991566 0.0892414823174 1 0.0372168757021 0.0981319472194 1 0.0289659556001 0.106262758374 1 0.0199655089527 0.113570965827 1 0.010285211727 0.119999997318 1 0</float_array>
          <technique_common>
            <accessor source="#positions-array" count="50" stride="3">
              <param name="X" type="float" />
              <param name="Y" type="float" />
              <param name="Z" type="float" />
            </accessor>
          </technique_common>
        </source>
        <source id="normals">
          <float_array id="normals-array" count="87">-0.84796959 0 0.53004485 -0.79809707 0 0.60252887 -0.74204624 0 0.6703487 -0.6802513 0 0.73297894 -0.61319047 0 0.78993505 -0.54138249 0 0.84077644 -0.46538377 0 0.88510907 -0.38578269 0 0.92258972 -0.30319452 0 0.95292872 -0.21826008 0 0.9758907 -0.13163555 0 0.9912982 -0.04399195 0 0.9990319 0 -1 0 0 -0.99999994 0 0 0 -1 0 0.99999994 0 0 1 0 0.04399195 0 0.9990319 0.13163555 -0 0.9912982 0.21826008 -0 0.9758907 0.30319452 0 0.95292872 0.38578269 0 0.92258972 0.46538377 -0 0.88510907 0.54138249 -0 0.84077644 0.61319047 0 0.78993505 0.6802513 0 0.73297894 0.74204624 -0 0.6703487 0.79809707 0 0.60252887 0.84796959 -0 0.53004485</float_array>
          <technique_common>
            <accessor source="#normals-array" count="29" stride="3">
              <param name="X" type="float" />
              <param name="Y" type="float" />
              <param name="Z" type="float" />
            </accessor>
          </technique_common>
        </source>
        <vertices id="vertices">
          <input semantic="POSITION" source="#positions" />
        </vertices>
        <triangles count="96" material="MATERIAL">
          <input semantic="VERTEX" source="#vertices" offset="0" />
          <input semantic="NORMAL" source="#normals" offset="1" />
          <p>49 14 24 14 0 14 0 14 25 14 49 14 22 26 47 26 46 26 46 26 21 26 22 26 26 0 25 0 0 0 0 0 1 0 26 0 31 5 5 5 6 5 30 5 5 5 31 5 42 22 17 22 18 22 42 22 18 22 43 22 16 21 17 21 42 21 42 21 41 21 16 21 24 28 49 28 23 28 49 28 48 28 23 28 23 27 48 27 47 27 47 27 22 27 23 27 19 23 44 23 43 23 43 23 18 23 19 23 27 2 2 2 3 2 3 2 28 2 27 2 27 1 1 1 2 1 27 1 26 1 1 1 32 6 31 6 7 6 7 6 31 6 6 6 33 8 8 8 9 8 33 8 9 8 34 8 33 7 7 7 8 7 32 7 7 7 33 7 29 4 5 4 30 4 29 4 4 4 5 4 3 3 4 3 29 3 29 3 28 3 3 3 9 9 10 9 35 9 34 9 9 9 35 9 35 10 10 10 11 10 11 10 36 10 35 10 12 17 13 17 37 17 37 17 13 17 38 17 37 11 11 11 12 11 37 11 36 11 11 11 13 18 14 18 39 18 38 18 13 18 39 18 40 16 49 16 25 16 40 15 48 15 49 15 40 16 27 16 28 16 40 16 33 16 34 16 40 16 29 16 30 16 30 16 31 16 40 16 46 16 47 16 40 16 25 16 26 16 40 16 43 16 44 16 40 16 40 16 37 16 38 16 47 16 48 16 40 16 38 16 39 16 40 16 40 15 42 15 43 15 40 16 31 16 32 16 34 15 35 15 40 15 41 16 42 16 40 16 26 16 27 16 40 16 32 16 33 16 40 16 28 16 29 16 40 16 40 15 35 15 36 15 36 16 37 16 40 16 40 16 45 16 46 16 44 15 45 15 40 15 15 20 16 20 40 20 16 20 41 20 40 20 40 19 14 19 15 19 40 19 39 19 14 19 20 12 13 12 12 12 0 12 24 12 20 12 18 12 17 12 20 12 12 12 11 12 20 12 20 12 1 12 0 12 6 12 5 12 20 12 3 12 2 12 20 12 15 12 14 12 20 12 20 12 16 12 15 12 24 13 23 13 20 13 2 12 1 12 20 12 20 12 19 12 18 12 20 12 4 12 3 12 20 13 10 13 9 13 20 12 17 12 16 12 20 12 22 12 21 12 9 12 8 12 20 12 5 12 4 12 20 12 11 12 10 12 20 12 20 12 14 12 13 12 20 12 23 12 22 12 20 12 7 12 6 12 8 12 7 12 20 12 20 25 21 25 46 25 46 25 45 25 20 25 44 24 19 24 20 24 20 24 45 24 44 24</p>
        </triangles>
      </mesh>
    </geometry>
  </library_geometries>
  <library_visual_scenes>
    <visual_scene id="Scene" name="Scene">
      <node id="Object" name="Object" type="NODE">
        <instance_geometry url="#geometry">
          <bind_material>
            <technique_common>
              <instance_material symbol="MATERIAL" target="#mat" />
            </technique_common>
          </bind_material>
        </instance_geometry>
      </node>
    </visual_scene>
  </library_visual_scenes>
  <scene>
    <instance_visual_scene url="#Scene" />
  </scene>
</COLLADA>