<?xml version='1.0' encoding='utf-8'?>
<COLLADA xmlns="http://www.collada.org/2005/11/COLLADASchema" version="1.4.1">
  <asset>
    <contributor>
      <authoring_tool>RM27 reviewed Blender visual export</authoring_tool>
    </contributor>
    <created>2026-10-07T00:00:00Z</created>
    <modified>2026-10-07T00:00:00Z</modified>
    <unit name="meter" meter="1" />
    <up_axis>Z_UP</up_axis>
  </asset>
  <library_effects>
    <effect id="fx">
      <profile_COMMON>
        <technique sid="common">
          <phong>
            <emission>
              <color>0 0 0 1</color>
            </emission>
            <ambient>
              <color>0.298039216 0.298039216 0.298039216 1</color>
            </ambient>
            <diffuse>
              <color>0.298039216 0.298039216 0.298039216 1</color>
            </diffuse>
            <specular>
              <color>0.08 0.08 0.08 1</color>
            </specular>
            <shininess>
              <float>12</float>
            </shininess>
          </phong>
        </technique>
      </profile_COMMON>
    </effect>
  </library_effects>
  <library_materials>
    <material id="mat" name="source_color">
      <instance_effect url="#fx" />
    </material>
  </library_materials>
  <library_geometries>
    <geometry id="geometry" name="geometry">
      <mesh>
        <source id="positions">
          <float_array id="positions-array" count="336">-0.691210448742 -0.444999873638 4.87747193745e-08 -0.691210448742 -0.290000140667 4.87747193745e-08 -0.691210448742 0.289999783039 4.87747193745e-08 -0.691210448742 0.444999992847 4.87747193745e-08 -0.555000007153 -0.620001018047 4.87747193745e-08 -0.555000007153 -0.444999873638 4.87747193745e-08 -0.555000007153 0.444999992847 4.87747193745e-08 -0.555000007153 0.620000183582 4.87747193745e-08 -0.122819595039 -0.620001018047 1.15600025654 -0.122819595039 -0.620001018047 1.77747285366 -0.122819595039 -0.444999873638 1.15600025654 -0.122819595039 -0.444999873638 1.77747285366 -0.122819595039 0.444999992847 1.15600025654 -0.122819595039 0.444999992847 1.77747285366 -0.122819595039 0.620000183582 1.15600025654 -0.122819595039 0.620000183582 1.77747285366 -0.122079543769 -0.620001018047 1.15600025654 -0.122079543769 -0.620001018047 1.77760338783 -0.122079543769 -0.600001037121 1.15600025654 -0.122079543769 -0.600001037121 1.40500032902 -0.122079543769 -0.444999873638 1.40500032902 -0.122079543769 -0.444999873638 1.77760338783 -0.122079543769 0.444999992847 1.40500032902 -0.122079543769 0.444999992847 1.77760338783 -0.122079543769 0.600000202656 1.15600025654 -0.122079543769 0.600000202656 1.40500032902 -0.122079543769 0.620000183582 1.15600025654 -0.122079543769 0.620000183582 1.77760338783 -0.0400797650218 -0.600001037121 0.296000063419 -0.0400797650218 -0.600001037121 1.15600025654 -0.0400797650218 -0.444999873638 0.296000063419 -0.0400797650218 -0.444999873638 1.15600025654 -0.0400797650218 0.444999992847 0.296000063419 -0.0400797650218 0.444999992847 1.15600025654 -0.0400797650218 0.600000202656 0.296000063419 -0.0400797650218 0.600000202656 1.15600025654 -0.0231596753001 -0.600001037121 1.40500032902 -0.0231596753001 -0.444999873638 1.40500032902 -0.0231596753001 0.444999992847 1.40500032902 -0.0231596753001 0.600000202656 1.40500032902 0.0399201586843 -0.620001018047 0.356000006199 0.0399201586843 -0.620001018047 1.39999783039 0.0399201586843 -0.619000136852 0.356000006199 0.0399201586843 -0.619000136852 1.39999783039 0.0399201586843 0.618999779224 0.356000006199 0.0399201586843 0.618999779224 1.39999783039 0.0399201586843 0.620000183582 0.356000006199 0.0399201586843 0.620000183582 1.39999783039 0.214920341969 -0.45500010252 0.296000063419 0.214920341969 -0.45500010252 1.46848750114 0.214920341969 -0.444999873638 0.296000063419 0.214920341969 -0.444999873638 1.46848750114 0.214920341969 0.444999992847 0.296000063419 0.214920341969 0.444999992847 1.46848750114 0.214920341969 0.455000221729 0.296000063419 0.214920341969 0.455000221729 1.46848750114 0.311239540577 -0.45500010252 1.49417304993 0.311239540577 0.455000221729 1.49417304993 0.352150261402 -0.620001018047 1.45505225658 0.352150261402 -0.619000136852 1.45505225658 0.352150261402 0.618999779224 1.45505225658 0.352150261402 0.620000183582 1.45505225658 0.407800018787 -0.290000140667 4.87747193745e-08 0.407800018787 0.289999783039 4.87747193745e-08 0.424880325794 -0.600001037121 1.52447664738 0.424880325794 0.600000202656 1.52447664738 0.463850319386 -0.501174151897 1.53486847878 0.463850319386 0.501172840595 1.53486847878 0.464949905872 -0.592223823071 1.80571424961 0.464949905872 0.592222988605 1.80571424961 0.46583968401 -0.592601954937 1.8059527874 0.46583968401 0.592602074146 1.8059527874 0.488239586353 -0.534492194653 1.80982065201 0.488239586353 0.534491837025 1.80982065201 0.489130318165 -0.534869849682 1.81005930901 0.489130318165 0.534869968891 1.81005930901 0.54780036211 -0.355000197887 4.87747193745e-08 0.54780036211 -0.250000178814 4.87747193745e-08 0.54780036211 0.249999836087 4.87747193745e-08 0.54780036211 0.35499984026 4.87747193745e-08 0.567799866199 -0.444999873638 4.87747193745e-08 0.567799866199 -0.355000197887 4.87747193745e-08 0.567799866199 0.35499984026 4.87747193745e-08 0.567799866199 0.444999992847 4.87747193745e-08 0.630750000477 -0.45500010252 0.296000063419 0.630750000477 0.455000221729 0.296000063419 0.645229637623 -0.620001018047 0.356000006199 0.645229637623 -0.619000136852 0.356000006199 0.645229637623 0.618999779224 0.356000006199 0.645229637623 0.620000183582 0.356000006199 0.748050034046 -0.444999873638 4.87747193745e-08 0.748050034046 0.444999992847 4.87747193745e-08 0.752470314503 -0.600001037121 0.296000063419 0.752470314503 0.600000202656 0.296000063419 0.794209778309 -0.501174151897 0.296000063419 0.794209778309 0.501172840595 0.296000063419 0.923389732838 -0.592223823071 0.0865569636226 0.923389732838 0.592222988605 0.0865569636226 0.924290001392 -0.592601954937 0.0867950245738 0.924290001392 0.592602074146 0.0867950245738 0.934740364552 -0.620001018047 4.87747193745e-08 0.934740364552 0.620000183582 4.87747193745e-08 0.947770416737 -0.534492194653 0.0865569636226 0.947770416737 0.534491837025 0.0865569636226 0.948669731617 -0.534869849682 0.0867950245738 0.948669731617 0.534869968891 0.0867950245738 0.967800438404 -0.250000178814 4.87747193745e-08 0.967800438404 0.249999836087 4.87747193745e-08 0.980880081654 -0.510767161846 4.87747193745e-08 0.980880081654 0.510765850544 4.87747193745e-08 1.02779996395 -0.190000221133 4.87747193745e-08 1.02779996395 0.189999893308 4.87747193745e-08</float_array>
          <technique_common>
            <accessor source="#positions-array" count="112" stride="3">
              <param name="X" type="float" />
              <param name="Y" type="float" />
              <param name="Z" type="float" />
            </accessor>
          </technique_common>
        </source>
        <source id="normals">
          <float_array id="normals-array" count="144">-1 0 0 -0.99999994 0 0 -0.96623522 0 -0.25766167 -0.96623522 0 -0.25766164 -0.89461124 -0.37783659 -0.23855907 -0.89461029 0.37783799 -0.23856002 -0.8946057 -0.37784955 -0.2385588 -0.89460546 0.37785104 -0.2385575 -0.36770532 0.92475814 -0.09805652 -0.3669138 -0.92509508 -0.09784323 -0.36431322 0.92619544 -0.09714974 -0.36352599 -0.92652637 -0.09694201 -0.2711305 -0.95982337 -0.07230027 -0.27112585 -0.95982474 -0.0722997 -0.27112278 0.95982569 -0.07229888 -0.27111831 0.95982707 -0.07229702 -0.24666415 0.03061236 0.9686175 -0.24663848 -0.03059993 0.96862435 -0.24657036 0.03057091 0.96864259 -0.2465568 -0.03056694 0.96864611 0 -1 0 0 -0.99999994 -0 0 0 -1 -0 0 -0.99999994 -0 0 0.99999994 -0 0 1 0 0.99999994 -0 0 1 -0 0.17364767 0 -0.98480785 0.21812682 0.09211292 -0.9715637 0.21820329 -0.09214959 -0.97154295 0.21838865 0.09222862 -0.97149378 0.2184297 -0.09224083 -0.97148353 0.25765812 -2.8e-07 -0.96623611 0.25765812 2.8e-07 -0.96623617 0.25765949 0 -0.96623588 0.25765949 0 -0.96623582 0.25765949 0 -0.96623576 0.2576606 -2.37e-06 -0.96623552 0.2576606 -1.97e-06 -0.96623546 0.25766665 7.44e-06 -0.96623385 0.25766668 1.263e-05 -0.96623385 0.36344159 0.92656213 0.09691647 0.36383551 -0.92639637 0.09702329 0.36619049 0.92540199 0.09765128 0.3665868 -0.92523408 0.09775517 0.99999994 -0 0 1 0 0</float_array>
          <technique_common>
            <accessor source="#normals-array" count="48" stride="3">
              <param name="X" type="float" />
              <param name="Y" type="float" />
              <param name="Z" type="float" />
            </accessor>
          </technique_common>
        </source>
        <vertices id="vertices">
          <input semantic="POSITION" source="#positions" />
        </vertices>
        <triangles count="132" material="MATERIAL">
          <input semantic="VERTEX" source="#vertices" offset="0" />
          <input semantic="NORMAL" source="#normals" offset="1" />
          <p>47 28 61 28 45 28 61 28 60 28 45 28 88 25 46 25 44 25 89 25 46 25 88 25 60 2 89 2 88 2 61 2 89 2 60 2 46 47 47 47 44 47 47 47 45 47 44 47 97 31 105 31 103 31 97 29 99 29 105 29 69 10 99 10 97 10 71 8 99 8 69 8 75 19 71 19 73 19 71 17 69 17 73 17 105 43 75 43 103 43 75 45 73 45 103 45 14 47 15 47 12 47 15 47 13 47 12 47 25 22 38 22 22 22 25 22 39 22 38 22 53 0 55 0 52 0 55 0 54 0 52 0 57 14 95 14 85 14 67 15 95 15 57 15 55 26 57 26 54 26 57 27 85 27 54 27 55 37 53 37 38 37 39 36 55 36 38 36 39 41 57 41 55 41 39 38 65 38 57 38 65 33 67 33 57 33 67 4 93 4 95 4 65 6 93 6 67 6 52 25 34 25 32 25 54 25 34 25 52 25 93 25 34 25 54 25 85 25 93 25 54 25 95 25 93 25 85 25 34 47 33 47 32 47 34 47 35 47 33 47 93 20 35 20 34 20 65 20 35 20 93 20 39 20 25 20 24 20 35 21 39 21 24 21 65 20 39 20 35 20 24 25 14 25 12 25 35 25 24 25 12 25 33 24 35 24 12 24 26 25 14 25 24 25 23 0 25 0 22 0 27 0 25 0 23 0 25 0 26 0 24 0 27 1 26 1 25 1 74 16 68 16 70 16 74 18 72 18 68 18 70 11 96 11 98 11 68 9 96 9 70 9 102 32 104 32 98 32 96 30 102 30 98 30 72 44 74 44 104 44 102 42 72 42 104 42 86 25 42 25 40 25 87 25 42 25 86 25 59 28 58 28 41 28 43 28 59 28 41 28 58 3 87 3 86 3 59 3 87 3 58 3 43 47 41 47 40 47 42 47 43 47 40 47 19 0 18 0 16 0 17 0 19 0 16 0 20 0 19 0 17 0 21 0 20 0 17 0 20 22 36 22 19 22 20 22 37 22 36 22 64 5 94 5 92 5 66 7 94 7 64 7 66 12 84 12 94 12 56 13 84 13 66 13 84 21 49 21 48 21 56 20 49 20 84 20 37 35 51 35 36 35 51 37 49 37 36 37 49 39 64 39 36 39 49 40 56 40 64 40 56 34 66 34 64 34 49 0 51 0 48 0 51 0 50 0 48 0 48 25 30 25 28 25 84 25 48 25 28 25 92 25 84 25 28 25 94 25 84 25 92 25 50 24 30 24 48 24 30 47 29 47 28 47 30 47 31 47 29 47 64 27 92 27 28 27 29 27 64 27 28 27 19 26 29 26 18 26 36 27 64 27 29 27 19 27 36 27 29 27 18 25 10 25 8 25 16 25 18 25 8 25 29 24 31 24 18 24 31 25 10 25 18 25 11 46 9 46 8 46 10 46 11 46 8 46 5 22 76 22 4 22 76 22 80 22 4 22 80 22 100 22 4 22 80 22 90 22 100 22 90 22 108 22 100 22 1 23 5 23 0 23 1 22 62 22 5 22 62 22 76 22 5 22 76 22 81 22 80 22 62 23 77 23 76 23 63 22 78 22 62 22 78 22 77 22 62 22 78 22 107 22 77 22 107 22 106 22 77 22 107 22 110 22 106 22 107 22 111 22 110 22 63 23 79 23 78 23 6 22 63 22 2 22 3 22 6 22 2 22 6 22 79 22 63 22 83 22 82 22 79 22 7 22 83 22 79 22 6 22 7 22 79 22 101 22 91 22 83 22 7 22 101 22 83 22 101 22 109 22 91 22</p>
        </triangles>
      </mesh>
    </geometry>
  </library_geometries>
  <library_visual_scenes>
    <visual_scene id="Scene" name="Scene">
      <node id="Object" name="Object" type="NODE">
        <instance_geometry url="#geometry">
          <bind_material>
            <technique_common>
              <instance_material symbol="MATERIAL" target="#mat" />
            </technique_common>
          </bind_material>
        </instance_geometry>
      </node>
    </visual_scene>
  </library_visual_scenes>
  <scene>
    <instance_visual_scene url="#Scene" />
  </scene>
</COLLADA>