<?xml version='1.0' encoding='utf-8'?>
<COLLADA xmlns="http://www.collada.org/2005/11/COLLADASchema" version="1.4.1">
  <asset>
    <contributor>
      <authoring_tool>RM27 reviewed Blender visual export</authoring_tool>
    </contributor>
    <created>2026-10-07T00:00:00Z</created>
    <modified>2026-10-07T00:00:00Z</modified>
    <unit name="meter" meter="1" />
    <up_axis>Z_UP</up_axis>
  </asset>
  <library_effects>
    <effect id="fx">
      <profile_COMMON>
        <technique sid="common">
          <phong>
            <emission>
              <color>0 0 0 1</color>
            </emission>
            <ambient>
              <color>0 1 0 1</color>
            </ambient>
            <diffuse>
              <color>0 1 0 1</color>
            </diffuse>
            <specular>
              <color>0.08 0.08 0.08 1</color>
            </specular>
            <shininess>
              <float>12</float>
            </shininess>
          </phong>
        </technique>
      </profile_COMMON>
    </effect>
  </library_effects>
  <library_materials>
    <material id="mat" name="source_color">
      <instance_effect url="#fx" />
    </material>
  </library_materials>
  <library_geometries>
    <geometry id="geometry" name="geometry">
      <mesh>
        <source id="positions">
          <float_array id="positions-array" count="414">-2.89984321594 -2.23277306557 0.103156089783 -2.90457296371 -2.23967194557 0.0998282507062 -2.90333390236 -2.24010491371 0.0950369313359 -2.89806413651 -2.23492646217 0.0918825790286 -2.90209388733 -2.23967194557 0.0902455896139 -2.90089297295 -2.23838591576 0.0855998322368 -2.90577411652 -2.23838591576 0.104474000633 -2.89976596832 -2.23628592491 0.0812408104539 -2.90690088272 -2.23628592491 0.108833000064 -2.89529132843 -2.22961688042 0.0811629518867 -2.89874696732 -2.23343706131 0.0773009881377 -2.9034280777 -2.22849750519 0.112210474908 -2.90791988373 -2.23343706131 0.112772896886 -2.89514708519 -2.22964525223 0.0935864821076 -2.89786696434 -2.22992396355 0.0739000588655 -2.9087998867 -2.22992396355 0.116173796356 -2.89200735092 -2.2231388092 0.0868608057499 -2.89825701714 -2.22763729095 0.105610303581 -2.89375662804 -2.22415804863 0.098306030035 -2.89715409279 -2.22585511208 0.0711413696408 -2.9047203064 -2.21995329857 0.11761983484 -2.90951299667 -2.22585511208 0.118932500482 -2.9000647068 -2.21963644028 0.112942099571 -2.89455866814 -2.21815729141 0.104690589011 -2.89355349541 -2.21947860718 0.074448056519 -2.89662790298 -2.22135210037 0.0691087320447 -2.91003894806 -2.22135210037 0.120965100825 -2.89080762863 -2.21520233154 0.0934376865625 -2.89166808128 -2.21764326096 0.0801354199648 -2.8963060379 -2.21655392647 0.0678639113903 -2.91036105156 -2.21655392647 0.122209899127 -2.89680194855 -2.21299147606 0.109645530581 -2.89052605629 -2.21241426468 0.0853775069118 -2.89268541336 -2.21051716805 0.101512260735 -2.89619803429 -2.21160411835 0.0674447119236 -2.90517950058 -2.20971059799 0.118980698287 -2.91046905518 -2.21160411835 0.122629098594 -2.89331865311 -2.20723628998 0.0735379010439 -2.90055179596 -2.20867323875 0.114485174417 -2.89150738716 -2.20655822754 0.0798544287682 -2.8963060379 -2.20665597916 0.0678639113903 -2.89189887047 -2.20530152321 0.0971301719546 -2.91036105156 -2.20665597916 0.122209899127 -2.89152169228 -2.20185017586 0.0900933220983 -2.89800930023 -2.20324730873 0.110077925026 -2.89662790298 -2.20185709 0.0691087320447 -2.90433478355 -2.19995999336 0.116131328046 -2.89478445053 -2.19986367226 0.102001555264 -2.91003894806 -2.20185709 0.120965100825 -2.89335584641 -2.19638419151 0.0869978368282 -2.89441990852 -2.19785761833 0.0773779377341 -2.89715409279 -2.19735503197 0.0711413696408 -2.89836812019 -2.19583106041 0.106042660773 -2.90951299667 -2.19735503197 0.118932500482 -2.896078825 -2.19323825836 0.0971862897277 -2.89624214172 -2.19093132019 0.0848451182246 -2.89786696434 -2.1932849884 0.0739000588655 -2.90218281746 -2.19118475914 0.107813946903 -2.9087998867 -2.1932849884 0.116173796356 -2.89874696732 -2.18977189064 0.0773009881377 -2.89922213554 -2.18788003922 0.0963639914989 -2.89976596832 -2.18692302704 0.0812408104539 -2.90791988373 -2.18977189064 0.112772896886 -2.90089297295 -2.18482303619 0.0855998322368 -2.90690088272 -2.18692302704 0.108833000064 -2.90209388733 -2.18353796005 0.0902455896139 -2.90577411652 -2.18482303619 0.104474000633 -2.90333390236 -2.18310499191 0.0950369313359 -2.90457296371 -2.18353796005 0.0998282507062 2.90109610558 5.46674776077 0.0963645651937 2.90423703194 5.46259498596 0.0902455896139 2.90550088882 5.46224117279 0.0950369313359 2.90670990944 5.46274995804 0.0998282507062 2.89853239059 5.46874666214 0.0865328907967 2.90295696259 5.46380186081 0.0855998322368 2.90782809258 5.46410894394 0.104474000633 2.90169906616 5.46582698822 0.0812408104539 2.90353298187 5.46920442581 0.105941943824 2.90882110596 5.46627616882 0.108833000064 2.8965446949 5.4733042717 0.0799737498164 2.90050292015 5.46860599518 0.0773009881377 2.90965890884 5.46918392181 0.112772896886 2.8951728344 5.47407531738 0.08826071769 2.89794206619 5.47201681137 0.0987920463085 2.89940500259 5.47205686569 0.0739000588655 2.90506792068 5.47567939758 0.113865591586 2.91031599045 5.47274494171 0.116173796356 2.90027570724 5.47654247284 0.108557470143 2.89591312408 5.47843074799 0.10200124979 2.89288282394 5.47949504852 0.0908436626196 2.89389967918 5.47973251343 0.0783797353506 2.89843702316 5.47607421875 0.0711413696408 2.91077208519 5.47685098648 0.118932500482 2.8976290226 5.48053407669 0.0691087320447 2.91101288795 5.48137712479 0.120965100825 2.89316439629 5.48358106613 0.0987365245819 2.89922332764 5.48489093781 0.111701361835 2.90575361252 5.48482847214 0.118314363062 2.89133834839 5.48869228363 0.0944421589375 2.89362812042 5.48979902267 0.073145493865 2.89700603485 5.48530292511 0.0678639113903 2.89066052437 5.49169921875 0.0856591835618 2.89187312126 5.48803663254 0.0792636051774 2.91103196144 5.4861869812 0.122209899127 2.89363455772 5.4928984642 0.103254668415 2.89658594131 5.49023485184 0.0674447119236 2.89646220207 5.49481058121 0.10880754143 2.91082906723 5.49113321304 0.122629098594 2.90277004242 5.49364566803 0.116780206561 2.89134573936 5.49829959869 0.0928156897426 2.8963830471 5.49518108368 0.0678639113903 2.91040992737 5.49606513977 0.122209899127 2.89186835289 5.50024557114 0.0822212845087 2.89363098145 5.49993419647 0.0752076879144 2.89868021011 5.5035905838 0.109319344163 2.89479780197 5.50563621521 0.0999683141708 2.90978598595 5.50083398819 0.120965100825 2.90435242653 5.50092840195 0.11682844162 2.89640188217 5.49998998642 0.0691087320447 2.90897893906 5.5052947998 0.118932500482 2.90273833275 5.50755023956 0.112208373845 2.89664411545 5.5045170784 0.0711413696408 2.89368915558 5.50725507736 0.0906077772379 2.89437150955 5.50677204132 0.0797321349382 2.90801095963 5.50931119919 0.116173796356 2.90009880066 5.51288318634 0.103738620877 2.89709997177 5.50862312317 0.0739000588655 2.89574861526 5.51164531708 0.0862326323986 2.90691208839 5.5127620697 0.112772896886 2.89759635925 5.51395797729 0.0939216166735 2.8977560997 5.51218509674 0.0773009881377 2.90571594238 5.51554203033 0.108833000064 2.89859390259 5.51509189606 0.0812408104539 2.90445804596 5.51756620407 0.104474000633 2.89958691597 5.51725912094 0.0855998322368 2.90317797661 5.51877307892 0.0998282507062 2.90070509911 5.51861810684 0.0902455896139 2.90191507339 5.51912689209 0.0950369313359</float_array>
          <technique_common>
            <accessor source="#positions-array" count="138" stride="3">
              <param name="X" type="float" />
              <param name="Y" type="float" />
              <param name="Z" type="float" />
            </accessor>
          </technique_common>
        </source>
        <source id="normals">
          <float_array id="normals-array" count="600">-0.99653167 0.01463485 0.08191746 -0.99119568 0.13002072 -0.02501278 -0.98493338 -0.17208721 0.01709631 -0.97536927 0.05157421 -0.21446453 -0.97353703 -0.21273722 -0.08347803 -0.97144699 -0.2315862 -0.05156204 -0.97143191 0.04033945 0.23386484 -0.96808773 0.05023019 -0.2455259 -0.96750355 0.25285444 -0.00128206 -0.96418905 -0.21991639 0.14824422 -0.96397984 0.06226681 -0.25858393 -0.9515506 -0.09396005 0.2927852 -0.94425899 0.28689328 0.16145334 -0.94334358 0.16100463 0.29013854 -0.94022137 0.33248094 -0.07375785 -0.93264192 0.26384336 -0.2461013 -0.93151659 -0.35416126 -0.08274425 -0.92928153 0.36180735 -0.074374 -0.92727995 -0.19209434 -0.32132801 -0.91507941 0.08065423 -0.39512604 -0.91163754 -0.35080719 0.21412972 -0.90867287 -0.4019179 -0.11302993 -0.90531975 0.10975622 -0.41030434 -0.90007156 0.18409292 0.39494422 -0.89824688 -0.38770428 0.2069734 -0.89780873 -0.22198574 -0.38034421 -0.89684176 0.30752096 -0.31797123 -0.89580345 -0.21811007 -0.38725203 -0.89441097 0.31356424 -0.31891447 -0.88852823 0.2004008 0.41274336 -0.88771451 0.00260437 -0.46038696 -0.88734013 0.22755212 -0.4010582 -0.88716245 -0.16433117 0.43120551 -0.88591421 0.42794564 0.17893746 -0.8844406 -0.44324991 0.1459254 -0.88052249 -0.19650578 0.43135315 -0.8782227 -0.11427807 -0.46439791 -0.87603414 0.47759005 0.06687272 -0.87163323 -0.10280696 0.47925597 -0.86795861 0.46778339 -0.16681288 -0.86609644 0.41933307 -0.27209717 -0.8660453 -0.32862869 -0.37678739 -0.86483639 0.47390711 -0.16574107 -0.85565299 -0.50888634 -0.0943001 -0.8488431 -0.42666847 -0.31212053 -0.84849256 -0.42290604 -0.31813642 -0.83874691 0.4752228 0.26583266 -0.83403856 -0.28339455 0.47335744 -0.82934093 -0.54759812 0.11104043 -0.82688946 0.55546862 -0.08779794 -0.82606763 -0.55412602 0.10274533 -0.82372582 0.56631529 0.02761609 -0.82174993 0.38030699 0.42437425 -0.82028252 0.57115227 0.03035849 -0.80659544 -0.52476412 -0.27207789 -0.79995185 -0.57846981 -0.15952983 -0.79862022 -0.5785892 -0.16565138 -0.79706782 -0.45232925 0.40010136 -0.78640056 -0.03905025 0.61648136 -0.78101736 0.57307792 0.24818045 -0.77450663 0.61909539 0.12984808 -0.77028388 -0.48816842 0.41031 -0.76788801 0.5855155 0.25984523 -0.76335162 0.1563015 0.62678879 -0.7606014 0.41563016 0.49873537 -0.75929582 0.16080256 0.63056517 -0.75051647 -0.65500343 -0.08772461 -0.75015563 -0.65837127 0.0617561 -0.74201 -0.66969585 0.03047624 -0.73068899 -0.5931347 0.33806035 -0.7285338 -0.31993526 0.6057061 -0.71950859 0.27080441 0.63950944 -0.71168268 0.60692704 0.35376164 -0.70713073 -0.11797446 0.69717145 -0.70263922 0.48262128 0.5228526 -0.68981272 -0.71233791 0.12935625 -0.68513423 -0.27636418 0.67395401 -0.6847713 0.56518406 0.46006018 -0.68354994 -0.49470955 0.53667682 -0.68038625 0.48539773 0.54905701 -0.67727011 -0.64606559 0.35200042 -0.66859162 -0.66146088 0.33978638 -0.65739417 -0.71374071 0.24167536 -0.63528872 0.33172399 0.69740057 -0.63091487 0.33018106 0.70208746 -0.62955266 0.43438527 0.64418387 -0.62814122 -0.53845924 0.56169415 -0.61410624 -0.56696391 0.5490222 -0.60918659 -0.64600807 0.45996228 -0.60106111 0.12730886 0.78899813 -0.59961593 0.12504849 0.7904579 -0.59913564 -0.06387053 0.79809594 -0.59776801 -0.30173674 0.74271691 -0.58504373 -0.3187665 0.74572903 -0.58432776 0.24657528 0.77315044 -0.58327883 0.019451 0.81203908 -0.57575363 -0.09246747 0.81237763 -0.56901318 -0.51061308 0.64459157 -0.55216336 -0.42183474 0.71914607 -0.54562491 -0.20793724 0.81182241 0.55256563 0.05837605 0.83142251 0.55662328 -0.17341268 0.81246454 0.56291109 -0.28452796 0.77599937 0.56292391 0.28457475 0.77597284 0.58042234 -0.05613569 0.81237841 0.58130455 0.38428819 0.71722215 0.5938592 0.17785156 0.78466558 0.60018665 -0.07884604 0.7959643 0.60094357 -0.47311854 0.64422482 0.60626125 0.16130583 0.77873468 0.61432576 -0.35365433 0.70535976 0.61903429 0.55165339 0.55899477 0.62929302 -0.35755536 0.69003224 0.64666766 0.44070607 0.62257445 0.64783913 0.60721546 0.45999321 0.64855039 -0.52725399 0.54898602 0.65132934 0.43172288 0.62400746 0.66283798 -0.59307867 0.45705977 0.67050099 0.15399542 0.72575057 0.67654449 -0.5254181 0.51596826 0.68322313 -0.63893163 0.35351461 0.68351334 -0.31385207 0.65901929 0.7010116 0.67086738 0.24190846 0.70261168 -0.06267446 0.70880806 0.70945156 -0.0672216 0.70154095 0.71654838 0.60228777 0.35186347 0.72019464 0.59440011 0.35778245 0.72375768 0.37286159 0.58064544 0.72486669 -0.46622694 0.5071497 0.72881579 0.19227226 0.65715975 0.73332083 0.66744101 0.12947275 0.73334867 -0.66740823 0.12948294 0.73618859 0.35059702 0.57888532 0.73918408 -0.62627977 0.24775086 0.74933845 -0.6185503 0.23640521 0.75937742 -0.65044761 0.0162411 0.76237446 -0.33508345 0.55362821 0.76419473 -0.05648049 0.64250797 0.78327715 0.51331532 0.35069114 0.78475195 0.51003903 0.35217124 0.78692877 0.61035812 -0.09058779 0.79735261 0.60221767 0.03953211 0.80017757 0.59778601 0.04866024 0.81485659 0.54894781 -0.18618546 0.81487948 -0.54892218 -0.18616103 0.81867284 -0.52630818 0.22972739 0.82003987 0.07643868 0.56717885 0.8222121 -0.27227011 0.49983621 0.82294434 -0.5650053 -0.05942708 0.82850444 -0.55660725 -0.06138908 0.83476228 -0.14657709 0.53074205 0.83488584 -0.47626022 -0.2759383 0.84104121 0.28938487 0.45706236 0.84581912 0.41175783 0.3391836 0.84896505 -0.4172006 0.3243486 0.8514483 -0.44893184 0.27110177 0.8549158 0.45513719 -0.2489358 0.85564995 0.51275033 0.0703579 0.85672855 0.38368198 -0.34468001 0.8618086 0.45914337 -0.21557634 0.86441344 0.4941566 0.0927292 0.86923701 -0.30106196 0.39215907 0.8707394 -0.28320986 -0.40200141 0.87682754 -0.48067284 -0.01127812 0.8777526 0.08785797 0.47098979 0.87854284 0.17428696 -0.44473201 0.8785494 -0.17430784 -0.44471064 0.88485169 -0.35753196 -0.29867762 0.88578933 0.05833916 -0.46040604 0.88926977 -0.34857246 -0.29613575 0.8926248 0.25657758 -0.37066028 0.89589399 -0.44412121 -0.01141601 0.89597666 -0.03552519 0.44267794 0.89715981 0.41086122 -0.16216464 0.89844757 0.26356256 -0.35117915 0.89859235 0.19481727 0.39316392 0.90532094 0.11384554 0.40918586 0.91245711 -0.05425639 -0.40555903 0.91577554 -0.04722375 -0.39890468 0.91625047 0.37973231 0.12762663 0.92444283 0.32525712 0.19903114 0.92760384 -0.31083578 -0.2072008 0.92848527 0.31132621 0.20246264 0.92912805 0.22821724 -0.29092625 0.93375689 -0.29463783 -0.20319086 0.93558866 -0.33445051 0.11321042 0.94797534 -0.16375425 0.27299672 0.94979626 0.27600774 -0.14733204 0.95110238 -0.11373127 0.28717494 0.95226723 -0.04075896 -0.30253232 0.95961982 0.2560823 -0.11641113 0.96056736 -0.24852587 0.12468004 0.9616425 -0.02087358 -0.27351052 0.97720677 0.02928926 0.21025985 0.98070508 -0.01914845 -0.19455279 0.98685712 -0.14591165 -0.0694464 0.99025506 -0.13862337 -0.01335737 0.99177116 0.1168352 -0.05233756 0.99302328 0.07574297 0.09037595 0.99599212 0.06785921 0.05826667</float_array>
          <technique_common>
            <accessor source="#normals-array" count="200" stride="3">
              <param name="X" type="float" />
              <param name="Y" type="float" />
              <param name="Z" type="float" />
            </accessor>
          </technique_common>
        </source>
        <vertices id="vertices">
          <input semantic="POSITION" source="#positions" />
        </vertices>
        <triangles count="200" material="MATERIAL">
          <input semantic="VERTEX" source="#vertices" offset="0" />
          <input semantic="NORMAL" source="#normals" offset="1" />
          <p>0 133 1 133 2 133 3 134 0 134 2 134 4 131 3 131 2 131 5 135 3 135 4 135 0 120 6 120 1 120 7 148 3 148 5 148 0 117 8 117 6 117 9 149 3 149 7 149 10 144 9 144 7 144 11 115 12 115 8 115 0 119 11 119 8 119 13 145 0 145 3 145 9 163 13 163 3 163 14 151 9 151 10 151 11 108 15 108 12 108 16 171 13 171 9 171 17 128 11 128 0 128 18 155 0 155 13 155 19 167 9 167 14 167 20 112 21 112 15 112 11 110 20 110 15 110 17 136 22 136 11 136 18 154 17 154 0 154 16 185 18 185 13 185 18 161 23 161 17 161 24 184 16 184 9 184 19 169 24 169 9 169 22 121 20 121 11 121 25 162 24 162 19 162 20 102 26 102 21 102 23 147 22 147 17 147 27 186 23 186 18 186 28 181 16 181 24 181 16 191 27 191 18 191 29 166 24 166 25 166 20 101 30 101 26 101 23 150 31 150 22 150 32 195 16 195 28 195 32 196 27 196 16 196 33 188 23 188 27 188 34 177 24 177 29 177 20 107 35 107 30 107 35 104 36 104 30 104 37 189 28 189 24 189 34 178 37 178 24 178 22 124 38 124 20 124 38 123 35 123 20 123 39 194 32 194 28 194 37 192 39 192 28 192 31 137 38 137 22 137 23 172 33 172 31 172 40 168 37 168 34 168 27 193 41 193 33 193 35 100 42 100 36 100 32 199 43 199 27 199 43 198 41 198 27 198 44 164 31 164 33 164 39 197 43 197 32 197 44 146 38 146 31 146 41 175 44 175 33 175 40 165 45 165 37 165 38 118 46 118 35 118 46 106 42 106 35 106 47 176 44 176 41 176 46 109 48 109 42 109 43 182 47 182 41 182 39 190 49 190 43 190 37 183 50 183 39 183 44 129 46 129 38 129 45 174 51 174 37 174 51 170 50 170 37 170 50 187 49 187 39 187 52 152 44 152 47 152 46 103 53 103 48 103 49 179 54 179 43 179 50 173 55 173 49 173 52 132 46 132 44 132 51 158 56 158 50 158 54 180 47 180 43 180 54 153 52 153 47 153 57 127 46 127 52 127 46 105 58 105 53 105 56 156 59 156 50 156 59 159 55 159 50 159 57 116 58 116 46 116 55 160 60 160 49 160 60 157 54 157 49 157 54 139 57 139 52 139 60 138 57 138 54 138 59 143 61 143 55 143 62 113 58 113 57 113 61 140 63 140 55 140 64 111 62 111 57 111 63 141 65 141 55 141 65 142 60 142 55 142 60 126 66 126 57 126 66 114 64 114 57 114 65 130 67 130 60 130 68 125 66 125 60 125 67 122 68 122 60 122 69 75 70 75 71 75 72 82 69 82 71 82 73 68 74 68 70 68 69 67 73 67 70 67 75 80 69 80 72 80 73 66 76 66 74 66 77 81 69 81 75 81 78 88 77 88 75 88 79 56 80 56 76 56 73 55 79 55 76 55 81 87 77 87 78 87 82 50 73 50 69 50 83 48 82 48 69 48 77 69 83 69 69 69 79 54 84 54 80 54 85 86 77 86 81 86 86 97 85 97 81 97 82 43 79 43 73 43 87 61 83 61 77 61 85 78 87 78 77 78 88 24 89 24 83 24 90 45 91 45 84 45 79 44 90 44 84 44 82 21 90 21 79 21 89 34 82 34 83 34 92 98 85 98 86 98 87 57 88 57 83 57 89 16 90 16 82 16 90 41 93 41 91 41 94 92 85 92 92 92 95 20 89 20 88 20 96 47 88 47 87 47 85 70 96 70 87 70 97 76 96 76 85 76 94 93 97 93 85 93 95 9 98 9 89 9 99 27 100 27 93 27 90 25 99 25 93 25 96 35 95 35 88 35 101 5 102 5 90 5 89 4 101 4 90 4 103 99 97 99 94 99 102 18 99 18 90 18 98 2 101 2 89 2 104 32 95 32 96 32 99 36 105 36 100 36 106 38 104 38 96 38 104 11 98 11 95 11 107 96 97 96 103 96 108 73 96 73 97 73 107 91 108 91 97 91 108 58 106 58 96 58 104 6 109 6 98 6 99 30 110 30 105 30 107 95 111 95 108 95 109 0 101 0 98 0 101 3 112 3 102 3 112 10 99 10 102 10 112 7 113 7 99 7 113 19 110 19 99 19 108 63 114 63 106 63 106 23 115 23 104 23 111 89 116 89 108 89 116 90 117 90 108 90 113 22 118 22 110 22 115 13 109 13 104 13 117 65 114 65 108 65 109 1 112 1 101 1 116 94 119 94 117 94 117 71 120 71 114 71 114 29 115 29 106 29 113 31 121 31 118 31 122 8 112 8 109 8 123 15 113 15 112 15 123 26 121 26 113 26 115 12 122 12 109 12 119 84 124 84 117 84 124 83 120 83 117 83 122 14 123 14 112 14 120 64 125 64 114 64 123 28 126 28 121 28 127 17 123 17 122 17 124 85 128 85 120 85 125 52 115 52 114 52 115 33 129 33 122 33 129 37 127 37 122 37 125 46 129 46 115 46 127 39 130 39 123 39 130 40 126 40 123 40 128 79 131 79 120 79 131 74 125 74 120 74 132 42 130 42 127 42 131 77 133 77 125 77 129 51 134 51 127 51 134 49 132 49 127 49 133 72 135 72 125 72 136 53 134 53 129 53 135 59 137 59 125 59 137 62 129 62 125 62 137 60 136 60 129 60</p>
        </triangles>
      </mesh>
    </geometry>
  </library_geometries>
  <library_visual_scenes>
    <visual_scene id="Scene" name="Scene">
      <node id="Object" name="Object" type="NODE">
        <instance_geometry url="#geometry">
          <bind_material>
            <technique_common>
              <instance_material symbol="MATERIAL" target="#mat" />
            </technique_common>
          </bind_material>
        </instance_geometry>
      </node>
    </visual_scene>
  </library_visual_scenes>
  <scene>
    <instance_visual_scene url="#Scene" />
  </scene>
</COLLADA>